<svg id="Calque_1" data-name="Calque 1" xmlns="http://www.w3.org/2000/svg" viewBox="0 0 1000 1000"><defs><style>.cls-1{fill:#e5243b;}.cls-2{fill:#fff;}</style></defs><rect class="cls-1" x="-8.12" y="-8.12" width="1016.24" height="1016.24"/><circle class="cls-2" cx="173.34" cy="551.52" r="36.38"/><path class="cls-2" d="M918.63,629.08v92.33a10.55,10.55,0,0,1-21.1.23l-1.67-68.72a10.64,10.64,0,0,0-8.56-10.1v94.76h-4.81v139.1a14.63,14.63,0,1,1-29.25,0V737.58H839.69v139.1a14.63,14.63,0,1,1-29.25,0V737.58h-6.07V643.77a10.33,10.33,0,0,0-5.88,9.39v68.25A10.56,10.56,0,0,1,788,732h-1.85a10.52,10.52,0,0,1-10.52-10.4l-1.37-88.29a10.56,10.56,0,0,1,2.32-6.77l20-25.09a10.57,10.57,0,0,1,8.44-3.92l85.25,1.42a10.76,10.76,0,0,1,7.6,3.39l18,19.62A10.56,10.56,0,0,1,918.63,629.08Z"/><circle class="cls-2" cx="846.41" cy="551.52" r="36.38"/><circle class="cls-2" cx="298.28" cy="713.51" r="27"/><circle class="cls-2" cx="430.14" cy="572.98" r="27"/><path class="cls-2" d="M511.83,732.64l-5.77,2.2a8.15,8.15,0,0,1-10.34-4.28L459.81,650,490.37,752.2a25.66,25.66,0,0,1-24.14,33v92.74a12.48,12.48,0,0,1-12.48,12.49h-3.21a12.48,12.48,0,0,1-12.48-12.49V785.19H421.29v90.07a12.48,12.48,0,0,1-12.48,12.48H406a12.48,12.48,0,0,1-12.48-12.48V785.13a25.65,25.65,0,0,1-23.66-32.63l26-91.55-25.8,62.95a8.06,8.06,0,0,1-8.92,4.88,6.39,6.39,0,0,1-.71,1.07L327,769.2a8.16,8.16,0,0,0-2,5.23l-.3,23.43a6.94,6.94,0,0,0,.71,3.44l10.82,24.2a8.22,8.22,0,0,1-7.55,11.59h-5.82V882a9.28,9.28,0,1,1-18.55,0V837.09H291.81V882a9.27,9.27,0,1,1-18.54,0V837.09H267.8a8.24,8.24,0,0,1-7.61-11.41l11-26.28a7.47,7.47,0,0,0,.65-3.21V776.63a8.14,8.14,0,0,0-1.9-5.29l-33.35-39.53A7.36,7.36,0,0,1,235,732a10.54,10.54,0,0,1-10.52-10.35l-1.67-68.72a10.64,10.64,0,0,0-8.56-10.1v94.76h-4.81v139.1a14.63,14.63,0,1,1-29.25,0V737.58H166.62v139.1a14.63,14.63,0,1,1-29.25,0V737.58H131.3V643.77a10.33,10.33,0,0,0-5.88,9.39v68.25a10.51,10.51,0,0,1-9.87,10.52L89.87,888.46,81.37,887l25.8-156.88a10.4,10.4,0,0,1-4.64-8.56l-1.37-88.29a10.56,10.56,0,0,1,2.32-6.77l20-25.09a10.57,10.57,0,0,1,8.44-3.92l85.25,1.42a10.8,10.8,0,0,1,7.61,3.39l18,19.62a10.56,10.56,0,0,1,2.79,7.13v89.29a6.54,6.54,0,0,1,2.14,1.25l37.1,31.27a8.18,8.18,0,0,0,5.53,2l20.63-.53a8.09,8.09,0,0,0,5.64-2.5l31.09-31.62a8.14,8.14,0,0,1,4.23-2.26l37.39-94.64a8.11,8.11,0,0,1,7.55-5.18h67.83a8.13,8.13,0,0,1,7.43,4.88l44.23,100.76A8.2,8.2,0,0,1,511.83,732.64Z"/><circle class="cls-2" cx="606.22" cy="572.98" r="27"/><path class="cls-2" d="M687.91,732.64l-5.76,2.2a8.17,8.17,0,0,1-10.35-4.28l-36-80.85L666.45,752.2a25.65,25.65,0,0,1-24.13,33v92.74a12.49,12.49,0,0,1-12.49,12.49h-3.21a12.49,12.49,0,0,1-12.48-12.49V785.19H597.38v90.07a12.49,12.49,0,0,1-12.49,12.48H582a12.49,12.49,0,0,1-12.49-12.48V785.13a25.66,25.66,0,0,1-23.66-32.63l26-91.55-25.8,62.95A8.12,8.12,0,0,1,535,728.06l-3.21-1.6a8.11,8.11,0,0,1-3.92-10.23l37.51-94.93a8.11,8.11,0,0,1,7.55-5.18h67.83A8.12,8.12,0,0,1,648.2,621l44.23,100.76A8.19,8.19,0,0,1,687.91,732.64Z"/><path class="cls-2" d="M786.12,817.06l-1.07.47a8.12,8.12,0,0,1-10.88-3.92L755.8,774.43a8,8,0,0,0-2.31-2.91l1.72,55.76a6.67,6.67,0,0,1,.24,1.91v53.44a8.74,8.74,0,0,1-8.74,8.68h-2.38a8.69,8.69,0,0,1-8.68-8.68V834.71H719.07v47.92a8.74,8.74,0,0,1-8.74,8.68H708a8.68,8.68,0,0,1-8.68-8.68V783.41l-15.58,34.84a8.18,8.18,0,0,1-9.75,4.52,8.3,8.3,0,0,1-5.82-7.85,8.55,8.55,0,0,1,.83-3.57l30-61.71a8.17,8.17,0,0,1,7.31-4.57h44.95a8.1,8.1,0,0,1,7.13,4.22l31.39,56.41A8.17,8.17,0,0,1,786.12,817.06Z"/><circle class="cls-2" cx="727.34" cy="708.16" r="25.15"/><path class="cls-2" d="M150,90.53V306.86H184v41H73.11v-41h34.06V131.54H73.11v-41Z"/><path class="cls-2" d="M306,112.35h40.74v16.57H323.25v27.13h20.16v16.63H323.25V199.8h23.44v16.58H306Zm38.87-11.64-15.07,9.77H314.89l16.52-15.23h13.41Z"/><path class="cls-2" d="M355,112.35h24q20.88,0,20.89,22.5v59.08q0,22.4-21.78,22.45H355Zm17.31,16.57V199.8h5.14q5.08,0,5.09-5.87V134.85q0-5.92-5.09-5.93Z"/><path class="cls-2" d="M456.64,195.54q0,22.46-22.45,22.5t-22.39-22.5V112.35h17.3v83.19c0,3.92,1.7,5.87,5.09,5.87s5.15-1.95,5.15-5.87V112.35h17.3Z"/><path class="cls-2" d="M513.44,195.54Q513.44,218,491,218t-22.4-22.5V133.19q0-22.45,22.4-22.45t22.45,22.45v14.75H496.13V133.19q0-5.82-5.09-5.88h-.1q-5,0-5,5.88v62.35c0,3.92,1.69,5.87,5.09,5.87s5.14-1.95,5.14-5.87V180.78h17.31Z"/><path class="cls-2" d="M569.14,179.07l4.94,37.31H556.62l-2.86-21.62H541l-2.91,21.62H520.71l4.94-37.16,10.55-66.87h22.44Zm-17.62-.94-4.15-31.49-4.16,31.49Z"/><path class="cls-2" d="M622,112.35v16.57H608.21v87.46h-17.3V128.92H577.14V112.35Z"/><path class="cls-2" d="M631.6,112.35h17.3v104H631.6Z"/><path class="cls-2" d="M706.48,195.54Q706.48,218,684,218t-22.4-22.5V133.19q0-22.45,22.4-22.45t22.45,22.45Zm-17.31-62.35q0-5.82-5.09-5.88H684q-5,0-5,5.88v62.35c0,3.92,1.69,5.87,5.09,5.87s5.14-1.95,5.14-5.87Z"/><path class="cls-2" d="M719,112.35H736l11.54,51.23V112.35h16.21v104h-17.1l-11-49.83v49.83H719Z"/><path class="cls-2" d="M803.7,112.35h23.95q20.9,0,20.89,22.5v59.08q0,22.4-21.77,22.45H803.7ZM821,128.92V199.8h5.15q5.08,0,5.09-5.87V134.85q0-5.92-5.09-5.93Z"/><path class="cls-2" d="M861,112.35h40.74v16.57H878.32v27.13h20.16v16.63H878.32V199.8h23.43v16.58H861Z"/><path class="cls-2" d="M306,350.8v-104h17.3v87.46h23.44V350.8Z"/><path class="cls-2" d="M399.27,313.49l4.94,37.31H386.75l-2.86-21.62H371.16l-2.91,21.62h-17.4l4.93-37.15,10.55-66.88h22.45Zm-17.61-.93-4.16-31.49-4.15,31.49Z"/><path class="cls-2" d="M439.44,246.77h22.71q20.88.06,20.89,22.5V284.6q0,16.47-14.92,21.36a35.71,35.71,0,0,1-10.28,1.14h-1.1v43.7h-17.3Zm17.3,16.58v27.12h2.08a12.93,12.93,0,0,0,3.64-.31c2.18-.86,3.27-2.72,3.27-5.56V269.27c0-3.95-1.69-5.92-5.09-5.92Z"/><path class="cls-2" d="M533.23,313.49l4.94,37.31H520.71l-2.86-21.62H505.12l-2.91,21.62H484.8l4.94-37.15,10.55-66.88h22.45Zm-17.61-.93-4.16-31.49-4.16,31.49Z"/><path class="cls-2" d="M591.33,330q0,22.46-22.45,22.5T546.48,330V246.77h17.31V330c0,3.92,1.69,5.88,5.09,5.88s5.14-2,5.14-5.88V246.77h17.31Z"/><path class="cls-2" d="M637.57,350.8H615.13L604.58,284l-4.94-37.21H617.1l9.2,81.53,9.25-81.53H653l-4.94,37.31Z"/><path class="cls-2" d="M661.84,246.77h22.71q20.88.06,20.89,22.5V284.6q0,14.13-11.33,18.29l16.68,47.91H691.93l-11.85-44.74h-.94V350.8h-17.3Zm17.3,16.58v27.12h2.08a13,13,0,0,0,3.64-.31c2.18-.86,3.27-2.72,3.27-5.56V269.27c0-3.95-1.69-5.92-5.09-5.92Z"/><path class="cls-2" d="M719.1,246.77h40.74v16.58H736.41v27.12h20.16V307.1H736.41v27.13h23.43V350.8H719.1Z"/><path class="cls-2" d="M811.44,246.77v16.58H797.67V350.8h-17.3V263.35H766.6V246.77Z"/><path class="cls-2" d="M820.79,246.77h40.74v16.58H838.1v27.12h20.16V307.1H838.1v27.13h23.43V350.8H820.79Zm38.87-11.64-15.07,9.77H829.73l16.52-15.22h13.41Z"/></svg>