<svg id="Calque_1" data-name="Calque 1" xmlns="http://www.w3.org/2000/svg" viewBox="0 0 1000 1000"><defs><style>.cls-1{fill:#18486a;}.cls-2{fill:#fff;}</style></defs><rect class="cls-1" x="-8.12" y="-8.12" width="1016.24" height="1016.24"/><path class="cls-2" d="M306.91,135.54h13.15q12.09,0,12.09,13v8.87q0,9.54-8.63,12.37a20.73,20.73,0,0,1-6,.66h-.63v25.3h-10Zm10,9.6v15.7h1.2a7.54,7.54,0,0,0,2.11-.18,3.09,3.09,0,0,0,1.89-3.22v-8.87q0-3.44-2.94-3.43Z"/><path class="cls-2" d="M361.21,174.17l2.86,21.6H354l-1.65-12.51h-7.37l-1.69,12.51H333.17L336,174.26l6.11-38.72h13Zm-10.2-.54-2.4-18.23-2.41,18.23Z"/><path class="cls-2" d="M369.18,135.54h13.15q12.09,0,12.09,13v8.87q0,8.19-6.55,10.59l9.65,27.74H386.6l-6.86-25.9h-.54v25.9h-10Zm10,9.6v15.7h1.21a7.5,7.5,0,0,0,2.1-.18,3.09,3.09,0,0,0,1.9-3.22v-8.87c0-2.29-1-3.43-3-3.43Z"/><path class="cls-2" d="M425.2,135.54v9.6h-8v50.63h-10V145.14h-8v-9.6Z"/><path class="cls-2" d="M430.61,135.54H454.2v9.6H440.63v15.7H452.3v9.63H440.63v15.7H454.2v9.6H430.61Z"/><path class="cls-2" d="M460.52,135.54h9.89l6.68,29.67V135.54h9.39v60.23h-9.9l-6.38-28.85v28.85h-9.68Z"/><path class="cls-2" d="M519.63,174.17l2.86,21.6H512.38l-1.65-12.51h-7.37l-1.69,12.51H491.59l2.86-21.51,6.11-38.72h13Zm-10.2-.54L507,155.4l-2.41,18.23Z"/><path class="cls-2" d="M527.6,135.54h13.15q12.09,0,12.09,13v8.87q0,8.19-6.55,10.59l9.65,27.74H545l-6.86-25.9h-.54v25.9h-10Zm10,9.6v15.7h1.2a7.54,7.54,0,0,0,2.11-.18,3.09,3.09,0,0,0,1.9-3.22v-8.87c0-2.29-1-3.43-3-3.43Z"/><path class="cls-2" d="M560.91,135.54h10v60.23h-10Z"/><path class="cls-2" d="M604.23,174.17l2.85,21.6H597l-1.66-12.51H588l-1.68,12.51H576.19l2.86-21.51,6.1-38.72h13Zm-10.2-.54-2.41-18.23-2.41,18.23Z"/><path class="cls-2" d="M634.82,135.54v9.6h-8v50.63h-10V145.14h-8v-9.6Z"/><path class="cls-2" d="M639.63,147.61q0-13,13-13t13,13v8.54h-10v-8.54q0-3.37-3-3.4h-.06q-2.93,0-2.92,3.4V153q0,3.67,7.7,9.21,8.25,5.87,8.25,14.08v7.46q0,13-13,13t-13-13v-8.55h10v8.55c0,2.26,1,3.4,3,3.4s3-1.14,3-3.4V177q0-4-7.7-9.54-8.25-5.87-8.25-14.29Z"/><path class="cls-2" d="M688.1,135.54h13.15q12.09,0,12.09,13v8.87q0,9.54-8.63,12.37a20.73,20.73,0,0,1-6,.66h-.63v25.3h-10Zm10,9.6v15.7h1.2a7.64,7.64,0,0,0,2.11-.18,3.09,3.09,0,0,0,1.89-3.22v-8.87q0-3.44-3-3.43Z"/><path class="cls-2" d="M745,183.71q0,13-13,13t-13-13v-36.1q0-13,13-13t13,13Zm-10-36.1q0-3.37-3-3.4H732q-2.93,0-2.92,3.4v36.1c0,2.26,1,3.4,2.95,3.4s3-1.14,3-3.4Z"/><path class="cls-2" d="M777.9,183.71q0,13-13,13t-13-13V135.54h10v48.17c0,2.26,1,3.4,2.95,3.4s3-1.14,3-3.4V135.54h10Z"/><path class="cls-2" d="M785.42,135.54h13.15q12.09,0,12.09,13v8.87q0,8.19-6.56,10.59l9.66,27.74H802.84L796,169.87h-.54v25.9h-10Zm10,9.6v15.7h1.2a7.59,7.59,0,0,0,2.11-.18,3.09,3.09,0,0,0,1.89-3.22v-8.87q0-3.44-2.95-3.43Z"/><path class="cls-2" d="M306.91,279.79V219.56h10v50.63H330.5v9.6Z"/><path class="cls-2" d="M335.61,219.56H359.2v9.59H345.63v15.71H357.3v9.62H345.63v15.71H359.2v9.6H335.61Z"/><path class="cls-2" d="M364.91,231.62q0-13,13-13t13,13v8.55h-10v-8.55c0-2.24-1-3.38-2.95-3.4h-.06c-2,0-2.92,1.14-2.92,3.4V237q0,3.66,7.7,9.2,8.25,5.87,8.24,14.08v7.46q0,13-13,13t-13-13v-8.54h10v8.54q0,3.4,3,3.4c2,0,2.95-1.13,2.95-3.4V261q0-4-7.7-9.53-8.25-5.87-8.25-14.29Z"/><path class="cls-2" d="M438.74,267.72q0,13-13,13t-13-13v-36.1q0-13,13-13t13,13Zm-10-36.1c0-2.24-1-3.38-3-3.4h-.06c-1.94,0-2.92,1.14-2.92,3.4v36.1c0,2.27,1,3.4,2.95,3.4s3-1.13,3-3.4Z"/><path class="cls-2" d="M446,219.56h13.87q12.09,0,12.09,13v8.88q0,6.14-4,8.21,4,2.09,4,8.21v8.91q0,13-12.61,13H446Zm10,9.59v15.71h1.92a7.59,7.59,0,0,0,2.11-.18,3.09,3.09,0,0,0,1.89-3.22v-8.88c0-2.28-1-3.43-2.95-3.43Zm0,25.33v15.71h3q3,0,2.95-3.4v-8.91A3,3,0,0,0,460,254.7a6.63,6.63,0,0,0-2.11-.22Z"/><path class="cls-2" d="M475.83,263.63h10v4.09q0,3.4,3,3.4t2.94-3.4V219.56h10v48.16q0,13-13,13t-13-13Z"/><path class="cls-2" d="M509.61,219.56H533.2v9.59H519.63v15.71H531.3v9.62H519.63v15.71H533.2v9.6H509.61Z"/><path class="cls-2" d="M564.88,267.72q0,13-13,13t-13-13v-36.1q0-13,13-13t13,13v8.55h-10v-8.55c0-2.24-1-3.38-3-3.4h-.06c-1.94,0-2.92,1.14-2.92,3.4v36.1c0,2.27,1,3.4,3,3.4s3-1.13,3-3.4v-8.54h10Z"/><path class="cls-2" d="M595.35,219.56v9.59h-8v50.64h-10V229.15h-8v-9.59Z"/><path class="cls-2" d="M600.92,219.56h10v60.23h-10Z"/><path class="cls-2" d="M618.91,219.56h23.58v9.59H628.92v15.71H640.6v9.62H628.92v25.31h-10Z"/><path class="cls-2" d="M647.61,231.62q0-13,13-13t13,13v8.55h-10v-8.55c0-2.24-1-3.38-2.95-3.4h-.06c-1.94,0-2.92,1.14-2.92,3.4V237q0,3.66,7.71,9.2,8.24,5.87,8.24,14.08v7.46q0,13-13,13t-13-13v-8.54h10v8.54c0,2.27,1,3.4,3,3.4s2.95-1.13,2.95-3.4V261q0-4-7.7-9.53-8.25-5.87-8.24-14.29Z"/><path class="cls-2" d="M715.35,259.48l9.27-39.92h9.9v60.23h-9.66V252.08L719,279.79h-7l-6.1-27.89v27.89h-9.75V219.56H706Z"/><path class="cls-2" d="M767.7,267.72q0,13-13,13t-13-13v-36.1q0-13,13-13t13,13Zm-10-36.1c0-2.24-1-3.38-2.95-3.4h-.06c-1.94,0-2.91,1.14-2.91,3.4v36.1q0,3.4,2.94,3.4t3-3.4Z"/><path class="cls-2" d="M774.92,219.56h9.9l6.68,29.66V219.56h9.38v60.23H791l-6.37-28.85v28.85h-9.69Z"/><path class="cls-2" d="M808.7,219.56h13.87q12.09,0,12.1,13v34.21q0,13-12.61,13H808.7Zm10,9.59v41h3c2,0,2.95-1.13,2.95-3.4V232.58c0-2.28-1-3.43-2.95-3.43Z"/><path class="cls-2" d="M842,219.56h10v60.23H842Z"/><path class="cls-2" d="M885.36,258.19l2.85,21.6h-10.1l-1.66-12.52h-7.37l-1.68,12.52H857.32l2.86-21.51,6.1-38.72h13Zm-10.2-.55-2.41-18.23-2.41,18.23Z"/><path class="cls-2" d="M919,267.72q0,13-13,13t-13-13V219.56h10v48.16q0,3.4,2.94,3.4t3-3.4V219.56h10Z"/><path class="cls-2" d="M933.91,219.56l5,17.27,4.93-17.27h10.11l-10,30.11,10,30.12H943.81l-4.93-19.14-5,19.14H923.8l10-30.12-10-30.11Z"/><path class="cls-2" d="M114,98.5V282.61h29V317.5H48.55V282.61h29V133.39h-29V98.5Z"/><path class="cls-2" d="M170.41,133.39V98.5h97v24.39L223.69,317.5h-37.3l41.35-184.11Z"/><path class="cls-2" d="M772.38,600.86c0-73.42-59.77-133.13-133.14-133.13-2.52,0-5.1.06-7.56.22a133.16,133.16,0,0,0-251.15-.16,133.05,133.05,0,0,0-83.12,234.34,131.24,131.24,0,0,0-7.78,44.64C289.63,820.2,349.39,880,422.82,880a132.07,132.07,0,0,0,82-28.39,132,132,0,0,0,82,28.39C660.19,880,720,820.2,720,746.77a132.17,132.17,0,0,0-5.1-36.41A133,133,0,0,0,772.38,600.86ZM607.54,512.15A101.58,101.58,0,0,1,538,608.43c-.17-2.47-.28-5-.28-7.57a101.55,101.55,0,0,1,69.51-96.22C607.43,507.1,607.54,509.62,607.54,512.15ZM586.82,645.34A101.23,101.23,0,0,1,674.53,696a101.46,101.46,0,0,1-123.06-44.31A100,100,0,0,1,586.82,645.34ZM506.05,410.71a101.73,101.73,0,0,1,93.87,62.9,133.82,133.82,0,0,0-88.44,89.67,133.43,133.43,0,0,0-98.13-92.19A101.48,101.48,0,0,1,506.05,410.71ZM282.29,600.86a101.61,101.61,0,0,1,91.18-100.92c-.39,4-.56,8.06-.56,12.21a132.68,132.68,0,0,0,47.16,101.54A133,133,0,0,0,312.2,672.78,101.22,101.22,0,0,1,282.29,600.86Zm140.53,44.48a100.23,100.23,0,0,1,45.81,11,101.26,101.26,0,0,1-84.91,46,100.23,100.23,0,0,1-45.81-11A101.26,101.26,0,0,1,422.82,645.34Zm0,202.92a101.45,101.45,0,0,1-98-128A132.74,132.74,0,0,0,458.55,711a130.2,130.2,0,0,0-4.93,35.79A132.12,132.12,0,0,0,482.19,829,100.53,100.53,0,0,1,422.82,848.26Zm61.89-236.92a101.62,101.62,0,0,1-80.1-99.19c0-3.53.17-7,.51-10.42a101.6,101.6,0,0,1,80.09,99.13C485.21,604.39,485,607.92,484.71,611.34Zm20.11,195.14a101.08,101.08,0,0,1,0-119.36,101.37,101.37,0,0,1,0,119.36Zm82,41.78A100.4,100.4,0,0,1,527.44,829,132.77,132.77,0,0,0,545.7,695.63,132.92,132.92,0,0,0,686,725.54a101.51,101.51,0,0,1-99.19,122.72ZM702.14,680.4A133,133,0,0,0,592,613.75a132.92,132.92,0,0,0,47.22-101.6c0-4.32-.22-8.52-.62-12.72h.62a101.41,101.41,0,0,1,62.9,181Z"/></svg>