<svg id="Calque_1" data-name="Calque 1" xmlns="http://www.w3.org/2000/svg" viewBox="0 0 1000 1000"><defs><style>.cls-1{fill:#00679d;}.cls-2{fill:#fff;}</style></defs><rect class="cls-1" x="-8.12" y="-8.12" width="1016.24" height="1016.24"/><path class="cls-2" d="M104.74,92.92V277h29v34.89H39.32V277h29V127.81h-29V92.92Z"/><path class="cls-2" d="M256.58,268.06q0,47.25-47.26,47.26t-47.15-47.26V136.78q0-47.36,47.15-47.36t47.26,47.36v31H220.15v-31q0-12.36-10.72-12.36h-.22q-10.61,0-10.61,12.36v46.5q4.71-4.28,18.6-4.27c1.6,0,3.28.07,5,.22q16.08,1.64,25.16,11.49t9.19,34.67Zm-58,0q0,12.36,10.72,12.36t10.83-12.36V225.39q0-10.17-3.39-11.48-2-1-7.11-1c-.87,0-1.79,0-2.73.11q-8.32.33-8.32,12.36Z"/><path class="cls-2" d="M343.29,165.79H357v5.58c0,3.09,1.36,4.63,4.06,4.63s4-1.54,4-4.63V105.69h13.66v65.68q0,17.76-17.68,17.76t-17.72-17.76Z"/><path class="cls-2" d="M424.35,171.37q0,17.72-17.72,17.76T389,171.37V105.69h13.66v65.68q0,4.63,4,4.63t4.06-4.63V105.69h13.66Z"/><path class="cls-2" d="M433.79,122.14q0-17.73,17.68-17.72t17.72,17.72v11.65H455.53V122.14q0-4.59-4-4.64h-.08c-2.66,0-4,1.55-4,4.64v7.3q0,5,10.5,12.55,11.24,8,11.24,19.2v10.18q0,17.76-17.68,17.76t-17.72-17.76V159.72h13.66v11.65q0,4.63,4.06,4.63t4-4.63v-9.19q0-5.46-10.5-13-11.25-8-11.24-19.48Z"/><path class="cls-2" d="M511.16,105.69v13.09H500.29v69H486.62v-69H475.75V105.69Z"/><path class="cls-2" d="M518.75,105.69h13.66v82.13H518.75Z"/><path class="cls-2" d="M577.86,171.37q0,17.72-17.72,17.76t-17.68-17.76V122.14q0-17.73,17.68-17.72t17.72,17.72v11.65H564.2V122.14q0-4.59-4-4.64h-.08c-2.66,0-4,1.55-4,4.64v49.23q0,4.63,4,4.63t4.06-4.63V159.72h13.66Z"/><path class="cls-2" d="M587.29,105.69h32.17v13.09H601v21.41h15.91v13.13H601v21.41h18.5v13.09H587.29Z"/><path class="cls-2" d="M347.39,206.51h32.17v13.08H361.05V241H377v13.12H361.05v21.42h18.51v13.08H347.39Z"/><path class="cls-2" d="M420.29,206.51v13.08H409.42v69H395.76v-69H384.89V206.51Z"/><path class="cls-2" d="M448.51,206.51h17.93q16.5,0,16.49,17.76v12.1q0,13-11.77,16.86a28.24,28.24,0,0,1-8.12.9h-.86v34.5H448.51Zm13.67,13.08V241h1.64a10.4,10.4,0,0,0,2.87-.25c1.72-.68,2.58-2.15,2.58-4.39v-12.1q0-4.68-4-4.68Z"/><path class="cls-2" d="M522.56,259.18l3.9,29.45H512.67l-2.25-17.06H500.37l-2.3,17.06H484.33l3.89-29.33,8.33-52.79h17.72Zm-13.91-.74-3.28-24.86-3.28,24.86Z"/><path class="cls-2" d="M533.64,206.51H547.3v82.12H533.64Z"/><path class="cls-2" d="M568.26,206.51,575,230.05l6.73-23.54h13.78l-13.62,41.06,13.62,41.06H581.76L575,262.54l-6.77,26.09H554.48l13.62-41.06-13.62-41.06Z"/><path class="cls-2" d="M687.38,423.36a49.35,49.35,0,0,0-5,17c.06,0,.06.06.11.06,7.23,4.31,13,8.23,17.14,11.09a80.67,80.67,0,0,0-18-.79c0,3.87.23,7.73.45,11.6a169.54,169.54,0,0,0,3.19,20.16c1.35,6.72,3.25,13.33,5.27,19.94a137,137,0,0,1-12.72-39.6,114.58,114.58,0,0,1-1.12-11.65,73.31,73.31,0,0,0-34.56,13.44C624,478,617.54,496.18,615,504c-9.24,27.28-.84,45.59,0,66.54C617,625.39,565.68,670,560.52,674.34c-26.55,22.41-59.26,31-92.25,31.93-3.69.11-7.39.17-11.09.05q-12.44-.24-24.7-1.68V757h24.7v6.56h11.09V757H629.08v36.8H253.53V757H421.39V703.13C369.3,695.23,324.05,675,311.5,669.3a345.49,345.49,0,0,1-49.4-27.22c9.86,4.2,36.91,14.06,69.57,6,51.08-12.55,72.81-58.36,75.61-64.52a117,117,0,0,1-41.34-15.13C327.63,545.35,314.3,506,311.5,496.9c-8.9-28.67.73-33.43-11.09-68.55-7.62-22.57-17-36.8-30.24-46.88a75,75,0,0,0-16.64-9.58l12.6,1c66-3.59,102.61,14.39,124,32.26,29,24.14,30.64,48.45,64.52,64.52,2.58,1.24,47.39,21.68,90.74,3,43.07-18.6,43.24-58,74.6-58.48,16.58-.33,35.74,10.36,57.36,23.19a53.43,53.43,0,0,1,5-16.52c1.4-3.42,3.87-6.22,5.94-9.24,2.3-2.64,4.59-5.21,7-7.79,4.7-5,9.35-10.14,14.28-14.95A398.94,398.94,0,0,1,740,360.8l-27.33,31-13.5,15.57-6.67,7.84C690.69,417.87,688.56,420.34,687.38,423.36Z"/><path class="cls-2" d="M468.27,706.27V757H457.18V706.32C460.88,706.44,464.58,706.38,468.27,706.27Z"/><path class="cls-2" d="M701.53,309.13l0,0c1.66.88,13.91,7.61,16.87,22.4,3.39,16.95-8.54,29-9.43,29.87l-.1-.05c-1.06-.57-15.11-8.38-17.18-24.75,0-.16-.05-.33-.08-.5a16.88,16.88,0,0,1-.16-3.08C691.32,319.34,700.25,310.37,701.53,309.13Z"/><path class="cls-2" d="M673.46,350.31l0,0c1.67.88,13.91,7.61,16.87,22.4,3.39,16.95-8.54,29-9.42,29.87l-.1-.05c-1.07-.57-15.11-8.37-17.18-24.75,0-.16-.06-.33-.08-.5a17.84,17.84,0,0,1-.17-3.08C663.25,360.52,672.18,351.55,673.46,350.31Z"/><path class="cls-2" d="M737.19,384.89l0,0c1.14-1.49,9.79-12.47,24.87-13,17.27-.58,27.22,13.17,27.93,14.18l-.08.09c-.73,1-10.73,13.54-27.22,12.9h-.51a18,18,0,0,1-3.06-.34C745.59,396.63,738.21,386.36,737.19,384.89Z"/><path class="cls-2" d="M705.36,417.41l0,0c1.14-1.5,9.79-12.48,24.87-13,17.27-.58,27.21,13.17,27.92,14.18l-.07.09c-.73,1-10.73,13.54-27.22,12.9h-.51a17,17,0,0,1-3.06-.34C713.76,429.15,706.37,418.88,705.36,417.41Z"/><rect class="cls-2" x="457.18" y="757.01" width="11.09" height="6.55"/><rect class="cls-2" x="629.08" y="722.4" width="117.62" height="111.57"/><rect class="cls-2" x="622.34" y="682.05" width="131.06" height="29.57" rx="2.64"/><rect class="cls-2" x="622.34" y="848.51" width="131.06" height="29.57" rx="2.64"/><rect class="cls-2" x="209.99" y="753.3" width="28.57" height="47.72" rx="2.55"/><rect class="cls-2" x="457.18" y="757.01" width="11.09" height="6.55"/></svg>