<svg id="Calque_1" data-name="Calque 1" xmlns="http://www.w3.org/2000/svg" viewBox="0 0 1000 1000"><defs><style>.cls-1{fill:#56c02b;}.cls-2{fill:#fff;}</style></defs><rect class="cls-1" x="-8.12" y="-8.12" width="1016.24" height="1016.24"/><path class="cls-2" d="M124.84,128.48V312.59h29v34.89H59.42V312.59h29V163.37h-29V128.48Z"/><path class="cls-2" d="M239.26,242.68q0-10.05-3.39-11.48-2-1-7.11-1c-.87,0-1.79,0-2.73.11q-7.11.33-8,6.35l-.44,10.72H181.18L186,128.48h89.7v34.89H221L219.25,200q3.38-3.95,18.37-3.94a41.4,41.4,0,0,1,4.16.22q17.5,1.53,26.69,14.11,7.23,10,7.22,32.27v60.94q0,47.25-47.26,47.26t-47.14-47.26V276.05h36.42v27.57q0,12.36,10.72,12.36t10.83-12.36Z"/><path class="cls-2" d="M334.56,135.55h13.15q12.09,0,12.09,13v8.88q0,9.54-8.63,12.36a20.73,20.73,0,0,1-6,.66h-.63v25.3h-10Zm10,9.59v15.71h1.2a7.54,7.54,0,0,0,2.11-.18,3.09,3.09,0,0,0,1.89-3.22v-8.88c0-2.28-1-3.43-2.94-3.43Z"/><path class="cls-2" d="M366.12,135.55h13.15q12.09,0,12.09,13v8.88q0,8.18-6.56,10.59l9.66,27.73H383.54l-6.86-25.9h-.54v25.9h-10Zm10,9.59v15.71h1.2a7.59,7.59,0,0,0,2.11-.18,3.09,3.09,0,0,0,1.89-3.22v-8.88c0-2.28-1-3.43-2.95-3.43Z"/><path class="cls-2" d="M424.63,183.71q0,13-13,13t-13-13v-36.1q0-13,13-13t13,13Zm-10-36.1q0-3.37-2.94-3.4h-.06q-2.92,0-2.92,3.4v36.1q0,3.4,2.95,3.4t3-3.4Z"/><path class="cls-2" d="M455.41,135.55v9.59h-8v50.63h-10V145.14h-8v-9.59Z"/><path class="cls-2" d="M460.82,135.55h23.59v9.59H470.84v15.71h11.67v9.62H470.84v15.71h13.57v9.59H460.82Z"/><path class="cls-2" d="M516.08,183.71q0,13-13,13t-13-13v-36.1q0-13,13-13t13,13v8.54h-10v-8.54c0-2.25-1-3.38-2.95-3.4h-.06q-2.93,0-2.92,3.4v36.1q0,3.4,2.95,3.4c2,0,3-1.13,3-3.4v-8.54h10Z"/><path class="cls-2" d="M546.56,135.55v9.59h-8v50.63h-10V145.14h-8v-9.59Z"/><path class="cls-2" d="M552.12,135.55h10v60.22h-10Z"/><path class="cls-2" d="M595.48,183.71q0,13-13,13t-13-13v-36.1q0-13,13-13t13,13Zm-10-36.1q0-3.37-3-3.4h-.06q-2.93,0-2.92,3.4v36.1q0,3.4,3,3.4t3-3.4Z"/><path class="cls-2" d="M602.7,135.55h9.89l6.68,29.66V135.55h9.39v60.22h-9.9l-6.38-28.85v28.85H602.7Z"/><path class="cls-2" d="M651.76,135.55h13.87q12.09,0,12.09,13v34.21q0,13-12.6,13H651.76Zm10,9.59v41h3c2,0,3-1.14,3-3.4V148.57c0-2.28-1-3.43-3-3.43Z"/><path class="cls-2" d="M684.94,135.55h23.59v9.59H695v15.71h11.67v9.62H695v15.71h13.57v9.59H684.94Z"/><path class="cls-2" d="M730.13,195.77V135.55h10v50.63h13.56v9.59Z"/><path class="cls-2" d="M784.16,174.17l2.86,21.6H776.91l-1.66-12.51h-7.37l-1.68,12.51H756.12L759,174.26l6.11-38.71h13Zm-10.2-.54-2.41-18.23-2.4,18.23Z"/><path class="cls-2" d="M807.41,135.55H831v9.59H817.43v15.71H829.1v9.62H817.43v25.3h-10Z"/><path class="cls-2" d="M860.42,174.17l2.86,21.6H853.17l-1.65-12.51h-7.37l-1.69,12.51H832.38l2.86-21.51,6.11-38.71h13Zm-10.2-.54-2.4-18.23-2.41,18.23Z"/><path class="cls-2" d="M894.05,183.71q0,13-13,13t-13-13V135.55h10v48.16q0,3.4,2.95,3.4c2,0,3-1.13,3-3.4V135.55h10Z"/><path class="cls-2" d="M901.57,135.55h9.9l6.68,29.66V135.55h9.39v60.22h-9.9l-6.38-28.85v28.85h-9.69Z"/><path class="cls-2" d="M935.36,135.55h23.58v9.59H945.38v15.71h11.67v9.62H945.38v15.71h13.56v9.59H935.36Z"/><path class="cls-2" d="M334.56,214h23.59v9.6H344.58v15.7h11.67v9.63H344.58v15.7h13.57v9.6H334.56Z"/><path class="cls-2" d="M388,214v9.6h-8v50.63H370V223.56h-8V214Z"/><path class="cls-2" d="M408.72,274.19V214h10v50.63H432.3v9.6Z"/><path class="cls-2" d="M462.75,252.59l2.86,21.6H455.5l-1.66-12.52h-7.37l-1.68,12.52H434.71l2.86-21.51,6.1-38.72h13Zm-10.2-.54-2.41-18.23-2.4,18.23Z"/><path class="cls-2" d="M486,214h23.59v9.6H496v15.7h11.67v9.63H496v25.3H486Z"/><path class="cls-2" d="M515.3,274.19V214h10v50.63h13.57v9.6Z"/><path class="cls-2" d="M569.36,262.12q0,13-13,13t-13-13V226q0-13,13-13t13,13Zm-10-36.1c0-2.24-1-3.37-3-3.4h-.06c-2,0-2.92,1.14-2.92,3.4v36.1q0,3.4,3,3.4c2,0,3-1.13,3-3.4Z"/><path class="cls-2" d="M576.58,214h13.15q12.09,0,12.09,13v8.87q0,8.19-6.55,10.59l9.65,27.74H594l-6.86-25.9h-.54v25.9h-10Zm10,9.6v15.7h1.2a7.54,7.54,0,0,0,2.11-.18,3.09,3.09,0,0,0,1.9-3.22V227c0-2.29-1-3.43-2.95-3.43Z"/><path class="cls-2" d="M609.73,214h23.59v9.6H619.75v15.7h11.68v9.63H619.75v15.7h13.57v9.6H609.73Z"/><path class="cls-2" d="M678.48,214v9.6h-8v50.63h-10V223.56h-8V214Z"/><path class="cls-2" d="M683.89,214h23.59v9.6H693.91v15.7h11.67v9.63H693.91v15.7h13.57v9.6H683.89Z"/><path class="cls-2" d="M713.79,214h13.15Q739,214,739,227v8.87q0,8.19-6.55,10.59l9.65,27.74H731.21l-6.86-25.9h-.54v25.9h-10Zm10,9.6v15.7H725a7.54,7.54,0,0,0,2.11-.18,3.09,3.09,0,0,0,1.9-3.22V227c0-2.29-1-3.43-2.95-3.43Z"/><path class="cls-2" d="M747,214h13.14q12.09,0,12.1,13v8.87q0,8.19-6.56,10.59l9.65,27.74H764.36l-6.85-25.9H757v25.9H747Zm10,9.6v15.7h1.21a7.5,7.5,0,0,0,2.1-.18,3.08,3.08,0,0,0,1.9-3.22V227q0-3.44-2.95-3.43Z"/><path class="cls-2" d="M780.1,214h23.58v9.6H790.12v15.7h11.67v9.63H790.12v15.7h13.56v9.6H780.1Z"/><path class="cls-2" d="M809.4,226q0-13,13-13t13,13v8.55h-10V226q0-3.36-2.94-3.4h-.07c-1.94,0-2.91,1.14-2.91,3.4v5.36q0,3.68,7.7,9.2,8.24,5.88,8.24,14.08v7.46q0,13-13,13t-13-13v-8.54h10v8.54q0,3.4,3,3.4t2.94-3.4v-6.73q0-4-7.7-9.54-8.24-5.86-8.24-14.29Z"/><path class="cls-2" d="M866.14,214v9.6h-8v50.63h-10V223.56h-8V214Z"/><path class="cls-2" d="M871.55,214H884.7q12.09,0,12.09,13v8.87q0,8.19-6.56,10.59l9.66,27.74H889l-6.86-25.9h-.54v25.9h-10Zm10,9.6v15.7h1.2a7.54,7.54,0,0,0,2.11-.18,3.09,3.09,0,0,0,1.89-3.22V227q0-3.44-2.94-3.43Z"/><path class="cls-2" d="M904.7,214h23.59v9.6H914.72v15.7h11.67v9.63H914.72v15.7h13.57v9.6H904.7Z"/><path class="cls-2" d="M934,226q0-13,13-13t13,13v8.55H950V226q0-3.36-3-3.4h-.06c-1.94,0-2.92,1.14-2.92,3.4v5.36q0,3.68,7.7,9.2,8.25,5.88,8.25,14.08v7.46q0,13-13,13t-13-13v-8.54h10v8.54c0,2.27,1,3.4,3,3.4s3-1.13,3-3.4v-6.73q0-4-7.7-9.54Q934,240,934,231.56Z"/><path class="cls-2" d="M545.82,556.9a74.09,74.09,0,0,1-11.09,39.15v11.26a34.35,34.35,0,0,1-34.28,34.27H400.86a74.6,74.6,0,0,1-98.46-96.89A58.46,58.46,0,0,1,338.13,440c1,0,2,0,3,.05a83.69,83.69,0,0,1,164.39,22.13,82.56,82.56,0,0,1-4.31,26.44A74.52,74.52,0,0,1,545.82,556.9Z"/><rect class="cls-2" x="406.18" y="663.76" width="35.79" height="80.65"/><rect class="cls-2" x="505.01" y="538.78" width="35.79" height="505.55" transform="translate(1314.46 268.64) rotate(90)"/><rect class="cls-2" x="498.96" y="603.81" width="35.79" height="505.55" transform="translate(1373.44 339.72) rotate(90)"/><path class="cls-2" d="M595.89,586.94a49.89,49.89,0,0,1,20.66-15.64,50.43,50.43,0,0,1,26.77-3,49.69,49.69,0,0,1,24.93,11.93,58.77,58.77,0,0,1,15.57,23l-10.49-.1a61.68,61.68,0,0,1,16.23-23.71,51.66,51.66,0,0,1,25.91-12.31A53.17,53.17,0,0,1,743.28,570a54.1,54.1,0,0,1,22,15.6c-7.4-4.9-15.29-8.66-23.58-10.24a52.18,52.18,0,0,0-24.4.42,45.49,45.49,0,0,0-20.49,11.54,53.09,53.09,0,0,0-13,19.71l-5.45,14.28-5-14.37a51.71,51.71,0,0,0-12.19-19,44.55,44.55,0,0,0-19.57-11.19,49.4,49.4,0,0,0-23.36-.34A59.31,59.31,0,0,0,595.89,586.94Z"/><path class="cls-2" d="M522.91,454.86a49.71,49.71,0,0,1,72.36-6.68,58.77,58.77,0,0,1,15.57,23l-10.49-.09a61.64,61.64,0,0,1,16.23-23.72A51.71,51.71,0,0,1,642.49,435a53.17,53.17,0,0,1,27.81,2.88,54.19,54.19,0,0,1,22,15.6c-7.4-4.9-15.29-8.66-23.58-10.24a52.18,52.18,0,0,0-24.4.42,45.53,45.53,0,0,0-20.49,11.54,53,53,0,0,0-13,19.72l-5.45,14.27-5-14.37a51.71,51.71,0,0,0-12.19-19,44.53,44.53,0,0,0-19.57-11.18,49.31,49.31,0,0,0-23.37-.34A59,59,0,0,0,522.91,454.86Z"/><path class="cls-2" d="M647.76,382.64c8.54-7.34,22.23-9.54,33.7-4.15a33.29,33.29,0,0,1,14.19,12.43,38.39,38.39,0,0,1,5.84,18l-10-3.08a40.21,40.21,0,0,1,15.24-12.27,34.79,34.79,0,0,1,36.57,4.91,33.83,33.83,0,0,1,10.27,14.61,44.65,44.65,0,0,0-13.33-9.92,33.76,33.76,0,0,0-14.87-3.53,28.45,28.45,0,0,0-14,3.55,34.8,34.8,0,0,0-11,9.37l-9.19,11.94-.86-15a33.88,33.88,0,0,0-3.7-13.25,28.06,28.06,0,0,0-9.26-10.19,31.68,31.68,0,0,0-13.76-4.91A40,40,0,0,0,647.76,382.64Z"/></svg>