<svg id="Calque_1" data-name="Calque 1" xmlns="http://www.w3.org/2000/svg" viewBox="0 0 1000 1000"><defs><style>.cls-1{fill:#3f7e44;}.cls-2{fill:#fff;}.cls-3{fill:#231f20;opacity:0.1;}.cls-4{fill:#e8edf2;}.cls-5{fill:#333;}</style></defs><rect class="cls-1" x="-8.12" y="-8.12" width="1016.24" height="1016.24"/><path class="cls-2" d="M136,128.48V312.59h29v34.89H70.62V312.59h29V163.37h-29V128.48Z"/><path class="cls-2" d="M229.57,303.51q.33,12.36,11.16,12.36t11.05-12.36V267q0-10.39-3.5-11.92-2-.88-6.78-.88H228.26v-34.9H243.9a10.8,10.8,0,0,0,5-.87q2.84-1.65,2.84-11.38V172.34Q251.45,160,240.73,160t-11.16,12.36v31h-36.1v-31q0-47.25,47.26-47.36t47.15,47.36v34.9q0,22.32-14.66,29.87,14.65,7.54,14.66,29.86v36.54q0,47.37-47.15,47.37t-47.26-47.37v-31h36.1Z"/><path class="cls-2" d="M370.57,195.66V146.38h8.19v41.43h11.1v7.85Z"/><path class="cls-2" d="M415,185.79q0,10.64-10.63,10.66T393.8,185.79V146.38H402v39.41c0,1.86.8,2.78,2.41,2.78s2.44-.92,2.44-2.78V146.38H415Z"/><path class="cls-2" d="M440.47,146.38v7.86H434v41.42h-8.2V154.24h-6.52v-7.86Z"/><path class="cls-2" d="M464.17,146.38v7.86h-6.52v41.42h-8.2V154.24h-6.52v-7.86Z"/><path class="cls-2" d="M468.6,146.38h19.3v7.86H476.8v12.84h9.55V175H476.8v12.85h11.1v7.85H468.6Z"/><path class="cls-2" d="M526.32,185.79q0,10.64-10.63,10.66t-10.61-10.66V156.25q0-10.62,10.61-10.63t10.63,10.63v7h-8.19v-7c0-1.83-.81-2.76-2.42-2.78h0c-1.6,0-2.39.93-2.39,2.78v29.54c0,1.86.8,2.78,2.41,2.78s2.44-.92,2.44-2.78v-7h8.19Z"/><path class="cls-2" d="M552.73,185.79q0,10.64-10.63,10.66t-10.61-10.66V156.25q0-10.62,10.61-10.63t10.63,10.63Zm-8.19-29.54c0-1.83-.81-2.76-2.42-2.78h0c-1.6,0-2.39.93-2.39,2.78v29.54c0,1.86.8,2.78,2.41,2.78s2.44-.92,2.44-2.78Z"/><path class="cls-2" d="M558.64,146.38h8.1l5.46,24.27V146.38h7.68v49.28h-8.09l-5.22-23.6v23.6h-7.93Z"/><path class="cls-2" d="M605.55,146.38v7.86H599v41.42h-8.19V154.24h-6.53v-7.86Z"/><path class="cls-2" d="M610,146.38h10.76q9.9,0,9.9,10.66v7.26c0,4.47-1.79,7.35-5.37,8.67l7.9,22.69h-8.93l-5.62-21.19h-.44v21.19H610Zm8.2,7.86v12.84h1a6.19,6.19,0,0,0,1.72-.14,2.54,2.54,0,0,0,1.55-2.64V157c0-1.87-.81-2.8-2.41-2.8Z"/><path class="cls-2" d="M637.11,146.38h19.3v7.86H645.3v12.84h9.56V175H645.3v12.85h11.11v7.85h-19.3Z"/><path class="cls-2" d="M370.57,257.27V208h8.19v41.42h11.1v7.85Z"/><path class="cls-2" d="M394.05,208h19.3v7.85H402.24V228.7h9.55v7.87h-9.55v12.85h11.11v7.85h-19.3Z"/><path class="cls-2" d="M451.77,247.4q0,10.64-10.64,10.66t-10.6-10.66V217.87q0-10.63,10.6-10.64t10.64,10.64v7h-8.2v-7c0-1.84-.8-2.77-2.41-2.79h-.05c-1.59,0-2.39.93-2.39,2.79V247.4c0,1.86.81,2.78,2.41,2.78s2.44-.92,2.44-2.78v-7h8.2Z"/><path class="cls-2" d="M457.43,208h8.19v20.7h4.85V208h8.2v49.27h-8.2v-20.7h-4.85v20.7h-8.19Z"/><path class="cls-2" d="M505.79,239.6l2.34,17.67h-8.27L498.51,247h-6l-1.38,10.24h-8.25l2.34-17.6,5-31.67h10.63Zm-8.34-.44-2-14.92-2,14.92Z"/><path class="cls-2" d="M512.32,208h8.1l5.46,24.26V208h7.68v49.27h-8.1l-5.22-23.6v23.6h-7.92Z"/><path class="cls-2" d="M550.39,228.7h10.32v18.7q0,10.64-10.64,10.66t-10.6-10.66V217.87q0-10.63,10.6-10.64t10.64,10.64v7h-8.2v-7c0-1.84-.8-2.77-2.41-2.79h-.05c-1.59,0-2.39.93-2.39,2.79V247.4c0,1.86.81,2.78,2.41,2.78s2.44-.92,2.44-2.78V236.57h-2.12Z"/><path class="cls-2" d="M566.62,208h19.29v7.85h-11.1V228.7h9.55v7.87h-9.55v12.85h11.1v7.85H566.62Z"/><path class="cls-2" d="M606.86,240.66,614.44,208h8.1v49.27h-7.9V234.6l-4.83,22.67h-5.76l-5-22.81v22.81h-8V208h8.1Z"/><path class="cls-2" d="M628.94,208h19.29v7.85h-11.1V228.7h9.55v7.87h-9.55v12.85h11.1v7.85H628.94Z"/><path class="cls-2" d="M653.4,208h8.1L667,232.26V208h7.68v49.27h-8.09l-5.22-23.6v23.6H653.4Z"/><path class="cls-2" d="M700.32,208v7.85h-6.53v41.42H685.6V215.85h-6.52V208Z"/><path class="cls-2" d="M738,247.4q0,10.64-10.63,10.66T716.76,247.4V217.87q0-10.63,10.61-10.64T738,217.87v7h-8.2v-7c0-1.84-.8-2.77-2.41-2.79h0c-1.59,0-2.38.93-2.38,2.79V247.4c0,1.86.8,2.78,2.41,2.78s2.43-.92,2.43-2.78v-7H738Z"/><path class="cls-2" d="M743.66,257.27V208h8.2v41.42H763v7.85Z"/><path class="cls-2" d="M767.27,208h8.19v49.27h-8.19Z"/><path class="cls-2" d="M797.76,240.66,805.34,208h8.1v49.27h-7.9V234.6l-4.82,22.67H795l-5-22.81v22.81h-8V208h8.09Z"/><path class="cls-2" d="M840.57,239.6l2.33,17.67h-8.27L833.28,247h-6l-1.38,10.24h-8.24l2.33-17.6L825,208h10.63Zm-8.35-.44-2-14.92-2,14.92Z"/><path class="cls-2" d="M865.6,208v7.85h-6.52v41.42h-8.2V215.85h-6.52V208Z"/><path class="cls-2" d="M870.15,208h8.2v49.27h-8.2Z"/><path class="cls-2" d="M905.62,247.4q0,9.48-7.6,10.44,0,.66,7.6.71v6.8c-4.64,0-7.79-.43-9.43-1.28q-3.3-1.68-3.37-6.13-8.45-.62-8.44-10.54V217.87q0-10.63,10.61-10.64t10.63,10.64Zm-8.2-29.53c0-1.84-.8-2.77-2.41-2.79h0c-1.59,0-2.38.93-2.38,2.79V247.4c0,1.86.8,2.78,2.41,2.78s2.43-.92,2.43-2.78Z"/><path class="cls-2" d="M932.52,247.4q0,10.64-10.63,10.66T911.28,247.4V208h8.2v39.4c0,1.86.8,2.78,2.41,2.78s2.44-.92,2.44-2.78V208h8.19Z"/><path class="cls-2" d="M938.68,208H958v7.85h-11.1V228.7h9.55v7.87h-9.55v12.85H958v7.85H938.68Z"/><path class="cls-3" d="M378.07,743.76a166.52,166.52,0,0,1-40.44-64,172.4,172.4,0,0,1-7.17-27.89c.45.84,1,1.68,1.4,2.46A169.29,169.29,0,0,0,378.07,743.76Z"/><path class="cls-3" d="M527.84,789.3a1.8,1.8,0,0,1-.73.17c.06-.06.06-.12.11-.12A2.86,2.86,0,0,0,527.84,789.3Z"/><path class="cls-3" d="M644.56,550c-.17-.11-.28-.22-.39-.28-.11-.84-.22-1.68-.39-2.52A8.39,8.39,0,0,1,644.56,550Z"/><path class="cls-3" d="M646.3,548.46c-.73.28-.95-.23-1.29-.68a1.49,1.49,0,0,0-1.23-.78c-.17-1.51-.39-3.08-.67-4.59C644.23,544.37,645.29,546.38,646.3,548.46Z"/><path class="cls-4" d="M527.84,789.3a1.8,1.8,0,0,1-.73.17c.06-.06.06-.12.11-.12A2.86,2.86,0,0,0,527.84,789.3Z"/><path class="cls-4" d="M643.78,547a.18.18,0,0,1,0,.22.32.32,0,0,0-.06-.22Z"/><path class="cls-4" d="M644.56,550c-.17-.11-.28-.22-.39-.28-.11-.84-.22-1.68-.39-2.52A8.39,8.39,0,0,1,644.56,550Z"/><path class="cls-4" d="M646.3,548.46c-.73.28-.95-.23-1.29-.68a1.49,1.49,0,0,0-1.23-.78c-.17-1.51-.39-3.08-.67-4.59C644.23,544.37,645.29,546.38,646.3,548.46Z"/><path class="cls-4" d="M667.08,589a5.73,5.73,0,0,1-.84-2.69s.11-.11.17-.11C666.69,587.05,666.85,588,667.08,589Z"/><path class="cls-5" d="M347.37,547.17a5.24,5.24,0,0,1,.67-1.23c-.22.39-.39.78-.61,1.23Z"/><path class="cls-5" d="M366.19,517.87,365,519.39c.28-.45.61-.84,1-1.29A.83.83,0,0,1,366.19,517.87Z"/><path class="cls-5" d="M643.78,547a.18.18,0,0,1,0,.22.32.32,0,0,0-.06-.22Z"/><path class="cls-2" d="M879.47,623.68c-15.91-21.9-136.72-182.48-353.26-194.53-248.07-13.77-395.43,180.58-406,194.92l1,1.34c10.47,14.34,156.88,207.41,405,193.57,216.54-12,337.69-173,353.54-194.91ZM366,518.1a.83.83,0,0,1,.22-.23L365,519.39C365.3,518.94,365.63,518.55,366,518.1ZM479.16,777.2c-.39.45-.67,9-.22,9-.28,2-2.13-1.07-.39,2.18a1.28,1.28,0,0,1,.33,1.35,9.55,9.55,0,0,1-1.06,1.62A168.83,168.83,0,0,1,381.43,747c-1.12-1.06-2.24-2.13-3.36-3.25a166.52,166.52,0,0,1-40.44-64,172.4,172.4,0,0,1-7.17-27.89c.45.84,1,1.68,1.4,2.46a170.28,170.28,0,0,1,15.57-107.2h-.06a5.24,5.24,0,0,1,.67-1.23c-.22.39-.39.78-.61,1.23,2.24,0,4.59.11,5.1.56-.9,2.63,5.88,1.85,5.71,3.47.73-.34-.39,3.14-.39,3.08a24.44,24.44,0,0,0-.9,3.53c1.34-.5.28-2.69,1.62-3.25a38.64,38.64,0,0,1-.22,4.76c.34,2-1.68,7.84-1,8.74.51.62,2.64,3.19,2.08,3.92-.85,1.18-.17,5.43-.45,7a67.06,67.06,0,0,0-1.12,6.95c-.68,3.53-1.46,7.56-1,11.14.68,4.54,2.19,8.63,3.42,13,.84,3.08,2.41,1.18,3.59,3.76,1.45,3.13,2.29,7.45,3.86,10.75.56,1.29,4.87,7.17,1.34,6.55-.22,3.64,5.16,3.76,5.49,7.12.45,3.86,3.59,5,4.65,8.68,3,.11-.28-4.15-.28-4.88-1.79-.11-2.74-5-3-7.11-1.74-.73-2.58-4.54-3.53-6.1-1.62-2.8-3-5.21-2.75-8.63,3.53,1,4.37,4.26,5.61,7.79.5,1.56,1.45,4.42,2.35,5.32,2.07,1.62,2.18,2.74,2.46,4.87,4,2.24,6.5,8.46,8.4,12.32,1.12,2.3-.56,3.64.73,5.83,1.23,2,3.64,2.85,4.54,5,4,1.17,7.78,4,11.26,5.94,2,1.17,3.92,2.52,6.21,3,1.85.39,3.2-1.23,5-1.23,3.42-.06,6.61,5.65,9.24,7.5,1.18,0,10.31,3.81,10.36,2.41.45.06,4.71,6.67,6.05,7.34.34,1.57-1.12,1.79.62,3.08l1,.67c.78.45,1.73.84,1.4-.22,1,2.46,3.24.73,3.24,3.86.4,1,3,1.35,3.59,1.35a3.75,3.75,0,0,1,1.79.28,10.71,10.71,0,0,1,2.75,1.68c1.45,1.06,1.34.78,3.64.72a13.16,13.16,0,0,0-1.12-2.74c2.35.06,2.35-1.34,4.93-.78-.12,1,1.62,3.36,1.12,4.08-2.24.57-4.77-.11-6.33,1.69-.68.78-.62,3.69-1.68,3.86a3.36,3.36,0,0,0-2.64,2.91,2.69,2.69,0,0,0-1.62-1.06c-1,.78,1.4,1.45.56,2.18a2.31,2.31,0,0,0-1.68,1.35c-.11,1.51,1.79,2.85,2,4.37.17,1.68.9,5.6.17,6.88-.34.62-4.09,2.81-2.91,3-1.8.12-.45,2-2.47,2.08-1.46-.34-2,.28-1.46,1.9-.28,1.23-3.69,5.94-1,7,.17,0,2.52.33,2.75,0a2.12,2.12,0,0,1-.28,1.12c-.73,1.29-2.69,1.29-3.53,2.63-.23,1.63,3.3,3.53.84,3.53.67,1.35,2.29,1.63,3.53,2.19a22.27,22.27,0,0,0,2.57,3.53c2,2.18,4.09,4.25,5.1,7.11,2.8,2,3.7,5.38,6.11,7.39a25.39,25.39,0,0,0,7.44,4.09,53.6,53.6,0,0,1,8,4C478.83,771.49,480.28,776,479.16,777.2Zm47.95,12.27c.06-.06.06-.12.11-.12a2.86,2.86,0,0,0,.62-.05A1.8,1.8,0,0,1,527.11,789.47Zm139.3-192.4c-2.13-.39,1.45-9.85-2.64-10.25-.78.73-2.35.34-3.64-.11-.56-.11-1.06-.28-1.45-.39a5.28,5.28,0,0,0-5.55,1.62c.23.68-6.72,1.91-8.23-1.17-.95-1.85,2.8-1.74,3.53-1.68,3.13.16,2.63-2.52,4-4.48.9-1.29,0-1.68-.73-3a24,24,0,0,0,1.35-3.81c3.69.45,1.56-3,2-4.7a1,1,0,0,0-.12-.39,169.65,169.65,0,0,0-8.62-20.22c-.73.28-.95-.23-1.29-.68a1.49,1.49,0,0,0-1.23-.78.18.18,0,0,1,0,.22,8.39,8.39,0,0,1,.78,2.8c-.17-.11-.28-.22-.39-.28-1.51-1.12-2-1-4.26-1.34-.22,1.85,2.75,4.59,4.82,6.72a13.76,13.76,0,0,1,1.57,1.79c1,1.46,2.41,6.61,1.29,8.41a11.55,11.55,0,0,0-2.3-1.29c-3.36-1.63-8.57-3.08-10.25-1.4-.34,1.28,1.51,6.33,1.85,7.89a18.75,18.75,0,0,1-.73,6.56c3.81,2.13-1,6.66,5.49,5.43,2.74,3.31,2.63,7.62-.67,10-3,2.12-1.74,3.64-3.42,5.88-1.79,2.41,1.23,5-1.18,7.78-1.68,2-4.2,2.86-4.92,5.1-1.07,3.19-4.15,4.48-4.21,8.34-3,1.46-2.24,4-4.31,6.05-1.62,1.57-.28,4-.56,6a1.17,1.17,0,0,1,1.12.28c.62,1.06,1,6.21.84,7.39-.17,2-.61,6.72-1.79,8.18-2.35,2.91.34,3.75-.34,6.38a4.75,4.75,0,0,0-.11,1.52c.17,1.73,1.29,3.41,3.36,3-1.62,3.2,4.65,5.27,3.81,9.58.9,2.58,5.38,5.38,7.62,7.39,2.41,2.08,4.14.68,6-.72,1.63-1.29,3.36-2.64,5.71-1.12.84.56,8.24-5.66,9.64-6.44a2,2,0,0,1,.45.67,167.87,167.87,0,0,1-106.81,115.1,157.94,157.94,0,0,1-23.47,6.33c2.74-.9,7-4.43,7.22-6.22.45-5,7.9-5.66,10.14-9.07,5.26-.68,7.79,1.17,11.37-2,3-2.58,3.81-5.21,5.77-8,1.23-1.85-2.07-6.1-.95-8.18,2.46-.72,6.44-1.12,7.5-3.25,4.65-2.18,10.76-6.94,9.36-12.15-.9-3.08-6.11-.22-8.18-1.68-1.79-1.29-3.75-3.53-6.22-3.36-3,.28-5.1-.45-8.12-1-2.07-.39-2.8,2.13-4.59,2.13.39-2.8-2.69-3.86-6.05-3.36-1.07-1.51-3.25-1.23-5.1-.17a5.27,5.27,0,0,0,.45-1.62c-1.46-1.29-3,.16-4.71,0-1.45,1.34-3,2.85-5.65,3,1.12-3.19,4.53-4,6.21-6.72a.73.73,0,0,0,.12-.34c.28-1.34-2.41-2.8-2.86-3.92-1.51-4.09-1.18-3.53-4.7-6a17.35,17.35,0,0,0-8.18-2.74c-2.52-.17-2.75,1-5.1.11-1.46-.51-4.7-1.63-6.83-1.4.89-4.76-4.82-5.77-7.62-5.38a8.07,8.07,0,0,1,2.18-2.18,4.14,4.14,0,0,0-2.18-1.4c1.23-.28.67-2.47,1.06-3.25-2.35-.39-3.47,3.3-4.92,1.62.44-.56,1.79,0,1.68-1.06-2.08-1.29-5.89-.62-7.73.67-2.52,1.79-4.82-1.4-7.45-1.06-2.19.22-3.08.72-4.2-1.12a3.75,3.75,0,0,0-3.87-1.46c-.67-.56-.89-3.19-2.35-2.24-.84.56-.95,1.9.45,2-1.18,1.12-3.31.56-4.37,1.68-.51-.11-1.29-1.79-.23-2.07,4.43-1.12-1.51-2.41-2.4-3.87a5,5,0,0,0-2.47-2.24c-3.47-1.51-8.57.23-11.82.56-1-1.4-2.68-2.91-3.92-4.54a5.94,5.94,0,0,1-1.45-4.76c.28-1.45,2-8,.72-8.9-2.29-1.79-3.36-3.7-7.39-3.59a60.43,60.43,0,0,1-8.51,0c2.69-5.37,1.73-9.85,4.93-15.06,2.57-4.15-8-2.3-9.3-1.85-2.35.67-1.79,1.79-2.18,4-.23,1.51-2.41,3.19-2.19,4.43a11.51,11.51,0,0,0-3.47,0c-1.74.16-3.47.33-4.65-.56-2-1.63-3.53.84-4.93-1.85-.9-1.63-.78-4.26-1.79-5.88-2.19-3.48-3.08-10.53-.73-14,2.07-3.08-1.34-6.27,2-8.79,1.46-1.12,3.14-5.54,3.14-7.9,2.74-.22,8,2.8,10.41,3,.68,1.57,4.37,3.25,4.6.84.89.67,1.73,2,3,1.07a1.74,1.74,0,0,0-1.34-1.63,2.91,2.91,0,0,0,.22-2.46c1.79-1,3.53.45,4.65.5a5.51,5.51,0,0,1,3.64-.11c.9.22,3.14-1.18,4-1.51-.34,2.13.78,3.64,2,2.74,2.13-1.57,2.57.79,4.09,2.24,2.18,2.07-.62,6.78,3.58,9.19-.33,1.79,2.41,6.72,3.36,6.55,7.45-.9-2.46-17.7-1.23-22.12a8.21,8.21,0,0,1,4.59-5.77c2.24-1.23-.17-6.28,2.08-7s5.82.39,8.06-.51c1.23-.5,2-1.23.5-2.07a23.45,23.45,0,0,1,3.31-2.18c-.11-1.68-2.75-4.54-2.47-5.72.28.17,1.18-.5,1.13-.16.33,1,2.18-2.58,2.35-2.81,1.29-2.24-2.07-3.58-1.57-5.48,1.12.28,4.2,1.28,4.93-.4s-1.35-10.08-2.24-10c2.8-3.24,9.91,5.55,12.54,3,2.19.17,3.25.39,3.25-1.9-.84-1-2.35-.06-3-1.4.34-2.41,2.19-3.42,4.65-4.26,1-.39,1.07-1.9,1.57-2.86,1.51-.11,2.52-1.06,3.92-1.56,3.81-1.52,1.12-1.12,2.35-1.68.17-.06,6-.51,6-1.07.39,1.07-4.37,2.52-4,4.71.51,3.41,4.49-.84,6.56-1.35,1.85-3.86,6.61-1.79,10.58-2.63.4-1.18-1-.62-.78-1.62a4.1,4.1,0,0,0,4-1.35c.61-.84.28-1.62-1.57-1.4,0-.9-1.79-8.46-4.48-5.1-1.4,1.68.95,5.1.95,7a9.23,9.23,0,0,0-3.53-.23,16.83,16.83,0,0,1-2.46,0c-.79-1.29-1.29-1.17-2.58-1.68-1.06-.45-2.13-3.36-2.63-3.25a10.32,10.32,0,0,0,1.34-2.46,27.73,27.73,0,0,0-4-.79c2.13,0,7.5-1.23,4.76-3.75-2.07-1.85-5.1.28-7.39,1.07a23.13,23.13,0,0,0-6.28,3.24c-.61.45-3.08.17-4.2.56,0-1.45,4-4.2,5.21-4.87,2-1.06,3.31-.22,4.59-2.52.28-1.79,1.29-2.46,3-2.18,2.18-.12,5.66-1.4,8.06-1.24,4.26.28,7.57,2,11.26.9,1.79-.56,2.91-2.24,4.09-3.58,1.62,0,3.25-.12,4.93-.28,2.24-.12,4-2.13,3.36-3.81s.22-6.84-3.92-4.65c-.73-.11-.5-2.63-3.31-2.13a10.87,10.87,0,0,0,2.19-1.4c-.84-1.57-8.12-2.13-9.86-1.4-.39-.95,1-2.8-1.06-4.31-1-.79-4.15-.73-3.87-2.69,1.85,1.79,4.26-1.23.28-2.47-.11-.84,2.8-.28-.11-2.07-.67-.39-2.91-1.79-2.46-2.58.84-1.56-5.77-7.61-7.51-1-.22,1-7.62,3.53-8.18,2.29-.89-2-1.4-.89-2.35-.61-.73.22-1.74-.28-2.86-.9-.33-1.12,1.85-.73,1.24-3.58-.56-2.64-.84-1.68.44-3.64,1.13-1.68-7.39-.34-6.6-3.14-2.19-1.23-4.43-3.47-6.95-2.52-2.13.78-3.75,2.35-6,1.73-1.63-.44-3.81-2.46-5.16-.95-1,1.12-1.12,2.63.62,3.14a30.14,30.14,0,0,0-2.18,3,2.49,2.49,0,0,0,1.9.28,3,3,0,0,0,.56,2.47c-.39.61-.5,1.85-1.23,2.13-.56,2.57-4.2,2.46-.56,4.42,2.74,1.46,7.39,4.59,5.77,8-1.23,2.47-8.91,4.26-11.82,4.82-.34,2.57,1.34,2.52,1.4,5,.06,1.4.9,3,.78,4.26-.22,3.14-1.45,1.68-3,3.14-1.63,1.68-2.75-1.46-4.26-2.19-2.3-1.06-2.8-2.69-2.52-4.82s.84-5.82-1.51-6.32c-4.2-.84-9.36.56-13-2.13-1.85-1.35-3.14-3.76-5.72-4.2-1.34-.23-3,1.28-4.09,1.62-.89.28-2.18-.34-2.74.56.78-1.23-.39-6.16-3.14-6s-3.13-3.3-2.52-4.59c.79-1.51,5.66-3.14,5.88-4.65.06-.56,5-4.37,3.59-4.37,5-1.79,4-1.85-.62-3a4.78,4.78,0,0,1,3.31-1.35c2.29.11,4.65,1.35,3.52-1.12,3.25,1.07,6.84-1.29,7.9-4.37-.73-.28-7.56-.33-7.11-1.62,2.74.95,5.54,1.79,8-.06,2.07-1.57,3.53-2.13,1-3a21.73,21.73,0,0,1,7.61-.56,2.37,2.37,0,0,0-2.46-1.62c1.23-1.06,2.41.34,3.53.45a5.36,5.36,0,0,0,4.93-2c3.08-3.47-3.7-2-2.52-5,.33-.33,1.73-.22,2.24-.05.78.22,1.51.5,1.73-.79.28-1.9-1.56-1.4-3.08-1.79-2.52-.62-10.53,1.63-5.49,2.58a6.26,6.26,0,0,1-2.4,1.06,12.34,12.34,0,0,1-2.3,3.25c-1.85,2-3.47,2.58-5.1.06.28-.45,3.59-4.88-.39-3.42-1.62.56-2.58,2.3-4,3.14.73-1-.89-2.36.56-3-.67-.67-1.62-.39-2.57-.06a5.31,5.31,0,0,1-1.52.34c-.16-1.57,1.74-.84,2.19-1.91-.95-1.4-2.63-.39-2.24-2.24s-3.64-.5-4.26-.22c-1.85.78-2.91,2.63-4.7,3.81a1.06,1.06,0,0,0,1.06.28c-.17.78-2.52,2.07.11,2.29a11.18,11.18,0,0,0,3-.33,13.83,13.83,0,0,1,2.63-.34c0,.51-3.64,1.79-3.81,2,.06.79.67.56,1.23.39a2,2,0,0,1,1-.16c-.84,1.56-3.42,2.12-4.6,2.91-2,1.4-.16,1.4-1.12,2.85-2.24.29-.84-1.56-.56-2.46-1.45-.45-5.54-.34-5.21,1.9-1.51.73-7.95,3.87-9.52,3-3.36-1.79-7.73,2.86-9.8,5.21-4.48-.17-6.83,3.75-10.92,4.42a29.51,29.51,0,0,1,2.46-2.18c-1.68-1.23-9,5-10.08,6.27-5.15,5.71-1.62-1-7.11-1.62-.73.67,1.12,1.29.84,2.18-.9,0-3.53,1.29-4.37,1.68a20.35,20.35,0,0,0-4.76,2.07c1.9-2.4,3.92-4.76,6-7.05,63.29-69.9,171.28-75.22,241.24-11.93a168.4,168.4,0,0,1,35.67,45.59l.23-.22a172.09,172.09,0,0,1,14.06,34.95,13.25,13.25,0,0,1-.73-1.57,100.78,100.78,0,0,1,2.58,9.91c.11-.11.22-.06.28.06.28,1.06.5,2.18.72,3.3-.11-.17-.22-.39-.33-.56.78,3.7,1.4,7.39,1.9,11.15C668.09,598.47,667.19,597.24,666.41,597.07Z"/><path class="cls-5" d="M664.56,577.81a13.25,13.25,0,0,1-.73-1.57,161.91,161.91,0,0,0-13.56-33.16l.23-.22A172.09,172.09,0,0,1,664.56,577.81Z"/><path class="cls-5" d="M667.41,589.51c-.11-.17-.22-.39-.33-.56a5.73,5.73,0,0,1-.84-2.69s.11-.11.17-.11.22-.06.28.06C667,587.27,667.19,588.39,667.41,589.51Z"/><path class="cls-2" d="M466.62,657.45c-1.63-1-3.36-.33-4.2-2.24-.95-2.18-2.64-1.06-4.82-2.13-2.58-1.23-5.82-.67-6.27-3.25-1.63.84-6.11,3.65-7.68,3.31-1.28-2.3,2.92-4.54,4.37-4.93,3.25-.84,5.55.45,8.52.39,2.18-.05,4.25,2,6.61,2.69,1.28.39,2.68,1,3.19,2.3a24.59,24.59,0,0,1,5.71,1.62c.62.56-.33.73-.22,1.4,1.79-.11,4.59-.11,4.59,2.41-3.75.56-7.62,0-11.43.62C464.77,658.12,466.06,658.4,466.62,657.45Z"/><path class="cls-2" d="M495.3,663.67c-.12,3.92-9-2-9.58,3.25a3,3,0,0,1-2.41-1.63,9,9,0,0,1-3.47-.17c-1.4-.22-4.93,1.18-4.48-2,2.07-.89,3.92,1.18,6,.23,0-.11-3.25-3.53-3.25-3.53.45-1.9,6-.45,7.51-.62C488.46,659,493.11,661,495.3,663.67Z"/><path class="cls-2" d="M504,664.45c.39,1.57-5.49,3-5.6.34S503.36,664.4,504,664.45Z"/><path class="cls-2" d="M545.7,562.74c-.33,1.17-.39,2.18-1.4,2.18a3.41,3.41,0,0,1-.95-.16c-2.69-.9-2.18-.85-2-3.14a1.17,1.17,0,0,0-.45-.06,3.19,3.19,0,0,0-2.07,1l-.17.17a3.88,3.88,0,0,1-2.29,1.12,2.86,2.86,0,0,1-1.29-.34,6.13,6.13,0,0,1,2.35-2,.83.83,0,0,1,.39-.22c-.05-.11-.39-.11-1-.17s-1.06-.06-1.74-.06c-.89,0-1.9.06-2.85.06s-1.74.06-2.35.06h-.73a.58.58,0,0,0-.28-.06c-.23,0-.51.06-.79.06h-.89a4.85,4.85,0,0,1-1-.06c-1-.06-1.73-.34-1.84-1a1.48,1.48,0,0,1,.16-.78,3.09,3.09,0,0,1,2.3-1.57,1.47,1.47,0,0,1,.28-2.24c.06-.06.17-.11.28-.22,1-1,1.63-3.08,2.58-5.05s2.07-3.69,4.14-4.14a4.67,4.67,0,0,1,.95-.11,8.58,8.58,0,0,1,1.85.28,4.06,4.06,0,0,1-.45,1.17c-.84,1.46-2.63,3.48-3.36,4.6,0-.06.17-.06.34-.06,1.29,0,5.21.23,2.07,1.12a3.26,3.26,0,0,0,2.35,1,10.37,10.37,0,0,0,1.18-.11,7.63,7.63,0,0,1,1.29-.17,4.24,4.24,0,0,1,1.12.17c2.52.56.39,2.13.39,3.47h.23a2.38,2.38,0,0,0,.84-.22,1.93,1.93,0,0,1,.78-.23,1,1,0,0,1,.62.17c.22,1.06-.4,1.29-1,1.51s-1,.45-.9,1.23C543.07,560.55,546.43,560.16,545.7,562.74Z"/></svg>