<svg id="Calque_1" data-name="Calque 1" xmlns="http://www.w3.org/2000/svg" viewBox="0 0 1000 1000"><defs><style>.cls-1{fill:#ea9603;}.cls-2{fill:#fff;}.cls-3{fill:none;stroke:#fff;stroke-miterlimit:10;stroke-width:0.75px;}</style></defs><rect class="cls-1" x="-8.12" y="-8.12" width="1016.24" height="1016.24" rx="2.93"/><path class="cls-2" d="M73.11,291.18q0-35.22,35.09-60.28,32.91-23.53,33-39.34V142.08q0-14.54-12.47-14.53h-.26q-12.6,0-12.59,14.53v36.37H73.11V142.08q0-55.67,55.4-55.66T184,142.08v50.38q0,35.86-35.22,61.06-32.91,23.52-32.9,40.75v12.59H184v41H73.11Z"/><path class="cls-2" d="M306,216.38v-104h17.3V199.8h23.44v16.58Z"/><path class="cls-2" d="M399.85,195.54q0,22.44-22.45,22.5T355,195.54V112.35h17.31v83.19c0,3.92,1.69,5.87,5.09,5.87s5.14-1.95,5.14-5.87V112.35h17.31Z"/><path class="cls-2" d="M453.52,112.35v16.57H439.75v87.46h-17.3V128.92H408.68V112.35Z"/><path class="cls-2" d="M503.56,112.35v16.57H489.79v87.46h-17.3V128.92H458.72V112.35Z"/><path class="cls-2" d="M512.92,112.35h40.73v16.57H530.22v27.13h20.16v16.63H530.22V199.8h23.43v16.58H512.92Z"/><path class="cls-2" d="M634.77,195.54q0,22.44-22.45,22.5t-22.4-22.5V133.19q0-22.45,22.4-22.45t22.45,22.45v14.75H617.46V133.19c0-3.88-1.69-5.84-5.09-5.88h-.1q-5,0-5,5.88v62.35c0,3.92,1.69,5.87,5.09,5.87s5.14-1.95,5.14-5.87V180.78h17.31Z"/><path class="cls-2" d="M690.52,195.54q0,22.44-22.44,22.5t-22.4-22.5V133.19q0-22.45,22.4-22.45t22.44,22.45Zm-17.3-62.35q0-5.82-5.09-5.88H668q-5,0-5,5.88v62.35c0,3.92,1.7,5.87,5.1,5.87s5.14-1.95,5.14-5.87Z"/><path class="cls-2" d="M703,112.35h17.1l11.53,51.23V112.35h16.22v104h-17.1l-11-49.84v49.84H703Z"/><path class="cls-2" d="M802,112.35v16.57H788.26v87.46H771V128.92H757.19V112.35Z"/><path class="cls-2" d="M811.39,112.35H834.1q20.88,0,20.88,22.5v15.33q0,14.13-11.32,18.29l16.68,47.91H841.47l-11.84-44.74h-.94v44.74h-17.3Zm17.3,16.57v27.13h2.08a13.39,13.39,0,0,0,3.64-.31q3.27-1.31,3.27-5.56V134.85q0-5.92-5.09-5.93Z"/><path class="cls-2" d="M868.65,112.35h40.74v16.57H886v27.13h20.16v16.63H886V199.8h23.44v16.58H868.65Z"/><path class="cls-2" d="M306,350.8v-104h17.3v87.45h23.44V350.8Z"/><path class="cls-2" d="M399.27,313.49l4.94,37.31H386.75l-2.86-21.62H371.16l-2.91,21.62h-17.4l4.93-37.15,10.55-66.88h22.45Zm-17.61-.93-4.16-31.49-4.16,31.49Z"/><path class="cls-2" d="M439.44,246.77h40.74v16.58H456.74v27.12h20.17V307.1H456.74v43.7h-17.3Z"/><path class="cls-2" d="M531,313.49l4.94,37.31H518.48l-2.86-21.62H502.89L500,350.8H482.57l4.94-37.15,10.54-66.88H520.5Zm-17.62-.93-4.15-31.49-4.16,31.49Z"/><path class="cls-2" d="M545,246.77h17.3v104H545Z"/><path class="cls-2" d="M609.41,315.73l16-69h17.1v104H625.83V302.94L615.65,350.8H603.49l-10.55-48.17V350.8H576.1v-104h17.1Z"/><path class="cls-2" d="M795.63,698.7c0,84.89-70.2,157.67-170,188.21a16.3,16.3,0,0,0-11.45,15.61v5.62a16.39,16.39,0,0,1-16.39,16.39H443a16.39,16.39,0,0,1-16.39-16.39v-5.62a16.3,16.3,0,0,0-11.45-15.61c-99.82-30.54-170-103.32-170-188.21v-.16a16.25,16.25,0,0,1,16.39-16H779.24a16.24,16.24,0,0,1,16.39,16Z"/><path class="cls-2" d="M463.91,644.49a16.4,16.4,0,0,1-16.39,17.58H408.21a5.11,5.11,0,0,0,.06-1c.78-17-2.69-32.21-10.31-45.2-5.09-8.63-10.41-13.73-16.58-19.61-8-7.73-17.08-16.41-22.68-31-12.83-33.1,1.29-70.74,43-115a28,28,0,0,1,40.77,38.43c-27.89,29.57-34.61,48.56-31.59,56.46,1.12,2.8,3.92,5.54,9.24,10.64,7.23,6.89,17.09,16.35,26.1,31.7A131.18,131.18,0,0,1,463.91,644.49Z"/><path class="cls-2" d="M519.34,662.07c0-.34,0-.62,0-1,.84-17-2.63-32.21-10.25-45.2-5.09-8.63-10.41-13.73-16.58-19.61-8-7.73-17.13-16.41-22.74-31-12.77-33.1,1.29-70.74,43.08-115a28,28,0,1,1,40.72,38.43c-27.9,29.57-34.56,48.56-31.54,56.46,1.07,2.8,3.92,5.54,9.24,10.64,7.17,6.89,17,16.35,26.1,31.7a132,132,0,0,1,17.64,57,16.41,16.41,0,0,1-16.39,17.6Z"/><path class="cls-2" d="M685.31,644.49a16.4,16.4,0,0,1-16.38,17.58H629.62a5.11,5.11,0,0,0,.06-1c.78-17-2.69-32.21-10.31-45.2-5.1-8.63-10.42-13.73-16.58-19.61-8-7.73-17.08-16.41-22.68-31-12.83-33.1,1.29-70.74,43-115a28,28,0,0,1,40.78,38.43c-27.89,29.57-34.62,48.56-31.53,56.46,1.06,2.8,3.86,5.54,9.18,10.64,7.23,6.89,17.08,16.35,26.1,31.7A131,131,0,0,1,685.31,644.49Z"/><line class="cls-3" x1="575.4" y1="645.27" x2="519.34" y2="645.27"/><line class="cls-3" x1="464.22" y1="645.27" x2="408.21" y2="645.27"/><line class="cls-3" x1="685.63" y1="645.27" x2="629.62" y2="645.27"/></svg>