<svg id="Calque_1" data-name="Calque 1" xmlns="http://www.w3.org/2000/svg" viewBox="0 0 1000 1000"><defs><style>.cls-1{fill:#4c9e37;}.cls-2{fill:#fff;}</style></defs><rect class="cls-1" x="-8.12" y="-8.12" width="1016.24" height="1016.24"/><path class="cls-2" d="M115.53,296.19q.39,14.54,13.11,14.53t13-14.53V253.26q0-12.21-4.11-14c-1.54-.68-4.2-1-8-1H114v-41h18.38q4.11,0,5.91-1,3.34-1.92,3.34-13.37V142.08q-.37-14.54-13-14.53t-13.11,14.53v36.37H73.11V142.08q0-55.53,55.53-55.66T184,142.08v41q0,26.22-17.22,35.09Q184,227,184,253.26v42.93q0,55.67-55.4,55.66T73.11,296.19V259.82h42.42Z"/><path class="cls-2" d="M349.7,179.07l4.94,37.31H337.18l-2.86-21.62H321.59l-2.91,21.62H301.27l4.94-37.16,10.55-66.87h22.45Zm-17.61-.94-4.16-31.49-4.16,31.49Z"/><path class="cls-2" d="M407.28,195.54q0,22.44-22.45,22.5t-22.4-22.5V133.19q0-22.45,22.4-22.45t22.45,22.45v14.75H390V133.19c0-3.88-1.69-5.84-5.09-5.88h-.1q-5,0-5,5.88v62.35c0,3.92,1.69,5.87,5.09,5.87s5.14-1.95,5.14-5.87V180.78h17.31Z"/><path class="cls-2" d="M463,195.54Q463,218,440.58,218t-22.39-22.5V133.19q0-22.45,22.39-22.45T463,133.19v14.75h-17.3V133.19q0-5.82-5.09-5.88h-.11q-5,0-5,5.88v62.35c0,3.92,1.7,5.87,5.09,5.87s5.15-1.95,5.15-5.87V180.78H463Z"/><path class="cls-2" d="M475,112.35h40.74v16.57H492.29v27.13h20.16v16.63H492.29V199.8h23.43v16.58H475Zm1.87-17.1h13.41l16.52,15.23H491.92l-15.07-9.77Z"/><path class="cls-2" d="M523,133.19q0-22.45,22.39-22.45t22.45,22.45v14.75h-17.3V133.19q0-5.82-5.1-5.88h-.1q-5,0-5,5.88v9.24q0,6.34,13.3,15.9,14.24,10.14,14.24,24.32v12.89q0,22.5-22.4,22.5T523,195.54V180.78h17.3v14.76c0,3.92,1.71,5.87,5.14,5.87s5.1-1.95,5.1-5.87V183.9q0-6.92-13.31-16.47Q523,157.29,523,142.75Z"/><path class="cls-2" d="M651.5,179.07l4.94,37.31H639l-2.86-21.62H623.39l-2.91,21.62H603.07L608,179.22l10.55-66.87H641ZM611.28,95.25h13.41l16.52,15.23H626.35l-15.07-9.77Zm22.6,82.88-4.15-31.49-4.16,31.49Z"/><path class="cls-2" d="M306,350.8v-104h17.3v87.45h23.44V350.8Z"/><path class="cls-2" d="M399.27,313.49l4.94,37.31H386.75l-2.86-21.62H371.16l-2.91,21.62h-17.4l4.93-37.15,10.55-66.88h22.45Zm-17.61-.93-4.16-31.49-4.15,31.49Z"/><path class="cls-2" d="M438.4,267.61q0-22.46,22.4-22.45t22.45,22.45v14.76H465.94V267.61q0-5.82-5.09-5.87h-.1c-3.36,0-5,1.95-5,5.87v9.25q0,6.33,13.3,15.9,14.24,10.13,14.24,24.32V330q0,22.5-22.4,22.5T438.4,330V315.21h17.31V330q0,5.88,5.14,5.88t5.09-5.88V318.32q0-6.9-13.3-16.47-14.24-10.12-14.24-24.68Z"/><path class="cls-2" d="M539.47,313.49l4.94,37.31H527l-2.86-21.62H511.36l-2.91,21.62H491L496,313.65l10.54-66.88H529Zm-17.62-.93-4.15-31.49-4.16,31.49Z"/><path class="cls-2" d="M553.24,246.77h17.09L581.87,298V246.77h16.21v104H581L570,301V350.8H553.24Z"/><path class="cls-2" d="M652.28,246.77v16.58H638.51V350.8h-17.3V263.35H607.44V246.77Z"/><path class="cls-2" d="M661.63,246.77h40.74v16.58H678.94v27.12H699.1V307.1H678.94v27.12h23.43V350.8H661.63Zm38.87-11.64-15.07,9.77H670.57l16.52-15.22H700.5Z"/><path class="cls-2" d="M506.09,903.44l-.88,0a14,14,0,0,1-12.93-11.65l-33.13-197-54,88.11a14,14,0,0,1-25.81-5.46L358.62,623.5l-40.38,90.18A14,14,0,0,1,305.46,722H124a14,14,0,0,1,0-28h172.4l56.78-126.81A14,14,0,0,1,379.83,571l22,163.65,53-86.43a14,14,0,0,1,25.75,5L510,827.9,629.79,428.7a14,14,0,0,1,26-2.19l65.53,132.07A14,14,0,0,1,696.19,571L646.42,470.71,519.5,893.46A14,14,0,0,1,506.09,903.44Z"/><path class="cls-2" d="M730.18,655.36c17.48-26.17,52.33-31,73.09-14.62,17,13.42,22.68,39.6,11.59,62L730.68,792h-1l-84.18-89.23c-11.08-22.4-5.38-48.58,11.59-62,20.76-16.41,55.49-11.74,73,14.43Z"/></svg>