<svg id="Calque_1" data-name="Calque 1" xmlns="http://www.w3.org/2000/svg" viewBox="0 0 1000 1000"><defs><style>.cls-1{fill:#fe3a21;}.cls-2{fill:#fff;}</style></defs><rect class="cls-1" x="-8.12" y="-8.12" width="1016.24" height="1016.24"/><path class="cls-2" d="M284.54,84h40.74v16.58H301.85v27.12H322v16.63H301.85v27.12h23.43V188H284.54Zm38.87-11.64-15.07,9.77H293.48L310,66.92h13.4Z"/><path class="cls-2" d="M355.63,127.71H377.4V167.2q0,22.45-22.45,22.5t-22.39-22.5V104.85q0-22.45,22.39-22.45t22.45,22.45v14.76H360.1V104.85Q360.1,99,355,99h-.1c-3.36,0-5,2-5,5.87V167.2c0,3.92,1.7,5.87,5.09,5.87s5.15-1.95,5.15-5.87V144.34h-4.47Z"/><path class="cls-2" d="M433.62,150.73,438.56,188H421.1l-2.86-21.62H405.51L402.6,188H385.2l4.93-37.15L400.68,84h22.45ZM416,149.79l-4.16-31.48-4.15,31.48Z"/><path class="cls-2" d="M447.39,188V84H464.7v87.45h23.43V188Z"/><path class="cls-2" d="M497.23,84h17.3V188h-17.3Z"/><path class="cls-2" d="M569,84v16.58H555.22V188H537.91V100.59H524.14V84Z"/><path class="cls-2" d="M578.34,84h40.74v16.58H595.64v27.12H615.8v16.63H595.64v27.12h23.44V188H578.34Zm38.87-11.64-15.07,9.77H587.28L603.8,66.92h13.41Z"/><path class="cls-2" d="M653.79,84h40.74v16.58H671.09v27.12h20.16v16.63H671.09v27.12h23.44V188H653.79Z"/><path class="cls-2" d="M705.44,84h17.1l11.53,51.24V84h16.21V188H733.19l-11-49.83V188H705.44Z"/><path class="cls-2" d="M804.48,84v16.58H790.71V188h-17.3V100.59H759.64V84Z"/><path class="cls-2" d="M813.83,84h22.71q20.9.06,20.89,22.5v15.33q0,14.13-11.33,18.29L862.78,188H843.92L832.07,143.3h-.93V188H813.83Zm17.31,16.58v27.12h2.07a12.89,12.89,0,0,0,3.64-.31c2.19-.87,3.27-2.72,3.27-5.56V106.51c0-4-1.69-5.92-5.09-5.92Z"/><path class="cls-2" d="M871.1,84h40.73v16.58H888.4v27.12h20.16v16.63H888.4v27.12h23.43V188H871.1Z"/><path class="cls-2" d="M284.54,322.46v-104h17.31v87.46h23.43v16.57Z"/><path class="cls-2" d="M334.12,218.43h40.74V235H351.42v27.12h20.16v16.63H351.42v27.13h23.44v16.57H334.12Z"/><path class="cls-2" d="M384.73,239.27q0-22.44,22.39-22.45t22.45,22.45V254h-17.3V239.27q0-5.82-5.09-5.87h-.11q-5,0-5,5.87v9.25q0,6.34,13.3,15.9,14.24,10.14,14.24,24.32v12.89q0,22.5-22.39,22.5t-22.45-22.5V286.87H402v14.76q0,5.87,5.15,5.87t5.09-5.87V290q0-6.92-13.31-16.48-14.23-10.12-14.23-24.68Z"/><path class="cls-2" d="M467.4,239.27q0-22.44,22.39-22.45t22.45,22.45V254h-17.3V239.27q0-5.82-5.09-5.87h-.11q-5,0-5,5.87v9.25q0,6.34,13.31,15.9,14.24,10.14,14.23,24.32v12.89q0,22.5-22.39,22.5t-22.45-22.5V286.87h17.3v14.76q0,5.87,5.15,5.87t5.09-5.87V290q0-6.92-13.3-16.48-14.25-10.12-14.24-24.68Z"/><path class="cls-2" d="M524.71,218.43h40.74V235H542v27.12h20.16v16.63H542v27.13h23.43v16.57H524.71Z"/><path class="cls-2" d="M589.15,218.43l8.57,29.83,8.52-29.83H623.7l-17.25,52,17.25,52H606.24l-8.52-33-8.57,33H571.69l17.25-52-17.25-52Z"/><path class="cls-2" d="M632.59,218.43h40.74V235H649.89v27.12h20.16v16.63H649.89v27.13h23.44v16.57H632.59Z"/><path class="cls-2" d="M683.2,239.27q0-22.44,22.4-22.45T728,239.27V254h-17.3V239.27q0-5.82-5.09-5.87h-.11q-5,0-5,5.87v9.25q0,6.34,13.3,15.9,14.25,10.14,14.24,24.32v12.89q0,22.5-22.39,22.5t-22.45-22.5V286.87h17.3v14.76q0,5.87,5.15,5.87t5.09-5.87V290q0-6.92-13.3-16.48-14.24-10.12-14.24-24.68Z"/><path class="cls-2" d="M566.78,381.44v53.07H605L569.8,471.08a177.63,177.63,0,0,0-110-38.05C361.49,433,281.56,513,281.56,611.25c0,89.27,65.92,163.41,151.68,176.25v14.28H371.89v53.07h61.35v61.36h53.08V854.85h61.35V801.78H486.32V787.5C572.08,774.66,638,700.52,638,611.25a177,177,0,0,0-31.79-101.48l36.25-37.68v44.37h53.07v-135Zm-107,349.65A119.84,119.84,0,1,1,579.62,611.25,120,120,0,0,1,459.78,731.09Z"/><rect class="cls-2" x="384.31" y="570.6" width="150.94" height="47.77"/><rect class="cls-2" x="384.31" y="631.52" width="150.94" height="47.77"/><path class="cls-2" d="M140.08,224.73q0-11.83-4-13.5c-1.55-.77-4.33-1.16-8.36-1.16-1,0-2.1.05-3.21.13q-8.36.39-9.39,7.46l-.51,12.59H71.83L77.48,90.53h105.4v41H118.61l-2,43.06q4-4.64,21.59-4.63a47.12,47.12,0,0,1,4.89.26q20.57,1.8,31.36,16.58,8.49,11.7,8.48,37.92v71.59q0,55.53-55.52,55.53T72,296.32V263.93h42.8v32.39q0,14.54,12.6,14.53t12.72-14.53Z"/></svg>