<svg id="Calque_1" data-name="Calque 1" xmlns="http://www.w3.org/2000/svg" viewBox="0 0 1000 1000"><defs><style>.cls-1{fill:#25bde2;}.cls-2{fill:#fff;}</style></defs><rect class="cls-1" x="-8.12" y="-8.12" width="1016.24" height="1016.24"/><path class="cls-2" d="M184,296.32q0,55.53-55.53,55.53t-55.4-55.53V142.08q0-55.67,55.4-55.66T184,142.08v36.37h-42.8V142.08q0-14.54-12.6-14.53h-.26q-12.47,0-12.46,14.53v54.63q5.52-5,21.85-5,2.82,0,5.91.26,18.9,1.94,29.56,13.5T184,246.19Zm-68.12,0q0,14.54,12.59,14.53t12.73-14.53V246.19q0-12-4-13.49c-1.54-.78-4.33-1.16-8.35-1.16-1,0-2.1,0-3.22.13q-9.77.38-9.76,14.52Z"/><path class="cls-2" d="M307,166l2.86,21.6H299.78l-1.66-12.51h-7.37l-1.68,12.51H279l2.86-21.51L288,127.38h13Zm-10.2-.54-2.4-18.23L292,165.46Z"/><path class="cls-2" d="M340.36,175.54q0,13-13,13t-13-13v-36.1q0-13,13-13t13,13V148h-10v-8.54q0-3.37-2.94-3.4h-.06q-2.93,0-2.92,3.4v36.1c0,2.26,1,3.4,2.95,3.4s3-1.14,3-3.4V167h10Z"/><path class="cls-2" d="M372.64,175.54q0,13-13,13t-13-13v-36.1q0-13,13-13t13,13V148h-10v-8.54q0-3.37-2.94-3.4h-.06q-2.92,0-2.92,3.4v36.1c0,2.26,1,3.4,2.95,3.4s3-1.14,3-3.4V167h10Z"/><path class="cls-2" d="M379.56,127.38h23.59V137H389.58v15.7h11.67v9.63H389.58V178h13.57v9.6H379.56Zm1.08-9.9h7.77l9.56,8.81h-8.6l-8.73-5.65Z"/><path class="cls-2" d="M407.36,139.44q0-13,13-13t13,13V148h-10v-8.54q0-3.37-2.95-3.4h-.06q-2.91,0-2.91,3.4v5.35q0,3.68,7.7,9.21,8.24,5.87,8.24,14.08v7.46q0,13-13,13t-13-13V167h10v8.54c0,2.26,1,3.4,3,3.4s2.95-1.14,2.95-3.4V168.8q0-4-7.7-9.54-8.24-5.87-8.24-14.29Z"/><path class="cls-2" d="M481.75,166l2.86,21.6H474.5l-1.65-12.51h-7.37l-1.69,12.51H453.72l2.86-21.51,6.1-38.71h13Zm-23.28-48.52h7.76l9.57,8.81h-8.61l-8.72-5.65Zm13.09,48-2.41-18.23-2.41,18.23Z"/><path class="cls-2" d="M503.93,187.6V127.38h10V178h13.57v9.6Z"/><path class="cls-2" d="M525.83,127.34h12v9.33l-3.37,11.49h-7l1.75-9.83h-3.4Z"/><path class="cls-2" d="M545.68,127.38h23.59V137H555.7v15.7h11.67v9.63H555.7V178h13.57v9.6H545.68Z"/><path class="cls-2" d="M600.92,166l2.85,21.6h-10.1L592,175.09h-7.37L583,187.6H572.88l2.86-21.51,6.1-38.71h13Zm-10.2-.54-2.41-18.23-2.41,18.23Z"/><path class="cls-2" d="M634.55,175.54q0,13-13,13t-13-13V127.38h10v48.16c0,2.26,1,3.4,2.95,3.4s3-1.14,3-3.4V127.38h10Z"/><path class="cls-2" d="M656.75,139.44q0-13,13-13t13,13V148h-10v-8.54c0-2.25-1-3.38-3-3.4h-.06q-2.93,0-2.92,3.4v5.35q0,3.68,7.7,9.21,8.24,5.87,8.24,14.08v7.46q0,13-13,13t-13-13V167h10v8.54c0,2.26,1,3.4,3,3.4s3-1.14,3-3.4V168.8q0-4-7.71-9.54-8.24-5.87-8.24-14.29Z"/><path class="cls-2" d="M715.26,166l2.86,21.6H708l-1.65-12.51H699L697.3,187.6H687.22l2.86-21.51,6.11-38.71h13Zm-10.2-.54-2.4-18.23-2.41,18.23Z"/><path class="cls-2" d="M723.23,187.6V127.38h10V178h13.57v9.6Z"/><path class="cls-2" d="M777.6,175.54q0,13-13,13t-13-13V127.38h10v48.16c0,2.26,1,3.4,3,3.4s3-1.14,3-3.4V127.38h10Z"/><path class="cls-2" d="M785.12,127.38H799q12.1,0,12.1,13v8.88q0,6.14-4,8.21,4,2.07,4,8.21v8.91q0,13-12.61,13H785.12Zm10,9.59v15.7h1.93a7.25,7.25,0,0,0,2.11-.18,3.08,3.08,0,0,0,1.89-3.21V140.4q0-3.43-2.95-3.43Zm0,25.33V178h3q3,0,2.95-3.39V165.7a3,3,0,0,0-1.89-3.19,6.76,6.76,0,0,0-2.11-.21Z"/><path class="cls-2" d="M818,127.38h13.14q12.11,0,12.1,13v8.88q0,8.17-6.56,10.59l9.66,27.73H835.42l-6.86-25.9H828v25.9H818ZM828,137v15.7h1.2a7.12,7.12,0,0,0,2.1-.18,3.08,3.08,0,0,0,1.9-3.21V140.4q0-3.43-3-3.43Z"/><path class="cls-2" d="M851.15,127.38h23.58V137H861.17v15.7h11.67v9.63H861.17V178h13.56v9.6H851.15Z"/><path class="cls-2" d="M281.7,200.19h23.59v9.59H291.72v15.71h11.67v9.62H291.72v15.71h13.57v9.6H281.7Z"/><path class="cls-2" d="M335.16,200.19v9.59h-8v50.64h-10V209.78h-8v-9.59Z"/><path class="cls-2" d="M381.79,238.82l2.86,21.6H374.54l-1.66-12.52h-7.37l-1.68,12.52H353.75l2.86-21.51,6.1-38.72h13ZM358.5,190.29h7.76l9.57,8.81h-8.6l-8.73-5.65Zm13.09,48L369.18,220l-2.4,18.23Z"/><path class="cls-2" d="M404,260.42V200.19h10v50.63h13.56v9.6Z"/><path class="cls-2" d="M425.86,200.16h12v9.32L434.52,221h-7l1.75-9.84h-3.4Z"/><path class="cls-2" d="M471,238.82l2.86,21.6H463.79l-1.65-12.52h-7.37l-1.68,12.52H443l2.86-21.51,6.1-38.72h13Zm-10.19-.55L458.44,220,456,238.27Z"/><path class="cls-2" d="M478.42,212.25q0-13,13-13t13,13v8.54h-10v-8.54q0-3.37-2.95-3.4h-.06c-1.94,0-2.92,1.14-2.92,3.4v5.36q0,3.66,7.7,9.2,8.25,5.87,8.25,14.08v7.46q0,13-13,13t-13-13v-8.54h10v8.54c0,2.27,1,3.4,3,3.4s2.95-1.13,2.95-3.4v-6.74q0-4-7.7-9.53-8.25-5.87-8.24-14.29Z"/><path class="cls-2" d="M511,212.25q0-13,13-13t13,13v8.54h-10v-8.54q0-3.37-3-3.4h-.06c-1.94,0-2.92,1.14-2.92,3.4v5.36q0,3.66,7.7,9.2,8.25,5.87,8.25,14.08v7.46q0,13-13,13t-13-13v-8.54h10v8.54c0,2.27,1,3.4,3,3.4s3-1.13,3-3.4v-6.74q0-4-7.7-9.53Q511,226.21,511,217.79Z"/><path class="cls-2" d="M569.51,238.82l2.86,21.6H562.26L560.6,247.9h-7.37l-1.68,12.52H541.47l2.86-21.51,6.11-38.72h13Zm-10.2-.55L556.9,220l-2.4,18.23Z"/><path class="cls-2" d="M577.63,200.19h10v60.23h-10Z"/><path class="cls-2" d="M595.62,200.19h9.9l6.68,29.66V200.19h9.38v60.23h-9.89l-6.38-28.86v28.86h-9.69Z"/><path class="cls-2" d="M629.55,200.19h10v60.23h-10Z"/><path class="cls-2" d="M646.94,212.25q0-13,13-13t13,13v8.54h-10v-8.54c0-2.25-1-3.38-2.95-3.4h-.06c-2,0-2.92,1.14-2.92,3.4v5.36q0,3.66,7.7,9.2,8.25,5.87,8.25,14.08v7.46q0,13-13,13t-13-13v-8.54h10v8.54q0,3.41,3,3.4c2,0,2.95-1.13,2.95-3.4v-6.74q0-4-7.7-9.53-8.25-5.87-8.25-14.29Z"/><path class="cls-2" d="M679.52,212.25q0-13,13-13t13,13v8.54h-10v-8.54c0-2.25-1-3.38-3-3.4h-.06c-2,0-2.92,1.14-2.92,3.4v5.36q0,3.66,7.7,9.2,8.25,5.87,8.25,14.08v7.46q0,13-13,13t-13-13v-8.54h10v8.54q0,3.41,3,3.4c2,0,3-1.13,3-3.4v-6.74q0-4-7.7-9.53-8.25-5.87-8.25-14.29Z"/><path class="cls-2" d="M712.71,200.19h23.58v9.59H722.72v15.71H734.4v9.62H722.72v15.71h13.57v9.6H712.71Z"/><path class="cls-2" d="M761.89,240.11l9.27-39.92h9.89v60.23H771.4V232.71l-5.9,27.71h-7l-6.1-27.89v27.89h-9.75V200.19h9.9Z"/><path class="cls-2" d="M788.88,200.19h23.58v9.59H798.89v15.71h11.68v9.62H798.89v15.71h13.57v9.6H788.88Z"/><path class="cls-2" d="M818.78,200.19h9.9l6.68,29.66V200.19h9.38v60.23h-9.9l-6.37-28.86v28.86h-9.69Z"/><path class="cls-2" d="M876.12,200.19v9.59h-8v50.64h-10V209.78h-8v-9.59Z"/><path class="cls-2" d="M332.25,377.89H308.84L328.05,501c-.11.06-.17.06-.28.12L373.7,777.58h80.65v61.16h-28.9L500.73,914l74.6-74.6H545.76V777.58h88.72l42.57-303.35,2.18-.56,11.93-90.18Zm333.37,27.56L659,456.14A117.77,117.77,0,0,0,644.51,462a145.06,145.06,0,0,0-17.93,10.53c-8.62,5.66-16.74,11-32.48,15.8-20,6-59.54,13.55-100.43-4.09a88.77,88.77,0,0,1-23.92-14.67c-5.15-4.15-9.63-7.73-19.54-10.48a66.92,66.92,0,0,0-17.87-2.41c-19.66,0-37.92,8.46-57.07,17.31l-2.52,1.18c-2.92,1.34-5.83,2.68-8.85,4-5.27,2.36-10.42,4.54-15.52,6.61l-13.33-85.36Zm-98.3,272.49c-11.65,23.63-30.91,37.58-56.85,42.29a42.64,42.64,0,0,1-6.66.89A68.13,68.13,0,0,1,492.1,721a40.72,40.72,0,0,1-8.62-1.46c-30.47-6.77-54.72-31.08-60.1-61.72-2.58-14.56.33-28,6.22-41.11,7.78-17.36,18-33.27,29-48.78q17.81-25.05,38.08-48.17c.57-.68,1.18-1.35,2-2.24,3,3.41,5.77,6.66,8.51,9.91,15.68,18.65,30.52,37.92,43.58,58.47,7.78,12.21,14.73,24.82,19.93,38.37C577.74,642.71,575.78,660.69,567.32,677.94Z"/></svg>