<svg id="Calque_1" data-name="Calque 1" xmlns="http://www.w3.org/2000/svg" viewBox="0 0 1000 1000"><defs><style>.cls-1{fill:#fbc20a;}.cls-2{fill:#fff;}</style></defs><rect class="cls-1" x="-8.12" y="-8.12" width="1016.24" height="1016.24"/><path class="cls-2" d="M72,131.54v-41H186V119.2L134.55,347.87H90.72l48.59-216.33Z"/><path class="cls-2" d="M257.23,116.53h15.53q14.3,0,14.3,15.39v10.49q0,9.68-7.75,12.52l11.41,32.78H277.81l-8.1-30.61h-.64v30.61H257.23Zm11.84,11.34v18.56h1.42a9,9,0,0,0,2.49-.21c1.49-.6,2.24-1.86,2.24-3.81V131.92c0-2.7-1.17-4-3.49-4Z"/><path class="cls-2" d="M296.41,116.53h27.87v11.34h-16v18.56H322v11.38H308.25v18.56h16v11.34H296.41Z"/><path class="cls-2" d="M361.72,173.45q0,15.36-15.36,15.39T331,173.45V130.79q0-15.36,15.33-15.36t15.36,15.36v10.09H349.88V130.79q0-4-3.49-4h-.07q-3.45,0-3.45,4v42.66c0,2.68,1.17,4,3.49,4s3.52-1.34,3.52-4v-10.1h11.84Z"/><path class="cls-2" d="M399.87,173.45q0,15.36-15.36,15.39t-15.33-15.39V130.79q0-15.36,15.33-15.36t15.36,15.36ZM388,130.79c0-2.66-1.17-4-3.49-4h-.07q-3.45,0-3.45,4v42.66q0,4,3.49,4c2.34,0,3.52-1.34,3.52-4Z"/><path class="cls-2" d="M438.73,173.45q0,15.36-15.36,15.39T408,173.45V116.53h11.84v56.92q0,4,3.49,4c2.34,0,3.52-1.34,3.52-4V116.53h11.84Z"/><path class="cls-2" d="M447.61,116.53h15.54q14.3,0,14.29,15.39v10.49q0,9.68-7.75,12.52l11.41,32.78H468.2l-8.11-30.61h-.64v30.61H447.61Zm11.84,11.34v18.56h1.43a9,9,0,0,0,2.48-.21c1.5-.6,2.24-1.86,2.24-3.81V131.92q0-4-3.48-4Z"/><path class="cls-2" d="M486.08,130.79q0-15.36,15.33-15.36t15.35,15.36v10.09H504.93V130.79c0-2.66-1.17-4-3.49-4h-.07q-3.45,0-3.45,4v6.33q0,4.33,9.1,10.87,9.75,6.94,9.74,16.64v8.82q0,15.39-15.32,15.39t-15.36-15.39v-10.1h11.84v10.1q0,4,3.52,4c2.32,0,3.49-1.34,3.49-4v-8q0-4.74-9.11-11.27-9.74-6.94-9.74-16.89Z"/><path class="cls-2" d="M573.29,162.18l3.38,25.53H564.73l-2-14.79h-8.71l-2,14.79H540.16l3.38-25.42,7.21-45.76h15.36Zm-12-.64L558.4,140l-2.85,21.54Z"/><path class="cls-2" d="M613,173.45q0,15.36-15.36,15.39t-15.32-15.39V116.53H594.2v56.92q0,4,3.48,4t3.52-4V116.53H613Z"/><path class="cls-2" d="M630.68,116.53l5.86,20.41,5.83-20.41h12l-11.8,35.59,11.8,35.59h-12l-5.83-22.61-5.86,22.61H618.73l11.8-35.59-11.8-35.59Z"/><path class="cls-2" d="M678.46,116.53h27.87v11.34h-16v18.56h13.79v11.38H690.3v18.56h16v11.34H678.46Zm26.59-8-10.31,6.68H684.58l11.3-10.42h9.17Z"/><path class="cls-2" d="M712,116.53h11.7l7.89,35.05V116.53h11.1v71.18H731l-7.54-34.1v34.1H712Z"/><path class="cls-2" d="M752,116.53h27.87v11.34h-16v18.56h13.79v11.38H763.79v18.56h16v11.34H752Z"/><path class="cls-2" d="M787.29,116.53h15.54q14.28,0,14.29,15.39v10.49q0,9.68-7.75,12.52l11.41,32.78H807.87l-8.1-30.61h-.64v30.61H787.29Zm11.84,11.34v18.56h1.42a9,9,0,0,0,2.49-.21c1.49-.6,2.24-1.86,2.24-3.81V131.92q0-4-3.49-4Z"/><path class="cls-2" d="M841.54,146.43h14.9v27q0,15.36-15.36,15.39t-15.32-15.39V130.79q0-15.36,15.32-15.36t15.36,15.36v10.09H844.6V130.79q0-4-3.48-4h-.07q-3.45,0-3.45,4v42.66q0,4,3.48,4t3.52-4V157.81h-3.06Z"/><path class="cls-2" d="M865.15,116.53H877v71.18H865.15Z"/><path class="cls-2" d="M886.41,116.53h27.87v11.34h-16v18.56H912v11.38H898.25v18.56h16v11.34H886.41Z"/><path class="cls-2" d="M921,130.79q0-15.36,15.32-15.36t15.36,15.36v10.09H939.88V130.79q0-4-3.48-4h-.07q-3.45,0-3.45,4v6.33q0,4.33,9.1,10.87,9.74,6.94,9.74,16.64v8.82q0,15.39-15.32,15.39T921,173.45v-10.1h11.84v10.1q0,4,3.52,4t3.48-4v-8q0-4.74-9.1-11.27Q921,147.28,921,137.33Z"/><path class="cls-2" d="M257.23,206.15h15.53q14.3,0,14.3,15.39V232q0,9.67-7.75,12.51l11.41,32.78H277.81l-8.1-30.61h-.64v30.61H257.23Zm11.84,11.34v18.56h1.42a8.9,8.9,0,0,0,2.49-.22q2.24-.89,2.24-3.8V221.54c0-2.7-1.17-4-3.49-4Z"/><path class="cls-2" d="M296.41,206.15h27.87v11.34h-16v18.56H322v11.37H308.25V266h16v11.34H296.41Z"/><path class="cls-2" d="M331.75,206.15h11.69l7.9,35v-35h11.09v71.17h-11.7l-7.54-34.09v34.09H331.75Z"/><path class="cls-2" d="M401.64,263.07q0,15.36-15.36,15.39T371,263.07V220.4Q371,205,386.28,205t15.36,15.36ZM389.8,220.4q0-4-3.48-4h-.07q-3.45,0-3.45,4v42.67c0,2.68,1.16,4,3.48,4s3.52-1.33,3.52-4Z"/><path class="cls-2" d="M440.5,263.07q0,15.36-15.36,15.39t-15.32-15.39V206.15h11.84v56.92c0,2.68,1.16,4,3.48,4s3.52-1.33,3.52-4V206.15H440.5Z"/><path class="cls-2" d="M472.15,277.32H456.79l-7.22-45.72-3.38-25.45h11.95l6.29,55.78,6.33-55.78H482.7l-3.37,25.52Z"/><path class="cls-2" d="M488.75,206.15h27.87v11.34h-16v18.56h13.79v11.37H500.59V266h16v11.34H488.75Z"/><path class="cls-2" d="M524.09,277.32V206.15h11.84V266h16v11.34Z"/><path class="cls-2" d="M587.94,251.8l3.38,25.52h-12l-2-14.79h-8.71l-2,14.79H554.81l3.37-25.42,7.22-45.75h15.36Zm-12.05-.64-2.84-21.55-2.85,21.55Z"/><path class="cls-2" d="M597.36,206.15h16.39q14.29,0,14.3,15.39V232q0,7.25-4.77,9.7,4.77,2.46,4.77,9.71V262q0,15.33-14.9,15.36H597.36Zm11.84,11.34v18.56h2.28a8.9,8.9,0,0,0,2.49-.22q2.24-.89,2.24-3.8V221.54q0-4-3.49-4Zm0,29.93V266h3.52q3.49,0,3.49-4V251.44q0-2.91-2.24-3.77a8.12,8.12,0,0,0-2.49-.25Z"/><path class="cls-2" d="M636.22,277.32V206.15h11.84V266h16v11.34Z"/><path class="cls-2" d="M670.14,206.15H698v11.34H682v18.56h13.79v11.37H682V266h16v11.34H670.14Z"/><path class="cls-2" d="M704.77,220.4q0-15.36,15.32-15.36t15.36,15.36v10.1H723.61V220.4q0-4-3.48-4h-.07q-3.45,0-3.45,4v6.33q0,4.34,9.1,10.88,9.74,6.93,9.74,16.64v8.82q0,15.39-15.32,15.39t-15.36-15.39V253h11.84v10.1c0,2.68,1.17,4,3.52,4s3.48-1.33,3.48-4v-8q0-4.72-9.1-11.27-9.74-6.93-9.74-16.89Z"/><path class="cls-2" d="M543,521.59a118.65,118.65,0,1,0,76.19,149.49A118.62,118.62,0,0,0,543,521.59Zm-47.9,48.76a8.59,8.59,0,1,1,17.17,0v51.2a8.59,8.59,0,0,1-17.17,0Zm8.59,124.89a58,58,0,0,1-16.16-113.72v19a40.11,40.11,0,1,0,32.27,0v-19a58,58,0,0,1-16.11,113.72Z"/><rect class="cls-2" x="675.38" y="572.76" width="32.79" height="111.23" rx="2.57" transform="translate(1320.16 -63.4) rotate(90)"/><rect class="cls-2" x="635.2" y="461.19" width="32.79" height="111.23" rx="2.57" transform="translate(686.7 -314.12) rotate(54)"/><rect class="cls-2" x="537.11" y="394.55" width="32.79" height="111.23" rx="2.57" transform="translate(166.2 -149.01) rotate(18)"/><rect class="cls-2" x="418.59" y="398.28" width="32.79" height="111.23" rx="2.57" transform="translate(-118.97 156.63) rotate(-18)"/><rect class="cls-2" x="324.9" y="470.98" width="32.79" height="111.23" rx="2.57" transform="translate(-285.33 493.18) rotate(-54)"/><rect class="cls-2" x="291.82" y="584.85" width="32.79" height="111.23" rx="2.57" transform="translate(-332.25 948.69) rotate(-90)"/><rect class="cls-2" x="332" y="696.42" width="32.79" height="111.23" rx="2.57" transform="translate(-55.23 1475.94) rotate(-126)"/><rect class="cls-2" x="430.09" y="763.07" width="32.79" height="111.23" rx="2.57" transform="translate(618.14 1735.27) rotate(-162)"/><rect class="cls-2" x="548.62" y="759.33" width="32.79" height="111.23" rx="2.57" transform="translate(1354.21 1415.41) rotate(162)"/><rect class="cls-2" x="642.31" y="686.64" width="32.79" height="111.23" rx="2.57" transform="translate(1646.38 645.64) rotate(126)"/></svg>