<svg id="Calque_1" data-name="Calque 1" xmlns="http://www.w3.org/2000/svg" viewBox="0 0 1000 1000"><defs><style>.cls-1{fill:#fc6825;}.cls-2{fill:#fff;}</style></defs><rect class="cls-1" x="-8.12" y="-8.12" width="1016.24" height="1016.24"/><path class="cls-2" d="M73.11,142.08q0-55.53,55.53-55.66T184,142.08V296.32q0,55.53-55.53,55.53t-55.4-55.53v-36.5h42.81v36.5q0,14.4,12.59,14.53h.26q12.47,0,12.47-14.53V241.57q-5.79,5.13-22.24,5.14c-1.72,0-3.56-.09-5.53-.26Q94.59,244.53,83.91,233q-10.8-11.82-10.8-40.74Zm68.13,0q0-14.54-12.6-14.53t-12.72,14.53v50.13q0,11.82,4,13.49c1.46.69,4.15,1,8.1,1,1,0,2.18,0,3.47-.13q9.76-.25,9.77-14.39Z"/><path class="cls-2" d="M240,119.88h32.16V133h-18.5v21.42h15.92V167.5H253.62v21.42h18.5V202H240Z"/><path class="cls-2" d="M280.74,119.88h13.5l9.1,40.45V119.88h12.8V202H302.65L294,162.66V202H280.74Z"/><path class="cls-2" d="M353.06,202H335.34L327,149.25l-3.89-29.37H336.9l7.26,64.36,7.3-64.36h13.79l-3.9,29.45Z"/><path class="cls-2" d="M372.43,119.88h13.66V202H372.43Z"/><path class="cls-2" d="M397,119.88h17.92q16.5,0,16.5,17.76v12.1q0,11.16-8.95,14.44L435.6,202H420.71l-9.35-35.32h-.74V202H397ZM410.62,133v21.42h1.64a10,10,0,0,0,2.87-.25c1.72-.68,2.58-2.15,2.58-4.39v-12.1c0-3.12-1.33-4.68-4-4.68Z"/><path class="cls-2" d="M476.75,185.55q0,17.73-17.72,17.77t-17.69-17.77V136.33q0-17.73,17.69-17.72t17.72,17.72Zm-13.66-49.22c0-3.07-1.34-4.61-4-4.64H459q-4,0-4,4.64v49.22c0,3.1,1.34,4.64,4,4.64s4.06-1.54,4.06-4.64Z"/><path class="cls-2" d="M486.59,119.88h13.5l9.11,40.45V119.88H522V202H508.5l-8.7-39.34V202H486.59Z"/><path class="cls-2" d="M532.66,119.88h13.5l9.1,40.45V119.88h12.8V202H554.57l-8.7-39.34V202H532.66Z"/><path class="cls-2" d="M578.73,119.88h32.16V133h-18.5v21.42h15.92V167.5H592.39v21.42h18.5V202H578.73Z"/><path class="cls-2" d="M645.8,174.31l12.64-54.43h13.49V202H658.77V164.22l-8,37.78h-9.59l-8.33-38v38H619.51V119.88H633Z"/><path class="cls-2" d="M682.6,119.88h32.16V133h-18.5v21.42h15.92V167.5H696.26v21.42h18.5V202H682.6Z"/><path class="cls-2" d="M723.38,119.88h13.49L746,160.33V119.88h12.8V202h-13.5l-8.69-39.34V202H723.38Z"/><path class="cls-2" d="M801.57,119.88V133H790.7v69H777V133H766.16V119.88Z"/><path class="cls-2" d="M240,226.3h32.16v13.08h-18.5V260.8h15.92v13.12H253.62v21.42h18.5v13.08H240Z"/><path class="cls-2" d="M312.86,226.3v13.08H302v69H288.33v-69H277.46V226.3Z"/><path class="cls-2" d="M341.29,226.3H355v82.12H341.29Z"/><path class="cls-2" d="M365.82,226.3h13.5l9.1,40.44V226.3h12.8v82.12H387.73L379,269.08v39.34H365.82Z"/><path class="cls-2" d="M411.89,226.3h32.16v13.08h-18.5V260.8h15.92v13.12H425.55v34.5H411.89Z"/><path class="cls-2" d="M451.85,226.3h17.92q16.5,0,16.49,17.76v12.1q0,11.16-8.94,14.44l13.17,37.82H475.6l-9.35-35.32h-.74v35.32H451.85Zm13.66,13.08V260.8h1.64a10.4,10.4,0,0,0,2.87-.25c1.72-.68,2.58-2.15,2.58-4.39v-12.1q0-4.68-4-4.68Z"/><path class="cls-2" d="M531.59,279l3.9,29.45H521.71l-2.26-17.06H509.4l-2.3,17.06H493.36l3.9-29.33,8.33-52.79h17.72Zm-13.9-.74-3.28-24.86-3.29,24.86Z"/><path class="cls-2" d="M541.65,242.75q0-17.73,17.68-17.73t17.72,17.73V254.4H563.39V242.75c0-3.07-1.34-4.61-4-4.64h-.08c-2.66,0-4,1.55-4,4.64v7.3q0,5,10.5,12.55,11.24,8,11.24,19.2V292q0,17.77-17.68,17.77T541.65,292V280.32h13.66V292q0,4.63,4.06,4.64t4-4.64v-9.19q0-5.44-10.5-13-11.25-8-11.24-19.49Z"/><path class="cls-2" d="M619,226.3v13.08H608.14v69H594.48v-69H583.61V226.3Z"/><path class="cls-2" d="M626.4,226.3h17.93q16.49,0,16.49,17.76v12.1q0,11.16-9,14.44L665,308.42H650.15L640.8,273.1h-.74v35.32H626.4Zm13.66,13.08V260.8h1.64a10.35,10.35,0,0,0,2.87-.25c1.72-.68,2.59-2.15,2.59-4.39v-12.1q0-4.68-4-4.68Z"/><path class="cls-2" d="M706.6,292q0,17.73-17.72,17.77T671.2,292V226.3h13.66V292q0,4.63,4,4.64c2.7,0,4.06-1.55,4.06-4.64V226.3H706.6Z"/><path class="cls-2" d="M751.44,292q0,17.73-17.73,17.77T716,292V242.75Q716,225,733.71,225t17.73,17.73V254.4H737.78V242.75c0-3.07-1.34-4.61-4-4.64h-.08q-4,0-4,4.64V292q0,4.63,4,4.64t4.07-4.64V280.32h13.66Z"/><path class="cls-2" d="M793,226.3v13.08H782.12v69H768.46v-69H757.59V226.3Z"/><path class="cls-2" d="M835.37,292q0,17.73-17.72,17.77T800,292V226.3h13.66V292q0,4.63,4,4.64c2.7,0,4.06-1.55,4.06-4.64V226.3h13.66Z"/><path class="cls-2" d="M845.62,226.3h17.93q16.5,0,16.49,17.76v12.1q0,11.16-8.94,14.44l13.17,37.82H869.38L860,273.1h-.73v35.32H845.62Zm13.67,13.08V260.8h1.64a10.4,10.4,0,0,0,2.87-.25c1.72-.68,2.58-2.15,2.58-4.39v-12.1q0-4.68-4-4.68Z"/><path class="cls-2" d="M890.83,226.3H923v13.08h-18.5V260.8h15.92v13.12H904.49v21.42H923v13.08H890.83Z"/><path class="cls-2" d="M930.79,242.75q0-17.73,17.68-17.73t17.72,17.73V254.4H952.53V242.75c0-3.07-1.34-4.61-4-4.64h-.08q-4,0-4,4.64v7.3q0,5,10.5,12.55,11.24,8,11.24,19.2V292q0,17.77-17.68,17.77T930.79,292V280.32h13.66V292q0,4.63,4.06,4.64t4-4.64v-9.19q0-5.44-10.5-13-11.24-8-11.24-19.49Z"/><polygon class="cls-2" points="384.4 502.74 383.72 503.92 383.72 502.35 384.4 502.74"/><polygon class="cls-2" points="385.12 503.92 385.12 504.7 383.72 503.92 385.12 503.92"/><polygon class="cls-2" points="509.41 429.7 508.29 429.7 508.07 429.81 508.01 429.7 507.45 428.58 508.01 428.92 508.91 429.42 509.41 429.7"/><polygon class="cls-2" points="510.81 576.06 510.81 576.84 509.41 576.06 510.81 576.06"/><path class="cls-2" d="M517,580.43l-.67,1.23.62.39H517l.67-.39Zm-8.06-151-.9-.5-.56-.34.56,1.12.06.12.22-.12h1.12ZM385.12,504.7v-.78h-1.4Zm-1.4-2.35v1.57l.68-1.18Zm125.69,73.71,1.4.78v-.78Z"/><path class="cls-2" d="M768.85,724.93l.67-1.17L639.86,649.37V503l-.67-.39L510.81,428.92l-1-.56h-.05l-1.35-.79-.95-.56-.62.34L383.05,493.44l-.73.39V650.72l-129,68.83-.73.4V875.26H254l-.68,1.23,127.82,73.38,1.9,1.06.67-1.23h-1l-.28.17-.11-.17h-.06v-.11l.06.11h.39l1.35-.78h.05l.95-.56,125-72.26,1.35-.78L639.86,949V945.5l-2.35,1.34-1.46-2.41,1.68-1,2.13-1.24V801.1l122.21-70.68V871.57L639.86,942.19v3.31l122.21-70.69,2.13-1.23.67-.39V728.85l4.65-2.69-.67-1.17Zm-129-73.09v.73l-.62-.4Zm-2.8-133.92V647.75L519.88,580.54Zm-123,62.45-3.25,1.74-2.8,1.51L389.49,646.91l-.67.34-2.18,1.17h-.06l-1.46.84V506.38L508,576.9l.67.39,2.13,1.23ZM385.12,791.08,508,725.44V870.17L385.12,799.65Zm7.23-142.55L508,586.81v128.1Zm117.06-72.47h1.4v.78ZM508,428.92l.9.5.5.28h-1.12l-.22.12-.06-.12-.56-1.12ZM383.72,502.35l.68.39-.68,1.18h1.4v.78l-1.4-.78ZM255.41,725.94v.78l-1.4-.78ZM382.32,947.29l-.44-.28L255.41,874.48V728.4l118.46,67.94.67.4,7.78,4.48Zm0-156.38v-.73h1.4ZM508,874.14l-122.89,71V802.79L508,873.36l.67.39Zm1.4-156.83.67-1.17.73.39V585.3l6.11-3.25-.62-.39.67-1.23.67,1.23-.67.39,120.09,68.89v2.41L514.62,718.66l-3.81-2.13v.78Zm1.4,156-.67-.39.67-.39Zm0-152.57v-1l.95.51Zm4.48-1.62-.67-.4.67.34Zm248.18,7.39-1.4.78L646.13,794.22l-6.27-3.64-.73-.4L517.48,720.34l121.65-64.92,3-1.57,120.64,69.23.73.4,2.58,1.51Z"/></svg>