<svg id="Calque_1" data-name="Calque 1" xmlns="http://www.w3.org/2000/svg" viewBox="0 0 1000 1000"><defs><style>.cls-1{fill:#dc1367;}.cls-2{fill:#fff;}</style></defs><rect class="cls-1" x="-8.12" y="-8.12" width="1016.24" height="1016.24"/><path class="cls-2" d="M104.74,92.92V277h29v34.89H39.32V277h29V127.81h-29V92.92Z"/><path class="cls-2" d="M255.49,268.06q0,47.25-47.26,47.26t-47.15-47.26V136.78q0-47.36,47.15-47.36t47.26,47.36ZM219.06,136.78q0-12.36-10.72-12.36h-.22q-10.62,0-10.61,12.36V268.06q0,12.36,10.72,12.36t10.83-12.36Z"/><path class="cls-2" d="M347.39,105.69h17.93q16.49,0,16.49,17.76v12.1q0,11.16-8.94,14.44L386,187.82H371.15l-9.36-35.32h-.74v35.32H347.39Zm13.66,13.09v21.41h1.64a10,10,0,0,0,2.88-.25q2.58-1,2.58-4.39v-12.1c0-3.12-1.34-4.67-4-4.67Z"/><path class="cls-2" d="M392.6,105.69h32.16v13.09h-18.5v21.41h15.92v13.13H406.26v21.41h18.5v13.09H392.6Zm30.69-9.19-11.9,7.71H399.66l13-12h10.59Z"/><path class="cls-2" d="M431.33,105.69h18.91q16.49,0,16.49,17.76v46.64q0,17.68-17.19,17.73H431.33ZM445,118.78v55.95h4.06c2.68,0,4-1.54,4-4.64V123.45c0-3.12-1.34-4.67-4-4.67Z"/><path class="cls-2" d="M511.57,171.37q0,17.72-17.73,17.76t-17.68-17.76V105.69h13.66v65.68q0,4.63,4,4.63t4.07-4.63V105.69h13.66Z"/><path class="cls-2" d="M556.4,171.37q0,17.72-17.72,17.76T521,171.37V122.14q0-17.73,17.68-17.72t17.72,17.72v11.65H542.74V122.14q0-4.59-4-4.64h-.08q-4,0-4,4.64v49.23q0,4.63,4,4.63t4.06-4.63V159.72H556.4Z"/><path class="cls-2" d="M598,105.69v13.09H587.09v69H573.43v-69H562.56V105.69Z"/><path class="cls-2" d="M605.55,105.69h13.66v82.13H605.55Z"/><path class="cls-2" d="M664.66,171.37q0,17.72-17.72,17.76t-17.68-17.76V122.14q0-17.73,17.68-17.72t17.72,17.72ZM651,122.14q0-4.59-4-4.64h-.08q-4,0-4,4.64v49.23q0,4.63,4,4.63t4.06-4.63Z"/><path class="cls-2" d="M674.51,105.69H688l9.1,40.45V105.69h12.8v82.13H696.42l-8.7-39.34v39.34H674.51Z"/><path class="cls-2" d="M347.39,206.51H366.3q16.5,0,16.5,17.76v46.64q0,17.68-17.19,17.72H347.39Zm13.66,13.08v56h4.06c2.68,0,4-1.55,4-4.64V224.27c0-3.12-1.35-4.68-4-4.68Z"/><path class="cls-2" d="M392.64,206.51H424.8v13.08H406.3V241h15.92v13.12H406.3v21.42h18.5v13.08H392.64Z"/><path class="cls-2" d="M432.6,223q0-17.73,17.68-17.72T468,223v11.65H454.34V223c0-3.07-1.34-4.61-4-4.64h-.08c-2.66,0-4,1.55-4,4.64v7.3q0,5,10.5,12.55Q468,250.82,468,262v10.17Q468,290,450.32,290T432.6,272.18V260.53h13.66v11.65c0,3.1,1.35,4.64,4.06,4.64s4-1.54,4-4.64V263q0-5.46-10.5-13-11.25-8-11.24-19.49Z"/><path class="cls-2" d="M498.89,206.51h13.66v82.12H498.89Z"/><path class="cls-2" d="M523.42,206.51h13.5L546,247V206.51h12.8v82.12h-13.5l-8.7-39.34v39.34H523.42Z"/><path class="cls-2" d="M569.49,206.51h32.16v13.08h-18.5V241h15.92v13.12H583.15v21.42h18.5v13.08H569.49Zm30.69-9.19L588.28,205H576.55l13-12h10.59Z"/><path class="cls-2" d="M625.61,241H642.8v31.17q0,17.73-17.72,17.77T607.4,272.18V223q0-17.73,17.68-17.72T642.8,223v11.65H629.14V223c0-3.07-1.34-4.61-4-4.64H625c-2.66,0-4,1.55-4,4.64v49.22c0,3.1,1.34,4.64,4,4.64s4.06-1.54,4.06-4.64V254.13h-3.53Z"/><path class="cls-2" d="M687.19,259.18l3.89,29.45H677.3L675,271.57H665l-2.29,17.06H649l3.9-29.33,8.33-52.79H678.9Zm-13.91-.74L670,233.58l-3.28,24.86Z"/><path class="cls-2" d="M698.06,288.63V206.51h13.66v69h18.5v13.08Z"/><path class="cls-2" d="M737.4,206.51h13.66v82.12H737.4Z"/><path class="cls-2" d="M794.05,206.51v13.08H783.18v69H769.52v-69H758.65V206.51Z"/><path class="cls-2" d="M801.43,206.51H833.6v13.08H815.1V241H831v13.12H815.1v21.42h18.5v13.08H801.43Zm30.69-9.19L820.22,205H808.49l13-12h10.58Z"/><path class="cls-2" d="M839.34,223q0-17.73,17.68-17.72T874.74,223v11.65H861.08V223c0-3.07-1.34-4.61-4-4.64H857q-4,0-4,4.64v7.3q0,5,10.5,12.55,11.25,8,11.24,19.2v10.17q0,17.77-17.68,17.77t-17.72-17.77V260.53H853v11.65c0,3.1,1.35,4.64,4.06,4.64s4-1.54,4-4.64V263q0-5.46-10.5-13-11.24-8-11.24-19.49Z"/><path class="cls-2" d="M665.68,453.09A259.53,259.53,0,0,0,322.16,434a249,249,0,0,0-60.76,69.68,260.85,260.85,0,0,0-31.72,86.3A253.57,253.57,0,0,0,263.5,766.36a250.13,250.13,0,0,0,61,67.09,255.49,255.49,0,0,0,80.33,41,244.7,244.7,0,0,0,89.23,10,249.58,249.58,0,0,0,86.41-22.7,246.7,246.7,0,0,0,72.42-51.47,251.09,251.09,0,0,0,49.34-73.39,241.85,241.85,0,0,0,8-172.5,241.5,241.5,0,0,1,9.5,86.62,238.72,238.72,0,0,1-21.93,83.87A245,245,0,0,1,647.69,805a238.35,238.35,0,0,1-154.37,67.14,231.34,231.34,0,0,1-84.08-11.76A239.62,239.62,0,0,1,335.1,820a231.75,231.75,0,0,1-54.78-63.68C252,707.65,242.48,648.87,253.77,594.47a234.79,234.79,0,0,1,30.65-76.81,220.9,220.9,0,0,1,55.73-60.45c44-33.06,100-49.15,154.15-44.61,54.18,4.18,106.43,29,143.45,68Z"/><rect class="cls-2" x="393.84" y="562.52" width="212.39" height="51.08"/><rect class="cls-2" x="393.84" y="651.24" width="212.39" height="51.08"/></svg>