<svg id="Calque_1" data-name="Calque 1" xmlns="http://www.w3.org/2000/svg" viewBox="0 0 1000 1000"><defs><style>.cls-1{fill:#0a97d9;}.cls-2{fill:#fff;}</style></defs><rect class="cls-1" x="-8.12" y="-8.12" width="1016.24" height="1016.24" rx="2.93"/><path class="cls-2" d="M105.79,134.06V318.17h29v34.9H40.38v-34.9h29V169h-29v-34.9Z"/><path class="cls-2" d="M253.92,134.06V265.55h11.92v34.9H253.92v52.62H217.49V300.45h-62.8V270.8l55-136.74ZM191.67,265.55h25.82V200Z"/><path class="cls-2" d="M302.15,146.56H315.3q12.09,0,12.09,13v8.87q0,9.54-8.63,12.37a20.73,20.73,0,0,1-6,.66h-.63v25.3h-10Zm10,9.6v15.7h1.2a7.54,7.54,0,0,0,2.11-.18,3.09,3.09,0,0,0,1.89-3.22v-8.87q0-3.43-2.94-3.43Z"/><path class="cls-2" d="M333.71,146.56h13.15q12.09,0,12.09,13v8.87q0,8.19-6.56,10.59l9.66,27.74H351.13l-6.86-25.9h-.54v25.9h-10Zm10,9.6v15.7h1.2a7.59,7.59,0,0,0,2.11-.18,3.09,3.09,0,0,0,1.89-3.22v-8.87q0-3.43-2.95-3.43Z"/><path class="cls-2" d="M392.22,194.73q0,13-13,13t-13-13v-36.1q0-13,13-13t13,13Zm-10-36.1q0-3.37-2.94-3.4h-.06q-2.93,0-2.92,3.4v36.1c0,2.26,1,3.4,3,3.4s3-1.14,3-3.4Z"/><path class="cls-2" d="M423,146.56v9.6h-8v50.63H405V156.16h-8v-9.6Z"/><path class="cls-2" d="M428.41,146.56H452v9.6H438.43v15.7H450.1v9.63H438.43v15.7H452v9.6H428.41Z"/><path class="cls-2" d="M483.67,194.73q0,13-13,13t-13-13v-36.1q0-13,13-13t13,13v8.54h-10v-8.54c0-2.25-1-3.38-3-3.4h-.06q-2.92,0-2.92,3.4v36.1c0,2.26,1,3.4,2.95,3.4s3-1.14,3-3.4v-8.55h10Z"/><path class="cls-2" d="M514.15,146.56v9.6h-8v50.63h-10V156.16h-8v-9.6Z"/><path class="cls-2" d="M519.71,146.56h10v60.23h-10Z"/><path class="cls-2" d="M563.07,194.73q0,13-13,13t-13-13v-36.1q0-13,13-13t13,13Zm-10-36.1c0-2.25-1-3.38-2.95-3.4H550q-2.92,0-2.92,3.4v36.1c0,2.26,1,3.4,3,3.4s3-1.14,3-3.4Z"/><path class="cls-2" d="M570.29,146.56h9.89l6.68,29.66V146.56h9.39v60.23h-9.9L580,177.94v28.85h-9.68Z"/><path class="cls-2" d="M619.35,146.56h13.87q12.09,0,12.09,13v34.2q0,13-12.6,13H619.35Zm10,9.6v41h3c2,0,2.95-1.13,2.95-3.4v-34.2c0-2.29-1-3.43-2.95-3.43Z"/><path class="cls-2" d="M652.53,146.56h23.59v9.6H662.55v15.7h11.67v9.63H662.55v15.7h13.57v9.6H652.53Z"/><path class="cls-2" d="M697.72,206.79V146.56h10v50.63H721.3v9.6Z"/><path class="cls-2" d="M751.75,185.19l2.86,21.6H744.5l-1.66-12.51h-7.37l-1.68,12.51H723.71l2.86-21.51,6.11-38.72h13Zm-10.2-.54-2.41-18.23-2.4,18.23Z"/><path class="cls-2" d="M775,146.56h23.59v9.6H785v15.7h11.67v9.63H785v25.3H775Z"/><path class="cls-2" d="M828,185.19l2.86,21.6H820.76l-1.65-12.51h-7.37l-1.69,12.51H800l2.86-21.51,6.11-38.72h13Zm-10.2-.54-2.4-18.23L813,184.65Z"/><path class="cls-2" d="M861.64,194.73q0,13-13,13t-13-13V146.56h10v48.17c0,2.26,1,3.4,2.95,3.4s3-1.14,3-3.4V146.56h10Z"/><path class="cls-2" d="M869.16,146.56h9.9l6.68,29.66V146.56h9.39v60.23h-9.9l-6.38-28.85v28.85h-9.69Z"/><path class="cls-2" d="M903,146.56h23.58v9.6H913v15.7h11.67v9.63H913v15.7h13.56v9.6H903Z"/><path class="cls-2" d="M302.15,225h23.59v9.59H312.17v15.71h11.67v9.62H312.17v15.71h13.57v9.59H302.15Z"/><path class="cls-2" d="M355.61,225v9.59h-8V285.2h-10V234.57h-8V225Z"/><path class="cls-2" d="M376.31,285.2V225h10v50.63h13.56v9.59Z"/><path class="cls-2" d="M430.34,263.6l2.86,21.6H423.09l-1.66-12.51h-7.37l-1.68,12.51H402.3l2.86-21.51,6.1-38.71h13Zm-10.2-.54-2.41-18.23-2.4,18.23Z"/><path class="cls-2" d="M453.59,225h23.59v9.59H463.61v15.71h11.67v9.62H463.61v25.3h-10Z"/><path class="cls-2" d="M482.89,285.2V225h10v50.63h13.57v9.59Z"/><path class="cls-2" d="M537,273.14q0,13-13,13t-13-13V237q0-13,13-13t13,13Zm-10-36.1c0-2.25-1-3.38-3-3.4h-.06q-2.92,0-2.92,3.4v36.1q0,3.41,3,3.4c2,0,3-1.13,3-3.4Z"/><path class="cls-2" d="M544.17,225h13.15q12.09,0,12.09,13v8.88q0,8.18-6.55,10.59l9.65,27.73H561.59l-6.86-25.9h-.54v25.9h-10Zm10,9.59v15.71h1.2a7.54,7.54,0,0,0,2.11-.18,3.1,3.1,0,0,0,1.9-3.22V238c0-2.28-1-3.43-2.95-3.43Z"/><path class="cls-2" d="M577.32,225h23.59v9.59H587.34v15.71H599v9.62H587.34v15.71h13.57v9.59H577.32Z"/><path class="cls-2" d="M647.84,263.6l2.86,21.6H640.59l-1.65-12.51h-7.37l-1.69,12.51H619.8l2.86-21.51L628.77,225h13Zm-10.2-.54-2.4-18.23-2.41,18.23Z"/><path class="cls-2" d="M681.17,273.14q0,11.58-9.29,12.76.06.81,9.29.87v8.3q-8.5,0-11.52-1.56c-2.69-1.37-4.06-3.86-4.12-7.49q-10.32-.76-10.32-12.88V237q0-13,13-13t13,13Zm-10-36.1c0-2.25-1-3.38-2.95-3.4h-.06q-2.92,0-2.92,3.4v36.1q0,3.41,2.95,3.4c2,0,3-1.13,3-3.4Z"/><path class="cls-2" d="M714.05,273.14q0,13-13,13t-13-13V225h10v48.16q0,3.41,2.95,3.4c2,0,3-1.13,3-3.4V225h10Z"/><path class="cls-2" d="M746.91,263.6l2.85,21.6h-10.1L738,272.69h-7.37L729,285.2H718.87l2.86-21.51,6.1-38.71h13Zm-10.2-.54-2.41-18.23-2.41,18.23Z"/><path class="cls-2" d="M777.5,225v9.59h-8V285.2h-10V234.57h-8V225Z"/><path class="cls-2" d="M783.07,225h10V285.2h-10Z"/><path class="cls-2" d="M826.42,273.14q0,11.58-9.3,12.76.06.81,9.3.87v8.3q-8.52,0-11.53-1.56c-2.68-1.37-4.06-3.86-4.12-7.49q-10.32-.76-10.32-12.88V237q0-13,13-13t13,13Zm-10-36.1q0-3.37-2.95-3.4h-.06q-2.92,0-2.92,3.4v36.1c0,2.27,1,3.4,2.95,3.4s3-1.13,3-3.4Z"/><path class="cls-2" d="M859.3,273.14q0,13-13,13t-13-13V225h10v48.16c0,2.27,1,3.4,2.95,3.4s3-1.13,3-3.4V225h10Z"/><path class="cls-2" d="M866.82,225H890.4v9.59H876.84v15.71h11.67v9.62H876.84v15.71H890.4v9.59H866.82Z"/><path class="cls-2" d="M896.12,237q0-13,13-13t13,13v8.54h-10V237q0-3.37-2.94-3.4h-.06q-2.92,0-2.92,3.4v5.36q0,3.66,7.7,9.2,8.24,5.86,8.24,14.08v7.46q0,13-13,13t-13-13V264.6h10v8.54q0,3.41,3,3.4t2.94-3.4V266.4q0-4-7.7-9.53-8.24-5.88-8.24-14.29Z"/><path class="cls-2" d="M593,659.51c-121.38-7.73-200.29,69.4-216.43,86.53-9.46-22.62-27.16-38.42-39.65-49.56-35.79-32-75.89-40.39-94.77-43l-19-5.49,13.61,9.52a3.13,3.13,0,0,1,.45.39A136,136,0,0,1,267,692.44c35,58.31,14.51,127.15,6.72,153.25a261.48,261.48,0,0,1-28.9,63.85c16.75-2.07,59.43-9.8,94.77-45,7.84-7.85,24.64-24.59,34.95-47.5,16,18.48,70.07,75.16,159.29,87.82,86.82,12.32,152-24.81,176.1-39a298.28,298.28,0,0,0,92.08-85.36C794.32,768.9,724.53,667.85,593,659.51Zm60.26,135.77A35.29,35.29,0,1,1,688.57,760,35.28,35.28,0,0,1,653.28,795.28Z"/><path class="cls-2" d="M739.34,539.25c-29.72,0-44.72-19.37-54.64-32.18-8.83-11.39-10.81-12.63-14.8-12.63s-5.94,1.24-14.76,12.63c-9.92,12.81-24.91,32.18-54.62,32.18s-44.71-19.37-54.63-32.18c-8.82-11.39-10.79-12.63-14.78-12.63s-5.94,1.24-14.76,12.63c-9.92,12.81-24.91,32.18-54.62,32.18S417,519.88,407.12,507.06c-8.81-11.38-10.78-12.62-14.75-12.62s-5.95,1.24-14.77,12.63c-9.92,12.81-24.91,32.18-54.62,32.18s-44.7-19.37-54.62-32.18c-8.82-11.39-10.79-12.63-14.76-12.63V444c29.71,0,44.7,19.36,54.62,32.18C317,487.6,319,488.84,323,488.84s5.95-1.24,14.77-12.63c9.92-12.82,24.91-32.18,54.62-32.18S437.06,463.4,447,476.21c8.81,11.39,10.78,12.63,14.75,12.63s5.95-1.24,14.76-12.63c9.92-12.82,24.92-32.18,54.62-32.18s44.71,19.36,54.63,32.17c8.83,11.4,10.8,12.64,14.78,12.64s6-1.24,14.76-12.63C625.2,463.39,640.19,444,669.9,444s44.72,19.36,54.64,32.17c8.83,11.4,10.81,12.64,14.8,12.64s6-1.24,14.79-12.64c9.92-12.81,24.92-32.17,54.64-32.17v50.41c-4,0-6,1.24-14.79,12.63C784.05,519.88,769.05,539.25,739.34,539.25Z"/><path class="cls-2" d="M739.34,641.22c-29.72,0-44.72-19.37-54.64-32.18-8.83-11.39-10.81-12.63-14.8-12.63S664,597.65,655.14,609c-9.92,12.81-24.91,32.18-54.62,32.18S555.81,621.85,545.89,609c-8.82-11.39-10.79-12.63-14.78-12.63s-5.94,1.24-14.76,12.63c-9.92,12.81-24.91,32.18-54.62,32.18S417,621.85,407.12,609c-8.81-11.38-10.78-12.62-14.75-12.62s-5.95,1.24-14.77,12.63c-9.92,12.81-24.91,32.18-54.62,32.18s-44.7-19.37-54.62-32.18c-8.82-11.39-10.79-12.63-14.76-12.63V546c29.71,0,44.7,19.36,54.62,32.18C317,589.57,319,590.81,323,590.81s5.95-1.24,14.77-12.63c9.92-12.82,24.91-32.18,54.62-32.18s44.69,19.37,54.61,32.18c8.81,11.39,10.78,12.63,14.75,12.63s5.95-1.24,14.76-12.63c9.92-12.82,24.92-32.18,54.62-32.18s44.71,19.36,54.63,32.17c8.83,11.4,10.8,12.64,14.78,12.64s6-1.24,14.76-12.63C625.2,565.36,640.19,546,669.9,546s44.72,19.36,54.64,32.17c8.83,11.4,10.81,12.64,14.8,12.64s6-1.24,14.79-12.64c9.92-12.81,24.92-32.17,54.64-32.17v50.41c-4,0-6,1.24-14.79,12.63C784.05,621.85,769.05,641.22,739.34,641.22Z"/></svg>