<?xml version="1.0" encoding="utf-8"?>
<!-- Generator: Adobe Illustrator 25.0.0, SVG Export Plug-In . SVG Version: 6.00 Build 0)  -->
<svg version="1.1" id="Calque_1" xmlns="http://www.w3.org/2000/svg" xmlns:xlink="http://www.w3.org/1999/xlink" x="0px" y="0px"
	 viewBox="0 0 1000 1000" style="enable-background:new 0 0 1000 1000;" xml:space="preserve">
<style type="text/css">
	.st0{fill:#E5243B;}
	.st1{display:none;}
	.st2{display:inline;fill:#FFFFFF;}
	.st3{display:inline;}
	.st4{fill:#FFFFFF;}
	.st5{fill:#FCE6BC;}
	.st6{fill:#775EC2;}
	.st7{fill:#6550BA;}
	.st8{fill:#8E80D9;}
	.st9{fill:#C97360;}
	.st10{fill:#2F1015;}
	.st11{fill:#B75D4D;}
	.st12{fill:#FDB92F;}
	.st13{fill:#FF66A0;}
	.st14{fill:#5B8E39;}
	.st15{fill:#20090C;}
	.st16{fill:#663134;}
	.st17{fill:#512328;}
	.st18{fill:#F6F6F6;}
	.st19{fill:#FF4D4D;}
	.st20{fill:#76AC58;}
	.st21{fill:#71C0D2;}
	.st22{fill:#F4EBEB;}
	.st23{font-family:'Arial-Black';}
	.st24{font-size:102.238px;}
</style>
<rect x="-8.1" y="-8.1" class="st0" width="1016.2" height="1016.2"/>
<g class="st1">
	<circle class="st2" cx="298.3" cy="713.5" r="27"/>
	<g class="st3">
		<circle class="st4" cx="173.3" cy="551.5" r="36.4"/>
		<path class="st4" d="M918.6,629.1v92.3c0.1,5.8-4.6,10.6-10.4,10.7s-10.6-4.6-10.7-10.4l0,0l-1.7-68.7c-0.2-4.9-3.7-9.1-8.6-10.1
			v94.8h-4.8v139.1c0.2,8.1-6.2,14.8-14.2,15s-14.8-6.2-15-14.2c0-0.3,0-0.5,0-0.8V737.6h-13.6v139.1c0.2,8.1-6.2,14.8-14.2,15
			s-14.8-6.2-15-14.2c0-0.3,0-0.5,0-0.8V737.6h-6.1v-93.8c-3.6,1.7-5.9,5.4-5.9,9.4v68.2c0,5.8-4.7,10.6-10.5,10.6h-1.8
			c-5.8,0-10.5-4.6-10.5-10.4l-1.4-88.3c0-2.5,0.8-4.9,2.3-6.8l20-25.1c2.1-2.5,5.2-4,8.4-3.9l85.2,1.4c2.9,0.1,5.6,1.3,7.6,3.4
			l18,19.6C917.6,623.9,918.6,626.4,918.6,629.1z"/>
		<circle class="st4" cx="846.4" cy="551.5" r="36.4"/>
		<circle class="st4" cx="430.1" cy="573" r="27"/>
		<path class="st4" d="M511.8,732.6l-5.8,2.2c-4,1.5-8.6-0.3-10.3-4.3L459.8,650l30.6,102.2c4.1,13.6-3.7,27.9-17.2,31.9
			c-2.2,0.7-4.6,1-6.9,1.1v92.7c0,6.9-5.6,12.5-12.5,12.5c0,0,0,0,0,0h-3.2c-6.9,0-12.5-5.6-12.5-12.5c0,0,0,0,0,0v-92.8h-16.8v90.1
			c0,6.9-5.6,12.5-12.5,12.5H406c-6.9,0-12.5-5.6-12.5-12.5v-90.1c-14.2-0.6-25.2-12.5-24.6-26.6c0.1-2,0.4-4,1-6l26-91.5l-25.8,63
			c-1.4,3.5-5.2,5.6-8.9,4.9c-0.2,0.4-0.4,0.7-0.7,1.1L327,769.2c-1.3,1.5-2,3.3-2,5.2l-0.3,23.4c-0.1,1.2,0.2,2.4,0.7,3.4
			l10.8,24.2c1.9,4.1,0,9-4.1,10.9c-1.1,0.5-2.2,0.7-3.4,0.7h-5.8V882c0.2,5.1-3.8,9.4-9,9.6c-5.1,0.2-9.4-3.8-9.6-9
			c0-0.2,0-0.4,0-0.6v-44.9h-12.5V882c0,5.1-4.2,9.3-9.3,9.3c-5.1,0-9.3-4.2-9.3-9.3v-44.9h-5.5c-4.6,0-8.2-3.7-8.2-8.2
			c0-1.1,0.2-2.2,0.6-3.2l11-26.3c0.5-1,0.7-2.1,0.6-3.2v-19.6c0-1.9-0.7-3.8-1.9-5.3l-33.4-39.5c-0.5,0.1-1.1,0.2-1.6,0.2
			c-5.7,0-10.4-4.6-10.5-10.3l-1.7-68.7c-0.2-4.9-3.7-9.1-8.6-10.1v94.8h-4.8v139.1c0.2,8.1-6.2,14.8-14.2,15
			c-8.1,0.2-14.8-6.2-15-14.2c0-0.3,0-0.5,0-0.8V737.6h-13.6v139.1c0.2,8.1-6.2,14.8-14.2,15c-8.1,0.2-14.8-6.2-15-14.2
			c0-0.3,0-0.5,0-0.8V737.6h-6.1v-93.8c-3.6,1.7-5.9,5.4-5.9,9.4v68.2c0,5.6-4.3,10.2-9.9,10.5L89.9,888.5l-8.5-1.5l25.8-156.9
			c-2.9-1.9-4.6-5.1-4.6-8.6l-1.4-88.3c0-2.5,0.8-4.9,2.3-6.8l20-25.1c2.1-2.5,5.2-4,8.4-3.9l85.2,1.4c2.9,0.1,5.6,1.3,7.6,3.4
			l18,19.6c1.8,1.9,2.8,4.5,2.8,7.1v89.3c0.8,0.3,1.5,0.7,2.1,1.2l37.1,31.3c1.5,1.3,3.5,2,5.5,2l20.6-0.5c2.1-0.1,4.2-1,5.6-2.5
			l31.1-31.6c1.2-1.2,2.6-1.9,4.2-2.3l37.4-94.6c1.2-3.1,4.2-5.2,7.5-5.2h67.8c3.2,0,6.1,1.9,7.4,4.9l44.2,100.8
			c1.8,4.2-0.1,9-4.3,10.8C512,732.6,511.9,732.6,511.8,732.6z"/>
		<circle class="st4" cx="606.2" cy="573" r="27"/>
		<path class="st4" d="M687.9,732.6l-5.8,2.2c-4,1.5-8.6-0.3-10.3-4.3l-36-80.8l30.7,102.5c4.1,13.6-3.6,27.9-17.2,31.9
			c-2.2,0.7-4.6,1-6.9,1.1v92.7c0,6.9-5.6,12.5-12.5,12.5h-3.2c-6.9,0-12.5-5.6-12.5-12.5v-92.8h-16.8v90.1
			c0,6.9-5.6,12.5-12.5,12.5H582c-6.9,0-12.5-5.6-12.5-12.5v-90.1c-14.2-0.6-25.2-12.5-24.6-26.7c0.1-2,0.4-4,0.9-6l26-91.5
			l-25.8,63c-1.7,4.1-6.5,6.1-10.6,4.4c-0.1-0.1-0.3-0.1-0.4-0.2l-3.2-1.6c-3.8-1.9-5.5-6.3-3.9-10.2l37.5-94.9
			c1.2-3.1,4.2-5.2,7.5-5.2h67.8c3.2,0,6.2,1.9,7.4,4.9l44.2,100.8c1.8,4.2-0.1,9-4.3,10.8C688.1,732.6,688,732.6,687.9,732.6z"/>
	</g>
	<path class="st2" d="M786.1,817.1l-1.1,0.5c-4,1.9-8.9,0.2-10.8-3.8c0,0,0-0.1,0-0.1l-18.4-39.2c-0.5-1.1-1.3-2.1-2.3-2.9l1.7,55.8
		c0.2,0.6,0.3,1.3,0.2,1.9v53.4c0,4.8-3.9,8.7-8.7,8.7h-2.4c-4.8,0-8.7-3.9-8.7-8.7v-47.9h-16.6v47.9c0,4.8-3.9,8.7-8.7,8.7H708
		c-4.8,0-8.7-3.9-8.7-8.7v-99.2l-15.6,34.8c-1.7,3.7-5.8,5.7-9.8,4.5c-3.4-1.1-5.8-4.2-5.8-7.8c0-1.2,0.3-2.5,0.8-3.6l30-61.7
		c1.4-2.8,4.2-4.6,7.3-4.6h45c3,0,5.7,1.6,7.1,4.2l31.4,56.4c2.2,3.9,0.8,8.9-3.2,11.1C786.4,816.9,786.3,817,786.1,817.1z"/>
	<circle class="st2" cx="727.3" cy="708.2" r="25.2"/>
</g>
<path class="st4" d="M150,90.5v216.3h34v41H73.1v-41h34.1V131.5H73.1v-41L150,90.5z"/>
<g>
	
		<ellipse transform="matrix(0.7071 -0.7071 0.7071 0.7071 -325.3581 552.2686)" class="st5" cx="504" cy="668.9" rx="286" ry="286"/>
	<g id="Strategy_Board">
		<g>
			<rect x="324.2" y="456.6" class="st4" width="384.5" height="228.5"/>
			<g>
				<path class="st6" d="M711.3,687.6H321.6V453.9h389.7V687.6z M326.8,682.4h379.3V459.2H326.8V682.4z"/>
			</g>
		</g>
		<g>
			<path class="st7" d="M462.2,616c7.3-2.8,14.3-7.2,20.5-13.3c6.1-6.1,10.5-13.1,13.3-20.4l-59.2-25.5L462.2,616z"/>
			<g>
				<path class="st6" d="M470.8,507.9c-0.8-0.8-1.7-1.7-2.6-2.4c-0.3-0.2-0.5-0.4-0.8-0.7c-0.7-0.6-1.4-1.1-2.1-1.7
					c-0.2-0.2-0.5-0.4-0.7-0.6c-1.9-1.4-3.9-2.8-5.9-3.9c-0.1-0.1-0.2-0.1-0.4-0.2c-1-0.5-1.9-1-2.9-1.5c-0.1-0.1-0.2-0.1-0.3-0.2
					c-3.3-1.6-6.8-2.9-10.3-3.8l-19.8,51.2l59.1,25.4C491.8,548.8,487.4,524.5,470.8,507.9z"/>
				<path class="st7" d="M378.8,520.8c-12.3,22.1-9.1,50.5,9.7,69.2c16.7,16.7,40.9,21.1,61.6,13.2l-25.4-59.1L378.8,520.8z"/>
				<path class="st8" d="M444.3,492.9c-0.4-0.1-0.9-0.2-1.3-0.3c-0.5-0.1-1.1-0.3-1.6-0.4c-0.8-0.2-1.7-0.3-2.6-0.5
					c-0.5-0.1-1-0.2-1.5-0.3c-1.1-0.2-2.3-0.3-3.4-0.4c-0.4,0-0.8-0.1-1.1-0.1c-1.2-0.1-2.3-0.1-3.5-0.1c-0.5,0-1,0-1.6,0
					c-0.8,0-1.7,0.1-2.5,0.1c-0.6,0-1.1,0.1-1.7,0.2c-0.8,0.1-1.6,0.2-2.4,0.3c-0.6,0.1-1.1,0.2-1.7,0.3c-0.8,0.1-1.6,0.3-2.4,0.5
					c-0.5,0.1-1.1,0.2-1.6,0.4c-0.9,0.2-1.9,0.5-2.8,0.8c-0.4,0.1-0.8,0.2-1.2,0.3c-1.3,0.4-2.6,0.9-3.8,1.4
					c-0.4,0.1-0.7,0.3-1.1,0.5c-0.9,0.4-1.9,0.8-2.8,1.3c-0.5,0.2-0.9,0.5-1.4,0.7c-0.8,0.4-1.6,0.8-2.3,1.3
					c-0.5,0.3-0.9,0.6-1.4,0.9c-0.8,0.5-1.5,1-2.2,1.5c-0.4,0.3-0.9,0.6-1.3,0.9c-0.8,0.6-1.5,1.2-2.3,1.8c-0.4,0.3-0.7,0.6-1.1,0.9
					c-1.1,0.9-2.2,1.9-3.2,3c-0.9,0.9-1.7,1.8-2.5,2.7c-0.2,0.2-0.4,0.4-0.6,0.7c-0.7,0.8-1.4,1.7-2.1,2.6c-0.1,0.1-0.1,0.2-0.2,0.3
					c-1.6,2.1-3,4.3-4.3,6.6c0,0,0,0,0,0l45.9,23.4L444.3,492.9z"/>
			</g>
		</g>
		<g>
			<rect x="567.6" y="570.3" class="st7" width="20.8" height="78.4"/>
			<rect x="590.8" y="559.7" class="st7" width="20.8" height="89"/>
			<rect x="614" y="550.5" class="st7" width="20.8" height="98.3"/>
			<rect x="637" y="533.9" class="st7" width="20.8" height="114.9"/>
		</g>
		<g>
			<path class="st7" d="M579.3,478.5c0,4.3,1.1,10.4,3.8,14.4c-29.1,2.6-40,23.9-40.5,24.8l3.1,1.5c0.1-0.2,10.3-20.1,37.1-22.9
				c-2.8,3.9-3.9,9.2-4.4,13.8c5.5-6.3,11.9-12.3,19.8-15.2C590.4,491.4,584.1,485.3,579.3,478.5z"/>
			<g>
				<path class="st7" d="M536.3,534.7c-4.4,0-8-3.6-8-8s3.6-8,8-8c4.4,0,8,3.6,8,8S540.7,534.7,536.3,534.7z M536.3,522.1
					c-2.5,0-4.5,2-4.5,4.5c0,2.5,2,4.5,4.5,4.5c2.5,0,4.5-2,4.5-4.5C540.8,524.1,538.8,522.1,536.3,522.1z"/>
			</g>
			<polygon class="st7" points="621.3,500.6 615.2,494.9 620.9,488.7 618.3,486.4 612.6,492.6 606.4,486.8 604,489.4 610.2,495.1 
				604.5,501.3 607.1,503.7 612.8,497.5 619,503.2 			"/>
		</g>
		<g>
			<path class="st7" d="M444.4,663.1c1.7-4,3-10,2.2-14.7c27.8,9,46.2-6.3,47-7l-2.3-2.6c-0.2,0.2-17.3,14.5-43,6.5
				c4.1-2.5,7.2-6.9,9.5-10.9c-7.5,3.7-15.8,6.7-24.2,6.3C439.2,646.9,442.7,654.9,444.4,663.1z"/>
			<g>
				<path class="st7" d="M502.6,637.7c-0.2,0-0.3,0-0.5,0c-4.4-0.3-7.8-4.1-7.5-8.5c0.1-2.1,1.1-4.1,2.7-5.5c1.6-1.4,3.7-2.1,5.8-2
					c4.4,0.3,7.8,4.1,7.5,8.5C510.3,634.4,506.8,637.7,502.6,637.7z M502.6,625.1c-1.1,0-2.2,0.4-3,1.1c-0.9,0.8-1.5,1.9-1.5,3.1
					l0,0c-0.2,2.5,1.7,4.7,4.2,4.8c2.5,0.1,4.7-1.7,4.8-4.2c0.1-1.2-0.3-2.4-1.1-3.3c-0.8-0.9-1.9-1.4-3.1-1.5
					C502.8,625.1,502.7,625.1,502.6,625.1z"/>
			</g>
			<polygon class="st7" points="411,630.3 416.8,636.4 410.7,642.2 413.1,644.7 419.2,638.9 425,645 427.5,642.6 421.7,636.5 
				427.8,630.7 425.4,628.1 419.3,633.9 413.5,627.8 			"/>
			<g>
				<path class="st7" d="M514.2,623.4l-2-2.8c19.3-13.7,11.2-44.2,11.1-44.5l3.4-0.9C527,576.5,535.4,608.2,514.2,623.4z"/>
			</g>
		</g>
	</g>
	<g id="Business_Woman">
		<path class="st9" d="M302.6,529.4c-12.2-5.7-28.1-1.1-35.5,8.9c-7,9.5-4.3,20.3-4,21.8c2.9,11.5,13.7,17.1,13.7,17.1
			s13.6,11.9,18.1,12.6c1.6,0.5,6.6,1.7,11.8-0.6c6.2-2.8,10-9.4,9.6-16.9c-2.3,0.5-4.6,0-5.8-1.5c-0.6-0.7-0.8-1.5-0.9-2.1
			c5.2,1.7,7.6-1.4,7.6-1.4l-0.1-10c0.2-1.8,0.4-4.1,0.2-6.8c-0.2-2.9-0.9-5.3-1.5-7.2C314.7,541,311.1,533.4,302.6,529.4z"/>
		<path class="st10" d="M307.5,558.5c0,2.2-0.9,3.9-2,3.9c-1.1,0-1.9-1.8-1.8-4c0-2.2,0.9-3.9,2-3.9
			C306.7,554.5,307.5,556.3,307.5,558.5z"/>
		<path class="st10" d="M308.8,549.3c0,0-6-3.1-11.8,5.3C296.9,554.5,307.3,548.8,308.8,549.3z"/>
		<path class="st11" d="M280.6,567.7c0,0,0-4.2-4.2-4.3C272.2,563.5,277.7,564.7,280.6,567.7z"/>
		<g>
			<path class="st9" d="M283.9,579.6l-0.6,21.8c4,3.7,17.3,0.1,17.3,0.1l-0.8-4.4C288.8,596.1,283.9,579.6,283.9,579.6z"/>
			<polygon class="st11" points="298.4,590.5 299.7,597.1 299.7,597.1 			"/>
			<path class="st11" d="M283.9,579.6c0,0,4.9,16.5,15.8,17.5l-1.3-6.6L283.9,579.6z"/>
		</g>
		<g>
			<path class="st11" d="M288.4,746.2l5.1,173.1h58.2c0,0-13.8-10.8-38.5-16.8l17-156.4H288.4z"/>
			<path class="st12" d="M344.2,914.7c-11.8-0.4-38.8-1.2-49.2-1.2l0.2,7h58.2C353.4,920.5,350.2,918,344.2,914.7z"/>
			<path class="st9" d="M267.1,753.1l5.1,173.1h58.2c0,0-13.8-10.8-38.5-16.8l17-156.4H267.1z"/>
			<path class="st12" d="M321.1,920.5c-11.8-0.4-38.8-1.2-49.2-1.2l0.2,7h58.2C330.3,926.2,327.1,923.7,321.1,920.5z"/>
		</g>
		<path class="st11" d="M320,602.7c0,0,30.2,21.8,37.5,22.1c7.2,0.4,35.3-21.8,35.3-21.8s3.2-11.6,9-12.6c1.2-0.6,3.3-1.7,5.1-3.8
			c2.1-2.4,2.9-4.8,3.2-6.1c0.8,0.4,1.9,1.2,2.4,2.5c0.8,1.9-0.6,3.4-1,5.4c-1,5.2,5.8,7.6,5.4,12.9c-0.3,3.8-4.2,6.6-6.4,8.2
			c-2.5,1.8-6.5,3.9-6.5,3.9l0,0c-3.7,5.9-9.9,14.5-19.5,23.1c-8.7,7.7-15.4,13.7-24.2,15.1c-20.6,3.3-38.7-20.8-40.3-23.1
			C320,619.8,320,611.2,320,602.7z"/>
		<path class="st10" d="M309,531.2c0,0-20.6-11.9-45.8,1c-14.4,7.4-18.9,25.7-17.2,40.2l39.9,19.9l0.9-15.5
			c-1.3-0.6-3.5-1.1-7.1-0.6c-7.1,1.1-10.4-11-6.5-15.5c3.9-4.5,14,6.9,14,6.9l1-17.4c0,0,12.3,2.1,10.9-7.9
			C299.1,542.4,325.2,542,309,531.2z"/>
		<path class="st13" d="M283.4,597.1l-23.1,9.4c2.9,2.4,6.1,5.9,8.2,10.7c7.5,17.4-6.7,35.6-7.5,36.5c4.6,7.9,9.2,15.7,13.9,23.6
			c0,0-18.6,54.3-18.6,106.6c0,0,39,19.7,82.5,0l-12.5-101.4c2.6-13,4.5-24.1,5.9-32.4c2.1-13.2,2.5-17.6,1.6-22.9
			c-1.8-11.2-7.9-19.3-12.3-24.1c-7.3-2-14.5-4-21.8-6C299.7,597.1,292.5,607.6,283.4,597.1z"/>
		<path class="st9" d="M260.4,606.5c-0.7,0.1-1.6,0.3-2.7,0.7c-6.7,2.7-8.7,11.3-10.8,18c-6.8,21.8-10.8,24.5-12.4,25.5
			c-3.3,2.2-6.3,2.5-12.3,3.2c-10.5,1.2-19.4-1.5-22.5-4.3c-1.1-1-4.4-4.1-3.3-3.1l0,0c0,0-5.8-5.3-10.5-5.6
			c-4.7-0.3-7.5-4.7-7.5-4.7s-5.8,3.7,5.7,10.7l-4.6,0.9c0,0-11.1-13.6-18.1-10.4c-7.1,3.3,15.6,24.7,15.6,24.7l14.7,1.1
			c0,0,35.5,18.8,48.1,14.6c12.6-4.2,30.6-36.4,30.6-36.4S278.3,614.7,260.4,606.5z"/>
		<path class="st10" d="M377.4,613.6l84.9-62.6c0,0,4.1-2.1,2.3,2.1c-1.9,4.2-84.1,64.6-84.1,64.6L377.4,613.6z"/>
		<path class="st9" d="M417.2,601.3c0.5-3.3,0.9-6.6,1.4-9.9l-7-3c0,0-5.5,0.7-3.2,8.7c2.3,8-4.3,16.2-4.3,16.2
			c2.4-1.3,4.4-2.5,5.8-3.4c4-2.5,5-3.6,5.7-4.7C416.6,603.7,417,602.2,417.2,601.3z"/>
		<path class="st11" d="M411.5,588.9l4.8,2.9l1.1,4.4C417.4,596.2,417.2,592.7,411.5,588.9z"/>
		<path class="st11" d="M410,589.8l3.7,3.9l1.6,4.5C415.3,598.1,413.7,593.9,410,589.8z"/>
		<polygon class="st11" points="408.6,590.7 411.3,595.2 411.9,599.9 		"/>
		<path class="st11" d="M162.6,641.9l9.8,9.9l8.3,1.4C180.7,653.2,172.4,651.4,162.6,641.9z"/>
		<polygon class="st11" points="162.6,638.9 173.9,648.3 181.2,650.3 		"/>
		<path class="st11" d="M180.7,653.2c0,0,7-0.8,9.5,1.4L180.7,653.2z"/>
	</g>
	<g id="Business_Man">
		<path class="st14" d="M526.5,905.6h-4.1c-1.2,0-2.1-1-2.1-2.1V727.2h8.3v176.3C528.6,904.6,527.7,905.6,526.5,905.6z"/>
		<path class="st15" d="M766,792.2c0,0-13.5,57.3-62.4,50.2c-48.9-7.1-48.9-7.1-48.9-7.1l46.5,87.7c-25.6-0.1-51.2-0.1-76.8-0.2
			c3.7-2.7,9.1-6.1,16.2-8.7c10.8-4,15-2.3,17-4.5c9.4-10.4-66.7-67.7-57.4-99.5c4.8-16.4,33.5-30.6,121.9-32
			c4.5,3.4,12,8.3,22.3,11.4C753.2,791.9,760.8,792.3,766,792.2z"/>
		<path class="st10" d="M782.8,804.4c1,9.1,1.2,24.7-8.9,33.7c-9.1,8.1-21.2,6-48.3,5.7c-13-0.1-31.1,0.2-52.9,2.2
			c15.1,29.7,30.2,59.4,45.3,89.1c-25.6-0.1-51.2-0.1-76.8-0.2c3.7-2.7,9.1-6.1,16.2-8.7c10.8-4,15-2.3,17-4.5
			c5.7-6.3-66.5-66.4-57.4-99.5c4.5-16.4,30.7-32.2,114.2-36.9c5.4,4.8,15.4,12.2,30,16.3C769.7,803.9,777.1,804.4,782.8,804.4z"/>
		<path class="st16" d="M714.6,603.9c0.2-3.4,0.9-6.4,1.6-8.6c1.2-3,5.2-12.1,14.9-16.9c13.9-7,32-1.7,40.6,10.2
			c8.1,11.3,5.2,24.3,4.8,26c-3.2,13.8-15.4,20.6-15.4,20.6v30.3c-2.7,0.9-6.8,1.9-11.9,1.8c-4.8,0-8.7-1-11.4-1.8
			c0-4.8,0-9.6,0-14.4c-2.7,0.4-6.6,0.6-10.6-1.3c-7.1-3.2-11.5-11.1-11.2-20c2.6,0.6,5.2-0.1,6.6-1.9c0.7-0.9,0.9-1.8,1-2.5
			c-5.8,2.1-8.7-1.5-8.7-1.5l0-11.9C714.6,609.8,714.4,607.1,714.6,603.9z"/>
		<path class="st10" d="M725.8,613.1c0,2.6,1,4.7,2.2,4.7c1.2,0,2.2-2.1,2.2-4.7c0-2.6-1-4.7-2.2-4.7
			C726.8,608.4,725.8,610.5,725.8,613.1z"/>
		<path class="st4" d="M737.8,666.2c0,0-16.9-1.9-27.4,26C700,720,698,753,698,753h27.7C725.7,753,752.5,670.4,737.8,666.2z"/>
		<path class="st17" d="M757.5,621.4c-0.2,1,1-6.6,5.4-6C767.3,616.1,758.3,618.3,757.5,621.4z"/>
		<path class="st17" d="M761.1,635.2c0,0-10,14-23.3,15.9v5.1C737.8,656.2,755,662.3,761.1,635.2z"/>
		<path class="st18" d="M721.5,777.7c0.2-3.9,0.4-7.8,0.7-11.7c-2-11.4-3.6-21.6-4.9-30.2c-2.8-17.9-3.1-21.8-2.4-27.6
			c0.9-6.9,2.8-12.2,6.7-22.7c0.6-1.7,2.4-6.4,5.9-11.6c5.5-8.1,9-8.5,10.1-8.6c1.7-0.1,1.9,0.6,4.2,1.1c5.4,1.2,12.4-0.8,16.4-5.7
			c0.9-1.1,2.2-3,3-5.9c17.5,9.7,25.4,20.8,29.2,30.2c7.5,18.4,0.3,33.7-4.2,69.8c-2.7,21.9-3.3,39.7-3.3,50.6
			C782.2,805.3,754.4,807.5,721.5,777.7z"/>
		<g>
			<g>
				<path class="st19" d="M784.9,939.2h8.6c0.4,0,0.7-0.3,0.7-0.7V671.3h-10.1v267.1C784.1,938.9,784.5,939.2,784.9,939.2z"/>
				
					<rect x="677.7" y="843.5" transform="matrix(-1 -1.224647e-16 1.224647e-16 -1 1461.8638 1700.4944)" class="st19" width="106.4" height="13.5"/>
			</g>
			<path class="st19" d="M678.5,940.8h8.6c0.4,0,0.7-0.3,0.7-0.7v-92.5h-10.1v92.5C677.7,940.5,678.1,940.8,678.5,940.8z"/>
		</g>
		<g>
			<rect x="484.6" y="775.8" class="st14" width="250.7" height="16.4"/>
			<path class="st14" d="M490.8,970.7h-4.1c-1.2,0-2.1-1-2.1-2.1V792.3h8.3v176.3C492.9,969.7,492,970.7,490.8,970.7z"/>
			<path class="st14" d="M733.2,970.7h-4.1c-1.2,0-2.1-1-2.1-2.1V792.3h8.3v176.3C735.4,969.7,734.4,970.7,733.2,970.7z"/>
		</g>
		<path class="st20" d="M735.4,775.8c-83.6,0-167.2,0-250.7,0c11.3-16.2,22.7-32.5,34-48.7c61.4,0.3,122.7,0.6,184.1,0.9
			C713.6,744,724.5,759.9,735.4,775.8z"/>
		<path class="st21" d="M737.9,665.3l-10.3,10.3l1,3.1c-2.7,7-5.4,14.1-7.9,21.6c-5,14.7-9,28.7-12.3,42.1l3.9,8.9l5.9-6.4
			c2.6-12.7,5.5-25.6,8.5-38.6c2-8.6,4.1-17.2,6.2-25.6l4.1-1.5L737.9,665.3z"/>
		<g>
			<path class="st4" d="M737.6,664.6l0.3,16.7c0,0,30.4-8.3,31.6-22.7l-7.8-4.9C761.6,653.6,754.5,665.7,737.6,664.6z"/>
			<path class="st4" d="M737.8,666.2l-12.1,10.5c0,0,3.9-10.6,11.9-12.1L737.8,666.2z"/>
		</g>
		<g>
			<path class="st16" d="M647.7,732.4l-24.3,1.9c0,0-24,9-20.9,12.2c3.1,3.2,19.5-0.3,20.4,0c0.3,0.1,3.5,0.4,7.7,0.6
				c-1.6,1.4-5.1,4.4-6.6,5.1c-2,0.9-1.5,4.5-1.5,4.5s8.9-3.8,14.3-4.3c3.7-0.3,10.8-3.7,14.9-5.8c0.8-0.2,1.5-0.4,2-0.6
				C659.2,743.1,647.7,732.4,647.7,732.4z"/>
			<path class="st4" d="M683.3,724.4l-40.9,7.3c0,0,8.1,8.6,7.9,16.4l58.4,2.2L683.3,724.4z"/>
			<path class="st17" d="M626.5,739.8l-6.6,0.6l-12.4,6C607.4,746.4,619.8,741.3,626.5,739.8z"/>
			<polygon class="st17" points="623.1,736.7 616.5,738 605,744.5 			"/>
		</g>
		<g>
			<g>
				<path class="st16" d="M664.7,651.5c-2.3-4-3.7-7.4-4.6-9.9c-0.8-2.1-1.6-4.6-2.7-4.6c-0.7,0-1.3,1.1-1.5,1.5
					c-2.2,4.2,3.5,16.1,5.3,19.6L664.7,651.5z"/>
				<path class="st16" d="M664.3,650.9c-0.3-0.1-0.7-0.1-1.1,0c-1.7,0.2-2.5,1.6-2.6,1.7c-0.2-0.1-1.5-0.7-2.9-0.1
					c-1.1,0.4-1.7,1.3-1.8,1.6c-0.4-0.1-1.1-0.2-2-0.1c-1.3,0.2-2.2,1-2.5,1.3c-0.4,0-1,0-1.7,0.2c-0.4,0.1-1.5,0.5-2,1.7
					c-0.2,0.4-0.2,0.7-0.2,1l0,0v7.6l1.8,4.2c0,0,0,0.1,0,0.1c0,0.1,0.1,0.2,0.1,0.3l0,0.1l0,0c0.3,0.6,0.9,1,1.6,1.1
					c0.8,0,1.4-0.6,1.5-0.7c0.4,1.2,2.9,8.5,9,11.9c0,0,2.7,1.6,6.9,2.2c1.7,0.2,2.8,0.1,3.8-0.3c0,0,0.2-0.1,0.5-0.2
					c2.1-1.2,4.8-7.8,5.2-8.7C673.3,667.4,668.8,659.1,664.3,650.9z"/>
				<path class="st17" d="M649.2,659.7l3.2,11.1C652.5,670.8,652.1,664.6,649.2,659.7z"/>
			</g>
			<path class="st4" d="M774.8,665.3c0,0-13.1-0.7-22.4,15.1c-9.3,15.8-29.4,46.6-33.7,47.6c-4.3,1-41.7-54.9-41.7-54.9l-16.5,9.9
				c0,0,33.8,75.8,52.7,84c19,8.2,65.9-43.6,65.9-43.6S798.7,681.7,774.8,665.3z"/>
		</g>
		<path class="st10" d="M766.8,615.8c-0.3-0.6-3.1-5.4-7.2-4.8c-2.8,0.3-5.2,3-5.9,6.6c-12.6-2.6-11.5-30.1-11.5-30.1
			c-9,4.8-17.7,1.5-21.3-0.4c2-2.6,4.7-5.3,8.1-7.4c12.9-7.8,31.2-5,41.2,6.6c9.1,10.5,7.3,23.6,7,25.4
			c-1.9,13.9-13.5,21.8-13.5,21.8C768.2,627.4,769.6,620.6,766.8,615.8z"/>
		<path class="st10" d="M724.3,603.9c0,0,6.4-4.3,14,4.9C738.2,608.8,725.8,603.1,724.3,603.9z"/>
		<path class="st22" d="M730.9,667.9"/>
	</g>
</g>
<text transform="matrix(0.7735 0 0 1 232.9277 224.0771)" class="st1"><tspan x="0" y="0" class="st2 st23 st24">FORMATION DES  </tspan><tspan x="0" y="122.7" class="st2 st23 st24">ENSEIGNANTS</tspan></text>
<g>
	<path class="st4" d="M238.8,150.9H282v15.7h-25.7v12.8h21.9v14.8h-21.9v29.9h-17.6V150.9z"/>
	<path class="st4" d="M289.3,187.5c0-11.9,2.6-21.2,7.7-27.9c5.1-6.7,12.3-10,21.5-10c9.4,0,16.7,3.3,21.8,9.8
		c5.1,6.5,7.6,15.7,7.6,27.5c0,8.6-1.1,15.6-3.3,21c-2.2,5.5-5.4,9.7-9.7,12.8c-4.2,3-9.5,4.6-15.7,4.6c-6.4,0-11.7-1.3-15.9-3.9
		c-4.2-2.6-7.6-6.8-10.2-12.5C290.6,203.2,289.3,196.1,289.3,187.5z M306.8,187.6c0,7.4,1.1,12.7,3.2,15.9c2.1,3.2,5,4.8,8.7,4.8
		c3.8,0,6.7-1.6,8.7-4.7c2.1-3.2,3.1-8.8,3.1-17c0-6.9-1.1-11.9-3.2-15.1c-2.1-3.2-5.1-4.8-8.7-4.8c-3.5,0-6.4,1.6-8.5,4.8
		C307.8,174.8,306.8,180.2,306.8,187.6z"/>
	<path class="st4" d="M357.6,224.1v-73.2h29.2c5.4,0,9.5,0.6,12.4,1.8c2.9,1.2,5.2,3.4,6.9,6.7c1.8,3.2,2.6,7.2,2.6,11.9
		c0,4.1-0.7,7.6-2,10.5s-3.2,5.3-5.5,7.2c-1.5,1.2-3.5,2.1-6.1,2.9c2.1,0.9,3.6,1.8,4.6,2.7c0.6,0.6,1.6,1.9,2.8,3.8
		c1.2,2,2,3.5,2.5,4.5l8.5,21.2h-19.8l-9.4-22.4c-1.2-2.9-2.2-4.8-3.2-5.6c-1.3-1.1-2.7-1.7-4.3-1.7h-1.5v29.7H357.6z M375.1,180.5
		h7.4c0.8,0,2.3-0.3,4.6-1c1.2-0.3,2.1-1.1,2.8-2.3c0.7-1.2,1.1-2.6,1.1-4.2c0-2.4-0.6-4.2-1.7-5.4c-1.2-1.3-3.3-1.9-6.5-1.9h-7.7
		V180.5z"/>
	<path class="st4" d="M418.7,150.9h23l8.9,44.5l8.8-44.5h23v73.2H468v-55.8l-11,55.8h-13l-11-55.8v55.8h-14.3V150.9z"/>
	<path class="st4" d="M528.3,212h-19.9l-2.8,12.1h-17.9l21.3-73.2h19.1l21.3,73.2h-18.3L528.3,212z M524.7,196.2l-6.2-26.3
		l-6.2,26.3H524.7z"/>
	<path class="st4" d="M545.6,150.9h53.2V169h-17.8v55.1h-17.5V169h-17.8V150.9z"/>
	<path class="st4" d="M607.4,150.9h17.5v73.2h-17.5V150.9z"/>
	<path class="st4" d="M635.3,187.5c0-11.9,2.6-21.2,7.7-27.9c5.1-6.7,12.3-10,21.5-10c9.4,0,16.7,3.3,21.8,9.8
		c5.1,6.5,7.6,15.7,7.6,27.5c0,8.6-1.1,15.6-3.3,21c-2.2,5.5-5.4,9.7-9.7,12.8c-4.2,3-9.5,4.6-15.7,4.6c-6.4,0-11.7-1.3-15.9-3.9
		c-4.2-2.6-7.6-6.8-10.2-12.5C636.6,203.2,635.3,196.1,635.3,187.5z M652.7,187.6c0,7.4,1.1,12.7,3.2,15.9c2.1,3.2,5,4.8,8.7,4.8
		c3.8,0,6.7-1.6,8.7-4.7c2.1-3.2,3.1-8.8,3.1-17c0-6.9-1.1-11.9-3.2-15.1c-2.2-3.2-5.1-4.8-8.7-4.8c-3.5,0-6.4,1.6-8.5,4.8
		C653.8,174.8,652.7,180.2,652.7,187.6z"/>
	<path class="st4" d="M703.4,150.9h16.3l21.3,40.5v-40.5h16.5v73.2h-16.5l-21.2-40.2v40.2h-16.4V150.9z"/>
	<path class="st4" d="M795.8,150.9h26c5.1,0,9.3,0.9,12.4,2.7s5.8,4.4,7.8,7.7c2.1,3.4,3.6,7.3,4.5,11.7c0.9,4.5,1.4,9.2,1.4,14.2
		c0,7.8-0.7,13.9-2.1,18.2c-1.4,4.3-3.3,7.9-5.7,10.8c-2.4,2.9-5.1,4.9-7.9,5.8c-3.8,1.3-7.3,2-10.4,2h-26V150.9z M813.3,167.5v40
		h4.3c3.7,0,6.3-0.5,7.8-1.6s2.8-2.9,3.6-5.5c0.9-2.6,1.3-6.8,1.3-12.7c0-7.8-1-13.1-2.9-15.9c-2-2.9-5.2-4.3-9.7-4.3H813.3z"/>
	<path class="st4" d="M857.1,150.9h46.9v15.6h-29.3v11.6h27.2v14.9h-27.2v14.4h30.2v16.6h-47.7V150.9z"/>
	<path class="st4" d="M911.2,199.9l16.6-1.3c0.4,3.5,1.1,6.2,2.2,8c1.8,3,4.4,4.4,7.7,4.4c2.5,0,4.4-0.8,5.8-2.3
		c1.4-1.5,2-3.3,2-5.3c0-1.9-0.6-3.6-1.9-5.1s-4.3-2.9-9-4.2c-7.7-2.2-13.1-5.2-16.4-8.9c-3.3-3.7-4.9-8.4-4.9-14.1
		c0-3.8,0.8-7.3,2.5-10.7c1.7-3.3,4.2-6,7.6-7.9c3.4-1.9,8-2.9,13.9-2.9c7.2,0,12.7,1.7,16.5,5.2c3.8,3.5,6.1,9,6.8,16.6l-16.5,1.2
		c-0.4-3.3-1.4-5.7-2.8-7.2c-1.4-1.5-3.3-2.2-5.8-2.2c-2,0-3.6,0.6-4.6,1.7c-1,1.1-1.5,2.5-1.5,4.1c0,1.2,0.4,2.2,1.3,3.1
		c0.8,1,2.8,1.9,5.9,2.7c7.6,2.1,13.1,4.3,16.4,6.5c3.3,2.2,5.7,4.9,7.2,8.1c1.5,3.2,2.3,6.8,2.3,10.8c0,4.7-1,9-3,13
		c-2,4-4.8,7-8.4,9c-3.6,2-8.1,3.1-13.6,3.1c-9.6,0-16.3-2.4-20-7.2S911.6,207.3,911.2,199.9z"/>
	<path class="st4" d="M238.7,273.6h46.9v15.6h-29.3v11.6h27.2v14.9h-27.2v14.4h30.2v16.6h-47.7V273.6z"/>
	<path class="st4" d="M295.9,273.6h16.3l21.3,40.5v-40.5h16.5v73.2h-16.5l-21.2-40.2v40.2h-16.4V273.6z"/>
	<path class="st4" d="M358.7,322.6l16.6-1.3c0.4,3.5,1.1,6.2,2.2,8c1.8,3,4.4,4.4,7.7,4.4c2.5,0,4.4-0.8,5.8-2.3
		c1.4-1.5,2-3.3,2-5.3c0-1.9-0.6-3.6-1.9-5.1c-1.3-1.5-4.3-2.9-9-4.2c-7.7-2.2-13.1-5.2-16.4-8.9c-3.3-3.7-4.9-8.4-4.9-14.1
		c0-3.8,0.8-7.3,2.5-10.7c1.7-3.3,4.2-6,7.6-7.9c3.4-1.9,8-2.9,13.9-2.9c7.2,0,12.7,1.7,16.5,5.2c3.8,3.5,6.1,9,6.8,16.6l-16.5,1.2
		c-0.4-3.3-1.4-5.7-2.8-7.2c-1.4-1.5-3.3-2.2-5.8-2.2c-2,0-3.6,0.6-4.6,1.7c-1,1.1-1.5,2.5-1.5,4.1c0,1.2,0.4,2.2,1.3,3.1
		c0.8,1,2.8,1.9,5.9,2.7c7.6,2.1,13.1,4.3,16.4,6.5c3.3,2.2,5.7,4.9,7.2,8.1c1.5,3.2,2.3,6.8,2.3,10.8c0,4.7-1,9-3,13
		c-2,4-4.8,7-8.4,9c-3.6,2-8.1,3.1-13.6,3.1c-9.6,0-16.3-2.4-20-7.2S359.1,329.9,358.7,322.6z"/>
	<path class="st4" d="M418.8,273.6h46.9v15.6h-29.3v11.6h27.2v14.9h-27.2v14.4h30.2v16.6h-47.7V273.6z"/>
	<path class="st4" d="M476.6,273.6h17.5v73.2h-17.5V273.6z"/>
	<path class="st4" d="M535.2,320.3V305h27v31.2c-5.2,4.6-9.8,7.7-13.7,9.3s-8.7,2.5-14.2,2.5c-6.7,0-12.2-1.5-16.4-4.4
		c-4.2-3-7.5-7.4-9.8-13.2c-2.3-5.9-3.5-12.6-3.5-20.2c0-8,1.3-14.9,3.8-20.8c2.5-5.9,6.3-10.4,11.2-13.5c3.8-2.4,9-3.5,15.5-3.5
		c6.3,0,10.9,0.7,14,2.2c3.1,1.5,5.7,3.7,7.7,6.8c2,3.1,3.6,7,4.6,11.7l-16.9,3.9c-0.7-2.8-1.9-4.9-3.5-6.3
		c-1.7-1.5-3.8-2.2-6.4-2.2c-3.8,0-6.9,1.7-9.2,5.2c-2.3,3.4-3.4,8.9-3.4,16.3c0,7.9,1.2,13.6,3.5,17s5.5,5.1,9.6,5.1
		c2,0,3.8-0.4,5.6-1.1c1.8-0.7,3.8-2,6.1-3.7v-6.9H535.2z"/>
	<path class="st4" d="M572.7,273.6H589l21.3,40.5v-40.5h16.5v73.2h-16.5l-21.2-40.2v40.2h-16.4V273.6z"/>
	<path class="st4" d="M672.5,334.7h-19.9l-2.8,12.1H632l21.3-73.2h19.1l21.3,73.2h-18.3L672.5,334.7z M668.9,318.9l-6.2-26.3
		l-6.2,26.3H668.9z"/>
	<path class="st4" d="M699.3,273.6h16.3l21.3,40.5v-40.5h16.5v73.2H737l-21.2-40.2v40.2h-16.4V273.6z"/>
	<path class="st4" d="M761.1,273.6h53.2v18.1h-17.8v55.1h-17.5v-55.1h-17.8V273.6z"/>
	<path class="st4" d="M819.1,322.6l16.6-1.3c0.4,3.5,1.1,6.2,2.2,8c1.8,3,4.4,4.4,7.7,4.4c2.5,0,4.4-0.8,5.8-2.3
		c1.4-1.5,2-3.3,2-5.3c0-1.9-0.6-3.6-1.9-5.1s-4.3-2.9-9-4.2c-7.7-2.2-13.1-5.2-16.4-8.9c-3.3-3.7-4.9-8.4-4.9-14.1
		c0-3.8,0.8-7.3,2.5-10.7c1.7-3.3,4.2-6,7.6-7.9c3.4-1.9,8-2.9,13.9-2.9c7.2,0,12.7,1.7,16.5,5.2c3.8,3.5,6.1,9,6.8,16.6l-16.5,1.2
		c-0.4-3.3-1.4-5.7-2.8-7.2c-1.4-1.5-3.3-2.2-5.8-2.2c-2,0-3.6,0.6-4.6,1.7c-1,1.1-1.5,2.5-1.5,4.1c0,1.2,0.4,2.2,1.3,3.1
		c0.8,1,2.8,1.9,5.9,2.7c7.6,2.1,13.1,4.3,16.4,6.5c3.3,2.2,5.7,4.9,7.2,8.1c1.5,3.2,2.3,6.8,2.3,10.8c0,4.7-1,9-3,13
		c-2,4-4.8,7-8.4,9c-3.6,2-8.1,3.1-13.6,3.1c-9.6,0-16.3-2.4-20-7.2S819.6,329.9,819.1,322.6z"/>
</g>
</svg>
