<?xml version="1.0" encoding="utf-8"?>
<!-- Generator: Adobe Illustrator 25.0.0, SVG Export Plug-In . SVG Version: 6.00 Build 0)  -->
<svg version="1.1" id="Calque_1" xmlns="http://www.w3.org/2000/svg" xmlns:xlink="http://www.w3.org/1999/xlink" x="0px" y="0px"
	 viewBox="0 0 1000 1000" style="enable-background:new 0 0 1000 1000;" xml:space="preserve">
<style type="text/css">
	.st0{fill:#EA9603;}
	.st1{fill:#FFFFFF;}
	.st2{display:none;}
	.st3{display:inline;fill:#FFFFFF;}
	.st4{font-family:'Arial-Black';}
	.st5{font-size:102.238px;}
	.st6{fill:#D6F7FF;}
	.st7{fill:#81D9D9;}
	.st8{fill:#25384E;}
	.st9{fill:#F5D975;}
	.st10{fill:#E6C867;}
	.st11{fill:#F8C295;}
	.st12{fill:#DF9B5B;}
	.st13{opacity:0.32;fill:#EAA965;}
	.st14{fill:#45383F;}
	.st15{fill:#F9F5EC;}
	.st16{fill:#B3A8FF;}
	.st17{opacity:0.1;fill:#3F2C28;}
	.st18{fill:#FDFDFD;}
	.st19{fill:#525C7B;}
	.st20{fill:#B2765E;}
	.st21{fill:#4E5873;}
	.st22{fill:#7570DD;}
	.st23{fill:#6366CB;}
	.st24{fill:#FBFFFA;}
	.st25{opacity:7.000000e-02;fill:#050505;}
	.st26{fill:#A46854;}
	.st27{opacity:0.61;fill:#A46854;}
	.st28{fill:#3B3036;}
	.st29{fill:#8879ED;}
	.st30{opacity:7.000000e-02;}
</style>
<path class="st0" d="M-5.2-8.1h1010.4c1.6,0,2.9,1.3,2.9,2.9v1010.4c0,1.6-1.3,2.9-2.9,2.9H-5.2c-1.6,0-2.9-1.3-2.9-2.9V-5.2
	C-8.1-6.8-6.8-8.1-5.2-8.1z"/>
<path class="st1" d="M73.1,291.2c0-23.5,11.7-43.6,35.1-60.3c21.9-15.7,32.9-28.8,33-39.3v-49.5c0-9.7-4.2-14.5-12.5-14.5h-0.3
	c-8.4,0-12.6,4.8-12.6,14.5v36.4H73.1v-36.4c0-37.1,18.5-55.7,55.4-55.7c36.9,0,55.4,18.6,55.5,55.7v50.4
	c0,23.9-11.7,44.3-35.2,61.1c-21.9,15.7-32.9,29.3-32.9,40.8v12.6H184v41H73.1V291.2z"/>
<text transform="matrix(0.6002 0 0 1 231.0005 225.8374)" class="st2"><tspan x="0" y="0" class="st3 st4 st5">EGALITE DES GENRES </tspan><tspan x="0" y="122.7" class="st3 st4 st5">ET INCLUSION</tspan></text>
<g>
	<path class="st1" d="M235.5,152.7h36.4v15.6h-22.8v11.6h21.1v14.9h-21.1v14.4h23.4v16.6h-37V152.7z"/>
	<path class="st1" d="M301.9,199.3v-15.2h21v31.2c-4,4.6-7.6,7.7-10.7,9.3c-3.1,1.6-6.7,2.5-11,2.5c-5.2,0-9.5-1.5-12.8-4.4
		c-3.3-3-5.8-7.4-7.6-13.2c-1.8-5.9-2.7-12.6-2.7-20.2c0-8,1-14.9,3-20.8c2-5.9,4.9-10.4,8.7-13.5c3-2.4,7-3.5,12-3.5
		c4.9,0,8.5,0.7,10.9,2.2c2.4,1.5,4.4,3.7,6,6.8c1.6,3.1,2.8,7,3.6,11.7l-13.1,3.9c-0.5-2.8-1.5-4.9-2.7-6.3
		c-1.3-1.5-2.9-2.2-4.9-2.2c-3,0-5.3,1.7-7.1,5.2c-1.8,3.4-2.7,8.9-2.7,16.3c0,7.9,0.9,13.6,2.7,17c1.8,3.4,4.3,5.1,7.5,5.1
		c1.5,0,3-0.4,4.3-1.1c1.4-0.7,3-2,4.7-3.7v-6.9H301.9z"/>
	<path class="st1" d="M357.9,213.8h-15.4l-2.1,12.1h-13.9l16.5-73.2h14.8l16.5,73.2h-14.2L357.9,213.8z M355.1,197.9l-4.8-26.3
		l-4.8,26.3H355.1z"/>
	<path class="st1" d="M378.7,152.7h13.6v55.2h21.2v18h-34.8V152.7z"/>
	<path class="st1" d="M420.1,152.7h13.6v73.2h-13.6V152.7z"/>
	<path class="st1" d="M440.4,152.7h41.3v18.1h-13.8v55.1h-13.6v-55.1h-13.8V152.7z"/>
	<path class="st1" d="M487.8,152.7h36.4v15.6h-22.8v11.6h21.1v14.9h-21.1v14.4h23.4v16.6h-37V152.7z"/>
	<path class="st1" d="M552.8,152.7h20.2c4,0,7.2,0.9,9.6,2.7c2.4,1.8,4.5,4.4,6.1,7.7c1.6,3.4,2.8,7.3,3.5,11.7
		c0.7,4.5,1.1,9.2,1.1,14.2c0,7.8-0.5,13.9-1.6,18.2c-1.1,4.3-2.6,7.9-4.5,10.8c-1.9,2.9-3.9,4.9-6.1,5.8c-3,1.3-5.7,2-8.1,2h-20.2
		V152.7z M566.3,169.2v40h3.3c2.8,0,4.9-0.5,6.1-1.6s2.1-2.9,2.8-5.5c0.7-2.6,1-6.8,1-12.7c0-7.8-0.8-13.1-2.3-15.9
		c-1.5-2.9-4-4.3-7.6-4.3H566.3z"/>
	<path class="st1" d="M600.3,152.7h36.4v15.6h-22.8v11.6H635v14.9h-21.1v14.4h23.4v16.6h-37V152.7z"/>
	<path class="st1" d="M642.3,201.6l12.9-1.3c0.3,3.5,0.8,6.2,1.7,8c1.4,3,3.4,4.4,6,4.4c1.9,0,3.4-0.8,4.5-2.3
		c1-1.5,1.6-3.3,1.6-5.3c0-1.9-0.5-3.6-1.5-5.1s-3.3-2.9-7-4.2c-6-2.2-10.2-5.2-12.7-8.9c-2.6-3.7-3.8-8.4-3.8-14.1
		c0-3.8,0.7-7.3,2-10.7c1.3-3.3,3.3-6,5.9-7.9c2.6-1.9,6.2-2.9,10.8-2.9c5.6,0,9.9,1.7,12.8,5.2c2.9,3.5,4.7,9,5.3,16.6l-12.8,1.2
		c-0.3-3.3-1.1-5.7-2.1-7.2c-1.1-1.5-2.6-2.2-4.5-2.2c-1.6,0-2.8,0.6-3.6,1.7c-0.8,1.1-1.2,2.5-1.2,4.1c0,1.2,0.3,2.2,1,3.1
		c0.6,1,2.2,1.9,4.6,2.7c5.9,2.1,10.2,4.3,12.7,6.5c2.6,2.2,4.4,4.9,5.6,8.1c1.2,3.2,1.8,6.8,1.8,10.8c0,4.7-0.8,9-2.3,13
		c-1.6,4-3.7,7-6.5,9c-2.8,2-6.3,3.1-10.6,3.1c-7.5,0-12.6-2.4-15.5-7.2C644.3,215.1,642.6,209,642.3,201.6z"/>
	<path class="st1" d="M731.5,199.3v-15.2h21v31.2c-4,4.6-7.6,7.7-10.7,9.3c-3.1,1.6-6.7,2.5-11,2.5c-5.2,0-9.5-1.5-12.8-4.4
		c-3.3-3-5.8-7.4-7.6-13.2c-1.8-5.9-2.7-12.6-2.7-20.2c0-8,1-14.9,3-20.8c2-5.9,4.9-10.4,8.7-13.5c3-2.4,7-3.5,12-3.5
		c4.9,0,8.5,0.7,10.9,2.2c2.4,1.5,4.4,3.7,6,6.8c1.6,3.1,2.8,7,3.6,11.7l-13.1,3.9c-0.5-2.8-1.5-4.9-2.7-6.3
		c-1.3-1.5-2.9-2.2-4.9-2.2c-3,0-5.3,1.7-7.1,5.2c-1.8,3.4-2.7,8.9-2.7,16.3c0,7.9,0.9,13.6,2.7,17c1.8,3.4,4.3,5.1,7.5,5.1
		c1.5,0,3-0.4,4.3-1.1c1.4-0.7,3-2,4.7-3.7v-6.9H731.5z"/>
	<path class="st1" d="M760.5,152.7h36.4v15.6h-22.8v11.6h21.1v14.9h-21.1v14.4h23.4v16.6h-37V152.7z"/>
	<path class="st1" d="M804.9,152.7h12.7l16.5,40.5v-40.5h12.8v73.2h-12.8l-16.5-40.2v40.2h-12.8V152.7z"/>
	<path class="st1" d="M856.1,225.8v-73.2h22.6c4.2,0,7.4,0.6,9.6,1.8c2.2,1.2,4,3.4,5.4,6.7c1.4,3.2,2,7.2,2,11.9
		c0,4.1-0.5,7.6-1.6,10.5s-2.5,5.3-4.3,7.2c-1.2,1.2-2.7,2.1-4.8,2.9c1.6,0.9,2.8,1.8,3.5,2.7c0.5,0.6,1.2,1.9,2.2,3.8
		c0.9,2,1.6,3.5,1.9,4.5l6.6,21.2H884l-7.3-22.4c-0.9-2.9-1.7-4.8-2.5-5.6c-1-1.1-2.1-1.7-3.3-1.7h-1.2v29.7H856.1z M869.8,182.3
		h5.7c0.6,0,1.8-0.3,3.6-1c0.9-0.3,1.6-1.1,2.2-2.3c0.6-1.2,0.9-2.6,0.9-4.2c0-2.4-0.5-4.2-1.3-5.4c-0.9-1.3-2.6-1.9-5.1-1.9h-6
		V182.3z"/>
	<path class="st1" d="M903.7,152.7H940v15.6h-22.8v11.6h21.1v14.9h-21.1v14.4h23.4v16.6h-37V152.7z"/>
	<path class="st1" d="M945.6,201.6l12.9-1.3c0.3,3.5,0.8,6.2,1.7,8c1.4,3,3.4,4.4,6,4.4c1.9,0,3.4-0.8,4.5-2.3
		c1-1.5,1.6-3.3,1.6-5.3c0-1.9-0.5-3.6-1.5-5.1s-3.3-2.9-7-4.2c-6-2.2-10.2-5.2-12.7-8.9c-2.6-3.7-3.8-8.4-3.8-14.1
		c0-3.8,0.7-7.3,2-10.7c1.3-3.3,3.3-6,5.9-7.9c2.6-1.9,6.2-2.9,10.8-2.9c5.6,0,9.9,1.7,12.8,5.2c2.9,3.5,4.7,9,5.3,16.6l-12.8,1.2
		c-0.3-3.3-1.1-5.7-2.1-7.2c-1.1-1.5-2.6-2.2-4.5-2.2c-1.6,0-2.8,0.6-3.6,1.7c-0.8,1.1-1.2,2.5-1.2,4.1c0,1.2,0.3,2.2,1,3.1
		c0.6,1,2.2,1.9,4.6,2.7c5.9,2.1,10.2,4.3,12.7,6.5c2.6,2.2,4.4,4.9,5.6,8.1c1.2,3.2,1.8,6.8,1.8,10.8c0,4.7-0.8,9-2.3,13
		c-1.6,4-3.7,7-6.5,9c-2.8,2-6.3,3.1-10.6,3.1c-7.5,0-12.6-2.4-15.5-7.2C947.6,215.1,946,209,945.6,201.6z"/>
	<path class="st1" d="M235.5,275.3h36.4V291h-22.8v11.6h21.1v14.9h-21.1v14.4h23.4v16.6h-37V275.3z"/>
	<path class="st1" d="M276.7,275.3H318v18.1h-13.8v55.1h-13.6v-55.1h-13.8V275.3z"/>
	<path class="st1" d="M345.1,275.3h13.6v73.2h-13.6V275.3z"/>
	<path class="st1" d="M368.6,275.3h12.7l16.5,40.5v-40.5h12.8v73.2h-12.8l-16.5-40.2v40.2h-12.8V275.3z"/>
	<path class="st1" d="M448.8,318.6l11.9,6c-0.8,5.6-2.1,10.2-3.8,13.9c-1.7,3.7-3.9,6.5-6.4,8.4s-5.8,2.8-9.7,2.8
		c-4.8,0-8.7-1.2-11.7-3.5c-3-2.3-5.6-6.4-7.8-12.2c-2.2-5.8-3.3-13.3-3.3-22.4c0-12.1,1.9-21.4,5.8-27.9c3.9-6.5,9.3-9.8,16.4-9.8
		c5.5,0,9.9,1.9,13,5.6c3.2,3.7,5.5,9.5,7.1,17.2l-12,4.4c-0.4-2.2-0.9-3.9-1.3-4.9c-0.8-1.7-1.7-3.1-2.8-4
		c-1.1-0.9-2.3-1.4-3.7-1.4c-3.1,0-5.4,2.1-7.1,6.2c-1.2,3.1-1.9,7.9-1.9,14.4c0,8.1,0.7,13.7,2.2,16.7c1.5,3,3.6,4.5,6.2,4.5
		c2.6,0,4.6-1.2,5.9-3.6C447.3,326.7,448.2,323.2,448.8,318.6z"/>
	<path class="st1" d="M467.3,275.3h13.6v55.2h21.2v18h-34.8V275.3z"/>
	<path class="st1" d="M535.3,275.3h13.5v43.6c0,4.3-0.4,8.4-1.2,12.2c-0.8,3.8-2.1,7.2-3.8,10.1c-1.7,2.9-3.5,4.9-5.4,6.1
		c-2.6,1.6-5.8,2.4-9.5,2.4c-2.1,0-4.5-0.2-7-0.7c-2.5-0.5-4.6-1.5-6.3-3c-1.7-1.5-3.3-3.6-4.7-6.3c-1.4-2.7-2.4-5.5-2.9-8.4
		c-0.8-4.7-1.3-8.8-1.3-12.4v-43.6h13.5V320c0,4,0.7,7.1,2,9.4c1.3,2.2,3.2,3.4,5.5,3.4c2.3,0,4.2-1.1,5.5-3.3c1.3-2.2,2-5.3,2-9.4
		V275.3z"/>
	<path class="st1" d="M555.4,324.3l12.9-1.3c0.3,3.5,0.8,6.2,1.7,8c1.4,3,3.4,4.4,6,4.4c1.9,0,3.4-0.8,4.5-2.3
		c1-1.5,1.6-3.3,1.6-5.3c0-1.9-0.5-3.6-1.5-5.1s-3.3-2.9-7-4.2c-6-2.2-10.2-5.2-12.7-8.9c-2.6-3.7-3.8-8.4-3.8-14.1
		c0-3.8,0.7-7.3,2-10.7c1.3-3.3,3.3-6,5.9-7.9c2.6-1.9,6.2-2.9,10.8-2.9c5.6,0,9.9,1.7,12.8,5.2c2.9,3.5,4.7,9,5.3,16.6l-12.8,1.2
		c-0.3-3.3-1.1-5.7-2.1-7.2c-1.1-1.5-2.6-2.2-4.5-2.2c-1.6,0-2.8,0.6-3.6,1.7c-0.8,1.1-1.2,2.5-1.2,4.1c0,1.2,0.3,2.2,1,3.1
		c0.6,1,2.2,1.9,4.6,2.7c5.9,2.1,10.2,4.3,12.7,6.5c2.6,2.2,4.4,4.9,5.6,8.1c1.2,3.2,1.8,6.8,1.8,10.8c0,4.7-0.8,9-2.3,13
		c-1.6,4-3.7,7-6.5,9c-2.8,2-6.3,3.1-10.6,3.1c-7.5,0-12.6-2.4-15.5-7.2C557.4,337.8,555.8,331.7,555.4,324.3z"/>
	<path class="st1" d="M602.6,275.3h13.6v73.2h-13.6V275.3z"/>
	<path class="st1" d="M624.3,312c0-11.9,2-21.2,6-27.9c4-6.7,9.6-10,16.7-10c7.3,0,12.9,3.3,16.9,9.8s5.9,15.7,5.9,27.5
		c0,8.6-0.9,15.6-2.6,21c-1.7,5.5-4.2,9.7-7.5,12.8c-3.3,3-7.3,4.6-12.2,4.6c-5,0-9.1-1.3-12.3-3.9c-3.2-2.6-5.9-6.8-7.9-12.5
		C625.3,327.7,624.3,320.5,624.3,312z M637.9,312.1c0,7.4,0.8,12.7,2.5,15.9c1.6,3.2,3.9,4.8,6.7,4.8c2.9,0,5.2-1.6,6.8-4.7
		c1.6-3.2,2.4-8.8,2.4-17c0-6.9-0.8-11.9-2.5-15.1c-1.7-3.2-3.9-4.8-6.8-4.8c-2.7,0-4.9,1.6-6.6,4.8
		C638.7,299.3,637.9,304.6,637.9,312.1z"/>
	<path class="st1" d="M677.2,275.3h12.7l16.5,40.5v-40.5h12.8v73.2h-12.8L690,308.3v40.2h-12.8V275.3z"/>
</g>
<g>
	<path class="st6" d="M761.5,711.5c-24.3,35.3-62.2,37.9-42.7,78.5c40.5,84.5-68.9,146.5-265.5,138.7
		c-75.3-3-210.1-54.1-162.1-199.8c39.1-118.6-46-104.3-43.5-195.2c2-74.4,56-128.4,137.4-132.6c99.3-5.2,138,103.2,216.4,108.2
		C772.1,526.6,819.5,627,761.5,711.5z"/>
	<g>
		<g>
			<path class="st7" d="M532.4,521.5c0,0-6.1,68.3-3.6,86.9c2.5,18.6,52.8,42.3,52.8,42.3l22.9-62.6c0,0-36.9,6-41.5-2
				c-4.6-8-11.6-58.4-11.6-58.4L532.4,521.5z"/>
		</g>
		<g>
			<path class="st8" d="M468.3,518.3c0,0-11.7,51-2.4,73.7c6.2,15.2,23.4,53.1-10.9,64.7c-22.1,7.4-33.6-24.2-44.5-35.1
				c-10.9-10.9-9.4-29.4,2.4-73.5c11.8-44.2,29.5-61,29.5-61L468.3,518.3z"/>
			<g>
				<path class="st9" d="M482.4,529.7c0,0,6.1,68.3,3.6,86.9c-2.5,18.6-52.8,42.3-52.8,42.3l-21.1-57.7c0,0,35.1,1.1,39.8-6.9
					c4.6-8,11.6-58.4,11.6-58.4L482.4,529.7z"/>
				<path class="st10" d="M432,600.5c0,0,13,19,14.9,26.4c1.7,6.5,3,23.1,3,23.1l-4.6,2.6c0,0,1-18.9-2.9-28.4
					c-2.5-6.1-15-23.3-15-23.3L432,600.5z"/>
			</g>
			<g>
				<g>
					<g>
						<path class="st11" d="M417,587.7c-1.1-2.9-2.6-8.7-3.2-11.9c-20.2,2.7-40.6-25.8-40.6,3c0,2.5-1.7,4.8-4.8,7.4
							c0,0,13.6,5.8,27.8,5.8C410.4,592,417,587.7,417,587.7"/>
					</g>
				</g>
				<path class="st11" d="M378.9,454.8c0,0-12,2.8-24.7,10.1c-13,7.5-26.6,19.6-28.5,38.4c-1.1,10.8-0.2,21.2,2.6,30.8
					c6.8,23.3,25.1,41.4,54.3,47.1c20.6,4,42.9,1.3,59.6-10.8c16.7-12.1,26.8-37.9,22.8-59.5c-4-21.6-13.8-33.1-29.1-43.1
					C420.6,457.7,400.9,453.4,378.9,454.8z"/>
				<g>
					<path class="st12" d="M411.4,533c-0.7,0-1.3-0.6-1.4-1.3c-0.1-0.8,0.5-1.4,1.3-1.5c0.5,0,1.8-0.2,2.5-0.4
						c1.2-0.3,2-0.8,2.2-1.4c0.2-0.6-0.2-1.6-1-2.7c-2.7-3.3-2.5-9.4-2.5-9.6c0-0.8,0.7-1.4,1.4-1.4c0.8,0,1.4,0.7,1.4,1.4
						c0,1.5,0.2,5.7,1.9,7.8c1.9,2.4,1.9,4.2,1.5,5.3c-0.3,1.1-1.3,2.5-4.1,3.3c-1.1,0.3-2.9,0.5-3.1,0.5
						C411.5,533,411.5,533,411.4,533z"/>
				</g>
				<path class="st13" d="M355.7,540.6c0,8.1,6.5,14.7,14.6,14.8c8.1,0,14.7-6.5,14.8-14.6c0-8.1-6.5-14.7-14.6-14.8
					C362.4,525.9,355.8,532.4,355.7,540.6z"/>
				<path class="st13" d="M459,547.6c-0.2,0.8-1.1,0.6-2,0.6c-8.1,0-14.7-6.7-14.6-14.8c0-8.1,6.7-14.7,14.8-14.6
					c1.2,0,2.2,0.2,3.3,0.4C460.5,519.2,462.9,532.2,459,547.6z"/>
				<g>
					<path class="st14" d="M384.8,521.2c0.2,3-1.3,5.5-3.4,5.7c-2.1,0.2-4-2.1-4.2-5.1c-0.2-3,1.3-5.5,3.4-5.7
						C382.7,516,384.5,518.3,384.8,521.2z"/>
					<path class="st14" d="M442.2,516c0.2,3-1.3,5.5-3.4,5.7c-2.1,0.2-4-2.1-4.2-5.1c-0.2-3,1.3-5.5,3.4-5.7
						C440.1,510.7,442,513,442.2,516z"/>
				</g>
				<path class="st13" d="M415.1,581.6c0,0-17.4,2.6-34.1-1.3c1.9,1.1,12.3,8.7,34.9,4.6L415.1,581.6z"/>
				<g>
					<path class="st15" d="M404.1,538.7c0.4,0.9,6.2,3.3,8.5,3.5c4.4,0.5,8.5-0.5,9.8-2.9c0,0,1.5,9.2-4.7,11.9
						c-4.9,2.1-9.3-0.1-11.5-2.8C403,544.4,404.1,538.7,404.1,538.7z"/>
				</g>
			</g>
			<g>
				<path class="st16" d="M433.6,941c0,0,21.4-71.5,23.1-84.7c0.8-6.4,4.4-72.8-6.9-107.8l-50.6,17.1c3.9,8.4,17.8,75,22.8,85.1
					c0,0-10.7,55.8-9.8,91.3c0,0,11,1.4,13.1,1.3C427.6,943.1,433.6,941,433.6,941z"/>
				<g>
					<path class="st16" d="M352.1,941.2L352.1,941.2c1.3-20.5,2.1-37.3,16.3-88.9c1.9-6.7-19.6-83.3-23-95.8l59.8,0.1
						c9.5,44.5,3.8,96.9,1.2,103.4c-4.4,10.9-29.4,68.6-34.9,82.1C371.5,942,356.4,943.5,352.1,941.2"/>
				</g>
				<path class="st17" d="M386.4,771.6c0,0-5.6,11.3-14.7,15.4l2.5,4.1c0,0,10.1-5.4,14-11.4c3.9-6,3.9-6,3.9-6L386.4,771.6z"/>
			</g>
			<g>
				<g>
					<g>
						<path class="st18" d="M417,587.7c0,0,24,23.1,27.6,46.4c3.6,23.3,17.1,122.7,17.1,122.7s-67.4,18.9-121.5-2.2l-0.4-113.5
							c0,0-0.1-22.1,7.7-34.7c11.4-18.3,22.4-22.2,22.4-22.2s16.9,7.1,29.1,6.3C415.2,589.6,417,587.7,417,587.7z"/>
					</g>
				</g>
			</g>
			<path class="st19" d="M351.7,941c0,0,11.1,1.5,19.1-0.3c1.8-0.4,1.1,0.8,5.1,4c0,0,4.3,2.5,10.5,3c6.2,0.5,6.7-0.4,8.6,2.2
				c2,2.7-0.1,5.2-2.9,6.2c-2.8,1-13.1,2.6-29.4,0.8c-11.4-1.2-13.9-2.7-13.3-8.1C350.1,943.3,351.7,941,351.7,941z"/>
			<path class="st19" d="M412.3,941.9c0,0,11.8,2.2,21.3-1c0.9,1,0,0,4.1,3.3c0,0,4.3,2.5,10.5,3c6.2,0.4,6.7-0.5,8.6,2.2
				c2,2.7-0.1,5.2-2.9,6.2c-2.8,1-17.2,4.2-29.1,2.1c-11.3-2-14.1-3.7-13.5-9.2C411.9,943,412.3,941.9,412.3,941.9z"/>
			<path class="st9" d="M406.1,599.5c0,0,16.2,30.2,16.2,50.7c0,20.5-5.8,119.2-5.8,119.2s-35.5,4.9-56,0.1
				c-17.8-4.2-20.2-5.9-20.2-5.9s-0.9-102-0.4-128.3c0.8-40.3,26.3-49.2,26.3-49.2S384.4,599.5,406.1,599.5z"/>
			<path class="st9" d="M415.9,598.3c0,0,4.3-3.3,1.1-10.5c0,0,19.1,19.5,25.4,36.4c4.6,12.4,20.1,138.5,20.1,138.5
				s-4.3,1.5-11.9,3.2c0,0-9.2-103.8-10.8-120.3C437.5,622.3,415.9,598.3,415.9,598.3z"/>
			<path class="st17" d="M414,780.9l-1,37.5l-2.5-10.4C410.5,808,414,787.8,414,780.9z"/>
			<path class="st8" d="M460.7,554c7.9-30.2,11-78.5-14.6-104.1c-25.6-25.6-78.5-16.7-78.5-16.7c-48.6,10.1-64.5,38.3-64.5,82.3
				c0,28.2,12,36.1-1.6,83.8c-9.3,32.8-0.1,68.6,38.2,65.5c0.7-4.4-3.4-45.3,13.3-64.5c9-10.3,40.7-4.7,24.6-20.1
				c-17.2-16.4-23.4-36.8-20.8-52.7c1.3-7.9,3.5-15.7,3.5-15.7c45.5-2,83-29.5,83-29.5c13.2,12.9,22.5,49.2,13.7,70.7
				C456.4,555,459.2,557.1,460.7,554z"/>
		</g>
		<g>
			<g>
				<path class="st20" d="M597,644.8c-1.8,18.5,84,0.9,83.6-14.7c-0.4-14.7-12.2-46-15-55.9c-8-28.1-20.6,0.6-41.1-2.1
					c0,4.1-0.9,7.6-0.9,7.8C615.7,595,607.2,599.5,597,644.8z"/>
			</g>
			<g>
				<path class="st21" d="M620.5,935.9c0,0-3.7,6.7-10.9,10.3c-3.5,1.8-9.9,2.2-15.1,2.9c-3.1,0.5-4.3,6.2,0.4,7.1
					c10.7,2.2,35.9,3.3,43.4-0.7c6.2-3.4,0.8-17.4,0.8-17.4L620.5,935.9z"/>
				<g>
					<path class="st22" d="M675.7,679.2c0,0,24.8,89.5-45.9,176.1c0,0,9.8,37.8,11.7,84c0,0-27.5,4.2-30.5-1
						c-3-5.2-27.3-73.6-24.8-98.6c1.4-13.9-1.1-118.3,39.8-152.6L675.7,679.2z"/>
				</g>
				<g>
					<path class="st19" d="M662.5,936.1c0,0-3.7,6.7-10.9,10.2c-3.5,1.8-9.9,2.1-15.1,2.8c-3.1,0.4-4.3,6.1,0.3,7.1
						c10.6,2.2,35.9,3.5,43.4-0.3c6.3-3.4,0.9-17.4,0.9-17.4L662.5,936.1z"/>
					<path class="st22" d="M689.9,727.5c7.4,52.7-14.2,83-13.3,102.6c2.3,47.7,7.4,89.4,7.4,110.4c0,0-18.4,8.6-31.4,2
						c-3.4-6.6-34.9-93.9-36-107.8c-1.2-13.9-6.1-116.1,30.4-145.7C646.9,689,685.3,694,689.9,727.5z"/>
				</g>
				<polygon class="st23" points="616.9,776.1 623.9,860 639.4,906.5 639.4,915 620.6,861.5 613.8,779.9 				"/>
				<path class="st23" d="M655.6,758c0,0,8.7,10.9,19.6,13.2l-1.8,5c0,0-12.2-3.5-17.8-9.1c-5.6-5.6-5.6-5.6-5.6-5.6L655.6,758z"/>
			</g>
			<g>
				<path class="st7" d="M589,630.6c0.5,26-5.1,105.9,3.9,117.3c2.8,3.6,89.1,14.8,101-5.9c11.9-20.7,11.2-112.9,11.2-112.9
					s0.9-22.8-17-37.3c-4-3.3-21.6-10.9-21.6-10.9s-11.6,10.1-24,9.4c-16.3-1-22.4-6.9-22.4-6.9l-0.9,0.1
					c-16.7,1.2-30.3,14.2-32.1,30.9c0,0.2-0.1,0.5-0.1,0.7c-2.4,25,10.4,50.2,10.4,50.2"/>
			</g>
			<path class="st24" d="M620.2,669.3l46.4-88.3c0,0-15.6,6.3-27.7,5.7c-12-0.6-18.7-3.2-18.7-3.2V669.3z"/>
			<polygon class="st24" points="666.7,578.2 635.6,584.8 642.3,599.4 671.4,583.3 			"/>
			<polygon class="st24" points="638.8,584.9 622.7,579.1 620.2,583.4 630.7,596.2 			"/>
			<polygon class="st25" points="620.2,583.4 620.6,582.7 630.7,596.2 637.3,588.4 642.3,599.4 671.7,583.1 673.8,584 642.1,601.9 
				636.1,591.7 630.9,597.8 			"/>
			<g>
				<path class="st20" d="M580.8,505.2c3.9-22.9,5.7-35,21.2-46.6c15.5-11.6,36.1-17.3,59.4-17.1c0,0,12.9,2.2,26.7,9.1
					c14.1,7.1,29.3,19.1,32.4,38.8c1.8,11.3,1.6,22.4-0.8,32.7c-5.8,25-23.9,45.3-54.4,53.1c-21.5,5.5-45.3,4-63.6-7.7
					C595,563.1,574.2,544,580.8,505.2z"/>
				<g>
					<path class="st20" d="M704.4,527c0.6,5.6,5.6,9.6,11.2,8.9c5.6-0.6,9.6-5.6,8.9-11.2c-0.6-5.6-5.6-9.6-11.2-8.9
						C707.8,516.4,703.8,521.4,704.4,527z"/>
					<path class="st26" d="M711.3,521c0,0,2.4-1.8,5.5,0.7c3.1,2.5,3.2,5.9,1.3,6.7c-2.5,1.1-1.6-2.1-4.1-2.8s-3.7,1.1-5.2-0.9
						S711.3,521,711.3,521z"/>
				</g>
				<g>
					<path class="st26" d="M631.7,526.4c-0.1,0-0.2,0-0.4,0c-0.2,0-2.1-0.2-3.3-0.5c-2.9-0.8-3.9-2.3-4.3-3.5
						c-0.4-1.2-0.4-3.1,1.6-5.6c1.8-2.2,2.1-6.7,2-8.2c0-0.8,0.6-1.5,1.4-1.5c0.8,0,1.5,0.6,1.5,1.4c0,0.3,0.2,6.7-2.7,10.2
						c-0.9,1.1-1.3,2.2-1.1,2.8c0.2,0.6,1,1.2,2.3,1.5c0.8,0.2,2.2,0.4,2.7,0.4c0.8,0.1,1.4,0.8,1.4,1.6
						C632.9,525.8,632.4,526.3,631.7,526.4z"/>
				</g>
				<path class="st27" d="M699.1,531.2c1.4,8.2-4,15.9-12.2,17.4c-8.2,1.4-15.9-4-17.4-12.2c-1.4-8.2,4-15.9,12.2-17.4
					C689.9,517.5,697.7,523,699.1,531.2z"/>
				<path class="st27" d="M583.2,542.2c1.5,0.1,2.7,0.1,4.3-0.3c8.1-1.9,13.1-9.9,11.2-18c-1.9-8.1-10.1-13.1-18.1-11.2
					c-0.2,1.1-1,6-0.7,14.3C580.2,534.6,583.2,542.2,583.2,542.2z"/>
				<path class="st28" d="M668.2,514.8c-0.2,3.1-2.1,5.5-4.3,5.4c-2.2-0.1-3.8-2.7-3.7-5.8c0.2-3.1,2.1-5.5,4.3-5.4
					C666.7,509.1,668.3,511.7,668.2,514.8z"/>
				<path class="st28" d="M608.9,511.9c-0.2,3.1-2.1,5.5-4.3,5.4c-2.2-0.1-3.8-2.7-3.7-5.8c0.2-3.1,2.1-5.5,4.3-5.4
					C607.4,506.2,609,508.8,608.9,511.9z"/>
				<path class="st27" d="M624.1,577c0,0,25.4,1.9,32,1.2c6.6-0.6,6.6-0.6,6.6-0.6s-10,3.4-19.9,3.1c-9.9-0.3-19.1-1.7-19.1-1.7
					L624.1,577z"/>
				<g>
					<path class="st26" d="M639.6,533.7c-3.2,4.8-10.8,6.9-13.2,0c-0.8-2.3-4.4-1.3-3.6,1c1.3,3.9,4.6,6.9,8.8,7.3
						c4.8,0.4,8.8-2.6,11.3-6.4C644.3,533.5,641,531.6,639.6,533.7L639.6,533.7z"/>
				</g>
				<path class="st8" d="M739,480.3c-2-2-5.4-1.8-7.8-1.4c1.9-5.3,5.7-10.9-0.8-21.2c-3.8-5.9-11.6-9.4-17.6-5.7
					c-0.4-6-3-11.3-7.7-15.1c-8-6.4-20.9-4.4-25.4-2.2c-2.5-4.6-5.8-9-10.3-11.7c-4.5-2.7-10.5-3.2-15-0.4c-2.1,1.3-3.7,3.3-5.4,5.2
					c-1.1-1.1-4.7-6.7-8.3-7.7c-13.6-3.5-15.5,12.8-17.5,12.6c0,0-2.4-8.3-11-6.6c-8.4,1.7-5.5,12.8-5.6,13c-2-0.8-7.5-2.5-11.2,0.1
					c-7.8,5.5-4.4,14-2.7,16.6c-0.2,0.3-0.4,0.6-0.5,0.8c-2.4-0.4-8.1-1.4-11.8,2.2c-5.5,5.5-1.9,13.5,1.1,18.1
					c0,0-11.8,2.2-11.8,11.8c0,4.7,6,8.4,6,8.4s-4.7,0.5-6.7,7.4c-1.3,4.4,4,10.5,5.6,12.3c0.7,10,5.3,20,10.5,30.3
					c-4.7-18.4-5-29-1.7-42.2c3.3-13.1,12.9-27.5,12.9-27.5c14.3,10.7,22.3-5.5,25-10.4c0.1,5.4,6.2,11.5,11.5,12.7
					c7.2,1.7,15.7-2.9,17.1-8.1c5.2,11.2,8.6,16.2,21.2,13.9c1.5-0.3,3.3,0.2,4.2,1.4c0.9,1.1,0.7,2.6,0.8,4c0.2,5.2,6.4,6.6,11.6,7
					c1.4,0.1,6-0.1,7.3,0.6c0.2,0.1,0.4,0.2,0.8,0.4c-1.2,1.1-2.2,2.4-2.8,4c-1.3,3.6-0.7,8.5,2.6,10.4c6.7,4,2.3,5.8,1.7,7.4
					c-1.1,2.9-1.9,6-1.5,9c0.4,3,2.2,6,5.1,7.2c-1.6,4.7-2.6,10.8,1.1,14.1c1.9,1.7,4.5,2.2,7,2.3c3.6,0.1,7.4-0.6,10.2-2.9
					c2.2-1.8,3.4-4.8,3.1-7.6c2.9,0.6,6.6,0.8,8.9-1.4c4.2-4.2,0.2-9.3-1.9-10.1c17.6-5,4.5-19.1,4.5-19.1c11.8-6,1-14.5,1-14.5
					C742.4,496.2,745.9,487.2,739,480.3z"/>
			</g>
		</g>
		<g>
			<g>
				<path class="st29" d="M502,706.4c-53.8,0-97.6-43.8-97.6-97.6c0-53.8,43.8-97.6,97.6-97.6c53.8,0,97.6,43.8,97.6,97.6
					C599.6,662.6,555.8,706.4,502,706.4z M502,534.3c-41.1,0-74.5,33.4-74.5,74.5c0,41.1,33.4,74.5,74.5,74.5
					c41.1,0,74.5-33.4,74.5-74.5C576.4,567.8,543,534.3,502,534.3z"/>
			</g>
			<g>
				<path class="st29" d="M552,548.7c-2.4,0-4.8-0.7-6.8-2.2c-5.1-3.8-6.3-11-2.5-16.2l47.8-65.3c3.8-5.1,11-6.3,16.2-2.5
					c5.1,3.8,6.3,11,2.5,16.2L561.4,544C559.1,547.1,555.6,548.7,552,548.7z"/>
			</g>
			<g>
				<path class="st29" d="M618.9,507.3c-5.4,0-10.2-3.8-11.3-9.3l-5.3-27.1l-31.8,1.2c-6.4,0.2-11.7-4.7-12-11.1
					c-0.2-6.4,4.7-11.7,11.1-12l41.7-1.5c5.6-0.2,10.7,3.7,11.8,9.3l7.2,36.8c1.2,6.3-2.9,12.3-9.1,13.6
					C620.4,507.2,619.6,507.3,618.9,507.3z"/>
			</g>
			<g>
				<path class="st29" d="M502,813.9c-6.4,0-11.6-5.2-11.6-11.6v-93.6c0-6.4,5.2-11.6,11.6-11.6s11.6,5.2,11.6,11.6v93.6
					C513.5,808.7,508.4,813.9,502,813.9z"/>
			</g>
			<g>
				<path class="st29" d="M531.5,783.1h-59.1c-6.4,0-11.6-5.2-11.6-11.6c0-6.4,5.2-11.6,11.6-11.6h59.1c6.4,0,11.6,5.2,11.6,11.6
					C543.1,778,537.9,783.1,531.5,783.1z"/>
			</g>
		</g>
		<g>
			<path class="st10" d="M421.7,673.7c0,0-15.8,3.4-30.3,0.1c-14.4-3.3-17.3-47.3-17.3-47.3L344,643.9c0,0-7,57.4,17.1,68.3
				c24.1,10.9,59-5.5,59-5.5L421.7,673.7z"/>
			<g>
				<g>
					<path class="st11" d="M443.2,690.6c2.7-1.6,18-9.7,21-14.2c4.3-6.5,1.1-10-4.3-13.2c-4-2.4-6.3,0.1-6.9,0.6
						c-0.8,0.8-1.3,0.3-1.3-0.8c0-2.3-0.5-6.3-2.7-6.1c-2.3,1.1-1,3.2-2.7,8.2c-0.4,1.2-10.3,10.3-12.8,12"/>
				</g>
			</g>
			<path class="st9" d="M366,627.7l-22.6,12.2c0,0-5.1,59.8,18.9,70.8s88.9-20.1,88.9-20.1l-12.7-19.9c0,0-26,9.9-40.6,7.7
				c-31.1-4.6-23.8-55-23.8-55L366,627.7"/>
		</g>
		<g>
			<path class="st30" d="M586.9,655.6c0,0,8.9,20.7,22.3,42.2c12.5,20.2,22.1,21.2,37,21.7c39.8,1.3,50.9-47.3,50.9-47.3l-8.8-35.9
				l-30.3-7.7c0,0-9.6,44.4-19.2,40.7c-9.1-3.5-33.8-30.8-41.4-37.4L586.9,655.6z"/>
			<g>
				<path class="st20" d="M581.9,644.7c-2.5-1.9-10.2-6.5-12.1-7.5c-7.7-3.7-3.6-11.9,0.1-17.7c0.9-1.5,2.9-2.4,4.8-0.9
					c2.4,1.9,1.4,1.7,2,2.3c0.7,0.9,1.3,0.5,1.4-0.7c0.3-2.3,1.2-6.3,3.4-5.8c2.2,1.4,0.6,3.3,1.7,8.5c0.3,1.2,6.6,6.1,8.9,8.1"/>
			</g>
			<path class="st7" d="M592.1,628.8c0,0-6.7,10.6-13,14.2c0,0,24,38.3,35.3,57.9c11.3,19.6,49.4,18.6,60.8,4.8
				c6.4-7.7,17.8-21,21.2-31.1c9-26.9,2.3-52.7,2.3-52.7l-39.9,1c0,0-5.2,51.9-20,50.1C633.9,672.3,592.1,628.8,592.1,628.8z"/>
		</g>
		<path class="st11" d="M461.7,524.2c0,0,7.1,4.1,10.3,2.3c3.1-1.8,9.2-7.3,7.9-12.9c-1.3-5.6-14.4,0.2-17.4,2.4
			C458.1,519,458.6,522.7,461.7,524.2z"/>
		<path class="st20" d="M522.2,515.5c0,0,2.9,6.7,8.7,8.9s13.2-1.1,13.2-6.1c0-5.1-9.4-9.1-17.8-7.4
			C522.4,511.7,520.1,512,522.2,515.5z"/>
	</g>
</g>
</svg>
