<?xml version="1.0" encoding="utf-8"?>
<!-- Generator: Adobe Illustrator 25.0.0, SVG Export Plug-In . SVG Version: 6.00 Build 0)  -->
<svg version="1.1" id="Calque_1" xmlns="http://www.w3.org/2000/svg" xmlns:xlink="http://www.w3.org/1999/xlink" x="0px" y="0px"
	 viewBox="0 0 1000 1000" style="enable-background:new 0 0 1000 1000;" xml:space="preserve">
<style type="text/css">
	.st0{fill:#4C9E37;}
	.st1{fill:#FFFFFF;}
	.st2{display:none;}
	.st3{display:inline;fill:#FFFFFF;}
	.st4{font-family:'Arial-Black';}
	.st5{font-size:102.238px;}
	.st6{fill:#F9F2F7;}
	.st7{clip-path:url(#SVGID_2_);}
	.st8{fill:#EDDBE8;}
	.st9{fill:#E0C7DA;}
	.st10{fill:none;stroke:#E0C7DA;stroke-width:1.0587;stroke-miterlimit:10;}
	.st11{opacity:0.4;}
	.st12{fill:#EFE6ED;}
	.st13{clip-path:url(#SVGID_4_);}
	.st14{fill:#A882A3;}
	.st15{fill:#BC9BB6;}
	.st16{fill:none;stroke:#BC9BB6;stroke-linecap:round;stroke-linejoin:round;stroke-miterlimit:10;}
	.st17{clip-path:url(#SVGID_6_);}
	.st18{fill:#FFCB64;}
	.st19{fill:#AA5C5C;}
	.st20{fill:#FEFEFE;}
	.st21{fill:none;stroke:#F79237;stroke-width:1.1151;stroke-linecap:round;stroke-miterlimit:10;}
	.st22{fill:#E05353;}
	.st23{fill:none;stroke:#5B2930;stroke-width:0.9855;stroke-linecap:round;stroke-linejoin:round;stroke-miterlimit:10;}
	.st24{fill:#5B2930;}
	.st25{opacity:0.37;}
	.st26{fill:none;stroke:#5B2930;stroke-width:1.1151;stroke-linecap:round;stroke-miterlimit:10;}
	.st27{fill:#4A2932;}
	.st28{fill:#6D418A;}
	.st29{fill:#F4EDF2;}
	.st30{fill:#8B7EB9;}
	.st31{fill:#F79237;}
	.st32{opacity:0.44;}
	.st33{opacity:0.38;fill:#AA5C5C;}
	.st34{fill:none;stroke:#5B2930;stroke-width:1.1279;stroke-linecap:round;stroke-linejoin:round;stroke-miterlimit:10;}
	.st35{fill:none;stroke:#F79237;stroke-width:0.9904;stroke-linecap:round;stroke-miterlimit:10;}
	.st36{opacity:0.3;fill:#E6D4E0;}
	.st37{fill:#754150;}
	.st38{fill:#5E3440;}
	.st39{opacity:0.5;fill:none;stroke:#6D418A;stroke-width:0.9904;stroke-linecap:round;stroke-miterlimit:10;}
	.st40{fill:#FEA574;}
	.st41{fill:#473043;}
	.st42{opacity:0.3;fill:#FFCB64;}
	.st43{opacity:0.3;}
	.st44{fill:none;stroke:#5B2930;stroke-width:1.1151;stroke-linecap:round;stroke-linejoin:round;stroke-miterlimit:10;}
	.st45{opacity:0.2;fill:#5B2930;}
	.st46{fill:none;stroke:#F07951;stroke-width:1.1151;stroke-linecap:round;stroke-miterlimit:10;}
	.st47{opacity:0.42;fill:#FEFEFE;}
	.st48{clip-path:url(#SVGID_8_);}
	.st49{clip-path:url(#SVGID_10_);}
	.st50{fill:none;stroke:#FFFFFF;stroke-width:0.8538;stroke-miterlimit:10;}
	.st51{fill:#67847C;}
	.st52{font-family:'Montserrat-ExtraBold';}
	.st53{font-size:18.4844px;}
	.st54{font-size:19.0331px;}
	.st55{letter-spacing:0.9;}
</style>
<rect x="-8.1" y="-8.1" class="st0" width="1016.2" height="1016.2"/>
<path class="st1" d="M115.5,296.2c0.3,9.7,4.6,14.5,13.1,14.5c8.5,0,12.8-4.9,13-14.5v-42.9c0-8.1-1.4-12.8-4.1-14
	c-1.5-0.7-4.2-1-8-1H114v-41h18.4c2.7,0,4.7-0.3,5.9-1c2.2-1.3,3.3-5.7,3.3-13.4v-40.8c-0.2-9.7-4.6-14.5-13-14.5
	s-12.8,4.9-13.1,14.5v36.4H73.1v-36.4c0-37,18.5-55.6,55.5-55.7c37-0.1,55.5,18.5,55.4,55.7v41c0,17.5-5.7,29.2-17.2,35.1
	c11.5,5.9,17.2,17.6,17.2,35.1v42.9c0,37.1-18.5,55.7-55.4,55.7s-55.4-18.6-55.5-55.7v-36.4h42.4V296.2z"/>
<text transform="matrix(0.7735 0 0 1 247.0988 228.1351)" class="st2"><tspan x="0" y="0" class="st3 st4 st5">ENSEIGNEMENT</tspan><tspan x="0" y="122.7" class="st3 st4 st5">MULTILINGUE</tspan></text>
<g>
	<path class="st1" d="M252.9,150h46.9v15.6h-29.3v11.6h27.2v14.9h-27.2v14.4h30.2v16.6h-47.7V150z"/>
	<path class="st1" d="M310.1,150h16.3l21.3,40.5V150h16.5v73.2h-16.5L326.6,183v40.2h-16.4V150z"/>
	<path class="st1" d="M372.8,198.9l16.6-1.3c0.4,3.5,1.1,6.2,2.2,8c1.8,3,4.4,4.4,7.7,4.4c2.5,0,4.4-0.8,5.8-2.3
		c1.4-1.5,2-3.3,2-5.3c0-1.9-0.6-3.6-1.9-5.1c-1.3-1.5-4.3-2.9-9-4.2c-7.7-2.2-13.1-5.2-16.4-8.9c-3.3-3.7-4.9-8.4-4.9-14.1
		c0-3.8,0.8-7.3,2.5-10.7c1.7-3.3,4.2-6,7.6-7.9c3.4-1.9,8-2.9,13.9-2.9c7.2,0,12.7,1.7,16.5,5.2c3.8,3.5,6.1,9,6.8,16.6l-16.5,1.2
		c-0.4-3.3-1.4-5.7-2.8-7.2c-1.4-1.5-3.3-2.2-5.8-2.2c-2,0-3.6,0.6-4.6,1.7c-1,1.1-1.5,2.5-1.5,4.1c0,1.2,0.4,2.2,1.3,3.1
		c0.8,1,2.8,1.9,5.9,2.7c7.6,2.1,13.1,4.3,16.4,6.5c3.3,2.2,5.7,4.9,7.2,8.1c1.5,3.2,2.3,6.8,2.3,10.8c0,4.7-1,9-3,13
		c-2,4-4.8,7-8.4,9c-3.6,2-8.1,3.1-13.6,3.1c-9.6,0-16.3-2.4-20-7.2S373.3,206.3,372.8,198.9z"/>
	<path class="st1" d="M432.9,150h46.9v15.6h-29.3v11.6h27.2v14.9h-27.2v14.4h30.2v16.6h-47.7V150z"/>
	<path class="st1" d="M490.8,150h17.5v73.2h-17.5V150z"/>
	<path class="st1" d="M549.3,196.6v-15.2h27v31.2c-5.2,4.6-9.8,7.7-13.7,9.3s-8.7,2.5-14.2,2.5c-6.7,0-12.2-1.5-16.4-4.4
		c-4.2-3-7.5-7.4-9.8-13.2c-2.3-5.9-3.5-12.6-3.5-20.2c0-8,1.3-14.9,3.8-20.8c2.5-5.9,6.3-10.4,11.2-13.5c3.8-2.4,9-3.5,15.5-3.5
		c6.3,0,10.9,0.7,14,2.2c3.1,1.5,5.7,3.7,7.7,6.8c2,3.1,3.6,7,4.6,11.7l-16.9,3.9c-0.7-2.8-1.9-4.9-3.5-6.3
		c-1.7-1.5-3.8-2.2-6.4-2.2c-3.8,0-6.9,1.7-9.2,5.2c-2.3,3.4-3.4,8.9-3.4,16.3c0,7.9,1.2,13.6,3.5,17s5.5,5.1,9.6,5.1
		c2,0,3.8-0.4,5.6-1.1c1.8-0.7,3.8-2,6.1-3.7v-6.9H549.3z"/>
	<path class="st1" d="M586.9,150h16.3l21.3,40.5V150H641v73.2h-16.5L603.3,183v40.2h-16.4V150z"/>
	<path class="st1" d="M652.6,150h46.9v15.6h-29.3v11.6h27.2v14.9h-27.2v14.4h30.2v16.6h-47.7V150z"/>
	<path class="st1" d="M709.5,150h23l8.9,44.5l8.8-44.5h23v73.2h-14.3v-55.8l-11,55.8h-13l-11-55.8v55.8h-14.3V150z"/>
	<path class="st1" d="M784.3,150h46.9v15.6h-29.3v11.6h27.2v14.9h-27.2v14.4h30.2v16.6h-47.7V150z"/>
	<path class="st1" d="M841.6,150h16.3l21.3,40.5V150h16.5v73.2h-16.5L858.1,183v40.2h-16.4V150z"/>
	<path class="st1" d="M903.4,150h53.2V168h-17.8v55.1h-17.5V168h-17.8V150z"/>
	<path class="st1" d="M252.7,272.6h23l8.9,44.5l8.8-44.5h23v73.2H302V290l-11,55.8h-13L267,290v55.8h-14.3V272.6z"/>
	<path class="st1" d="M364.4,272.6h17.5v43.6c0,4.3-0.5,8.4-1.6,12.2c-1,3.8-2.7,7.2-4.9,10.1c-2.2,2.9-4.6,4.9-7,6.1
		c-3.4,1.6-7.5,2.4-12.2,2.4c-2.8,0-5.8-0.2-9-0.7c-3.3-0.5-6-1.5-8.2-3c-2.2-1.5-4.2-3.6-6-6.3c-1.8-2.7-3.1-5.5-3.7-8.4
		c-1.1-4.7-1.6-8.8-1.6-12.4v-43.6H345v44.6c0,4,0.9,7.1,2.6,9.4c1.7,2.2,4.1,3.4,7.1,3.4c3,0,5.4-1.1,7.1-3.3
		c1.7-2.2,2.6-5.3,2.6-9.4V272.6z"/>
	<path class="st1" d="M393.4,272.6h17.5v55.2h27.3v18h-44.8V272.6z"/>
	<path class="st1" d="M438.2,272.6h53.2v18.1h-17.8v55.1H456v-55.1h-17.8V272.6z"/>
	<path class="st1" d="M499.9,272.6h17.5v73.2h-17.5V272.6z"/>
	<path class="st1" d="M530,272.6h17.5v55.2h27.3v18H530V272.6z"/>
	<path class="st1" d="M583.5,272.6H601v73.2h-17.5V272.6z"/>
	<path class="st1" d="M613.7,272.6H630l21.3,40.5v-40.5h16.5v73.2h-16.5l-21.2-40.2v40.2h-16.4V272.6z"/>
	<path class="st1" d="M707.9,319.3v-15.2h27v31.2c-5.2,4.6-9.8,7.7-13.7,9.3s-8.7,2.5-14.2,2.5c-6.7,0-12.2-1.5-16.4-4.4
		c-4.2-3-7.5-7.4-9.8-13.2c-2.3-5.9-3.5-12.6-3.5-20.2c0-8,1.3-14.9,3.8-20.8c2.5-5.9,6.3-10.4,11.2-13.5c3.8-2.4,9-3.5,15.5-3.5
		c6.3,0,10.9,0.7,14,2.2c3.1,1.5,5.7,3.7,7.7,6.8c2,3.1,3.6,7,4.6,11.7l-16.9,3.9c-0.7-2.8-1.9-4.9-3.5-6.3
		c-1.7-1.5-3.8-2.2-6.4-2.2c-3.8,0-6.9,1.7-9.2,5.2c-2.3,3.4-3.4,8.9-3.4,16.3c0,7.9,1.2,13.6,3.5,17s5.5,5.1,9.6,5.1
		c2,0,3.8-0.4,5.6-1.1c1.8-0.7,3.8-2,6.1-3.7v-6.9H707.9z"/>
	<path class="st1" d="M782.1,272.6h17.5v43.6c0,4.3-0.5,8.4-1.6,12.2c-1,3.8-2.7,7.2-4.9,10.1c-2.2,2.9-4.6,4.9-7,6.1
		c-3.4,1.6-7.5,2.4-12.2,2.4c-2.8,0-5.8-0.2-9-0.7c-3.3-0.5-6-1.5-8.2-3c-2.2-1.5-4.2-3.6-6-6.3c-1.8-2.7-3.1-5.5-3.7-8.4
		c-1.1-4.7-1.6-8.8-1.6-12.4v-43.6h17.5v44.6c0,4,0.9,7.1,2.6,9.4c1.7,2.2,4.1,3.4,7.1,3.4c3,0,5.4-1.1,7.1-3.3s2.6-5.3,2.6-9.4
		V272.6z"/>
	<path class="st1" d="M811.1,272.6H858v15.6h-29.3v11.6h27.2v14.9h-27.2v14.4h30.2v16.6h-47.7V272.6z"/>
</g>
<g>
	<rect x="252.9" y="400.4" class="st6" width="606" height="563.4"/>
	<g>
		<path class="st1" d="M486.3,543.7c0.1-0.7,0.2-1.4,0.2-2.1c0-7.4-6.5-13.5-14.5-13.5c-1.5,0-2.9,0.2-4.2,0.6
			c-0.8-10.2-9.9-18.2-21-18.2c-11.1,0-20.2,8-21,18.1c-1.2-0.3-2.4-0.5-3.7-0.5c-8,0-14.5,6-14.5,13.5c0,0.7,0.1,1.4,0.2,2.1H486.3
			z"/>
		<path class="st1" d="M600.9,460.7c0.1-0.5,0.1-1,0.1-1.5c0-5.3-4.6-9.6-10.4-9.6c-1.1,0-2.1,0.1-3,0.4c-0.6-7.3-7.1-13-15.1-13
			c-7.9,0-14.4,5.7-15.1,12.9c-0.8-0.2-1.7-0.3-2.6-0.3c-5.7,0-10.4,4.3-10.4,9.6c0,0.5,0.1,1,0.1,1.5H600.9z"/>
		<path class="st1" d="M337.2,494.7c0.1-0.5,0.1-1,0.1-1.5c0-5.3-4.6-9.6-10.4-9.6c-1.1,0-2.1,0.1-3,0.4c-0.6-7.3-7.1-13-15.1-13
			c-7.9,0-14.4,5.7-15.1,12.9c-0.8-0.2-1.7-0.3-2.6-0.3c-5.7,0-10.4,4.3-10.4,9.6c0,0.5,0.1,1,0.1,1.5H337.2z"/>
		<path class="st1" d="M804.3,515.5c0.1-0.9,0.2-1.7,0.2-2.6c0-9.2-8-16.7-17.9-16.7c-1.8,0-3.6,0.3-5.2,0.7
			c-1-12.6-12.2-22.5-26-22.5c-13.7,0-24.9,9.8-26,22.3c-1.4-0.4-3-0.6-4.5-0.6c-9.9,0-17.9,7.5-17.9,16.7c0,0.9,0.1,1.8,0.2,2.6
			H804.3z"/>
	</g>
	<g>
		<g>
			<defs>
				<rect id="SVGID_1_" x="252.9" y="400.4" width="606" height="563.4"/>
			</defs>
			<clipPath id="SVGID_2_">
				<use xlink:href="#SVGID_1_"  style="overflow:visible;"/>
			</clipPath>
			<g class="st7">
				<g>
					<g>
						<g>
							<rect x="241.8" y="691.8" class="st8" width="3.2" height="127.9"/>
							<rect x="210.1" y="715.3" class="st8" width="3.2" height="104.4"/>
							<rect x="178.4" y="738" class="st8" width="3.2" height="81.6"/>
							<rect x="146.8" y="759.9" class="st8" width="3.2" height="59.8"/>
							<rect x="115.1" y="778.9" class="st8" width="3.2" height="40.8"/>
						</g>
						<g>
							<g>
								<path class="st8" d="M34.2,821.2l-2.3-5.3c131-49,238.7-153.2,239.8-154.3l4.5,3.9C275.1,666.6,166.5,771.8,34.2,821.2z"/>
							</g>
							<g>
								<path class="st8" d="M64.9,819.8l-1.4-2.6c133.7-62.8,210-135.9,210.7-136.7l2.2,2C275.7,683.3,199.1,756.8,64.9,819.8z"/>
							</g>
						</g>
						<rect x="270.6" y="660.6" class="st8" width="9.1" height="160.3"/>
						<rect x="16.8" y="815.5" class="st8" width="262.9" height="14.3"/>
					</g>
				</g>
				<g>
					<g>
						<g>
							<path class="st8" d="M571.9,826.9v6c-34-0.3-63.7,1.4-88.2,3.7c-71.2,6.8-114.2,20.5-114.6,20.7l-2.1-5.7
								c0.4-0.1,43.9-14.1,115.8-20.9C507.5,828.3,537.5,826.6,571.9,826.9z"/>
						</g>
					</g>
					<g>
						<g>
							<rect x="366" y="812.1" class="st8" width="205.8" height="12.1"/>
						</g>
					</g>
				</g>
				<g>
					<g>
						<rect x="349.7" y="630.7" class="st8" width="222.2" height="1.6"/>
						<rect x="349.7" y="639.6" class="st8" width="222.2" height="6.1"/>
					</g>
				</g>
				<g>
					<g>
						<rect x="277.6" y="627" class="st8" width="88.5" height="202.7"/>
						<g>
							<g>
								<g>
									<rect x="288.1" y="605.3" class="st9" width="67" height="21.7"/>
									<path class="st8" d="M321.6,448.8c0,84.5-33.5,156.5-33.5,156.5h33.5h33.5C355.1,605.3,321.6,533.3,321.6,448.8z"/>
								</g>
							</g>
							<g>
								<g>
									<g>
										<rect x="277.6" y="607.4" class="st8" width="21.8" height="19.7"/>
									</g>
								</g>
								<g>
									<path class="st9" d="M288.5,540.8c0,34.1-10.9,63.2-10.9,63.2h10.9h10.9C299.4,604.1,288.5,575,288.5,540.8z"/>
								</g>
								<rect x="277.6" y="604.1" class="st8" width="21.8" height="3.3"/>
								<rect x="277.6" y="604.1" class="st9" width="21.8" height="3.3"/>
							</g>
							<g>
								<g>
									<rect x="344.2" y="607.4" class="st8" width="21.8" height="19.7"/>
								</g>
								<g>
									<rect x="344.2" y="604.1" class="st8" width="21.8" height="3.3"/>
									<rect x="344.2" y="604.1" class="st9" width="21.8" height="3.3"/>
									<path class="st9" d="M355.1,540.8c0,34.1-10.9,63.2-10.9,63.2h10.9h10.9C366.1,604.1,355.1,575,355.1,540.8z"/>
								</g>
							</g>
						</g>
					</g>
					<rect x="266.8" y="829.8" class="st9" width="110.9" height="56.6"/>
				</g>
				<line class="st10" x1="277.6" y1="694.6" x2="366.1" y2="694.6"/>
				<line class="st10" x1="277.6" y1="760.5" x2="366.1" y2="760.5"/>
				<g class="st11">
					<g>
						<g>
							<rect x="289.1" y="638.6" class="st8" width="8" height="44.1"/>
							<rect x="301.1" y="638.6" class="st8" width="8" height="44.1"/>
							<rect x="313.1" y="638.6" class="st8" width="8" height="44.1"/>
							<rect x="325" y="638.6" class="st8" width="8" height="44.1"/>
							<rect x="337" y="638.6" class="st8" width="8" height="44.1"/>
							<rect x="349" y="638.6" class="st8" width="8" height="44.1"/>
						</g>
					</g>
					<g>
						<g>
							<rect x="289.1" y="705.7" class="st8" width="8" height="44.1"/>
							<rect x="301.1" y="705.7" class="st8" width="8" height="44.1"/>
							<rect x="313.1" y="705.7" class="st8" width="8" height="44.1"/>
							<rect x="325" y="705.7" class="st8" width="8" height="44.1"/>
							<rect x="337" y="705.7" class="st8" width="8" height="44.1"/>
							<rect x="349" y="705.7" class="st8" width="8" height="44.1"/>
						</g>
					</g>
					<g>
						<g>
							<rect x="289.1" y="772.8" class="st8" width="8" height="44.1"/>
							<rect x="301.1" y="772.8" class="st8" width="8" height="44.1"/>
							<rect x="313.1" y="772.8" class="st8" width="8" height="44.1"/>
							<rect x="325" y="772.8" class="st8" width="8" height="44.1"/>
							<rect x="337" y="772.8" class="st8" width="8" height="44.1"/>
							<rect x="349" y="772.8" class="st8" width="8" height="44.1"/>
						</g>
					</g>
				</g>
			</g>
			<g class="st7">
				<g>
					<g>
						<g>
							<rect x="866.7" y="691.8" class="st8" width="3.2" height="127.9"/>
							<rect x="898.4" y="715.3" class="st8" width="3.2" height="104.4"/>
							<rect x="930.1" y="738" class="st8" width="3.2" height="81.6"/>
							<rect x="961.8" y="759.9" class="st8" width="3.2" height="59.8"/>
							<rect x="993.5" y="778.9" class="st8" width="3.2" height="40.8"/>
						</g>
						<g>
							<g>
								<path class="st8" d="M1077.5,821.2l2.3-5.3c-131-49-238.7-153.2-239.8-154.3l-4.5,3.9C836.6,666.6,945.3,771.8,1077.5,821.2
									z"/>
							</g>
							<g>
								<path class="st8" d="M1046.8,819.8l1.4-2.6c-133.7-62.8-210-135.9-210.7-136.7l-2.2,2C836,683.3,912.6,756.8,1046.8,819.8z"
									/>
							</g>
						</g>
						<rect x="832" y="660.6" class="st8" width="9.1" height="160.3"/>
						<rect x="832" y="815.5" class="st8" width="262.9" height="14.3"/>
					</g>
				</g>
				<g>
					<g>
						<g>
							<path class="st8" d="M539.9,826.9v6c34-0.3,63.8,1.4,88.2,3.7c71.2,6.8,114.2,20.5,114.6,20.7l2.1-5.7
								c-0.4-0.1-43.9-14.1-115.8-20.9C604.3,828.3,574.2,826.6,539.9,826.9z"/>
						</g>
					</g>
					<g>
						<g>
							<rect x="539.9" y="812.1" class="st8" width="205.8" height="12.1"/>
						</g>
					</g>
				</g>
				<g>
					<g>
						<rect x="539.9" y="630.7" class="st8" width="222.2" height="1.6"/>
						<rect x="539.9" y="639.6" class="st8" width="222.2" height="6.1"/>
					</g>
				</g>
				<g>
					<g>
						<rect x="745.7" y="627" class="st8" width="88.5" height="202.7"/>
						<g>
							<g>
								<g>
									<rect x="756.6" y="605.3" class="st9" width="67" height="21.7"/>
									<path class="st8" d="M790.1,448.8c0,84.5,33.5,156.5,33.5,156.5h-33.5h-33.5C756.6,605.3,790.1,533.3,790.1,448.8z"/>
								</g>
							</g>
							<g>
								<g>
									<g>
										<rect x="812.3" y="607.4" class="st8" width="21.8" height="19.7"/>
									</g>
								</g>
								<g>
									<path class="st9" d="M823.2,540.8c0,34.1,10.9,63.2,10.9,63.2h-10.9h-10.9C812.3,604.1,823.2,575,823.2,540.8z"/>
								</g>
								<rect x="812.3" y="604.1" class="st8" width="21.8" height="3.3"/>
								<rect x="812.3" y="604.1" class="st9" width="21.8" height="3.3"/>
							</g>
							<g>
								<g>
									<g>
										<rect x="745.7" y="607.4" class="st8" width="21.8" height="19.7"/>
									</g>
								</g>
								<g>
									<rect x="745.7" y="604.1" class="st8" width="21.8" height="3.3"/>
									<rect x="745.7" y="604.1" class="st9" width="21.8" height="3.3"/>
									<path class="st9" d="M756.6,540.8c0,34.1,10.9,63.2,10.9,63.2h-10.9h-10.9C745.7,604.1,756.6,575,756.6,540.8z"/>
								</g>
							</g>
						</g>
					</g>
					<rect x="734" y="829.8" class="st9" width="110.9" height="56.6"/>
				</g>
				<line class="st10" x1="834.2" y1="694.6" x2="745.7" y2="694.6"/>
				<line class="st10" x1="834.2" y1="760.5" x2="745.7" y2="760.5"/>
				<g class="st11">
					<g>
						<g>
							<rect x="814.6" y="638.6" class="st8" width="8" height="44.1"/>
							<rect x="802.7" y="638.6" class="st8" width="8" height="44.1"/>
							<rect x="790.7" y="638.6" class="st8" width="8" height="44.1"/>
							<rect x="778.7" y="638.6" class="st8" width="8" height="44.1"/>
							<rect x="766.7" y="638.6" class="st8" width="8" height="44.1"/>
							<rect x="754.8" y="638.6" class="st8" width="8" height="44.1"/>
						</g>
					</g>
					<g>
						<g>
							<rect x="814.6" y="705.7" class="st8" width="8" height="44.1"/>
							<rect x="802.7" y="705.7" class="st8" width="8" height="44.1"/>
							<rect x="790.7" y="705.7" class="st8" width="8" height="44.1"/>
							<rect x="778.7" y="705.7" class="st8" width="8" height="44.1"/>
							<rect x="766.7" y="705.7" class="st8" width="8" height="44.1"/>
							<rect x="754.8" y="705.7" class="st8" width="8" height="44.1"/>
						</g>
					</g>
					<g>
						<g>
							<rect x="814.6" y="772.8" class="st8" width="8" height="44.1"/>
							<rect x="802.7" y="772.8" class="st8" width="8" height="44.1"/>
							<rect x="790.7" y="772.8" class="st8" width="8" height="44.1"/>
							<rect x="778.7" y="772.8" class="st8" width="8" height="44.1"/>
							<rect x="766.7" y="772.8" class="st8" width="8" height="44.1"/>
							<rect x="754.8" y="772.8" class="st8" width="8" height="44.1"/>
						</g>
					</g>
				</g>
			</g>
		</g>
	</g>
	<g>
		<rect x="252.9" y="869.9" class="st12" width="606" height="93.8"/>
		<rect x="252.9" y="887" class="st6" width="606" height="76.7"/>
	</g>
	<g>
		<defs>
			<rect id="SVGID_3_" x="252.9" y="400.4" width="606" height="563.4"/>
		</defs>
		<clipPath id="SVGID_4_">
			<use xlink:href="#SVGID_3_"  style="overflow:visible;"/>
		</clipPath>
		<g class="st13">
			<path class="st14" d="M775.9,938.1c-1.2-5.6-3.5-13.5-8.1-22.5c-5.3,12.7-9.3,25.9-10.5,39.3c-0.5,4.9-0.5,38.7,7.2,35.7
				c5.3-2,8.4-8.9,10.1-15.2C779.8,957.1,776.4,940.3,775.9,938.1z"/>
			<path class="st15" d="M767.9,926.5c0.1-4.5,0-8.3,0-10.8c-3,6.6-6.8,16.3-9.1,28.6c-0.7,3.8-1,6.3-1.5,10.8
				c0,0-3.1,28.5,4.6,35.3c0.2,0.2,0.5,0.3,0.5,0.3c0.1,0.1,0.4,0.2,0.9,0.3c0.3,0.1,0.9,0.2,1.1-0.1c0.1-0.1,0-0.2,0-0.2
				c-0.1-0.7,0.1-1.4,0.1-2.1c-0.1-1.7,1.9-33.1,2.2-38.8C767.6,936.7,767.8,932.1,767.9,926.5z"/>
			<path class="st14" d="M829.7,958.7c8.7-9,14-20.7,19.2-32.3c-14,2.2-23.9,6.6-29.9,9.8c-27.8,15-35.5,38.9-34.7,42.7
				c0.4,1.8,2.2,2.3,3.9,1.9c1.5-0.3,2.9-1,4.3-1.5c2-0.7,4-1.4,6-2.2C810,972.9,821.2,967.5,829.7,958.7z"/>
			<path class="st15" d="M829.7,958.7c8.7-9,14-20.7,19.2-32.3c-2.4,2.1-6.2,5.6-11.1,9.7c-9.4,8.1-13.3,10.9-32,26.2
				c0,0-5.8,4.7-16,13.4c-2,1.7-2,1.8-2.8,2.4c-0.5,0.4-1,0.9-1.5,1.3c-0.4,0.4-0.6,0.5-0.6,0.6c0.1,0.5,1.8,1,3.3,0.7
				c1.5-0.3,2.9-1,4.3-1.5c2-0.7,4-1.4,6-2.2C810,972.9,821.2,967.5,829.7,958.7z"/>
			<g>
				<path class="st14" d="M799.1,899.9c-0.3-3-0.9-8.5-3.8-15c-2.1-4.8-5.1-9.2-8.8-13.1c-4.2,11.6-4.6,21.3-4.3,27.2
					c0.1,1.8,0.7,12.4,6.8,23c2.2,3.8,3.7,5.3,5,5.1c0.7-0.1,2-0.8,3.6-9C798.9,911.6,799.8,906.8,799.1,899.9z"/>
				<path class="st15" d="M786.5,871.7c-1.2,3.1-2.4,6.7-3.2,10.9c-1.3,6.3-1.4,11.9-1.1,16.3c0.1,2.3,0.4,4.3,0.7,5.7
					c0.9,5.3,2.5,9.2,3.7,12.2c0.3,0.7,0.9,2,2.2,4.6c0.4,0.8,1.7,3.4,3.6,4.9c0.3,0.3,1.3,1,1.9,0.7c0.1,0,0.3-0.1,0.4-0.3
					c0.1-0.1,0.2-0.3,0.1-1.1c0-0.2,0-0.3,0-0.4c-0.1-0.9-0.8-13.3-2.1-25.6c-1.5-13.8-3-19.2-3.6-21.1
					C788,875.7,787.1,873.3,786.5,871.7z"/>
			</g>
			<g>
				<path class="st14" d="M822.9,909.1c4.3-6.3,6.4-13.8,5.8-21.1c-10.9,8.3-20.3,19.1-23.8,31.8c-1.6,5.9,6.1,0.5,8.5-1.1
					C817.1,916,820.4,912.8,822.9,909.1z"/>
				<path class="st15" d="M822.9,909.1c3-4.4,4.2-8.3,4.7-10.2c1-3.6,1.4-7.3,1.1-10.9c-0.8,1.3-1.9,3.4-3.2,5.8
					c-1.2,2.1-1.8,3.4-2.3,4.2c-2.8,5.2-4.3,7.8-5.6,9.7c-4,5.6-12.3,14-12.5,14.2c0,0-0.1,0.1-0.1,0.1c0,0.1,0.1,0.1,0.2,0.1
					c0.2,0.1,0.3,0.2,0.3,0.2c2.4,1,8.9-4.4,8.9-4.4C817.3,915.6,820.1,913.2,822.9,909.1z"/>
			</g>
			<g>
				<path class="st14" d="M819,879.7c1.5-7.3,0.4-15-3.1-21.6c-3.6,3.5-8.4,9.3-11.1,17.4c-0.3,0.9-3.3,10.7,0.2,19.4
					c0.6,1.5,1.4,3,2.7,3.2c2.2,0.3,4.4-3.4,6.2-6.2C816.4,888.2,818.2,884,819,879.7z"/>
				<path class="st15" d="M807.5,897.9c2-7.1,3.8-14.7,5.5-22.7c1.2-5.9,2.2-11.6,3-17.2c1.4,2.6,2.7,5.9,3.4,9.8
					c0.2,1,1,6.1-0.4,12.5c-0.6,2.6-1.3,4.6-1.6,5.2c-1,2.7-3.3,7.3-7.7,11.7c-0.1,0.1-0.2,0.2-0.2,0.2c-0.1,0.1-0.3,0.2-0.6,0.3
					c-0.1,0-0.1,0-0.2,0.1c-0.4,0.1-0.6,0.1-0.8,0.1C807.8,898.1,807.6,898,807.5,897.9z"/>
			</g>
			<path class="st16" d="M814.1,869.9c0,0-13.3,73.6-56.5,152.7"/>
			<path class="st16" d="M798.7,926.9c0,0,15.7-9.3,26.6-33"/>
			<path class="st16" d="M795.2,937.3c0,0-2.3-44.1-6-57.2"/>
			<path class="st16" d="M837.4,936.7c0,0-54.8,44.1-63.4,53.4"/>
			<path class="st16" d="M768,926.3c0,0-3.9,79.7-5.5,86.9"/>
		</g>
		<g class="st13">
			<path class="st14" d="M680,968.9c0.3-5.7,0.2-13.8-1.9-23.6c-8.5,11.1-15.8,23-20.5,35.8c-1.7,4.6-10.6,37.4-2.3,36.3
				c5.6-0.7,10.5-6.8,13.8-12.4C678.8,988.1,679.9,971.1,680,968.9z"/>
			<path class="st15" d="M675.2,955.8c1.2-4.4,2.2-8,2.8-10.5c-4.7,5.7-10.9,14.3-16.3,25.6c-1.7,3.5-2.6,5.9-4.2,10.1
				c0,0-10.5,26.9-4.7,35.2c0.2,0.2,0.4,0.4,0.4,0.4c0.1,0.1,0.4,0.3,0.8,0.5c0.3,0.1,0.9,0.4,1.1,0.2c0.1-0.1,0.1-0.2,0.1-0.2
				c0-0.7,0.5-1.4,0.6-2c0.4-1.7,10.5-31.6,12.3-37.2C672.3,965.7,673.7,961.2,675.2,955.8z"/>
			<path class="st14" d="M726.7,1001.1c10.8-6.7,19-16.9,27.1-26.9c-14.1-1.1-24.9,1-31.6,2.8c-30.9,8.2-44.6,29.7-44.8,33.5
				c-0.1,1.8,1.5,2.7,3.3,2.8c1.5,0.1,3.1-0.3,4.6-0.4c2.1-0.2,4.2-0.5,6.3-0.7C703.9,1010.4,716.2,1007.6,726.7,1001.1z"/>
			<path class="st15" d="M726.7,1001.1c10.8-6.7,19-16.9,27.1-26.9c-2.8,1.5-7.5,4-13.3,6.9c-11.3,5.7-15.7,7.6-37.9,18.1
				c0,0-6.8,3.3-19.1,9.4c-2.4,1.2-2.4,1.3-3.4,1.7c-0.6,0.3-1.2,0.7-1.8,1c-0.5,0.3-0.7,0.3-0.7,0.5c-0.1,0.5,1.5,1.4,3,1.5
				c1.5,0.1,3.1-0.3,4.6-0.4c2.1-0.2,4.2-0.5,6.3-0.7C703.9,1010.4,716.2,1007.6,726.7,1001.1z"/>
			<g>
				<path class="st14" d="M712.5,937c0.5-3,1.4-8.4,0.2-15.5c-0.8-5.1-2.5-10.1-5.1-14.7c-7.1,10.3-10,19.6-11.3,25.4
					c-0.4,1.8-2.6,12.1,0.6,23.8c1.1,4.1,2.2,6,3.5,6.1c0.7,0.1,2.2-0.3,5.8-7.9C709.2,948.4,711.3,943.9,712.5,937z"/>
				<path class="st15" d="M707.6,906.9c-2,2.7-4.1,6-6,9.9c-2.9,5.8-4.5,11.2-5.4,15.6c-0.5,2.3-0.7,4.2-0.9,5.7
					c-0.5,5.4,0,9.5,0.4,12.6c0.1,0.7,0.4,2.1,0.9,4.9c0.2,0.8,0.7,3.7,2.2,5.6c0.2,0.3,1,1.2,1.6,1.1c0.1,0,0.3-0.1,0.4-0.2
					c0.1-0.1,0.2-0.2,0.4-1c0-0.2,0.1-0.3,0.1-0.4c0.1-0.9,2.7-13,4.7-25.3c2.1-13.8,2.1-19.3,2.1-21.3
					C708,911.1,707.8,908.6,707.6,906.9z"/>
			</g>
			<g>
				<path class="st14" d="M733.1,951.4c5.8-5.1,9.8-12,11.2-19.2c-12.8,5.5-24.7,13.9-31.4,25.4c-3.1,5.4,5.7,1.9,8.5,0.8
					C725.7,956.8,729.7,954.4,733.1,951.4z"/>
				<path class="st15" d="M733.1,951.4c4-3.6,6.3-7.1,7.2-8.8c1.9-3.3,3.2-6.8,3.9-10.4c-1.1,1.1-2.7,2.8-4.7,4.9
					c-1.7,1.8-2.7,2.9-3.4,3.6c-4.1,4.4-6.2,6.6-8,8.1c-5.3,4.5-15.6,10.8-15.8,10.9c0,0-0.1,0-0.1,0.1c0,0.1,0,0.1,0.1,0.2
					c0.2,0.2,0.3,0.3,0.3,0.3c2.1,1.5,9.8-2.2,9.8-2.2C726,956.4,729.4,954.8,733.1,951.4z"/>
			</g>
			<g>
				<path class="st14" d="M737.1,922c3.3-6.8,4.3-14.5,2.7-21.7c-4.4,2.6-10.6,7.1-15.3,14.4c-0.5,0.8-6,9.6-4.9,18.8
					c0.2,1.6,0.6,3.2,1.8,3.7c2,0.8,5.1-2.3,7.7-4.6C732.3,929.6,735.1,926,737.1,922z"/>
				<path class="st15" d="M721.1,937.1c3.8-6.4,7.6-13.4,11.2-20.7c2.7-5.5,5.2-10.8,7.4-15.9c0.7,2.8,1.1,6.3,0.7,10.3
					c-0.1,1-0.6,6.1-3.7,12.1c-1.2,2.4-2.5,4.1-2.9,4.7c-1.7,2.4-5.1,6.4-10.5,9.6c-0.1,0.1-0.2,0.1-0.3,0.2
					c-0.1,0.1-0.3,0.1-0.6,0.2c-0.1,0-0.1,0-0.2,0c-0.4,0-0.6,0-0.8-0.1C721.4,937.3,721.2,937.2,721.1,937.1z"/>
			</g>
			<path class="st16" d="M734.8,911.4c0,0-32.2,68.3-94.8,135.3"/>
			<path class="st16" d="M705,963.2c0,0,17.7-5.5,34.5-26"/>
			<path class="st16" d="M698.9,972.4c0,0,9.4-43.3,9.2-56.8"/>
			<path class="st16" d="M739.9,981.4c0,0-64.7,30.3-75.4,37.4"/>
			<path class="st16" d="M675.4,955.6c0,0-24.6,76.5-28.1,83"/>
		</g>
		<g class="st13">
			<path class="st14" d="M330.6,977.9c0.8-5.6,2.5-13.6,6.5-22.9c6.2,12.4,11,25.3,13.2,38.6c0.8,4.9,3.1,38.6-4.8,36.1
				c-5.4-1.7-9-8.4-11.1-14.6C328,997.1,330.3,980.2,330.6,977.9z"/>
			<path class="st15" d="M337.8,965.8c-0.4-4.5-0.6-8.2-0.7-10.8c3.5,6.4,7.9,15.9,11,28c1,3.8,1.4,6.3,2.2,10.7
				c0,0,5,28.3-2.2,35.5c-0.2,0.2-0.4,0.4-0.4,0.4c-0.1,0.1-0.4,0.3-0.9,0.4c-0.3,0.1-0.9,0.2-1.1,0c-0.1-0.1-0.1-0.2,0-0.2
				c0.1-0.7-0.2-1.4-0.2-2.1c0-1.7-4.1-32.9-4.8-38.6C338.8,976.1,338.3,971.5,337.8,965.8z"/>
			<path class="st14" d="M278.3,1001.6c-9.3-8.4-15.4-19.9-21.4-31.1c14.1,1.3,24.3,5.2,30.5,8.1c28.8,13.3,38,36.8,37.5,40.6
				c-0.3,1.8-2,2.4-3.8,2.2c-1.5-0.2-3-0.8-4.4-1.2c-2-0.6-4.1-1.2-6.1-1.8C298.9,1014.7,287.4,1009.9,278.3,1001.6z"/>
			<path class="st15" d="M278.3,1001.6c-9.3-8.4-15.4-19.9-21.4-31.1c2.5,2,6.6,5.2,11.7,9.1c9.9,7.5,14,10.1,33.7,24.3
				c0,0,6.1,4.4,16.9,12.5c2.1,1.6,2.1,1.7,3,2.3c0.6,0.4,1.1,0.8,1.6,1.3c0.5,0.3,0.6,0.4,0.6,0.6c0,0.5-1.8,1.1-3.3,0.9
				c-1.5-0.2-3-0.8-4.4-1.2c-2-0.6-4.1-1.2-6.1-1.8C298.9,1014.7,287.4,1009.9,278.3,1001.6z"/>
			<g>
				<path class="st14" d="M304.9,941.1c0.1-3.1,0.3-8.5,2.8-15.2c1.8-4.9,4.5-9.5,7.9-13.6c5,11.3,6,21,6.1,26.9
					c0,1.8,0.1,12.4-5.3,23.3c-1.9,3.9-3.4,5.5-4.7,5.4c-0.7-0.1-2.1-0.7-4.2-8.8C305.9,952.8,304.7,948,304.9,941.1z"/>
				<path class="st15" d="M315.5,912.3c1.4,3,2.8,6.6,3.9,10.7c1.7,6.2,2.2,11.8,2.2,16.2c0,2.3-0.1,4.3-0.3,5.7
					c-0.6,5.4-1.8,9.4-2.8,12.4c-0.2,0.7-0.8,2-1.8,4.7c-0.3,0.8-1.4,3.5-3.2,5.1c-0.3,0.3-1.2,1.1-1.8,0.8c-0.1,0-0.3-0.1-0.4-0.3
					c-0.1-0.1-0.2-0.3-0.2-1c0-0.2,0-0.3,0-0.4c0-0.9-0.1-13.3,0.4-25.6c0.6-13.9,1.7-19.3,2.2-21.3
					C314.3,916.3,315,913.9,315.5,912.3z"/>
			</g>
			<g>
				<path class="st14" d="M281.7,951.7c-4.7-6-7.3-13.4-7.2-20.7c11.5,7.6,21.6,17.9,25.9,30.3c2,5.8-6,0.9-8.5-0.6
					C288,958.3,284.5,955.2,281.7,951.7z"/>
				<path class="st15" d="M281.7,951.7c-3.3-4.2-4.8-8.1-5.4-9.9c-1.2-3.5-1.9-7.2-1.8-10.8c0.8,1.3,2.1,3.3,3.6,5.6
					c1.3,2.1,2.1,3.3,2.6,4.1c3.2,5,4.8,7.6,6.2,9.4c4.3,5.3,13.2,13.3,13.4,13.4c0,0,0.1,0.1,0.1,0.1c0,0.1-0.1,0.1-0.1,0.2
					c-0.2,0.1-0.3,0.2-0.3,0.2c-2.4,1.1-9.2-3.9-9.2-3.9C287.8,957.9,284.8,955.7,281.7,951.7z"/>
			</g>
			<g>
				<path class="st14" d="M283.6,922.2c-2-7.2-1.4-15,1.6-21.7c3.9,3.3,9.1,8.8,12.2,16.8c0.3,0.9,4,10.5,1.1,19.3
					c-0.5,1.5-1.2,3.1-2.5,3.3c-2.1,0.4-4.6-3.1-6.6-5.8C286.8,930.4,284.8,926.4,283.6,922.2z"/>
				<path class="st15" d="M296.4,939.7c-2.4-7-4.8-14.4-7-22.3c-1.6-5.8-3-11.5-4.2-16.9c-1.2,2.6-2.3,6-2.7,10
					c-0.1,1-0.6,6.1,1.3,12.5c0.7,2.6,1.6,4.5,1.9,5.1c1.2,2.6,3.7,7.1,8.4,11.2c0.1,0.1,0.2,0.2,0.2,0.2c0.1,0.1,0.3,0.2,0.6,0.3
					c0.1,0,0.1,0,0.2,0c0.4,0.1,0.6,0.1,0.8,0C296.1,939.8,296.2,939.8,296.4,939.7z"/>
			</g>
			<path class="st16" d="M287.9,912.1c0,0,18.2,72.7,66.7,149.1"/>
			<path class="st16" d="M307.1,968.1c0,0-16.3-8.4-28.8-31.4"/>
			<path class="st16" d="M311.3,978.2c0,0-0.7-44.2,2.1-57.4"/>
			<path class="st16" d="M269.2,980.1c0,0,57.7,40.8,66.8,49.6"/>
			<path class="st16" d="M337.7,965.7c0,0,9.2,79.3,11.4,86.4"/>
		</g>
	</g>
	<g>
		<defs>
			<rect id="SVGID_5_" x="252.9" y="400.4" width="606" height="563.4"/>
		</defs>
		<clipPath id="SVGID_6_">
			<use xlink:href="#SVGID_5_"  style="overflow:visible;"/>
		</clipPath>
		<g class="st17">
			<g>
				<path class="st18" d="M521.7,615.7c-9.8,3.4-22.7,5.3-37.5,32.1c-14.9,26.8-27.9,63-27.9,63s12.8,8.1,13.5,8.1
					s7.8-2.8,19.7-13.2c11.9-10.4,36.6-48.7,36.6-48.7L521.7,615.7z"/>
				<path class="st19" d="M519.5,998.4c-0.2,1.1-4.6,49.4-4.6,49.4l-19.9,6.8c0,0-5.9-62.1-4.8-61.7
					C491.3,993.3,519.5,998.4,519.5,998.4z"/>
				<path class="st19" d="M582.8,1047.7c0,0-4.3-48.3-4.6-49.4c0,0,28.1-5.1,29.3-5.5l-5.9,63.4L582.8,1047.7z"/>
				<path class="st20" d="M581.4,1038.8l-0.9-7.8c0,0,13.7,6.1,18.2,6.2c4.5,0.2,6.9-0.5,6.9-0.5l-0.5,12.9l-12.5,1.3l-10.6-7.8
					L581.4,1038.8z"/>
				<g>
					<path class="st18" d="M604.5,650c-0.2-1.5-0.4-2.9-0.6-4.3c-0.6-3.8-1.5-7.4-2.6-10.7c-8-11.3-17.5-18.5-33.3-21.4
						c-16.4-2.9-30.7-3.4-45.9,1.3c-2,2-3.9,4.1-5.6,6.3c-0.3,0.4-0.5,0.7-0.8,1.1c-4.1,5.5-7.3,11.5-10,17.7
						c-0.2,0.4-0.4,0.8-0.6,1.3c-0.6,1.4-1.2,2.8-1.8,4.2c-1.1,2.7-2.2,5.6-3.5,8.2c-0.2,0.4-0.4,0.9-0.7,1.3
						c-1.7,3.3-3.8,6.4-6.8,8.7c-0.7,0.5-1.4,1-1.5,1.8v0.1c-0.1,0.6,0.2,1.2,0.5,1.7c0.5,0.8,1,1.7,1.5,2.5
						c1.1,1.6,2.4,3.1,3.9,4.4c0.1,0,0.1,0.1,0.1,0.1c1.5,1.3,3.1,2.5,4.9,3.4c-0.1,0.5-0.3,1-0.4,1.6c0,0,0,0,0,0c0,0,0,0,0,0.1
						c-1.2,4.8-2.3,9.7-3.3,14.7c-0.1,0.2-0.1,0.4-0.1,0.7c-0.1,0.3-0.1,0.7-0.2,1c-0.2,1-0.4,2.1-0.7,3.2c-0.2,1-0.4,2.1-0.6,3.1
						c-0.5,2.5-1,4.9-1.5,7.4c-0.1,0.5-0.2,1-0.3,1.6c-0.5,2.7-1.1,5.4-1.6,8c-0.2,1.4-0.5,2.8-0.8,4.2c-0.7,3.9-1.5,7.8-2.3,11.6
						c-0.1,0.6-0.2,1.2-0.4,1.8c0,0,0,0.1,0,0.1c-0.1,0.8-0.3,1.5-0.4,2.3c-0.8,4-1.5,8-2.4,11.9l18.5,2.1l1.2,0.2l16.2,1.8l1.4,0.2
						l17.4,2l1.9,0.2h0l27.3,3.1l2,0.2h0l24.8,2.8c0.3-3.5,0.7-7.2,1-10.8c0.1-1.4,0.3-2.8,0.4-4.2c0.2-1.9,0.4-3.9,0.6-5.8
						c0.1-0.6,0.1-1.1,0.2-1.7c0.2-1.6,0.4-3.2,0.5-4.8c0.1-1.4,0.3-2.8,0.5-4.2c0.5-4.1,0.9-8.3,1.4-12.4v-0.1
						c0.2-1.9,0.4-3.9,0.6-5.8c0.1-0.6,0.1-1.2,0.2-1.8c0-0.1,0-0.1,0-0.2c0.1-1.4,0.3-2.8,0.4-4.2c0.5-5.4,1-10.7,1.4-15.9v-0.2
						c0.1-0.6,0.1-1.2,0.1-1.8v0c0.1-0.8,0.1-1.5,0.2-2.2c0.4-6.6,0.6-13,0.6-19.2c0-1.4,0-2.8-0.1-4.2
						C605.4,659,605.1,654.4,604.5,650z"/>
				</g>
				<path class="st21" d="M509.2,684.6c13.4,7.1,35.3,6.6,46.3,2.9"/>
				<path class="st21" d="M499.9,653.9c-1.3,8.7-8.3,9.6-7,16.1c1.3,6.5,8.1,11,8.1,11l-4.1,19.9"/>
				<polygon class="st19" points="554.1,583.7 555.6,613.6 537.7,613.8 540.6,590.1 				"/>
				<path class="st19" d="M532.9,612.5c-0.8,11.1,0.5,39.6,0.5,39.6s27.1-32.3,29.8-39.2C552.6,611.3,542.8,610.9,532.9,612.5z"/>
				<g>
					<path class="st22" d="M519.4,1039.9l-27.1,1.2c-3.1,1-34.1,11-35.1,15.1c-1.1,4.3,64.7,1.6,64.7,1.6L519.4,1039.9z"/>
					<polygon class="st20" points="517.6,1026.7 490.6,1032.4 492.3,1041.1 519.4,1039.9 					"/>
				</g>
				<g>
					<path class="st19" d="M565.5,587.1c0.2,12.6-4.5,21.3-14.1,21.9c-16.8,1-17.6-5.1-19.4-8.7c-0.6-1.2-0.9-2.8-1.1-4.8
						c-0.2-2.1-0.3-4.7-0.3-8c-0.2-9.5,7.3-17.2,17-17.3C557.2,570,565.3,577.6,565.5,587.1z"/>
					<path class="st23" d="M546.7,589.8c0.3,4-0.5,5.9-0.4,7.1c0.1,1.3,2,1.5,3.3,0.4"/>
					<path class="st20" d="M542.7,600.8c4.2,1.3,10.5-0.1,12-1.6c0,0-0.6,5.4-6,5.6C543.3,605,542.7,600.8,542.7,600.8z"/>
					<path class="st24" d="M542.3,591.2c0,1-0.6,1.8-1.3,1.8c-0.7,0-1.3-0.8-1.3-1.8c0-1,0.6-1.8,1.3-1.8
						C541.8,589.4,542.3,590.2,542.3,591.2z"/>
					<path class="st24" d="M556,591.2c0,1-0.6,1.8-1.3,1.8c-0.7,0-1.3-0.8-1.3-1.8c0-1,0.6-1.8,1.3-1.8
						C555.5,589.4,556,590.2,556,591.2z"/>
					<path class="st19" d="M562.2,587c0.2,0,4.6-4.5,6.7,0.6c2.1,5-2.6,9.3-7.3,7.6"/>
					<path class="st19" d="M532.2,586.1c-0.2,0-4.6-4.5-6.7,0.6c-2.1,5,2.6,9.3,7.3,7.6"/>
					<g>
						<path class="st24" d="M529.4,573.7c-0.7,3.6-1,7.3-1,11c0.5-0.1,1.1,0.2,1.4,0.6c0.3,0.4,0.3,0.9,0.4,1.4
							c0.1,1,0.2,2.1,0.3,3.2c0.1,0.7,0.1,1.4,0.5,2c0.4,0.6,1.3,1,1.9,0.6c0.6-1.2,0.5-2.5,0.4-3.8c-0.1-1.3-0.2-2.7-0.3-4
							c0-0.2,0-0.4,0.1-0.5c0.1-0.2,0.4-0.3,0.6-0.4c1.3-0.4,2.9-0.7,3.7-1.7c0.4-0.6,0.5-1.2,0.6-1.9c0.6-3.6,1.1-7.2,1.7-10.9"/>
					</g>
					<g class="st25">
						<path class="st24" d="M529.4,573.7c-0.7,3.6-1,7.3-1,11c0.5-0.1,1.1,0.2,1.4,0.6c0.3,0.4,0.3,0.9,0.4,1.4
							c0.1,1,0.2,2.1,0.3,3.2c0.1,0.7,0.1,1.4,0.5,2c0.4,0.6,1.3,1,1.9,0.6c0.6-1.2,0.5-2.5,0.4-3.8c-0.1-1.3-0.2-2.7-0.3-4
							c0-0.2,0-0.4,0.1-0.5c0.1-0.2,0.4-0.3,0.6-0.4c1.3-0.4,2.9-0.7,3.7-1.7c0.4-0.6,0.5-1.2,0.6-1.9c0.6-3.6,1.1-7.2,1.7-10.9"/>
					</g>
					<g>
						<path class="st24" d="M566.6,574.5c0.7,3.6,1,7.3,1,11c-0.5-0.1-1.1,0.2-1.4,0.6c-0.3,0.4-0.3,0.9-0.4,1.4
							c-0.1,1-0.2,2.1-0.3,3.2c-0.1,0.7-0.1,1.4-0.5,2c-0.4,0.6-1.3,1-1.9,0.6c-0.5-1.2-0.5-2.5-0.4-3.8c0.1-1.3,0.2-2.7,0.3-4
							c0-0.2,0-0.4-0.1-0.5c-0.1-0.2-0.4-0.3-0.6-0.4c-1.3-0.4-2.9-0.7-3.7-1.7c-0.4-0.6-0.5-1.2-0.6-1.9c-0.6-3.6-1.1-7.2-1.7-10.9
							"/>
					</g>
					<g class="st25">
						<path class="st24" d="M566.6,574.5c0.7,3.6,1,7.3,1,11c-0.5-0.1-1.1,0.2-1.4,0.6c-0.3,0.4-0.3,0.9-0.4,1.4
							c-0.1,1-0.2,2.1-0.3,3.2c-0.1,0.7-0.1,1.4-0.5,2c-0.4,0.6-1.3,1-1.9,0.6c-0.5-1.2-0.5-2.5-0.4-3.8c0.1-1.3,0.2-2.7,0.3-4
							c0-0.2,0-0.4-0.1-0.5c-0.1-0.2-0.4-0.3-0.6-0.4c-1.3-0.4-2.9-0.7-3.7-1.7c-0.4-0.6-0.5-1.2-0.6-1.9c-0.6-3.6-1.1-7.2-1.7-10.9
							"/>
					</g>
					<path class="st23" d="M552.5,585.5c0.3,0,4.8-0.9,8.4,1.2"/>
					<path class="st23" d="M535.7,585.6c0,0,3.6-1.8,7,0.1"/>
					<g>
						<path class="st24" d="M561.4,583.9c3,2,7.4,1.2,10.8-0.3c0.9-0.4,1.9-1,2.3-1.9c0.4-0.9,0-2.1-1-2.3c2.2-0.5,4.5-1.1,6.2-2.5
							c1.7-1.4,2.4-4,1-5.7c-1-1.2-2.7-1.6-4.3-1.8c1.8,0.3,3.7-1.1,4.1-2.9c0.4-1.7-0.4-3.5-1.4-4.9c-1.3-1.8-3.2-3.3-5.4-4.1
							c-2.2-0.7-4.8-0.6-6.9,0.5c0.5-0.1,0.5-0.7,0.5-1.2c-0.5-3.3-3.5-6.1-7-6.5c-3.5-0.4-7.2,1.6-8.5,4.7c-1.4-3.5-6.4-4.9-10-3.4
							c-3.6,1.5-5.7,5.4-5.7,9.1c-2.5-2.8-7.6-3.3-10.7-0.9c-3.1,2.3-3.6,7-1.1,9.9c-2-0.6-4.3,0.5-5.1,2.3c-0.8,1.8-0.2,4,1.3,5.3
							c1.5,1.4,3.7,1.9,5.7,1.7c2.1-0.2,4-1.1,5.6-2.3c-0.2,1.7,1.2,3.5,3,3.9c1.8,0.4,3.9-0.5,4.7-2.1c0.1,1.9,2.3,3.4,4.3,3.3
							c2.1-0.1,3.9-1.6,4.8-3.3c0,0,0.9,4,5.2,4.6c4.2,0.6,6.4-3.5,6.4-3.5S559.1,582.4,561.4,583.9z"/>
					</g>
				</g>
				<path class="st22" d="M604.8,1045.7c-6.7,4.3-17.4,1.9-23.4-6.9c0,0-4.7,16.4-1.4,19.6c3.3,3.2,28.9,23.8,44.1,22.5
					C632,1080.9,608.7,1050.7,604.8,1045.7z"/>
				<path class="st24" d="M494.9,709.4c-1.7-3.6-21,29.6-21,93.4s12.4,204.2,12.4,204.2l34.3,1.3l17.8-201.7l34.3,197.8l37.1-2.6
					c0,0,24.6-177.4-6.9-290.4C530.2,716.1,494.9,709.4,494.9,709.4z"/>
				<path class="st26" d="M578.3,721.9c14.1,21.7,33.1,28.6,33.1,28.6"/>
				<path class="st26" d="M605.5,747.8c0,0,16.3,148.2,0,253.1"/>
				<path class="st26" d="M526.1,718.8c0,0-0.6,53.3,4.4,59.7c5,6.4,15.9,4.3,15.9,4.3"/>
				<line class="st26" x1="546.4" y1="725" x2="546.4" y2="805.8"/>
				<line class="st26" x1="529" y1="807.6" x2="557.4" y2="805.8"/>
				<path class="st26" d="M504.8,722c-3.7,14.5-24.6,22.1-24.6,22.1"/>
				<g>
					<path class="st22" d="M601.5,705.4c-3.1,0.2-6.2,0.3-9.2,0.4c-12.2,0.6-24.4,0.8-36.6,0.7c-20.1-0.1-40.1-1.1-60-2.9
						c-1.4,2.2-3.2,4.3-4.7,6.5c-1.8,2.8-2.3,5.2-2.6,8.1c25.8,2.5,51.8,3.7,77.8,3.5c11.7-0.1,26.1,0.8,39.5-0.7
						C604.3,715.8,603,710.6,601.5,705.4z"/>
				</g>
				<path class="st18" d="M584.4,619.1c8.5,3.6,22.4,20.2,35.5,43.4c13,23.2,12.8,68.9,0.2,71.7c-12.6,2.8-39.4-69.3-39.4-69.3
					C576.7,643.5,574.4,624.2,584.4,619.1z"/>
				<path class="st21" d="M580.9,622.1c-9.3,10.6,0,28,0,28"/>
				<path class="st19" d="M604,731.1c-18.8-13.5-42.8-88.9-42.8-88.9l12.4-4c0,0,35.1,45.2,48.9,64.6
					C636.3,722.1,622.8,744.6,604,731.1z"/>
				<path class="st19" d="M489.8,636.8c0,0-42.6,52.6-38.2,71.1c4.4,18.5,26,14.2,33.2-6.8l14.2-59
					C499,642.1,494.4,639.8,489.8,636.8z"/>
				<polygon class="st27" points="490.4,627.4 496.8,619.7 496.6,631.4 				"/>
				<path class="st1" d="M528.8,623.9c-4.3-11.5-24.6-22-24.6-22l-4.3,9.6l27.6,24.1l42.5-21.5l-8.3-8.4
					C561.7,605.7,532.6,613.8,528.8,623.9z"/>
				<polygon class="st28" points="496.8,606.6 527,629.6 572.8,610 568.2,663.6 527,673 491.3,652.9 				"/>
				<polygon class="st29" points="496.8,606.6 527,629.6 572.8,610 568.2,663.6 527,673 491.3,652.9 				"/>
				<polygon class="st30" points="496.8,609.1 527,632 572.8,612.5 568.2,666.1 527,675.4 491.3,655.4 				"/>
				<path class="st19" d="M571.6,632.6c-0.5,0.2-19.9,2.9-19.9,5.1s13.7,0.3,13.7,0.3s-14.9,2.6-14.4,4.8c0.5,2.2,15.8-0.3,15.8-0.3
					s-12.5,2.1-12,3.7c0.5,1.6,12.4-0.2,12.4-0.2s-7.4,0.8-6,3c1.4,2.2,9.6-0.1,12.4-0.5C578.6,648,576.1,632.3,571.6,632.6z"/>
				<path class="st19" d="M491.6,626.9c0.5,0.2,19.9,2.9,19.9,5.1c0,2.2-13.7,0.3-13.7,0.3s14.9,2.6,14.4,4.8
					c-0.5,2.2-15.8-0.3-15.8-0.3s12.5,2.1,12,3.7c-0.5,1.6-12.4-0.2-12.4-0.2s7.4,0.8,6,3c-1.4,2.2-9.6-0.1-12.4-0.5
					c-4.4-0.5-3.2-12.3,0.2-15.3C490.4,627.1,491,626.8,491.6,626.9z"/>
				<g>
					<path class="st31" d="M526.7,714.6c0,0.1,0,0.1,0,0.2c0,5.3,5.1,10.5,11,10.2c6-0.2,11-4.5,11-10.2c0-0.1,0-0.1,0-0.2
						c0-5.3-5.1-10.5-11-10.2C531.7,704.6,526.7,708.9,526.7,714.6L526.7,714.6z"/>
				</g>
				<g class="st32">
					<path class="st31" d="M540.5,709.4c-0.1,3.4-0.1,6.8-0.2,10.1v0.1c0,0.1,0,0.3,0,0.4c0,1.4-1.2,2.5-2.7,2.6
						c-1.5,0.1-2.8-1.2-2.7-2.6c0-0.1,0-0.3,0-0.4c0.1-3.4,0.1-6.8,0.2-10.2c0-1.4,1.2-2.5,2.7-2.6
						C539.2,706.8,540.5,708,540.5,709.4z"/>
				</g>
			</g>
			<g>
				<polygon class="st19" points="798.2,660.3 815.1,597.7 828.5,595.7 820.9,667.6 				"/>
				<path class="st30" d="M737.8,621.9c7.1,1.2,40.7,20.2,60.5,31.6l10.8-33.6l20.6,0.4c0,0,4.7,60.2-29.9,67.1
					c-7,1.4-68.4-30.3-68.4-30.3S727.7,620.1,737.8,621.9z"/>
				<path class="st1" d="M716.1,615.5c16.5-2.4,23.6,1.1,31.1,7.3c16.7,14.5,35.5,108.8,54,195l-71.5,8.7l-4.3-137.7
					C716.3,659.1,705.5,617,716.1,615.5z"/>
				<polygon class="st19" points="754.8,713.7 787.2,1055.5 766.6,1058.6 664.1,725.4 				"/>
				<g>
					<g>
						<polygon class="st19" points="704.8,616.3 722.8,618.2 722.6,609.6 722.3,594 709.4,586.4 706.6,604.8 						"/>
						<path class="st33" d="M706.6,604.8c3.9,5.7,14.5,6.7,16.1,6.9l-0.4-17.6l-12.9-7.6L706.6,604.8z"/>
						<path class="st19" d="M696,585.8c-1.2,10.2,6.7,19.4,17.6,20.5c12,1.2,16.8,0.9,19.2-2.8c0.8-1.3,1.3-2.9,1.7-5.1
							c0.4-2.3,0.8-5.1,1.1-8.5c1.2-10.2-6.7-19.4-17.6-20.5C707.1,568.2,697.2,575.6,696,585.8z"/>
						<path class="st20" d="M730.8,597.8l-7.5-3.2c0,0-1,4.8,6.3,6.1L730.8,597.8z"/>
						<path class="st24" d="M729.4,588.2c0.1,1.1,0.8,2,1.6,2c0.8-0.1,1.4-1,1.3-2.2c-0.1-1.1-0.8-2-1.6-2
							C729.9,586.1,729.3,587.1,729.4,588.2z"/>
						<polyline class="st19" points="735.2,587 741.5,595.8 733.1,596.8 735.1,587.4 						"/>
						<path class="st34" d="M732.1,583.7c0,0-4.4-5-10.2,0.7"/>
					</g>
				</g>
				<path class="st18" d="M672.5,755.1l31.3,111.5c0,0,0,0,0,0l0.8,2.8l6.3,22.4l0.7,2.5l7.2,25.6l0.7,2.4l7.6,27l0.7,2.4l8.8,31.4
					l0.7,2.4l6.1,21.7l0.7,2.4l5.6,20l0.7,2.4l1.1,4.1l38.2-6.8c-0.7-8-1.5-16.1-2.2-24.1c-0.1-0.9-0.1-1.8-0.2-2.7
					c-0.8-8.3-1.5-16.6-2.3-24.8c-0.1-0.9-0.2-1.8-0.2-2.7c-0.8-8.7-1.6-17.3-2.4-25.8c-0.1-1-0.2-1.9-0.3-2.8
					c-1-11.1-2.1-22.1-3.2-32.8c-0.1-0.9-0.2-1.9-0.3-2.8c-1-10.3-2-20.3-3-30.1c-0.1-1-0.2-1.9-0.3-2.9
					c-1.2-11.9-2.4-23.4-3.7-34.5c-0.1-0.9-0.2-1.9-0.3-2.8c-0.9-7.9-1.8-15.6-2.6-23c-0.1-0.9-0.2-1.8-0.3-2.7v0
					c-0.9-7.4-1.8-14.5-2.6-21.3c-0.1-0.9-0.2-1.8-0.4-2.7c-1.4-11.1-2.9-21.4-4.3-30.7L672.5,755.1z"/>
				<g>
					<path class="st24" d="M767.3,1064.9l22.9-6.9c2.9-0.1,32-0.7,34.3,2.4c2.4,3.3-53.3,20.1-53.3,20.1L767.3,1064.9z"/>
					<polygon class="st20" points="764.4,1053.5 788.8,1050.4 790.3,1058.1 767.3,1064.9 					"/>
				</g>
				<polygon class="st19" points="760.3,732.3 667.7,1064.4 647.2,1061 670.7,715 				"/>
				<path class="st18" d="M641.6,1040l36.6,2.3l0.8-3l0.6-2.3l6.7-24.9l0.6-2.3l6.5-24.1l0.6-2.3l8-29.6l0.6-2.3l6-22.2l0.6-2.3
					l6.4-23.6l0.6-2.4l6.5-23.9l0.6-2.4l7.3-26.9l0.7-2.4l6.2-22.9l0.6-2.4l4.2-15.5l0.7-2.4l1.5-5.6l0.3-1.1
					c-0.4-19.6-6-31.3-15-37.6c-10.9-7.6-26.9-7.5-44.9-4.2c0,0,0,0,0,0c-0.4,0-0.7,0.1-1.1,0.2c0,0,0,0,0,0
					c-9.1,1.7-18.6,4.1-28.3,6.8l-0.1,1.7l-0.1,2.8l-1.5,30l-0.1,2.6l-1.4,28.6l-0.1,2.7l-1.3,27l-0.1,2.7l-1.6,32.1l-0.1,2.6
					l-1.3,26l-0.1,2.6l-1.7,34.4l-0.1,2.6l-1.5,29.3l-0.1,2.5l-1.3,27l-0.1,2.5L641.6,1040z"/>
				<polygon class="st18" points="729.8,757.6 729.8,798.4 750.8,795.4 753.2,795.1 765.8,793.3 760.9,760.3 748.7,759.2 746.2,759 
									"/>
				<g>
					<path class="st35" d="M749.3,772c0,0-5.1,43.9-9.9,45.5c-4.9,1.6-9.9,1.5-9.9,1.5"/>
					<line class="st35" x1="736.8" y1="773" x2="715.5" y2="908.3"/>
					<line class="st35" x1="669" y1="823.4" x2="653.6" y2="1026.7"/>
					<line class="st35" x1="678" y1="1027.4" x2="647.2" y2="1026.7"/>
					<line class="st35" x1="723.5" y1="874.5" x2="760.3" y2="1022.4"/>
					<line class="st35" x1="784.3" y1="1019.4" x2="753.8" y2="1025.2"/>
				</g>
				<g>
					<path class="st24" d="M645.6,1067.1l24.1,0.7c2.8,0.8,30.4,9.3,31.5,12.9c1.1,3.8-57.4,2.4-57.4,2.4L645.6,1067.1z"/>
					<polygon class="st20" points="647,1055.4 671.1,1060.1 669.7,1067.8 645.6,1067.1 					"/>
				</g>
				<path class="st30" d="M669,775.4c50.3-1.2,100.7-2.5,100.3-8.9l-1.4-11.1l-1-7.9l-2.7-21l-0.2-1.8c0,0-0.3-2.7-0.7-7.2
					c-1.2-11.6-3.7-35.1-6.8-54.5c-0.4-2.9-0.9-5.7-1.4-8.4c-0.4-2-0.7-3.9-1.1-5.7c-5.4-27-25.8-33.7-25.8-33.7l-4.2-0.5l-19,1.1
					l-4.1,0.5l-25.8,3.1L669,775.4z"/>
				<path class="st36" d="M762.7,711.1c-17,1.4-62-0.2-62-0.2l0.3,22.3c0,0,47.7,2.6,63.6-4L762.7,711.1z"/>
				<polygon class="st19" points="701,616.2 726.1,629.6 728.3,615.2 724.1,614.6 705.1,615.7 				"/>
				<path class="st1" d="M704.2,615.5c6.1,0.8,6.7,134.2,9.7,209.5l-93.9-3.5c0,0,49-198.9,51.3-201.1
					C676.8,615,704.2,615.5,704.2,615.5z"/>
				<polygon class="st19" points="626.3,711.1 688.4,775.5 679.1,782 618.9,739.7 				"/>
				<path class="st30" d="M622.5,677.7l48.8-56.8c0,0,10.2-7.2,16.4-0.9c4.8,4.9,7.6,21.9,0.2,38.4c-0.7,1.8-1.7,3.6-3,5.6
					c-1.4,2.3-3.1,4.6-5,6.8c-15,18.2-43.1,39.9-43.1,39.9l40.1,43.3l-14.5,21.1c0,0-61.3-43.1-59.3-59.7
					C605,699.1,622.5,677.7,622.5,677.7z"/>
				<path class="st6" d="M665,790.6l35.1-24.4l0.5,44.3c0,0-3.3,5.9-15.9,5.5c-12.6-0.4-22.3-1.4-22.3-1.4l2-22.6"/>
				<g>
					<path class="st19" d="M828,597.8c0,0,1.1-3.3,1.2-9c0.2-5.7-17.2-6.6-17.2-6.6l4.5,16.1L828,597.8z"/>
					<path class="st37" d="M826.8,593.6l0-0.7l0.9-32.8l0-1.1l-23.1,0c0,0,1.7,31.8,1,32.8C804.8,592.7,826.8,593.6,826.8,593.6z"/>
					<polygon class="st38" points="826.8,593.6 836.3,606.6 841.6,569.8 827.7,558.9 					"/>
					<path class="st1" d="M826.8,592.9l0.9-32.8l-20.9,0.1c0,0,1.4,30.2,0.7,31.1C806.9,592.1,822.9,592.8,826.8,592.9z"/>
					<polygon class="st8" points="827.7,560.1 839.7,570.6 835.4,603.9 826.8,592.8 					"/>
					<g>
						<path class="st19" d="M818.2,601.5c0,0-6.4-0.3-8.4-2.9c-1.9-2.6,0.5-7.2-0.3-10.8c-0.7-3.5-2.2-5.1-2.2-5.1s4.7,0,5.4,3.1
							c0.7,3.1,0.9,6.7,0.9,6.7s6.3-0.8,8.7,4.2C824.8,601.9,818.2,601.5,818.2,601.5z"/>
					</g>
					<polygon class="st29" points="826.8,592.8 827.7,560.1 838,570.6 834.5,603.6 					"/>
				</g>
				<g>
					<path class="st24" d="M730.5,576c6.8-0.2,13.4-4.3,16.1-10.1c1-2,1.5-4.4,0.4-6.3c-1.2-2-3.9-3-6.3-2.8
						c-2.5,0.2-4.7,1.4-6.7,2.8c0.1-2.7,0.1-5.4-0.8-7.9c-1.2-3.2-3.9-5.8-7.3-7c-2.5-0.9-5.3-1-7.7,0c-2.4,1-4.3,3.2-4.6,5.6
						c-1.9-4.6-6.7-7.9-12-8.3c-5.2-0.4-10.6,2.2-13.2,6.5c-1.4,2.2-2,5.2-0.5,7.4c-5.7-1.2-12.1,2.3-13.8,7.5
						c-0.4,1.4-0.6,3,0.1,4.3c0.7,1.3,2.5,2.2,3.9,1.6c-3.3,1.3-6.1,3.8-7.7,6.8c-1.3,2.4-1.7,5.4-0.1,7.7c1.9,2.7,5.9,3.1,9.4,3.2
						c-1.6,2-0.9,5,0.9,6.8c1.8,1.8,4.4,2.8,6.9,3.7c6.1,2.2,12.2,4.3,18.3,6.5c0.6-1.2,0.9-2.6,0.9-4c0-0.5,0-1-0.3-1.4
						c-0.3-0.5-0.9-0.7-1.4-1c-2.1-1.1-4.2-2.6-4.7-4.8c-0.5-2.2,1.1-4.7,3.5-5.3c2.3-0.7,5.1,0.6,6,2.7c0.5,1.2,0.5,2.6,1.2,3.8
						c0.7,1.2,2.5,1.9,3.4,0.9c-0.7-3.7-1.5-7.3-2.2-11c-0.1-0.4-0.2-0.9,0-1.3c0.2-0.5,0.7-0.7,1.2-0.9c1.6-0.6,3.4-0.9,5.2-0.8
						c1,0,2,0.2,3,0c1-0.2,1.9-0.9,2-1.8c0.1-0.6-0.2-1.3,0.2-1.8c0.3-0.3,0.7-0.4,1.2-0.4c2.1-0.3,4.2-0.4,6.2-0.4"/>
				</g>
				<path class="st39" d="M636.8,710.9c-10.5,0.2-17.9,9.4-17.9,9.4"/>
				<path class="st39" d="M798.3,653.4c-7.5,7.3-1.9,21-1.9,21"/>
				<path class="st39" d="M726.1,629.6c0,0,9.3,18,10.7,46.5"/>
			</g>
			<g>
				<polygon class="st22" points="304,595.9 319.4,579.4 336.2,625.4 313.9,605 				"/>
				<path class="st19" d="M346.1,695c11.7-32.7,31-91.6,18-92.1c-17.9-0.7-19,13.9-19,13.9l-30,66.2
					C325.3,687.5,335.7,691.3,346.1,695z"/>
				<g>
					<path class="st40" d="M444.2,782.2c-0.1-0.9-9.2-90.4-10.5-102c-0.1-1.2-0.3-3-0.5-5.2c-1.3-15-4.8-54.7-18.9-65.6
						c-2.7-2.1-5.6-3-8.9-2.7l-0.2-2.5c3.9-0.3,7.6,0.8,10.9,3.3c15,11.6,18.4,50.7,19.9,67.4c0.2,2.2,0.3,4,0.5,5.2
						c1.4,11.6,10.4,101.1,10.5,102L444.2,782.2z"/>
				</g>
				<polygon class="st19" points="329.1,711.4 304.4,1065.5 325.7,1068.3 423.2,721.5 				"/>
				<polyline class="st19" points="391.7,576.1 391.6,603.6 375.2,603.1 379,581.4 				"/>
				<path class="st19" d="M424,812.6c-20.6,5.1-41.2,10.1-62.2,13.6l98.8,236.9l20.6-5.8l-48.1-247.1
					C430.1,811.1,427,811.9,424,812.6z"/>
				<path class="st41" d="M408.1,606.6l0-0.1l-9.5-2.2l-10.5-1.1l-19.7-0.9l-1,0.1l-3.4,0.5c0,0-10.9,3.8-18.9,16.4l-20.1,22.8
					c0,0-1,8.1,10.5,11.5c-0.8,5.8-1.6,12-2.3,18.1l47.6,1.9l-0.6,2.5c6.6-0.8,13.2-1.3,19.8-1.8l15.7,0.6l2.1,3.6l-0.7-5.4
					c2.7-0.2,5.5-0.4,8.2-0.6c0.6,0,1.1-0.1,1.7-0.2c0.3-0.9,0.6-1.9,0.8-2.8c0.8-2.9,1.4-5.7,1.6-8.2c0-0.4,0.1-0.9,0.1-1.3
					C429.6,652.2,434.9,611.5,408.1,606.6z"/>
				<path class="st22" d="M536.2,1025.4c0,0.6-3.3,1.7-8.7,3c-10.8,3.6-30.9,9.8-55.9,15.4c-1.8,0.4-3.5,0.8-5.4,1.2
					c-21.6,4.6-46.5,8.7-71.9,10.2c-4.2,0.3-8.3,0.4-12.2,0.5c-1.9,0-3.7,0.1-5.5,0.1c-22.1,0.1-39.4-2.1-52.4-5
					c-1.9-0.4-3.7-0.8-5.4-1.3c-18.7-4.8-26.9-10.5-26.9-10.5s11-120,12.8-142.1c1.8-22.1,24.9-187.6,24.9-187.6
					c0.5-6,1.3-15.3,2.4-25.5l13.8,0.3l5.5,0.1l23.9,0.5l3,0.1l0.2-0.8l0.7-2.8c8.5-0.3,17-0.7,25.5-1.1c1.8-0.1,3.6-0.2,5.4-0.3
					c4.9-0.3,9.9-0.6,14.8-1c-1.5,4.1-2.9,7-2.9,7s11,16,16.5,61.9c0.3,2.8,0.4,5.8,0.2,9L462.1,908
					C462.1,908,536.2,1022,536.2,1025.4z"/>
				<g>
					<path class="st42" d="M471.7,1043.9c-1.8,0.4-3.5,0.8-5.4,1.2c-5.6-17.6-11.2-35.2-16.8-52.8c-10.6-33.2-24.4-66.5-26.1-101.3
						c-3.4-70.5-11.6-140.6-18.8-210.9c1.8-0.1,3.6-0.2,5.4-0.3c7.1,68.6,16.1,137.4,18.6,206.2c1.4,37.1,15.6,72.1,26.8,107.4
						C460.9,1010.1,466.3,1027,471.7,1043.9z"/>
					<g>
						<path class="st42" d="M351.4,684.2c-12.5,65.9-15.6,132.9-18.9,199.7c-2.8,55.6-5.5,111.3-8.3,166.9c-1.9-0.4-3.7-0.8-5.4-1.3
							c2.8-56.9,5.7-113.8,8.5-170.7c3.2-65.2,6.5-130.5,18.6-194.8L351.4,684.2z"/>
					</g>
					<g class="st43">
						<path class="st18" d="M382.1,1055.7c-1.9,0-3.7,0.1-5.5,0.1c-14.9-122.6-8.6-246.4-2.1-369.5c0.1-0.7,0.3-1.2,0.7-1.6
							c0.8-0.8,2.1-1.1,3.2-0.7c0.9,0.3,1.7,1.1,1.6,2.3C373.5,809.3,367.1,933.2,382.1,1055.7z"/>
					</g>
				</g>
				<g>
					<polygon class="st19" points="422,685.7 417.9,678.6 418.9,685.6 					"/>
					<path class="st19" d="M417.9,678.6l-2.1-3.6l-82.6-3.3c-0.5,4.1-0.9,8.2-1.3,12.1l86.9,1.8L417.9,678.6z"/>
				</g>
				<g>
					<g>
						<path class="st19" d="M402.5,577.5c-0.1,9.3-8.3,16.8-18.3,16.7c-11-0.1-15.3-0.9-17-4.4c-0.6-1.2-0.8-2.8-1-4.8
							c-0.1-2.1-0.1-4.7,0-7.8c0.1-9.3,8.3-16.8,18.3-16.7C394.5,560.6,402.6,568.2,402.5,577.5z"/>
						<path class="st44" d="M374,577.4c0.3,3.9-1,5.3-0.5,6.2c0.4,0.9,1.8,0.7,2.7,0"/>
						<path class="st44" d="M380.2,574.1c0,0,3.7-2.3,9.1,1.7"/>
						<path class="st44" d="M374,573.5c0,0-2.3-2.2-6.8-1"/>
					</g>
					<g>
						<path class="st24" d="M369.4,580.1c1.8,0,1.8-3.8,0-3.8C367.7,576.3,367.7,580.1,369.4,580.1L369.4,580.1z"/>
					</g>
					<g>
						<path class="st24" d="M381.8,581.9c1.8,0,1.8-3.8,0-3.8C380,578.2,380,581.9,381.8,581.9L381.8,581.9z"/>
					</g>
					<path class="st44" d="M373.4,587.9c2.7,1.4,5.3,0.8,6.8-1.2"/>
				</g>
				<g>
					<path class="st45" d="M326.5,1071.7l-23.9-6.5c-3,0-33.1,0.1-35.4,3.4c-2.4,3.4,55.7,19.4,55.7,19.4L326.5,1071.7z"/>
					<polygon class="st45" points="329.2,1059.7 303.9,1057.2 302.6,1065.2 326.5,1071.7 					"/>
				</g>
				<g>
					<path class="st45" d="M483.7,1063.6L459,1067c-2.7,1.2-30.1,12.9-30.7,16.8c-0.6,4,59.3-4,59.3-4L483.7,1063.6z"/>
					<polygon class="st45" points="480.7,1051.7 456.6,1059.2 459,1067 483.7,1063.6 					"/>
				</g>
				<path class="st19" d="M398.7,604.4c-2.9,3-6.6,7.1-10.2,11.4c-6.9,8.5-18,8.2-29.9,5.6c-9.7-2.1,3.6-14.3,8.9-18.8l1-0.1
					l19.7,0.9L398.7,604.4z"/>
				<path class="st18" d="M343.6,777.8h105.3c0,0,15.7,33.4,5.4,49.9c-6.9,11.1-31.6,7.6-58.1,7.6c-19.8,0-46.2,2.5-54.2-4.8
					C323.4,813.6,343.6,777.8,343.6,777.8z"/>
				<path class="st46" d="M344.7,781l-2,26.6c-0.2,2.4,1.9,4.4,4.5,4.4l98-0.2c2.6,0,4.6-2,4.4-4.4l-2-26"/>
				<g>
					<path class="st18" d="M346.7,780.2l-2.7-0.4c0.2-1,19.7-99.6,25.3-117.7c0.7-2.4,18.3-58,38.7-58c0.1,0,0.1,0,0.2,0l-0.1,2.5
						c0,0-0.1,0-0.1,0c-13.6,0-29,33.5-36,56.2C366.4,680.7,346.9,779.2,346.7,780.2z"/>
				</g>
				<g>
					<path class="st24" d="M398.4,578.9c0.8,1.6,1,3.5-0.2,4.9c-1.2,1.4-3.1,2.1-5.1,2.1c-0.4,2.4-0.9,4.9-1.3,7.3
						c5.5,1.1,11.1-0.9,15.9-3.5c2.3-1.3,4.7-2.8,6-4.9c2.1-3.2,1.6-7.6-0.9-10.6c-1.3-1.6-3.2-2.8-4.5-4.4c-1.3-1.6-2.1-3.9-1-5.7
						c-3-0.5-5.1-2.8-7.3-4.7c-3.9-3.4-8.8-5.7-14.1-6.4c-5.3-0.6-10.8,0.6-14.9,3.7c-2,1.5-3.7,3.8-2.9,6c0.5,1.7,2.3,2.8,4.2,3.2
						c1.8,0.4,3.7,0.2,5.6,0.1c2.6-0.1,5.2,0,7.7,0.3c2.2,0.3,4.8,1.1,5.1,3.1c0.2,1.4-0.7,3,0.4,4c0.7,0.7,1.9,0.6,2.5,1.4
						c0.5,0.6,0.2,1.5-0.3,2.2c-0.4,0.7-1,1.3-1.1,2.1c-0.1,0.8,0.7,1.7,1.5,1.4c0.9-0.4,0.6-1.7,1.2-2.4
						C395.8,577.3,397.6,577.2,398.4,578.9z"/>
				</g>
				<g>
					<path class="st24" d="M405.4,565.1c0.6-0.1,1-0.7,1.1-1.3c1-4.2-1.4-8.8,0.3-12.9c0.8-2,2.7-3.7,5-4.3c2.2-0.6,4.8-0.3,6.7,1
						c0.9,0.6,1.6,1.3,2.3,2.1c1.7,2.2,2.7,5,2.1,7.7c-0.4,1.9-1.5,3.7-2.6,5.3c-0.3,0.5-0.7,0.9-1.2,1.3c-0.5,0.3-1.2,0.4-1.8,0.5
						c-4.6,0.5-9.7-0.4-13.5,2"/>
				</g>
				<path class="st19" d="M308.1,621.8c0,0-15.7,64.2-3.5,79.4c12.2,15.2,30,3.1,27.3-18.9l-13-59.2
					C318.8,623.1,313.7,622.8,308.1,621.8z"/>
				<path class="st44" d="M326.9,659.7c3.8,12,5.1,24.1,5.1,24.1"/>
				<polygon class="st19" points="304.5,612.9 307,603.5 311.9,614.3 				"/>
				<path class="st8" d="M305.8,595.4c0.3-0.2,14.9-15.2,15.4-15.2c0.5,0.1,8.3,19.5,8,19.5C328.9,599.9,305.8,595.4,305.8,595.4z"
					/>
				<polygon class="st20" points="304.7,595.9 323.9,581 333.3,605.9 310.6,600.7 				"/>
				<path class="st8" d="M305.2,596.1c0.3,0,25.6-10.9,25.6-10.9s7.1,23.5,6.9,23.4c-0.3-0.2-23.7-6.7-23.7-6.7L305.2,596.1z"/>
				<polygon class="st22" points="317.5,631.6 304,595.9 333.6,589.6 346.8,630.9 				"/>
				<path class="st19" d="M305.4,612c0.5-0.1,19.4-5,20.4-2.9c1,2-12.4,5.5-12.4,5.5s14.7-3.3,15.3-1.1c0.5,2.2-14.5,5.7-14.5,5.7
					s12.3-2.9,12.6-1.2c0.2,1.7-11.3,4.6-11.3,4.6s7.1-2.1,6.8,0.5c-0.3,2.6-8.8,3.5-11.5,4.3c-4.3,1.2-8.3-10-6.6-14
					C304.4,612.7,304.8,612.2,305.4,612z"/>
				<g>
					<g>
						<g>
							<path class="st19" d="M399.9,785.7l-17.3,7.3c0,0,0.4,3.4,7.4,1.6c7-1.7,17.3-6.9,17.3-6.9L399.9,785.7z"/>
						</g>
						<path class="st19" d="M399.5,785.8c0,0-9.4,18.4-8.6,19.6c0.8,1.2,3.1-1.6,3.7-0.8c0.6,0.8-1,3.7,0.8,4.7
							c1.8,1,3.9-2.1,3.9-2.1s-1.3,3.7,0.4,4.8c1.7,1.1,3.9-2.9,3.9-2.9s-1.5,2.7,0.2,4.2c1.7,1.5,4.7-3.7,6.5-7.8
							c1.8-4.2,3.2-13.7-0.7-15.9C405.7,787.5,399.5,785.8,399.5,785.8z"/>
						<path class="st19" d="M439.4,712.4c0.6-12.2-3.9-54.2-4.8-68.9c-0.9-14.7-5-37.7-27.6-35.5c-24.1,3.2,2.3,111.7,2.3,111.7
							l-9.8,66.1l12,6.8C411.5,792.6,438.8,724.7,439.4,712.4z"/>
					</g>
				</g>
			</g>
		</g>
	</g>
	<g>
		<g>
			<g>
				<g>
					<polygon class="st8" points="412.9,505.9 412.5,505.9 412,499.6 412.5,499.6 					"/>
					<polygon class="st8" points="402,505.9 402.5,505.9 402.9,499.6 402.5,499.6 					"/>
				</g>
				<g>
					<g>
						<g>
							<g>
								<path class="st8" d="M400.6,505.8c0,4.9,1.2,8.8,6.9,8.8c5.8,0,6.9-3.9,6.9-8.8H400.6z"/>
							</g>
						</g>
						<path class="st8" d="M407.5,514.6c5.8,0,6.9-3.9,6.9-8.8h-6.9C407.5,505.8,413.5,507.6,407.5,514.6z"/>
					</g>
					<g>
						<g>
							<g>
								<path class="st8" d="M414.4,505.8c0,0.3-3.1,0.6-6.9,0.6c-3.8,0-6.9-0.3-6.9-0.6c0-0.3,3.1-0.6,6.9-0.6
									C411.3,505.1,414.4,505.4,414.4,505.8z"/>
								<path class="st8" d="M414.4,505.8c0,0.3-3.1,0.6-6.9,0.6c-3.8,0-6.9-0.3-6.9-0.6c0-0.3,3.1-0.6,6.9-0.6
									C411.3,505.1,414.4,505.4,414.4,505.8z"/>
								<path class="st8" d="M414,505.8c0,0.2-3,0.4-6.6,0.4c-3.6,0-6.4-0.2-6.4-0.4c0-0.2,2.9-0.5,6.5-0.5
									C411.1,505.3,414,505.6,414,505.8z"/>
							</g>
						</g>
					</g>
				</g>
			</g>
			<g>
				<g>
					<path class="st8" d="M432.3,455.2c-7-14.6-24.8-14.4-24.8-14.4s-17.8-0.1-24.8,14.4c-7,14.6,3.5,26.9,6.5,29.5
						c3,2.6,11.8,8.9,12.4,12.2c0.6,3.3,0,4.2,5.9,4.5c5.9-0.3,5.2-1.2,5.9-4.5c0.6-3.3,9.5-9.6,12.4-12.2
						C428.7,482.1,439.3,469.7,432.3,455.2z"/>
					<g>
						<path class="st47" d="M411.8,441.1c-0.1,0-0.2,0-0.4-0.1c4.2,1.8,14.5,8.1,12,26.3c-3.1,22.4-11.2,18.9-12.9,33.7
							c0.3-0.1,0.5-0.1,0.7-0.2c0.1-1.9,1.1-7.5,8.7-14.6C428,478.8,439.7,450.8,411.8,441.1z"/>
						<path class="st47" d="M408.4,501.3c0.3,0,0.6,0,0.8-0.1c0.7-3.5,3.7-19.1,6.6-26.1c3.2-7.9,4.9-26.8-7.6-34.4
							c0,0,5.7,10.5,3.2,25.7C409.1,480.6,408.5,498.6,408.4,501.3z"/>
						<path class="st47" d="M399.2,475.2c2.9,7,5.9,22.6,6.6,26.1c0.3,0,0.5,0,0.8,0.1c-0.1-2.7-0.7-20.8-3-34.8
							c-2.4-15.2,3.2-25.7,3.2-25.7C394.3,448.4,395.9,467.3,399.2,475.2z"/>
						<path class="st47" d="M403.5,441.1c-0.1,0-0.2,0-0.4,0.1c-27.9,9.7-16.1,37.6-8.1,45.2c7.6,7.1,8.6,12.8,8.7,14.6
							c0.2,0.1,0.4,0.1,0.7,0.2c-1.7-14.8-9.8-11.3-12.9-33.7C389,449.2,399.3,442.9,403.5,441.1z"/>
					</g>
				</g>
				<path class="st8" d="M413.1,498.3c-6.4,1-11.2,0-11.2,0l0,0c0.4,2.2,0.7,2.8,5.6,3.1C412.4,501.2,412.7,500.5,413.1,498.3z"/>
			</g>
		</g>
		<g>
			<g>
				<g>
					<polygon class="st8" points="640.4,543.8 640.1,543.8 639.8,540.1 640.1,540.1 					"/>
					<polygon class="st8" points="633.9,543.8 634.2,543.8 634.4,540.1 634.2,540.1 					"/>
				</g>
				<g>
					<g>
						<g>
							<g>
								<path class="st8" d="M633,543.7c0,2.9,0.7,5.2,4.1,5.2c3.5,0,4.1-2.3,4.1-5.2H633z"/>
							</g>
						</g>
						<path class="st8" d="M637.1,549c3.5,0,4.1-2.3,4.1-5.2h-4.1C637.1,543.7,640.7,544.8,637.1,549z"/>
					</g>
					<g>
						<g>
							<g>
								<path class="st8" d="M641.2,543.7c0,0.2-1.8,0.4-4.1,0.4c-2.3,0-4.1-0.2-4.1-0.4c0-0.2,1.8-0.4,4.1-0.4
									C639.4,543.4,641.2,543.5,641.2,543.7z"/>
								<path class="st8" d="M641.2,543.7c0,0.2-1.8,0.4-4.1,0.4c-2.3,0-4.1-0.2-4.1-0.4c0-0.2,1.8-0.4,4.1-0.4
									C639.4,543.4,641.2,543.5,641.2,543.7z"/>
								<path class="st8" d="M641,543.7c0,0.1-1.8,0.2-3.9,0.2c-2.1,0-3.8-0.1-3.8-0.2c0-0.1,1.7-0.3,3.9-0.3
									C639.3,543.5,641,543.6,641,543.7z"/>
							</g>
						</g>
					</g>
				</g>
			</g>
			<g>
				<g>
					<path class="st8" d="M651.8,513.7c-4.2-8.6-14.7-8.6-14.7-8.6s-10.5-0.1-14.7,8.6c-4.2,8.6,2.1,16,3.9,17.5
						c1.8,1.6,7,5.3,7.4,7.2c0.4,2,0,2.5,3.5,2.6c3.5-0.2,3.1-0.7,3.5-2.6c0.4-2,5.6-5.7,7.4-7.2C649.7,529.7,656,522.4,651.8,513.7
						z"/>
					<g>
						<path class="st47" d="M639.7,505.4c-0.1,0-0.1,0-0.2,0c2.5,1.1,8.6,4.8,7.1,15.6c-1.8,13.3-6.6,11.2-7.6,20
							c0.2,0,0.3-0.1,0.4-0.1c0.1-1.1,0.6-4.4,5.1-8.7C649.3,527.7,656.3,511.2,639.7,505.4z"/>
						<path class="st47" d="M637.7,541.1c0.2,0,0.3,0,0.5,0c0.4-2.1,2.2-11.3,3.9-15.5c1.9-4.7,2.9-15.9-4.5-20.4
							c0,0,3.4,6.2,1.9,15.3C638.1,528.8,637.7,539.5,637.7,541.1z"/>
						<path class="st47" d="M632.2,525.6c1.7,4.1,3.5,13.4,3.9,15.5c0.1,0,0.3,0,0.5,0c-0.1-1.6-0.4-12.3-1.8-20.7
							c-1.5-9,1.9-15.3,1.9-15.3C629.3,509.7,630.3,520.9,632.2,525.6z"/>
						<path class="st47" d="M634.8,505.4c-0.1,0-0.1,0-0.2,0c-16.5,5.8-9.6,22.3-4.8,26.8c4.5,4.2,5.1,7.6,5.1,8.7
							c0.1,0,0.3,0.1,0.4,0.1c-1-8.8-5.8-6.7-7.6-20C626.2,510.2,632.3,506.4,634.8,505.4z"/>
					</g>
				</g>
				<path class="st8" d="M640.5,539.3c-3.8,0.6-6.7,0-6.7,0l0,0c0.2,1.3,0.4,1.7,3.3,1.8C640,541,640.2,540.6,640.5,539.3z"/>
			</g>
		</g>
	</g>
	<g>
		<g>
			<defs>
				<ellipse id="SVGID_7_" cx="486.5" cy="489.6" rx="40.5" ry="37.6"/>
			</defs>
			<clipPath id="SVGID_8_">
				<use xlink:href="#SVGID_7_"  style="overflow:visible;"/>
			</clipPath>
			<g class="st48">
				<defs>
					<rect id="SVGID_9_" x="419.8" y="450.4" width="133.4" height="78"/>
				</defs>
				<clipPath id="SVGID_10_">
					<use xlink:href="#SVGID_9_"  style="overflow:visible;"/>
				</clipPath>
				<g class="st49">
					<rect x="419.8" y="450.4" class="st28" width="133.4" height="78"/>
					<g>
						<g>
							<polygon class="st1" points="431,447.4 441.3,437.9 541.9,531.4 531.7,540.9 							"/>
							<polygon class="st1" points="431,531.4 531.7,437.9 541.9,447.4 441.3,540.9 							"/>
							<polygon class="st22" points="436.3,447.4 441.3,442.8 536.6,531.4 531.7,536 							"/>
							<polygon class="st22" points="531.7,442.8 536.6,447.4 441.3,536 436.3,531.4 							"/>
						</g>
						<rect x="473.8" y="435.2" class="st1" width="25.3" height="108.5"/>
						<rect x="406.8" y="477.7" class="st1" width="159.4" height="23.5"/>
						<rect x="476.9" y="438" class="st22" width="19.2" height="102.8"/>
						
							<rect x="477.5" y="412.8" transform="matrix(-1.836970e-16 1 -1 -1.836970e-16 975.8717 2.9588)" class="st22" width="17.8" height="153.3"/>
					</g>
				</g>
			</g>
		</g>
		<g>
			<rect x="578.6" y="535.2" class="st24" width="18.4" height="4"/>
			<path class="st18" d="M596.8,532.4l-9,1.1l-9-1.1c-5.9-8.8-13.2-32.9,9-32.9S603.4,523.8,596.8,532.4z"/>
			<path class="st50" d="M586.2,533.6c-2.2-2.7-2.8-7-2.5-11c0.1-1.5,0.3-3.1,1-4.3c0.7-1.2,1.9-2.1,3-1.6c0.8,0.3,1.4,1.2,1.7,2.2
				c0.3,1,0.4,2.1,0.4,3.1c0,0.8-0.1,1.7-0.6,2c-0.2,0.1-0.5,0.1-0.8,0c-0.9-0.4-1.3-2.1-0.9-3.3s1.2-2.1,2.2-2.6
				c1.2-0.7,2.8-0.8,3.7,0.5c0.4,0.6,0.6,1.3,0.7,2.1c0.3,2.5-0.6,5-1.6,7.2c-1,2.2-2.1,4.4-2.3,7"/>
			<rect x="577.4" y="531.6" class="st24" width="20.8" height="4"/>
			<path class="st24" d="M594.3,537.8h-12.9v4.8c0,2.3,1.8,4.1,4.1,4.1h4.7c2.3,0,4.1-1.8,4.1-4.1V537.8z"/>
		</g>
		<g>
			<path class="st51" d="M360.3,528.4h-54.2c-8.7,0-15.8-7.1-15.8-15.8v-15.7c0-8.7,7.1-15.8,15.8-15.8h54.2
				c8.7,0,15.8,7.1,15.8,15.8v15.7C376,521.3,369,528.4,360.3,528.4z"/>
			<path class="st51" d="M335.6,524.4c0,16.1,24.9,15.3,24.9,15.3s-11.7-2.6-11.7-18.7L335.6,524.4z"/>
		</g>
		<path class="st22" d="M630.1,592.7c0,0,6-14.8,14.1-12.2c8.1,2.5-13.3,29.7-13.3,29.7s-22.2-17.7-16.1-23.5
			C620.8,580.9,630.1,592.7,630.1,592.7z"/>
		<path class="st28" d="M454.1,591.2c0-1.4,2.1-1.5,4.9-4.3c2.8-2.8,2.7-4.8,4.1-4.9c1.6-0.1,1.9,2.4,5.6,5.2c2.6,2,4.2,2,4.3,3.1
			c0.1,1.4-2.6,1.7-5.4,4.7c-2.3,2.5-2.3,4.4-3.6,4.5c-1.3,0.1-1.7-1.7-4.5-4.1C456.3,592.6,454.1,592.6,454.1,591.2z"/>
		<g>
			<path class="st22" d="M782.4,487.4v4.3c0,10.7-9.4,19.4-20.9,19.4h-36.6c-11.6,0-20.9-8.7-20.9-19.4v-4.3
				c0-10.7,9.4-19.4,20.9-19.4h36.6C773,468,782.4,476.7,782.4,487.4z"/>
			<path class="st22" d="M741,507.5c0,14.7-22.8,14-22.8,14s10.7-2.4,10.7-17.1L741,507.5z"/>
		</g>
	</g>
	<text transform="matrix(1.0757 0 0 1 305.7686 510.7412)" class="st1 st52 st53">Hello!</text>
	<text transform="matrix(1.0757 0 0 1 722.0908 495.3638)" class="st1 st52 st54 st55">Who</text>
</g>
</svg>
