<svg id="Calque_1" data-name="Calque 1" xmlns="http://www.w3.org/2000/svg" viewBox="0 0 1000 1000"><defs><style>.cls-1{fill:#c4192d;}.cls-2{fill:#fff;}</style></defs><rect class="cls-1" x="-8.12" y="-8.12" width="1016.24" height="1016.24"/><path class="cls-2" d="M179.67,90.53V245h14v41h-14v61.83h-42.8V286H63.09V251.21L127.74,90.53ZM106.53,245h30.34V168Z"/><path class="cls-2" d="M309.69,164.09l3.12,23.57h-11L300,174h-8l-1.83,13.66h-11l3.12-23.47L288.88,122h14.18Zm-11.13-.59-2.62-19.89-2.63,19.89Z"/><path class="cls-2" d="M346.05,174.5q0,14.17-14.18,14.21T317.73,174.5V135.11q0-14.18,14.14-14.17t14.18,14.17v9.32H335.12v-9.32q0-3.68-3.21-3.7h-.07q-3.18,0-3.18,3.7V174.5q0,3.7,3.21,3.71t3.25-3.71v-9.32h10.93Z"/><path class="cls-2" d="M381.27,174.5q0,14.17-14.18,14.21T352.94,174.5V135.11q0-14.18,14.15-14.17t14.18,14.17v9.32H370.34v-9.32c0-2.45-1.08-3.68-3.22-3.7h-.07q-3.18,0-3.18,3.7V174.5q0,3.7,3.22,3.71c2.16,0,3.25-1.24,3.25-3.71v-9.32h10.93Z"/><path class="cls-2" d="M388.81,122h25.73v10.47h-14.8v17.13h12.74v10.51H399.74v17.13h14.8v10.47H388.81ZM390,111.16h8.47l10.44,9.61h-9.39L390,114.6Z"/><path class="cls-2" d="M419.14,135.11q0-14.18,14.14-14.17t14.18,14.17v9.32H436.53v-9.32q0-3.68-3.22-3.7h-.06q-3.18,0-3.18,3.7V141q0,4,8.4,10,9,6.39,9,15.36v8.14q0,14.2-14.15,14.21T419.14,174.5v-9.32h10.93v9.32q0,3.7,3.24,3.71t3.22-3.71v-7.35q0-4.36-8.4-10.41-9-6.39-9-15.59Z"/><path class="cls-2" d="M500.3,164.09l3.12,23.57h-11L490.58,174h-8l-1.83,13.66h-11l3.12-23.47L479.49,122h14.18Zm-25.4-52.93h8.46l10.44,9.61h-9.39l-9.51-6.17Zm14.27,52.34-2.62-19.89-2.63,19.89Z"/><path class="cls-2" d="M552.48,174.5q0,14.17-14.18,14.21T524.16,174.5V122h10.92V174.5c0,2.47,1.08,3.71,3.22,3.71s3.25-1.24,3.25-3.71V122h10.93Z"/><path class="cls-2" d="M560.68,122h10.8l7.29,32.36V122H589v65.71H578.21l-7-31.48v31.48H560.68Z"/><path class="cls-2" d="M597.54,122h25.73v10.47h-14.8v17.13H621.2v10.51H608.47v17.13h14.8v10.47H597.54Z"/><path class="cls-2" d="M646.83,122h25.73v10.47h-14.8v17.13h12.73v10.51H657.76v17.13h14.8v10.47H646.83Zm24.55-7.35-9.52,6.17h-9.38l10.43-9.61h8.47Z"/><path class="cls-2" d="M677.81,122h15.13q13.2,0,13.19,14.22v37.31q0,14.15-13.75,14.18H677.81Zm10.93,10.47v44.77H692c2.14,0,3.22-1.24,3.22-3.71V136.17c0-2.5-1.08-3.75-3.22-3.75Z"/><path class="cls-2" d="M742,174.5q0,14.17-14.17,14.21T713.68,174.5V122h10.93V174.5q0,3.7,3.22,3.71c2.16,0,3.25-1.24,3.25-3.71V122H742Z"/><path class="cls-2" d="M777.87,174.5q0,14.17-14.17,14.21T749.55,174.5V135.11q0-14.18,14.15-14.17t14.17,14.17v9.32H767v-9.32c0-2.45-1.08-3.68-3.22-3.7h-.07q-3.18,0-3.18,3.7V174.5q0,3.7,3.22,3.71c2.16,0,3.25-1.24,3.25-3.71v-9.32h10.92Z"/><path class="cls-2" d="M813.06,164.09l3.11,23.57h-11L803.34,174h-8l-1.84,13.66h-11l3.12-23.47L792.25,122h14.18Zm-11.13-.59-2.62-19.89-2.63,19.89Z"/><path class="cls-2" d="M846.43,122v10.47h-8.69v55.24H826.81V132.42h-8.7V122Z"/><path class="cls-2" d="M852.5,122h10.93v65.71H852.5Z"/><path class="cls-2" d="M899.79,174.5q0,14.17-14.17,14.21T871.47,174.5V135.11q0-14.18,14.15-14.17t14.17,14.17Zm-10.92-39.39c0-2.45-1.08-3.68-3.22-3.7h-.07q-3.18,0-3.18,3.7V174.5q0,3.7,3.22,3.71c2.16,0,3.25-1.24,3.25-3.71Z"/><path class="cls-2" d="M907.67,122h10.8l7.28,32.36V122H936v65.71H925.2l-7-31.48v31.48H907.67Z"/><path class="cls-2" d="M282.06,206h15.12q13.2,0,13.2,14.21v37.31q0,14.14-13.75,14.18H282.06ZM293,216.44V261.2h3.25c2.15,0,3.22-1.23,3.22-3.71V220.18q0-3.74-3.22-3.74Z"/><path class="cls-2" d="M318.25,206H344v10.47h-14.8v17.13h12.74v10.5H329.18V261.2H344v10.47H318.25Z"/><path class="cls-2" d="M395.21,258.51q0,12.64-10.14,13.92c.05.59,3.43.9,10.14.95v9.06q-9.29,0-12.57-1.71-4.39-2.24-4.49-8.17-11.26-.82-11.26-14.05V219.13Q366.89,205,381,205t14.17,14.18Zm-10.93-39.38q0-3.67-3.21-3.71H381q-3.18,0-3.18,3.71v39.38q0,3.71,3.22,3.71t3.24-3.71Z"/><path class="cls-2" d="M431.08,258.51q0,14.17-14.17,14.21t-14.15-14.21V206h10.93v52.54q0,3.71,3.22,3.71c2.16,0,3.25-1.24,3.25-3.71V206h10.92Z"/><path class="cls-2" d="M466.92,248.11,470,271.67H459L457.21,258h-8l-1.84,13.65h-11l3.12-23.46L446.11,206h14.18Zm-11.12-.59-2.63-19.89-2.63,19.89Z"/><path class="cls-2" d="M475.62,271.67V206h10.93V261.2h14.8v10.47Z"/><path class="cls-2" d="M507.09,206H518v65.7H507.09Z"/><path class="cls-2" d="M552.41,206v10.47h-8.69v55.23H532.79V216.44h-8.7V206Z"/><path class="cls-2" d="M558.32,206h25.73v10.47h-14.8v17.13H582v10.5H569.25V261.2h14.8v10.47H558.32Zm24.55-7.35-9.52,6.17H564l10.44-9.62h8.47Z"/><polygon class="cls-2" points="633.02 455.05 457.6 556.88 457.6 855.3 633.02 798.84 633.02 455.05"/><polygon class="cls-2" points="254.35 455.05 429.77 556.88 429.77 855.3 254.35 798.84 254.35 455.05"/><path class="cls-2" d="M792.32,473.2V443.46a26.72,26.72,0,0,0-53.44,0V473.2Z"/><polygon class="cls-2" points="792.32 484.29 792.32 814.52 790.52 817.66 765.6 860.79 740.67 817.66 738.88 814.52 738.88 484.29 792.32 484.29"/><polygon class="cls-2" points="690.49 824.38 439.51 907.33 207.68 832.89 207.68 477.29 235.69 449.28 235.69 812.45 439.4 877.87 662.26 804.22 658.51 465.64 658.34 449.56 686.68 477.9 686.85 493.98 690.49 824.38"/></svg>