<?xml version="1.0" encoding="utf-8"?>
<!-- Generator: Adobe Illustrator 25.0.0, SVG Export Plug-In . SVG Version: 6.00 Build 0)  -->
<svg version="1.1" id="Calque_1" xmlns="http://www.w3.org/2000/svg" xmlns:xlink="http://www.w3.org/1999/xlink" x="0px" y="0px"
	 viewBox="0 0 1000 1000" style="enable-background:new 0 0 1000 1000;" xml:space="preserve">
<style type="text/css">
	.st0{fill:#C4192D;}
	.st1{fill:#FFFFFF;}
	.st2{display:none;}
	.st3{display:inline;fill:#FFFFFF;}
	.st4{font-family:'Arial-Black';}
	.st5{font-size:102.238px;}
</style>
<rect x="-8.1" y="-8.1" class="st0" width="1016.2" height="1016.2"/>
<path class="st1" d="M179.7,90.5V245h14v41h-14v61.8h-42.8V286H63.1v-34.8l64.6-160.7H179.7z M106.5,245h30.3v-77L106.5,245z"/>
<polygon class="st1" points="633,455 457.6,556.9 457.6,855.3 633,798.8 "/>
<polygon class="st1" points="254.4,455 429.8,556.9 429.8,855.3 254.4,798.8 "/>
<path class="st1" d="M792.3,473.2v-29.7c0-14.8-12-26.7-26.7-26.7c-14.8,0-26.7,12-26.7,26.7v29.7H792.3z"/>
<polygon class="st1" points="792.3,484.3 792.3,814.5 790.5,817.7 765.6,860.8 740.7,817.7 738.9,814.5 738.9,484.3 "/>
<polygon class="st1" points="690.5,824.4 439.5,907.3 207.7,832.9 207.7,477.3 235.7,449.3 235.7,812.5 439.4,877.9 662.3,804.2 
	658.5,465.6 658.3,449.6 686.7,477.9 686.8,494 "/>
<text transform="matrix(0.6861 0 0 1 243.584 225.6948)" class="st2"><tspan x="0" y="0" class="st3 st4 st5">ALPHABETISATION</tspan><tspan x="0" y="122.7" class="st3 st4 st5">DE QUALITE</tspan></text>
<g>
	<path class="st1" d="M279.6,213.6H262l-2.4,12.1h-15.8l18.9-73.2h16.9l18.9,73.2h-16.2L279.6,213.6z M276.4,197.8l-5.5-26.3
		l-5.5,26.3H276.4z"/>
	<path class="st1" d="M303.3,152.5h15.5v55.2H343v18h-39.7V152.5z"/>
	<path class="st1" d="M350,152.5h25.8c5.6,0,9.8,1.9,12.6,5.8c2.8,3.9,4.2,9.4,4.2,16.6c0,7.4-1.5,13.2-4.6,17.3
		c-3,4.2-7.7,6.2-14,6.2h-8.5v27.2H350V152.5z M365.6,183.7h3.8c3,0,5.1-0.8,6.3-2.3c1.2-1.5,1.8-3.5,1.8-5.8c0-2.3-0.5-4.2-1.6-5.8
		c-1.1-1.6-3-2.4-5.9-2.4h-4.4V183.7z"/>
	<path class="st1" d="M400.8,152.5h15.5v25.6h17v-25.6h15.6v73.2h-15.6v-29.6h-17v29.6h-15.5V152.5z"/>
	<path class="st1" d="M490,213.6h-17.6l-2.4,12.1h-15.8l18.9-73.2h16.9l18.9,73.2h-16.2L490,213.6z M486.8,197.8l-5.5-26.3
		l-5.5,26.3H486.8z"/>
	<path class="st1" d="M513.8,152.5h29c4.8,0,8.6,1.7,11.1,5.2s3.9,7.8,3.9,13c0,4.3-0.9,8-2.8,11.1c-1.2,2.1-3,3.7-5.4,4.9
		c3.6,1.3,6.3,3.4,8,6.5c1.7,3.1,2.6,6.9,2.6,11.6c0,3.8-0.6,7.2-1.8,10.2c-1.2,3-2.9,5.4-5,7.2c-1.3,1.1-3.3,1.9-5.9,2.4
		c-3.5,0.7-5.8,1-7,1h-26.8V152.5z M529.4,181.2h6.7c2.4,0,4.1-0.6,5.1-1.8c0.9-1.2,1.4-3,1.4-5.3c0-2.1-0.5-3.8-1.4-5
		c-0.9-1.2-2.6-1.8-5-1.8h-6.9V181.2z M529.4,210h7.9c2.7,0,4.6-0.7,5.7-2.1c1.1-1.4,1.6-3.2,1.6-5.6c0-2.2-0.5-3.9-1.6-5.2
		c-1.1-1.3-3-2-5.7-2h-7.9V210z"/>
	<path class="st1" d="M568.3,152.5h41.6v15.6h-26v11.6H608v14.9h-24.1v14.4h26.8v16.6h-42.3V152.5z"/>
	<path class="st1" d="M615.4,152.5h47.2v18.1h-15.8v55.1h-15.5v-55.1h-15.8V152.5z"/>
	<path class="st1" d="M670.2,152.5h15.5v73.2h-15.5V152.5z"/>
	<path class="st1" d="M694.2,201.5l14.8-1.3c0.3,3.5,1,6.2,2,8c1.6,3,3.9,4.4,6.9,4.4c2.2,0,3.9-0.8,5.1-2.3
		c1.2-1.5,1.8-3.3,1.8-5.3c0-1.9-0.6-3.6-1.7-5.1c-1.1-1.5-3.8-2.9-7.9-4.2c-6.8-2.2-11.7-5.2-14.6-8.9c-2.9-3.7-4.4-8.4-4.4-14.1
		c0-3.8,0.7-7.3,2.2-10.7c1.5-3.3,3.7-6,6.7-7.9c3-1.9,7.1-2.9,12.3-2.9c6.4,0,11.3,1.7,14.7,5.2c3.4,3.5,5.4,9,6,16.6l-14.6,1.2
		c-0.4-3.3-1.2-5.7-2.4-7.2c-1.2-1.5-3-2.2-5.2-2.2c-1.8,0-3.2,0.6-4.1,1.7c-0.9,1.1-1.4,2.5-1.4,4.1c0,1.2,0.4,2.2,1.1,3.1
		c0.7,1,2.5,1.9,5.2,2.7c6.8,2.1,11.6,4.3,14.6,6.5c2.9,2.2,5.1,4.9,6.4,8.1c1.3,3.2,2,6.8,2,10.8c0,4.7-0.9,9-2.7,13
		c-1.8,4-4.3,7-7.5,9c-3.2,2-7.2,3.1-12.1,3.1c-8.5,0-14.5-2.4-17.7-7.2C696.5,215,694.6,208.9,694.2,201.5z"/>
	<path class="st1" d="M778.4,213.6h-17.6l-2.4,12.1h-15.8l18.9-73.2h16.9l18.9,73.2H781L778.4,213.6z M775.2,197.8l-5.5-26.3
		l-5.5,26.3H775.2z"/>
	<path class="st1" d="M793.8,152.5h47.2v18.1h-15.8v55.1h-15.5v-55.1h-15.8V152.5z"/>
	<path class="st1" d="M848.6,152.5h15.5v73.2h-15.5V152.5z"/>
	<path class="st1" d="M873.3,189.2c0-11.9,2.3-21.2,6.9-27.9c4.6-6.7,10.9-10,19.1-10c8.4,0,14.8,3.3,19.3,9.8
		c4.5,6.5,6.8,15.7,6.8,27.5c0,8.6-1,15.6-3,21c-2,5.5-4.8,9.7-8.6,12.8c-3.7,3-8.4,4.6-14,4.6c-5.7,0-10.4-1.3-14.1-3.9
		c-3.7-2.6-6.7-6.8-9-12.5S873.3,197.7,873.3,189.2z M888.8,189.3c0,7.4,0.9,12.7,2.8,15.9c1.9,3.2,4.4,4.8,7.7,4.8
		c3.3,0,5.9-1.6,7.7-4.7c1.8-3.2,2.7-8.8,2.7-17c0-6.9-1-11.9-2.9-15.1c-1.9-3.2-4.5-4.8-7.8-4.8c-3.1,0-5.6,1.6-7.5,4.8
		C889.8,176.5,888.8,181.8,888.8,189.3z"/>
	<path class="st1" d="M933.8,152.5h14.5l18.9,40.5v-40.5h14.6v73.2h-14.6l-18.8-40.2v40.2h-14.6V152.5z"/>
	<path class="st1" d="M248.9,275.2H272c4.5,0,8.2,0.9,11,2.7c2.8,1.8,5.1,4.4,6.9,7.7c1.8,3.4,3.2,7.3,4,11.7
		c0.8,4.5,1.2,9.2,1.2,14.2c0,7.8-0.6,13.9-1.8,18.2c-1.2,4.3-2.9,7.9-5.1,10.8c-2.2,2.9-4.5,4.9-7,5.8c-3.4,1.3-6.5,2-9.2,2h-23.1
		V275.2z M264.4,291.8v40h3.8c3.2,0,5.5-0.5,6.9-1.6c1.4-1,2.4-2.9,3.2-5.5c0.8-2.6,1.2-6.8,1.2-12.7c0-7.8-0.9-13.1-2.6-15.9
		s-4.6-4.3-8.6-4.3H264.4z"/>
	<path class="st1" d="M303.3,275.2h41.6v15.6h-26v11.6H343v14.9h-24.1v14.4h26.8v16.6h-42.3V275.2z"/>
	<path class="st1" d="M421.9,337.7c1.9,2,3.2,3.2,3.8,3.7c0.9,0.7,2.1,1.6,3.6,2.5l-4.3,12.7c-2.2-1.5-4.3-3.4-6.4-5.5
		c-2.1-2.1-3.6-3.7-4.5-4.8c-3.4,2.2-7.7,3.2-12.9,3.2c-7.6,0-13.6-2.9-18.1-8.7c-5.2-6.9-7.8-16.5-7.8-28.9c0-12,2.3-21.4,6.8-28.1
		c4.6-6.7,10.9-10,19.1-10c8.3,0,14.8,3.3,19.3,9.8c4.5,6.5,6.8,15.9,6.8,28C427.4,322.6,425.6,331.2,421.9,337.7z M410.1,326.1
		c1.2-3.2,1.8-8.1,1.8-14.5c0-7.4-0.9-12.7-2.8-15.8c-1.9-3.2-4.5-4.7-7.8-4.7c-3.1,0-5.6,1.6-7.5,4.8c-1.9,3.2-2.9,8.3-2.9,15.1
		c0,8,0.9,13.6,2.8,16.8c1.9,3.2,4.4,4.8,7.7,4.8c1.1,0,2-0.1,3-0.4c-1.3-1.8-3.4-3.6-6.2-5.2l2.4-8.1c1.4,0.4,2.4,0.8,3.2,1.3
		c0.8,0.5,2.3,1.9,4.5,4.2C408.9,325,409.4,325.6,410.1,326.1z"/>
	<path class="st1" d="M468.5,275.2h15.5v43.6c0,4.3-0.5,8.4-1.4,12.2c-0.9,3.8-2.4,7.2-4.4,10.1c-2,2.9-4,4.9-6.2,6.1
		c-3,1.6-6.6,2.4-10.9,2.4c-2.4,0-5.1-0.2-8-0.7c-2.9-0.5-5.3-1.5-7.2-3c-1.9-1.5-3.7-3.6-5.3-6.3c-1.6-2.7-2.7-5.5-3.3-8.4
		c-1-4.7-1.4-8.8-1.4-12.4v-43.6h15.5v44.6c0,4,0.8,7.1,2.3,9.4c1.5,2.2,3.6,3.4,6.3,3.4c2.7,0,4.8-1.1,6.3-3.3
		c1.5-2.2,2.3-5.3,2.3-9.4V275.2z"/>
	<path class="st1" d="M522.7,336.3h-17.6l-2.4,12.1h-15.8l18.9-73.2h16.9l18.9,73.2h-16.2L522.7,336.3z M519.5,320.5l-5.5-26.3
		l-5.5,26.3H519.5z"/>
	<path class="st1" d="M546.4,275.2h15.5v55.2h24.2v18h-39.7V275.2z"/>
	<path class="st1" d="M593.8,275.2h15.5v73.2h-15.5V275.2z"/>
	<path class="st1" d="M616.9,275.2h47.2v18.1h-15.8v55.1h-15.5v-55.1h-15.8V275.2z"/>
	<path class="st1" d="M671.1,275.2h41.6v15.6h-26v11.6h24.1v14.9h-24.1v14.4h26.8v16.6h-42.3V275.2z"/>
</g>
</svg>
