<?xml version="1.0" encoding="utf-8"?>
<!-- Generator: Adobe Illustrator 25.0.0, SVG Export Plug-In . SVG Version: 6.00 Build 0)  -->
<svg version="1.1" id="Calque_1" xmlns="http://www.w3.org/2000/svg" xmlns:xlink="http://www.w3.org/1999/xlink" x="0px" y="0px"
	 viewBox="0 0 1000 1000" style="enable-background:new 0 0 1000 1000;" xml:space="preserve">
<style type="text/css">
	.st0{fill:#25BDE2;}
	.st1{fill:#FFFFFF;}
	.st2{display:none;}
	.st3{display:inline;fill:#FFFFFF;}
	.st4{font-family:'Arial-Black';}
	.st5{font-size:121.8771px;}
	.st6{fill:#BFFFA5;}
	.st7{opacity:0.31;fill:#BDC1D4;}
	.st8{fill:#CED3E7;}
	.st9{fill:#BF91EE;}
	.st10{opacity:0.69;fill:#8B96E4;}
	.st11{opacity:0.36;}
	.st12{opacity:0.69;fill:#CED3E7;}
	.st13{fill:none;stroke:#D6DAEB;stroke-width:0.9368;stroke-miterlimit:10;}
	.st14{fill:none;stroke:#1A6CB6;stroke-width:4.5648;stroke-linecap:round;stroke-linejoin:round;stroke-miterlimit:10;}
	.st15{fill:#240F0A;}
	.st16{fill:#333E40;}
	.st17{fill:#E8CBFF;}
	.st18{fill:#AC6956;}
	.st19{fill:#1A2529;}
	.st20{fill:#CB96CE;}
	.st21{fill:#9A5746;}
	.st22{fill:#FAF5FF;}
	.st23{fill:#FFC4A6;}
	.st24{fill:#F9E300;}
	.st25{fill:#F9CE00;}
	.st26{fill:#E64640;}
	.st27{fill:#CC3E39;}
	.st28{fill:#ACBFBC;}
	.st29{fill:#E66E6A;}
	.st30{fill:none;stroke:#9A5746;stroke-width:1.154;stroke-linecap:round;stroke-miterlimit:10;}
</style>
<rect x="-8.1" y="-8.1" class="st0" width="1016.2" height="1016.2"/>
<path class="st1" d="M184,296.3c0,37-18.5,55.5-55.5,55.5S73,333.3,73.1,296.3V142.1c0-37.1,18.5-55.7,55.4-55.7
	c36.9,0,55.4,18.6,55.5,55.7v36.4h-42.8v-36.4c0-9.7-4.2-14.5-12.6-14.5h-0.3c-8.3,0-12.5,4.8-12.5,14.5v54.6c3.7-3.3,11-5,21.8-5
	c1.9,0,3.9,0.1,5.9,0.3c12.6,1.3,22.5,5.8,29.6,13.5c7.1,7.7,10.7,21.3,10.8,40.7V296.3z M115.9,296.3c0,9.7,4.2,14.5,12.6,14.5
	c8.4,0,12.6-4.9,12.7-14.5v-50.1c0-8-1.3-12.5-4-13.5c-1.5-0.8-4.3-1.2-8.4-1.2c-1,0-2.1,0-3.2,0.1c-6.5,0.3-9.8,5.1-9.8,14.5
	L115.9,296.3z"/>
<path class="st1" d="M279,187.6"/>
<text transform="matrix(0.6772 0 0 1 247.9995 198.9854)" class="st2"><tspan x="0" y="0" class="st3 st4 st5">SYSTEME</tspan><tspan x="0" y="146.3" class="st3 st4 st5">D’EVALUATION</tspan></text>
<g>
	<path class="st1" d="M250.9,170.1l17.4-1.6c0.4,4.2,1.1,7.3,2.3,9.5c1.9,3.5,4.6,5.3,8.1,5.3c2.6,0,4.6-0.9,6-2.7
		c1.4-1.8,2.1-3.9,2.1-6.3c0-2.3-0.7-4.3-2-6.1c-1.3-1.8-4.5-3.5-9.3-5.1c-8-2.7-13.7-6.2-17.1-10.6c-3.4-4.4-5.2-10-5.2-16.8
		c0-4.5,0.9-8.7,2.6-12.7c1.8-4,4.4-7.1,7.9-9.4c3.5-2.3,8.4-3.4,14.5-3.4c7.5,0,13.3,2.1,17.3,6.2c4,4.1,6.3,10.7,7.1,19.8
		l-17.2,1.5c-0.5-3.9-1.4-6.8-2.9-8.6c-1.5-1.8-3.5-2.7-6.1-2.7c-2.1,0-3.7,0.7-4.8,2c-1.1,1.3-1.6,2.9-1.6,4.9
		c0,1.4,0.4,2.6,1.3,3.7c0.9,1.2,2.9,2.2,6.1,3.2c8,2.5,13.7,5.1,17.1,7.7c3.5,2.6,6,5.8,7.5,9.7c1.6,3.8,2.4,8.2,2.4,12.9
		c0,5.6-1,10.8-3.1,15.5c-2.1,4.7-5,8.3-8.8,10.7c-3.8,2.4-8.5,3.7-14.2,3.7c-10,0-17-2.9-20.9-8.6
		C253.6,186.2,251.4,178.9,250.9,170.1z"/>
	<path class="st1" d="M307.7,111.7H328l11.9,29.4l11.9-29.4H372l-23,50.7V199h-18.3v-36.5L307.7,111.7z"/>
	<path class="st1" d="M371.1,170.1l17.4-1.6c0.4,4.2,1.1,7.3,2.3,9.5c1.9,3.5,4.6,5.3,8.1,5.3c2.6,0,4.6-0.9,6-2.7
		c1.4-1.8,2.1-3.9,2.1-6.3c0-2.3-0.7-4.3-2-6.1c-1.3-1.8-4.5-3.5-9.3-5.1c-8-2.7-13.7-6.2-17.1-10.6c-3.4-4.4-5.2-10-5.2-16.8
		c0-4.5,0.9-8.7,2.6-12.7c1.8-4,4.4-7.1,7.9-9.4c3.5-2.3,8.4-3.4,14.5-3.4c7.5,0,13.3,2.1,17.3,6.2c4,4.1,6.3,10.7,7.1,19.8
		l-17.2,1.5c-0.5-3.9-1.4-6.8-2.9-8.6c-1.5-1.8-3.5-2.7-6.1-2.7c-2.1,0-3.7,0.7-4.8,2c-1.1,1.3-1.6,2.9-1.6,4.9
		c0,1.4,0.4,2.6,1.3,3.7c0.9,1.2,2.9,2.2,6.1,3.2c8,2.5,13.7,5.1,17.1,7.7c3.5,2.6,6,5.8,7.5,9.7c1.6,3.8,2.4,8.2,2.4,12.9
		c0,5.6-1,10.8-3.1,15.5c-2.1,4.7-5,8.3-8.8,10.7c-3.8,2.4-8.5,3.7-14.2,3.7c-10,0-17-2.9-20.9-8.6
		C373.8,186.2,371.6,178.9,371.1,170.1z"/>
	<path class="st1" d="M429.8,111.7h55.5v21.5h-18.6V199h-18.3v-65.7h-18.6V111.7z"/>
	<path class="st1" d="M493.5,111.7h48.9v18.6h-30.6v13.9h28.4V162h-28.4v17.2h31.5V199h-49.8V111.7z"/>
	<path class="st1" d="M552.9,111.7h24l9.3,53.1l9.2-53.1h24V199h-15v-66.5L592.9,199h-13.5l-11.5-66.5V199h-15V111.7z"/>
	<path class="st1" d="M631,111.7h48.9v18.6h-30.6v13.9h28.4V162h-28.4v17.2h31.5V199H631V111.7z"/>
	<path class="st1" d="M254.3,258h27.1c5.3,0,9.7,1.1,13,3.2c3.3,2.1,6,5.2,8.2,9.2c2.1,4,3.7,8.7,4.7,14c1,5.3,1.5,10.9,1.5,16.9
		c0,9.3-0.7,16.6-2.2,21.7c-1.4,5.1-3.4,9.4-6,12.9c-2.6,3.5-5.3,5.8-8.2,6.9c-4,1.6-7.6,2.4-10.9,2.4h-27.1V258z M272.5,277.8v47.7
		h4.5c3.8,0,6.5-0.6,8.1-1.9c1.6-1.2,2.9-3.4,3.8-6.5c0.9-3.1,1.4-8.2,1.4-15.1c0-9.2-1-15.6-3.1-19c-2-3.4-5.4-5.1-10.2-5.1H272.5z
		"/>
	<path class="st1" d="M315,256.5h17.5v19.9c0,7.3-1,13.1-3.1,17.4c-2.1,4.3-5.6,8-10.6,11.2l-3.8-10.6c3.1-2.1,5.3-4.3,6.4-6.4
		c1.2-2.1,1.8-4.6,2-7.5H315V256.5z"/>
	<path class="st1" d="M341.1,258h48.9v18.6h-30.6v13.9h28.4v17.8h-28.4v17.2h31.5v19.8h-49.8V258z"/>
	<path class="st1" d="M395,258h19.1l13.3,62.8l13.1-62.8H459l-21.9,87.2h-19.8L395,258z"/>
	<path class="st1" d="M496.6,330.8h-20.7l-2.9,14.4h-18.6l22.2-87.2h19.9l22.2,87.2h-19.1L496.6,330.8z M492.8,312l-6.5-31.4
		l-6.5,31.4H492.8z"/>
	<path class="st1" d="M524.5,258h18.3v65.8h28.5v21.5h-46.8V258z"/>
	<path class="st1" d="M615.8,258H634v52c0,5.2-0.5,10-1.6,14.6c-1.1,4.6-2.8,8.6-5.1,12s-4.8,5.8-7.3,7.2c-3.5,1.9-7.8,2.9-12.8,2.9
		c-2.9,0-6-0.3-9.4-0.9c-3.4-0.6-6.2-1.8-8.5-3.5c-2.3-1.8-4.4-4.3-6.3-7.5c-1.9-3.3-3.2-6.6-3.9-10.1c-1.1-5.6-1.7-10.5-1.7-14.7
		v-52h18.2v53.2c0,4.8,0.9,8.5,2.7,11.1c1.8,2.7,4.3,4,7.4,4c3.1,0,5.6-1.3,7.4-4c1.8-2.6,2.7-6.4,2.7-11.2V258z"/>
	<path class="st1" d="M679.6,330.8h-20.7l-2.9,14.4h-18.6l22.2-87.2h19.9l22.2,87.2h-19.1L679.6,330.8z M675.9,312l-6.5-31.4
		l-6.5,31.4H675.9z"/>
	<path class="st1" d="M697.7,258h55.5v21.5h-18.6v65.7h-18.3v-65.7h-18.6V258z"/>
	<path class="st1" d="M762.2,258h18.3v87.2h-18.3V258z"/>
	<path class="st1" d="M791.3,301.7c0-14.2,2.7-25.3,8.1-33.3c5.4-7.9,12.9-11.9,22.4-11.9c9.8,0,17.4,3.9,22.7,11.7
		c5.3,7.8,8,18.7,8,32.8c0,10.2-1.2,18.6-3.5,25.1c-2.3,6.5-5.7,11.6-10.1,15.2c-4.4,3.6-9.9,5.4-16.4,5.4c-6.7,0-12.2-1.6-16.5-4.7
		c-4.4-3.1-7.9-8.1-10.6-14.9S791.3,311.9,791.3,301.7z M809.5,301.8c0,8.8,1.1,15.1,3.3,19c2.2,3.8,5.2,5.8,9,5.8
		c3.9,0,7-1.9,9.1-5.7c2.1-3.8,3.2-10.5,3.2-20.3c0-8.2-1.1-14.2-3.4-18c-2.2-3.8-5.3-5.7-9.1-5.7c-3.7,0-6.6,1.9-8.9,5.8
		C810.6,286.5,809.5,292.9,809.5,301.8z"/>
	<path class="st1" d="M862.4,258h17l22.2,48.3V258h17.2v87.2h-17.2l-22.1-47.9v47.9h-17.2V258z"/>
</g>
<g>
	<g>
		<path class="st6" d="M661.8,964.1H314.2c-5.8,0-10.5-4.7-10.5-10.5V438c0-5.8,4.7-10.5,10.5-10.5h347.5c5.8,0,10.5,4.7,10.5,10.5
			v515.6C672.3,959.4,667.5,964.1,661.8,964.1z"/>
		
			<rect x="249.4" y="545.3" transform="matrix(-1.836970e-16 1 -1 -1.836970e-16 1199.5007 211.9353)" class="st7" width="488.9" height="320.8"/>
		
			<rect x="243.6" y="538.4" transform="matrix(-1.836970e-16 1 -1 -1.836970e-16 1186.834 210.8423)" class="st1" width="488.9" height="320.8"/>
		<path class="st7" d="M567,427.1H412.3c-3,2.4-4.9,6-4.9,10.1v29.5c0,2.5,0.7,4.8,1.9,6.8c2.3,3.7,6.3,6.2,11,6.2h138.7
			c7.1,0,12.9-5.8,12.9-12.9v-29.5c0-3.4-1.3-6.5-3.5-8.8C568,427.9,567.5,427.5,567,427.1z"/>
		<path class="st8" d="M574.6,530.1H404.8c-5.1,0-9.3-4.2-9.3-9.3v-13.1c0-5.1,4.2-9.3,9.3-9.3h169.7c5.1,0,9.3,4.2,9.3,9.3v13.1
			C583.9,525.9,579.7,530.1,574.6,530.1z"/>
		<g>
			<path class="st9" d="M564.1,422.8c-2.2-2.4-5.4-3.9-8.9-3.9h-30.4h-6.3h-0.7c-1.6-14-13.5-24.9-28-24.9l0,0c-1.7,0-3.4,0.2-5,0.4
				c-11.6,2.1-20.7,11.2-22.7,22.7c-0.1,0.6-0.2,1.1-0.3,1.7h-1.4h-12.4h-23.6c-6.7,0-12.2,5.5-12.2,12.2v23.6v4.3
				c0,2.3,0.7,4.5,1.8,6.4c2.1,3.5,6,5.8,10.4,5.8h42h6.3h43.2h20.1h6.3h13c6.7,0,12.2-5.5,12.2-12.2v-13v-6.3v-8.4
				C567.4,427.9,566.1,425,564.1,422.8z M489.7,401.4c3.6,0,6.5,2.9,6.5,6.5c0,3.6-2.9,6.5-6.5,6.5s-6.5-2.9-6.5-6.5
				C483.2,404.3,486.1,401.4,489.7,401.4z"/>
			<path class="st10" d="M554.2,465.2h-130c-4.2,0-7.6-3.4-7.6-7.6l0,0c0-4.2,3.4-7.6,7.6-7.6h130c4.2,0,7.6,3.4,7.6,7.6l0,0
				C561.8,461.8,558.4,465.2,554.2,465.2z"/>
		</g>
		<g class="st11">
			<g>
				<path class="st12" d="M554.7,457.5h-6.3h-20.1h-43.2h-6.3h-42c-4.4,0-8.2-2.3-10.4-5.8c-1.1-1.9-1.8-4-1.8-6.4v-4.3V419h-0.4
					c-6.7,0-12.2,5.5-12.2,12.2v23.6v4.3c0,2.3,0.7,4.5,1.8,6.4c2.1,3.5,6,5.8,10.4,5.8h42h6.3h43.2h20.1h6.3h13
					c6.7,0,12.2-5.5,12.2-12.2v-1.5H554.7z"/>
			</g>
		</g>
		<g>
			<path class="st13" d="M359.8,589.7L359.8,589.7c-8,0-14.6-6.6-14.6-14.6v0c0-8,6.6-14.6,14.6-14.6l0,0c8,0,14.6,6.6,14.6,14.6
				l0,0C374.4,583.1,367.9,589.7,359.8,589.7z"/>
			<path class="st8" d="M474.5,565.5h-87.1c-1.4,0-2.5-1.1-2.5-2.5l0,0c0-1.4,1.1-2.5,2.5-2.5h87.1c1.4,0,2.5,1.1,2.5,2.5l0,0
				C477,564.4,475.9,565.5,474.5,565.5z"/>
			<path class="st8" d="M467.8,573.6h-80.4c-1.4,0-2.5-1.1-2.5-2.5l0,0c0-1.4,1.1-2.5,2.5-2.5h80.4c1.4,0,2.5,1.1,2.5,2.5l0,0
				C470.3,572.4,469.1,573.6,467.8,573.6z"/>
			<path class="st8" d="M474.5,581.6h-87.1c-1.4,0-2.5-1.1-2.5-2.5l0,0c0-1.4,1.1-2.5,2.5-2.5h87.1c1.4,0,2.5,1.1,2.5,2.5l0,0
				C477,580.5,475.9,581.6,474.5,581.6z"/>
			<path class="st8" d="M425.9,589.7h-39.6c-0.8,0-1.5-0.7-1.5-1.5v-2.1c0-0.8,0.7-1.5,1.5-1.5h39.6c0.8,0,1.5,0.7,1.5,1.5v2.1
				C427.4,589,426.7,589.7,425.9,589.7z"/>
		</g>
		<g>
			<path class="st13" d="M359.8,637.3L359.8,637.3c-8,0-14.6-6.6-14.6-14.6l0,0c0-8,6.6-14.6,14.6-14.6l0,0c8,0,14.6,6.6,14.6,14.6
				l0,0C374.4,630.7,367.9,637.3,359.8,637.3z"/>
			<path class="st8" d="M474.5,613.1h-87.1c-1.4,0-2.5-1.1-2.5-2.5l0,0c0-1.4,1.1-2.5,2.5-2.5h87.1c1.4,0,2.5,1.1,2.5,2.5l0,0
				C477,612,475.9,613.1,474.5,613.1z"/>
			<path class="st8" d="M467.8,621.2h-80.4c-1.4,0-2.5-1.1-2.5-2.5l0,0c0-1.4,1.1-2.5,2.5-2.5h80.4c1.4,0,2.5,1.1,2.5,2.5l0,0
				C470.3,620.1,469.1,621.2,467.8,621.2z"/>
			<path class="st8" d="M474.5,629.3h-87.1c-1.4,0-2.5-1.1-2.5-2.5l0,0c0-1.4,1.1-2.5,2.5-2.5h87.1c1.4,0,2.5,1.1,2.5,2.5l0,0
				C477,628.1,475.9,629.3,474.5,629.3z"/>
			<path class="st8" d="M424.9,637.3h-37.5c-1.4,0-2.5-1.1-2.5-2.5l0,0c0-1.4,1.1-2.5,2.5-2.5h37.5c1.4,0,2.5,1.1,2.5,2.5l0,0
				C427.4,636.2,426.2,637.3,424.9,637.3z"/>
			<polyline class="st14" points="347.3,617.5 356.8,627 377.4,606.4 			"/>
		</g>
		<g>
			<path class="st13" d="M359.8,678.2L359.8,678.2c-8,0-14.6-6.6-14.6-14.6v0c0-8,6.6-14.6,14.6-14.6l0,0c8,0,14.6,6.6,14.6,14.6
				l0,0C374.4,671.7,367.9,678.2,359.8,678.2z"/>
			<path class="st8" d="M474.5,654.1h-87.1c-1.4,0-2.5-1.1-2.5-2.5l0,0c0-1.4,1.1-2.5,2.5-2.5h87.1c1.4,0,2.5,1.1,2.5,2.5l0,0
				C477,652.9,475.9,654.1,474.5,654.1z"/>
			<path class="st8" d="M467.8,662.1h-80.4c-1.4,0-2.5-1.1-2.5-2.5l0,0c0-1.4,1.1-2.5,2.5-2.5h80.4c1.4,0,2.5,1.1,2.5,2.5l0,0
				C470.3,661,469.1,662.1,467.8,662.1z"/>
			<path class="st8" d="M474.5,670.2h-87.1c-1.4,0-2.5-1.1-2.5-2.5l0,0c0-1.4,1.1-2.5,2.5-2.5h87.1c1.4,0,2.5,1.1,2.5,2.5l0,0
				C477,669.1,475.9,670.2,474.5,670.2z"/>
			<path class="st8" d="M425.9,678.3h-39.6c-0.8,0-1.5-0.7-1.5-1.5v-2.1c0-0.8,0.7-1.5,1.5-1.5h39.6c0.8,0,1.5,0.7,1.5,1.5v2.1
				C427.4,677.6,426.7,678.3,425.9,678.3z"/>
		</g>
		<g>
			<path class="st13" d="M359.8,725.9L359.8,725.9c-8,0-14.6-6.6-14.6-14.6l0,0c0-8,6.6-14.6,14.6-14.6l0,0c8,0,14.6,6.6,14.6,14.6
				l0,0C374.4,719.3,367.9,725.9,359.8,725.9z"/>
			<path class="st8" d="M474.5,701.7h-87.1c-1.4,0-2.5-1.1-2.5-2.5l0,0c0-1.4,1.1-2.5,2.5-2.5h87.1c1.4,0,2.5,1.1,2.5,2.5l0,0
				C477,700.6,475.9,701.7,474.5,701.7z"/>
			<path class="st8" d="M467.8,709.8h-80.4c-1.4,0-2.5-1.1-2.5-2.5l0,0c0-1.4,1.1-2.5,2.5-2.5h80.4c1.4,0,2.5,1.1,2.5,2.5l0,0
				C470.3,708.6,469.1,709.8,467.8,709.8z"/>
			<path class="st8" d="M474.5,717.8h-87.1c-1.4,0-2.5-1.1-2.5-2.5l0,0c0-1.4,1.1-2.5,2.5-2.5h87.1c1.4,0,2.5,1.1,2.5,2.5l0,0
				C477,716.7,475.9,717.8,474.5,717.8z"/>
			<path class="st8" d="M424.9,725.9h-37.5c-1.4,0-2.5-1.1-2.5-2.5l0,0c0-1.4,1.1-2.5,2.5-2.5h37.5c1.4,0,2.5,1.1,2.5,2.5l0,0
				C427.4,724.8,426.2,725.9,424.9,725.9z"/>
			<polyline class="st14" points="347.3,706.1 356.8,715.6 377.4,695 			"/>
		</g>
		<g>
			<path class="st13" d="M359.8,766.8L359.8,766.8c-8,0-14.6-6.6-14.6-14.6v0c0-8,6.6-14.6,14.6-14.6l0,0c8,0,14.6,6.6,14.6,14.6
				l0,0C374.4,760.3,367.9,766.8,359.8,766.8z"/>
			<path class="st8" d="M474.5,742.7h-87.1c-1.4,0-2.5-1.1-2.5-2.5l0,0c0-1.4,1.1-2.5,2.5-2.5h87.1c1.4,0,2.5,1.1,2.5,2.5l0,0
				C477,741.5,475.9,742.7,474.5,742.7z"/>
			<path class="st8" d="M467.8,750.7h-80.4c-1.4,0-2.5-1.1-2.5-2.5l0,0c0-1.4,1.1-2.5,2.5-2.5h80.4c1.4,0,2.5,1.1,2.5,2.5l0,0
				C470.3,749.6,469.1,750.7,467.8,750.7z"/>
			<path class="st8" d="M474.5,758.8h-87.1c-1.4,0-2.5-1.1-2.5-2.5l0,0c0-1.4,1.1-2.5,2.5-2.5h87.1c1.4,0,2.5,1.1,2.5,2.5l0,0
				C477,757.7,475.9,758.8,474.5,758.8z"/>
			<path class="st8" d="M425.9,766.9h-39.6c-0.8,0-1.5-0.7-1.5-1.5v-2.1c0-0.8,0.7-1.5,1.5-1.5h39.6c0.8,0,1.5,0.7,1.5,1.5v2.1
				C427.4,766.2,426.7,766.9,425.9,766.9z"/>
		</g>
		<g>
			<path class="st13" d="M359.8,814.5L359.8,814.5c-8,0-14.6-6.6-14.6-14.6l0,0c0-8,6.6-14.6,14.6-14.6l0,0c8,0,14.6,6.6,14.6,14.6
				l0,0C374.4,807.9,367.9,814.5,359.8,814.5z"/>
			<path class="st8" d="M474.5,790.3h-87.1c-1.4,0-2.5-1.1-2.5-2.5l0,0c0-1.4,1.1-2.5,2.5-2.5h87.1c1.4,0,2.5,1.1,2.5,2.5l0,0
				C477,789.1,475.9,790.3,474.5,790.3z"/>
			<path class="st8" d="M467.8,798.3h-80.4c-1.4,0-2.5-1.1-2.5-2.5l0,0c0-1.4,1.1-2.5,2.5-2.5h80.4c1.4,0,2.5,1.1,2.5,2.5l0,0
				C470.3,797.2,469.1,798.3,467.8,798.3z"/>
			<path class="st8" d="M474.5,806.4h-87.1c-1.4,0-2.5-1.1-2.5-2.5l0,0c0-1.4,1.1-2.5,2.5-2.5h87.1c1.4,0,2.5,1.1,2.5,2.5l0,0
				C477,805.3,475.9,806.4,474.5,806.4z"/>
			<path class="st8" d="M424.9,814.5h-37.5c-1.4,0-2.5-1.1-2.5-2.5l0,0c0-1.4,1.1-2.5,2.5-2.5h37.5c1.4,0,2.5,1.1,2.5,2.5l0,0
				C427.4,813.4,426.2,814.5,424.9,814.5z"/>
			<polyline class="st14" points="347.3,794.7 356.8,804.2 377.4,783.5 			"/>
		</g>
		<g>
			<path class="st13" d="M359.8,855.4L359.8,855.4c-8,0-14.6-6.6-14.6-14.6v0c0-8,6.6-14.6,14.6-14.6l0,0c8,0,14.6,6.6,14.6,14.6
				l0,0C374.4,848.8,367.9,855.4,359.8,855.4z"/>
			<path class="st8" d="M474.5,831.2h-87.1c-1.4,0-2.5-1.1-2.5-2.5l0,0c0-1.4,1.1-2.5,2.5-2.5h87.1c1.4,0,2.5,1.1,2.5,2.5l0,0
				C477,830.1,475.9,831.2,474.5,831.2z"/>
			<path class="st8" d="M467.8,839.3h-80.4c-1.4,0-2.5-1.1-2.5-2.5l0,0c0-1.4,1.1-2.5,2.5-2.5h80.4c1.4,0,2.5,1.1,2.5,2.5l0,0
				C470.3,838.2,469.1,839.3,467.8,839.3z"/>
			<path class="st8" d="M474.5,847.4h-87.1c-1.4,0-2.5-1.1-2.5-2.5l0,0c0-1.4,1.1-2.5,2.5-2.5h87.1c1.4,0,2.5,1.1,2.5,2.5l0,0
				C477,846.2,475.9,847.4,474.5,847.4z"/>
			<path class="st8" d="M425.9,855.4h-39.6c-0.8,0-1.5-0.7-1.5-1.5v-2.1c0-0.8,0.7-1.5,1.5-1.5h39.6c0.8,0,1.5,0.7,1.5,1.5v2.1
				C427.4,854.8,426.7,855.4,425.9,855.4z"/>
		</g>
		<g>
			<path class="st13" d="M359.8,903L359.8,903c-8,0-14.6-6.6-14.6-14.6l0,0c0-8,6.6-14.6,14.6-14.6l0,0c8,0,14.6,6.6,14.6,14.6l0,0
				C374.4,896.5,367.9,903,359.8,903z"/>
			<path class="st8" d="M474.5,878.9h-87.1c-1.4,0-2.5-1.1-2.5-2.5l0,0c0-1.4,1.1-2.5,2.5-2.5h87.1c1.4,0,2.5,1.1,2.5,2.5l0,0
				C477,877.7,475.9,878.9,474.5,878.9z"/>
			<path class="st8" d="M467.8,886.9h-80.4c-1.4,0-2.5-1.1-2.5-2.5l0,0c0-1.4,1.1-2.5,2.5-2.5h80.4c1.4,0,2.5,1.1,2.5,2.5l0,0
				C470.3,885.8,469.1,886.9,467.8,886.9z"/>
			<path class="st8" d="M474.5,895h-87.1c-1.4,0-2.5-1.1-2.5-2.5l0,0c0-1.4,1.1-2.5,2.5-2.5h87.1c1.4,0,2.5,1.1,2.5,2.5l0,0
				C477,893.9,475.9,895,474.5,895z"/>
			<path class="st8" d="M424.9,903.1h-37.5c-1.4,0-2.5-1.1-2.5-2.5l0,0c0-1.4,1.1-2.5,2.5-2.5h37.5c1.4,0,2.5,1.1,2.5,2.5l0,0
				C427.4,901.9,426.2,903.1,424.9,903.1z"/>
			<polyline class="st14" points="347.3,883.2 356.8,892.8 377.4,872.1 			"/>
		</g>
		<g>
			<path class="st13" d="M502.9,589.7L502.9,589.7c-8,0-14.6-6.6-14.6-14.6v0c0-8,6.6-14.6,14.6-14.6l0,0c8,0,14.6,6.6,14.6,14.6
				l0,0C517.5,583.1,511,589.7,502.9,589.7z"/>
			<path class="st8" d="M617.6,565.5h-87.1c-1.4,0-2.5-1.1-2.5-2.5l0,0c0-1.4,1.1-2.5,2.5-2.5h87.1c1.4,0,2.5,1.1,2.5,2.5l0,0
				C620.1,564.4,619,565.5,617.6,565.5z"/>
			<path class="st8" d="M610.8,573.6h-80.4c-1.4,0-2.5-1.1-2.5-2.5l0,0c0-1.4,1.1-2.5,2.5-2.5h80.4c1.4,0,2.5,1.1,2.5,2.5l0,0
				C613.4,572.4,612.2,573.6,610.8,573.6z"/>
			<path class="st8" d="M617.6,581.6h-87.1c-1.4,0-2.5-1.1-2.5-2.5l0,0c0-1.4,1.1-2.5,2.5-2.5h87.1c1.4,0,2.5,1.1,2.5,2.5l0,0
				C620.1,580.5,619,581.6,617.6,581.6z"/>
			<path class="st8" d="M569,589.7h-39.6c-0.8,0-1.5-0.7-1.5-1.5v-2.1c0-0.8,0.7-1.5,1.5-1.5H569c0.8,0,1.5,0.7,1.5,1.5v2.1
				C570.5,589,569.8,589.7,569,589.7z"/>
		</g>
		<g>
			<path class="st13" d="M502.9,637.3L502.9,637.3c-8,0-14.6-6.6-14.6-14.6l0,0c0-8,6.6-14.6,14.6-14.6l0,0c8,0,14.6,6.6,14.6,14.6
				l0,0C517.5,630.7,511,637.3,502.9,637.3z"/>
			<path class="st8" d="M617.6,613.1h-87.1c-1.4,0-2.5-1.1-2.5-2.5l0,0c0-1.4,1.1-2.5,2.5-2.5h87.1c1.4,0,2.5,1.1,2.5,2.5l0,0
				C620.1,612,619,613.1,617.6,613.1z"/>
			<path class="st8" d="M610.8,621.2h-80.4c-1.4,0-2.5-1.1-2.5-2.5l0,0c0-1.4,1.1-2.5,2.5-2.5h80.4c1.4,0,2.5,1.1,2.5,2.5l0,0
				C613.4,620.1,612.2,621.2,610.8,621.2z"/>
			<path class="st8" d="M617.6,629.3h-87.1c-1.4,0-2.5-1.1-2.5-2.5l0,0c0-1.4,1.1-2.5,2.5-2.5h87.1c1.4,0,2.5,1.1,2.5,2.5l0,0
				C620.1,628.1,619,629.3,617.6,629.3z"/>
			<path class="st8" d="M567.9,637.3h-37.5c-1.4,0-2.5-1.1-2.5-2.5l0,0c0-1.4,1.1-2.5,2.5-2.5h37.5c1.4,0,2.5,1.1,2.5,2.5l0,0
				C570.5,636.2,569.3,637.3,567.9,637.3z"/>
		</g>
		<g>
			<path class="st13" d="M502.9,678.2L502.9,678.2c-8,0-14.6-6.6-14.6-14.6v0c0-8,6.6-14.6,14.6-14.6l0,0c8,0,14.6,6.6,14.6,14.6
				l0,0C517.5,671.7,511,678.2,502.9,678.2z"/>
			<path class="st8" d="M617.6,654.1h-87.1c-1.4,0-2.5-1.1-2.5-2.5l0,0c0-1.4,1.1-2.5,2.5-2.5h87.1c1.4,0,2.5,1.1,2.5,2.5l0,0
				C620.1,652.9,619,654.1,617.6,654.1z"/>
			<path class="st8" d="M610.8,662.1h-80.4c-1.4,0-2.5-1.1-2.5-2.5l0,0c0-1.4,1.1-2.5,2.5-2.5h80.4c1.4,0,2.5,1.1,2.5,2.5l0,0
				C613.4,661,612.2,662.1,610.8,662.1z"/>
			<path class="st8" d="M617.6,670.2h-87.1c-1.4,0-2.5-1.1-2.5-2.5l0,0c0-1.4,1.1-2.5,2.5-2.5h87.1c1.4,0,2.5,1.1,2.5,2.5l0,0
				C620.1,669.1,619,670.2,617.6,670.2z"/>
			<path class="st8" d="M569,678.3h-39.6c-0.8,0-1.5-0.7-1.5-1.5v-2.1c0-0.8,0.7-1.5,1.5-1.5H569c0.8,0,1.5,0.7,1.5,1.5v2.1
				C570.5,677.6,569.8,678.3,569,678.3z"/>
		</g>
		<g>
			<path class="st13" d="M502.9,725.9L502.9,725.9c-8,0-14.6-6.6-14.6-14.6l0,0c0-8,6.6-14.6,14.6-14.6l0,0c8,0,14.6,6.6,14.6,14.6
				l0,0C517.5,719.3,511,725.9,502.9,725.9z"/>
			<path class="st8" d="M617.6,701.7h-87.1c-1.4,0-2.5-1.1-2.5-2.5l0,0c0-1.4,1.1-2.5,2.5-2.5h87.1c1.4,0,2.5,1.1,2.5,2.5l0,0
				C620.1,700.6,619,701.7,617.6,701.7z"/>
			<path class="st8" d="M610.8,709.8h-80.4c-1.4,0-2.5-1.1-2.5-2.5l0,0c0-1.4,1.1-2.5,2.5-2.5h80.4c1.4,0,2.5,1.1,2.5,2.5l0,0
				C613.4,708.6,612.2,709.8,610.8,709.8z"/>
			<path class="st8" d="M617.6,717.8h-87.1c-1.4,0-2.5-1.1-2.5-2.5l0,0c0-1.4,1.1-2.5,2.5-2.5h87.1c1.4,0,2.5,1.1,2.5,2.5l0,0
				C620.1,716.7,619,717.8,617.6,717.8z"/>
			<path class="st8" d="M567.9,725.9h-37.5c-1.4,0-2.5-1.1-2.5-2.5l0,0c0-1.4,1.1-2.5,2.5-2.5h37.5c1.4,0,2.5,1.1,2.5,2.5l0,0
				C570.5,724.8,569.3,725.9,567.9,725.9z"/>
		</g>
		<g>
			<path class="st13" d="M502.9,766.8L502.9,766.8c-8,0-14.6-6.6-14.6-14.6v0c0-8,6.6-14.6,14.6-14.6l0,0c8,0,14.6,6.6,14.6,14.6
				l0,0C517.5,760.3,511,766.8,502.9,766.8z"/>
			<path class="st8" d="M617.6,742.7h-87.1c-1.4,0-2.5-1.1-2.5-2.5l0,0c0-1.4,1.1-2.5,2.5-2.5h87.1c1.4,0,2.5,1.1,2.5,2.5l0,0
				C620.1,741.5,619,742.7,617.6,742.7z"/>
			<path class="st8" d="M610.8,750.7h-80.4c-1.4,0-2.5-1.1-2.5-2.5l0,0c0-1.4,1.1-2.5,2.5-2.5h80.4c1.4,0,2.5,1.1,2.5,2.5l0,0
				C613.4,749.6,612.2,750.7,610.8,750.7z"/>
			<path class="st8" d="M617.6,758.8h-87.1c-1.4,0-2.5-1.1-2.5-2.5l0,0c0-1.4,1.1-2.5,2.5-2.5h87.1c1.4,0,2.5,1.1,2.5,2.5l0,0
				C620.1,757.7,619,758.8,617.6,758.8z"/>
			<path class="st8" d="M569,766.9h-39.6c-0.8,0-1.5-0.7-1.5-1.5v-2.1c0-0.8,0.7-1.5,1.5-1.5H569c0.8,0,1.5,0.7,1.5,1.5v2.1
				C570.5,766.2,569.8,766.9,569,766.9z"/>
		</g>
		<g>
			<path class="st13" d="M502.9,814.5L502.9,814.5c-8,0-14.6-6.6-14.6-14.6l0,0c0-8,6.6-14.6,14.6-14.6l0,0c8,0,14.6,6.6,14.6,14.6
				l0,0C517.5,807.9,511,814.5,502.9,814.5z"/>
			<path class="st8" d="M617.6,790.3h-87.1c-1.4,0-2.5-1.1-2.5-2.5l0,0c0-1.4,1.1-2.5,2.5-2.5h87.1c1.4,0,2.5,1.1,2.5,2.5l0,0
				C620.1,789.1,619,790.3,617.6,790.3z"/>
			<path class="st8" d="M610.8,798.3h-80.4c-1.4,0-2.5-1.1-2.5-2.5l0,0c0-1.4,1.1-2.5,2.5-2.5h80.4c1.4,0,2.5,1.1,2.5,2.5l0,0
				C613.4,797.2,612.2,798.3,610.8,798.3z"/>
			<path class="st8" d="M617.6,806.4h-87.1c-1.4,0-2.5-1.1-2.5-2.5l0,0c0-1.4,1.1-2.5,2.5-2.5h87.1c1.4,0,2.5,1.1,2.5,2.5l0,0
				C620.1,805.3,619,806.4,617.6,806.4z"/>
			<path class="st8" d="M567.9,814.5h-37.5c-1.4,0-2.5-1.1-2.5-2.5l0,0c0-1.4,1.1-2.5,2.5-2.5h37.5c1.4,0,2.5,1.1,2.5,2.5l0,0
				C570.5,813.4,569.3,814.5,567.9,814.5z"/>
		</g>
		<g>
			<path class="st13" d="M502.9,855.4L502.9,855.4c-8,0-14.6-6.6-14.6-14.6v0c0-8,6.6-14.6,14.6-14.6l0,0c8,0,14.6,6.6,14.6,14.6
				l0,0C517.5,848.8,511,855.4,502.9,855.4z"/>
			<path class="st8" d="M617.6,831.2h-87.1c-1.4,0-2.5-1.1-2.5-2.5l0,0c0-1.4,1.1-2.5,2.5-2.5h87.1c1.4,0,2.5,1.1,2.5,2.5l0,0
				C620.1,830.1,619,831.2,617.6,831.2z"/>
			<path class="st8" d="M610.8,839.3h-80.4c-1.4,0-2.5-1.1-2.5-2.5l0,0c0-1.4,1.1-2.5,2.5-2.5h80.4c1.4,0,2.5,1.1,2.5,2.5l0,0
				C613.4,838.2,612.2,839.3,610.8,839.3z"/>
			<path class="st8" d="M617.6,847.4h-87.1c-1.4,0-2.5-1.1-2.5-2.5l0,0c0-1.4,1.1-2.5,2.5-2.5h87.1c1.4,0,2.5,1.1,2.5,2.5l0,0
				C620.1,846.2,619,847.4,617.6,847.4z"/>
			<path class="st8" d="M569,855.4h-39.6c-0.8,0-1.5-0.7-1.5-1.5v-2.1c0-0.8,0.7-1.5,1.5-1.5H569c0.8,0,1.5,0.7,1.5,1.5v2.1
				C570.5,854.8,569.8,855.4,569,855.4z"/>
		</g>
		<g>
			<path class="st13" d="M502.9,903L502.9,903c-8,0-14.6-6.6-14.6-14.6l0,0c0-8,6.6-14.6,14.6-14.6l0,0c8,0,14.6,6.6,14.6,14.6l0,0
				C517.5,896.5,511,903,502.9,903z"/>
			<path class="st8" d="M617.6,878.9h-87.1c-1.4,0-2.5-1.1-2.5-2.5l0,0c0-1.4,1.1-2.5,2.5-2.5h87.1c1.4,0,2.5,1.1,2.5,2.5l0,0
				C620.1,877.7,619,878.9,617.6,878.9z"/>
			<path class="st8" d="M610.8,886.9h-80.4c-1.4,0-2.5-1.1-2.5-2.5l0,0c0-1.4,1.1-2.5,2.5-2.5h80.4c1.4,0,2.5,1.1,2.5,2.5l0,0
				C613.4,885.8,612.2,886.9,610.8,886.9z"/>
			<path class="st8" d="M617.6,895h-87.1c-1.4,0-2.5-1.1-2.5-2.5l0,0c0-1.4,1.1-2.5,2.5-2.5h87.1c1.4,0,2.5,1.1,2.5,2.5l0,0
				C620.1,893.9,619,895,617.6,895z"/>
			<path class="st8" d="M567.9,903.1h-37.5c-1.4,0-2.5-1.1-2.5-2.5l0,0c0-1.4,1.1-2.5,2.5-2.5h37.5c1.4,0,2.5,1.1,2.5,2.5l0,0
				C570.5,901.9,569.3,903.1,567.9,903.1z"/>
		</g>
	</g>
	<g>
		<g>
			<circle class="st15" cx="794.1" cy="510.3" r="9"/>
			<circle class="st15" cx="793" cy="522.5" r="9"/>
			<circle class="st15" cx="779" cy="545" r="9"/>
			<circle class="st15" cx="770.2" cy="544.3" r="9"/>
			<ellipse transform="matrix(0.512 -0.859 0.859 0.512 -39.6005 925.8956)" class="st15" cx="795.1" cy="497.8" rx="9" ry="9"/>
			<path class="st15" d="M785.1,489.8c2.4,4.4,7.9,6,12.2,3.6c4.4-2.4,6-7.9,3.6-12.2c-2.4-4.4-7.9-6-12.2-3.6
				C784.4,479.9,782.7,485.4,785.1,489.8z"/>
			<path class="st15" d="M781.4,480.2c3.4,3.6,9.1,3.8,12.7,0.4c3.6-3.4,3.8-9.1,0.4-12.7c-3.4-3.6-9.1-3.8-12.7-0.4
				C778.2,470.8,778,476.5,781.4,480.2z"/>
			<path class="st15" d="M775.3,471.8c4.2,2.7,9.8,1.5,12.4-2.7c2.7-4.2,1.5-9.8-2.7-12.4c-4.2-2.7-9.8-1.5-12.4,2.7
				C769.9,463.5,771.2,469.1,775.3,471.8z"/>
			<path class="st15" d="M767.4,465.1c4.7,1.6,9.8-1,11.4-5.7c1.6-4.7-1-9.8-5.7-11.4c-4.7-1.6-9.8,1-11.4,5.7
				C760.1,458.5,762.7,463.6,767.4,465.1z"/>
			<path class="st15" d="M758.1,460.7c5,0.3,9.3-3.4,9.6-8.4c0.3-5-3.4-9.3-8.4-9.6c-5-0.3-9.3,3.4-9.6,8.4
				C749.4,456,753.1,460.3,758.1,460.7z"/>
			<path class="st15" d="M748,458.7c4.9-0.9,8.1-5.6,7.2-10.5c-0.9-4.9-5.6-8.1-10.5-7.2c-4.9,0.9-8.1,5.6-7.2,10.5
				C738.4,456.3,743.1,459.6,748,458.7z"/>
			<path class="st15" d="M737.7,459.2c4.5-2.1,6.5-7.4,4.4-12c-2.1-4.5-7.4-6.5-12-4.4c-4.5,2.1-6.5,7.4-4.4,12
				C727.8,459.3,733.1,461.3,737.7,459.2z"/>
			<path class="st15" d="M727.8,462.3c3.9-3.1,4.4-8.8,1.3-12.7c-3.1-3.9-8.8-4.4-12.7-1.3c-3.9,3.1-4.4,8.8-1.3,12.7
				C718.3,464.9,723.9,465.5,727.8,462.3z"/>
			<path class="st15" d="M719,467.8c3-4,2.1-9.6-1.9-12.6c-4-3-9.6-2.1-12.6,1.9c-3,4-2.1,9.6,1.9,12.6
				C710.4,472.6,716.1,471.8,719,467.8z"/>
			<path class="st15" d="M711.9,475.2c1.9-4.6-0.3-9.9-4.9-11.7c-4.6-1.9-9.9,0.3-11.7,4.9c-1.9,4.6,0.3,9.9,4.9,11.7
				C704.7,482,710,479.8,711.9,475.2z"/>
			<path class="st15" d="M706.8,484.2c0.7-4.9-2.8-9.5-7.7-10.1c-4.9-0.7-9.5,2.8-10.1,7.7c-0.7,4.9,2.8,9.5,7.7,10.1
				C701.6,492.6,706.1,489.1,706.8,484.2z"/>
			<path class="st15" d="M704.1,494.2c-0.6-4.9-5-8.5-10-7.9c-4.9,0.6-8.5,5-7.9,10c0.6,4.9,5,8.5,10,7.9
				C701.1,503.6,704.6,499.1,704.1,494.2z"/>
			<path class="st15" d="M703.9,504.5c-1.8-4.6-7-7-11.6-5.2c-4.6,1.8-7,7-5.2,11.6c1.8,4.6,7,7,11.6,5.2
				C703.4,514.4,705.7,509.2,703.9,504.5z"/>
			<path class="st15" d="M785.3,546.8L785.3,546.8c5.4,0,9.8-4.4,9.8-9.8v-53.7c0-5.4-4.4-9.8-9.8-9.8l0,0c-5.4,0-9.8,4.4-9.8,9.8
				v53.7C775.6,542.4,780,546.8,785.3,546.8z"/>
			<path class="st15" d="M775,490.8c3-4,2.1-9.6-1.9-12.6c-4-3-9.6-2.1-12.6,1.9c-3,4-2.1,9.6,1.9,12.6
				C766.4,495.7,772,494.8,775,490.8z"/>
			<path class="st15" d="M782.1,503.2c3-4,2.1-9.6-1.9-12.6c-4-3-9.6-2.1-12.6,1.9c-3,4-2.1,9.6,1.9,12.6
				C773.5,508,779.1,507.2,782.1,503.2z"/>
			<path class="st15" d="M783.8,516.7c3-4,2.1-9.6-1.9-12.6c-4-3-9.6-2.1-12.6,1.9c-3,4-2.1,9.6,1.9,12.6
				C775.2,521.5,780.9,520.7,783.8,516.7z"/>
			<path class="st15" d="M783.8,532.4c3-4,2.1-9.6-1.9-12.6c-4-3-9.6-2.1-12.6,1.9c-3,4-2.1,9.6,1.9,12.6
				C775.2,537.2,780.9,536.4,783.8,532.4z"/>
			<path class="st15" d="M740.5,477.6c0,6.9,5.6,12.6,12.6,12.6c6.9,0,12.6-5.6,12.6-12.6c0-6.9-5.6-12.6-12.6-12.6
				C746.1,465,740.5,470.6,740.5,477.6z"/>
			<circle class="st15" cx="733.3" cy="471.4" r="12.6"/>
			<circle class="st15" cx="714.6" cy="471.4" r="12.6"/>
			<path class="st15" d="M692.5,473.2c0,6,4.9,10.9,10.9,10.9c6,0,10.9-4.9,10.9-10.9c0-6-4.9-10.9-10.9-10.9
				C697.4,462.3,692.5,467.1,692.5,473.2z"/>
			<circle class="st15" cx="724.3" cy="463.9" r="12.6"/>
			<path class="st15" d="M732,460.9c0,6.9,5.6,12.6,12.6,12.6c6.9,0,12.6-5.6,12.6-12.6c0-6.9-5.6-12.6-12.6-12.6
				C737.6,448.3,732,454,732,460.9z"/>
			<circle class="st15" cx="763" cy="465" r="12.6"/>
			<path class="st15" d="M764.4,478.6c1.7,6.7,8.5,10.9,15.2,9.2c6.7-1.7,10.9-8.5,9.2-15.2c-1.7-6.7-8.5-10.9-15.2-9.2
				C766.8,465,762.7,471.8,764.4,478.6z"/>
		</g>
		<g>
			<circle class="st15" cx="734.8" cy="543.3" r="9"/>
			<circle class="st15" cx="733.7" cy="555.5" r="9"/>
			<circle class="st15" cx="719.6" cy="578" r="9"/>
			<path class="st15" d="M727.1,533c1.2,4.8,6.1,7.7,11,6.5c4.8-1.2,7.7-6.1,6.5-11c-1.2-4.8-6.1-7.7-11-6.5
				C728.8,523.3,725.8,528.2,727.1,533z"/>
			<path class="st15" d="M725.8,522.8c2.4,4.4,7.9,6,12.2,3.6c4.4-2.4,6-7.9,3.6-12.2c-2.4-4.4-7.9-6-12.2-3.6
				C725,512.9,723.4,518.4,725.8,522.8z"/>
			<path class="st15" d="M722.1,513.1c3.4,3.6,9.1,3.8,12.7,0.4c3.6-3.4,3.8-9.1,0.4-12.7c-3.4-3.6-9.1-3.8-12.7-0.4
				C718.9,503.8,718.7,509.5,722.1,513.1z"/>
			<path class="st15" d="M716,504.8c4.2,2.7,9.8,1.5,12.4-2.7c2.7-4.2,1.5-9.8-2.7-12.4c-4.2-2.7-9.8-1.5-12.4,2.7
				C710.6,496.5,711.8,502.1,716,504.8z"/>
			<path class="st15" d="M708.1,498.1c4.7,1.6,9.8-1,11.4-5.7c1.6-4.7-1-9.8-5.7-11.4c-4.7-1.6-9.8,1-11.4,5.7
				C700.8,491.5,703.4,496.6,708.1,498.1z"/>
			<path class="st15" d="M698.8,493.7c5,0.3,9.3-3.4,9.6-8.4c0.3-5-3.4-9.3-8.4-9.6s-9.3,3.4-9.6,8.4
				C690.1,489,693.8,493.3,698.8,493.7z"/>
			<path class="st15" d="M726,579.8L726,579.8c5.4,0,9.8-4.4,9.8-9.8v-53.7c0-5.4-4.4-9.8-9.8-9.8l0,0c-5.4,0-9.8,4.4-9.8,9.8v53.7
				C716.3,575.4,720.7,579.8,726,579.8z"/>
			<path class="st15" d="M715.7,523.8c3-4,2.1-9.6-1.9-12.6c-4-3-9.6-2.1-12.6,1.9c-3,4-2.1,9.6,1.9,12.6
				C707.1,528.6,712.7,527.8,715.7,523.8z"/>
			<path class="st15" d="M722.8,536.1c3-4,2.1-9.6-1.9-12.6c-4-3-9.6-2.1-12.6,1.9c-3,4-2.1,9.6,1.9,12.6
				C714.2,541,719.8,540.1,722.8,536.1z"/>
			<path class="st15" d="M724.5,549.7c3-4,2.1-9.6-1.9-12.6c-4-3-9.6-2.1-12.6,1.9c-3,4-2.1,9.6,1.9,12.6
				C715.9,554.5,721.5,553.7,724.5,549.7z"/>
			<path class="st15" d="M724.5,565.4c3-4,2.1-9.6-1.9-12.6c-4-3-9.6-2.1-12.6,1.9c-3,4-2.1,9.6,1.9,12.6
				C715.9,570.2,721.5,569.4,724.5,565.4z"/>
			<circle class="st15" cx="703.7" cy="498" r="12.6"/>
			<path class="st15" d="M705,511.6c1.7,6.7,8.5,10.9,15.2,9.2c6.7-1.7,10.9-8.5,9.2-15.2c-1.7-6.7-8.5-10.9-15.2-9.2
				C707.5,498,703.4,504.8,705,511.6z"/>
		</g>
		<path class="st16" d="M793,719.8h-80.1c-6.8,0-12.4-5.6-12.4-12.4v-32.8c0-6.8,5.6-12.4,12.4-12.4H793c6.8,0,12.4,5.6,12.4,12.4
			v32.8C805.3,714.3,799.8,719.8,793,719.8z"/>
		<path class="st17" d="M667.9,637.4L667.9,637.4c-6.9-3.2-10-11.5-6.8-18.4l28.1-61c3.2-6.9,11.5-10,18.4-6.8l0,0
			c6.9,3.2,10,11.5,6.8,18.4l-28.1,61C683.1,637.5,674.8,640.6,667.9,637.4z"/>
		<path class="st16" d="M739.7,822.4c0,0,7.2-85.5,10.8-93.5c3.6-8,11.3-85.7-43.4-51.5c0,0-19.2,33,8,126.9c0,0,3.5,5.6,0,17.6
			c-3,10.2,6.2,66.8,8.5,96.8h14.3C740.2,901.1,743.7,864.9,739.7,822.4z"/>
		<path class="st18" d="M737.9,918.8h-14.3c0.4,5.2,0.6,9.5,0.5,12.8c-0.8,22-24.2,29.7-23.5,34.1c0.7,4.4,32.3-7.2,35.5-19.2
			c3.2-12,0-16.1,0-16.1S736.9,926.2,737.9,918.8z"/>
		<path class="st19" d="M737,936c0,0-3.9,1.3-6.8,8c-2.8,6.7-14.4,14.6-16.6,15.7c-2.2,1.2-7.4-2.2-7.4-2.2s-9.2,8.9-12,10.7
			c-2.8,1.8,15.8-0.8,21.4-1.7c5.6-0.8,16.8-14.9,16.8-14.9l-0.7,14.9h2.3c0,0-2.5-9.2,1.7-15.7C739.9,944.4,737,936,737,936z"/>
		<path class="st16" d="M790.8,822c-3.5-12,0-17.6,0-17.6c27.2-93.9,8-126.9,8-126.9c-54.7-34.3-47,43.5-43.4,51.5
			c3.6,8,10.8,93.5,10.8,93.5c-3.9,42.6-0.5,78.8,1.8,96.4h14.3C784.6,888.7,793.7,832.2,790.8,822z"/>
		<path class="st18" d="M781.8,931.6c-0.1-3.2,0.1-7.6,0.5-12.8H768c1,7.4,1.8,11.6,1.8,11.6s-3.2,4.1,0,16.1
			c3.2,12,34.8,23.6,35.5,19.2C806.1,961.3,782.6,953.6,781.8,931.6z"/>
		<path class="st20" d="M717.5,624.9v0.3c0,10.3-3.9,20.4-11.6,27.2c-4.7,4.3-7.7,10.4-7.8,17.2h113.5c-0.1-6.8-3.1-12.9-7.8-17.2
			c-7.6-6.9-11.6-17-11.6-27.2v-0.3c0-9.1,3.6-17.7,9.5-24.6c4.5-5.2,7-12.2,6.4-19.6c-1.2-14.1-13.5-24.7-27.7-24.7h-51.2
			c-14.2,0-26.5,10.6-27.7,24.7c-0.6,7.5,1.9,14.4,6.4,19.6C713.9,607.2,717.5,615.8,717.5,624.9z"/>
		<path class="st20" d="M790.1,583.4h-74.6c-9.6,0-17.4-7.8-17.4-17.4l0,0c0-9.6,7.8-17.4,17.4-17.4h74.6c9.6,0,17.4,7.8,17.4,17.4
			l0,0C807.6,575.6,799.7,583.4,790.1,583.4z"/>
		<path class="st21" d="M752.9,562.7L752.9,562.7c-6.8,0-12.3-5.6-12.3-12.3v-40c0-6.8,5.6-12.3,12.3-12.3l0,0
			c6.8,0,12.3,5.6,12.3,12.3v40C765.2,557.1,759.6,562.7,752.9,562.7z"/>
		<path class="st17" d="M736.1,548.2c0,0-44.1-2.4-44.8,6.6c-0.7,9.1-5.9,27.6,3.7,34.1c9.6,6.4,17.6,31.1,13,44.2
			c-4.5,13-25.8,41.6-21.1,61.2c0,0,15.1,13,50.2,0c0,0,1-58.7,0-84.8C736.2,583.4,736.1,548.2,736.1,548.2z"/>
		<path class="st22" d="M736.1,548.2L712,565.3l14.8,18.1l-11.2,23.1l22,35.6C737.6,642,744.4,580.6,736.1,548.2z"/>
		<path class="st17" d="M773.3,547.5c0,0,42.2-5.3,42.9,3.7s6.3,31.2-3.3,37.7c-9.6,6.4-17.6,31.1-13,44.2
			c4.5,13,25.8,41.6,21.1,61.2c0,0-15.1,13-50.2,0c0,0-1-58.7,0-84.8C771.7,583.4,773.3,547.5,773.3,547.5z"/>
		<path class="st22" d="M773.3,547.5l22.6,17.8l-14.8,18.1l11.2,23.1l-22,35.6C770.2,642,764.9,580,773.3,547.5z"/>
		<path class="st18" d="M752.9,544.5L752.9,544.5c-22.7,0-41.2-18.5-41.2-41.2V485c0-22.7,18.5-41.2,41.2-41.2l0,0
			c22.7,0,41.2,18.5,41.2,41.2v18.3C794,526,775.5,544.5,752.9,544.5z"/>
		<path class="st19" d="M768.3,936c0,0,3.9,1.3,6.8,8c2.8,6.7,14.4,14.6,16.6,15.7c2.2,1.2,7.4-2.2,7.4-2.2s9.2,8.9,12,10.7
			c2.8,1.8-15.8-0.8-21.4-1.7c-5.6-0.8-16.8-14.9-16.8-14.9l0.7,14.9h-2.3c0,0,2.5-9.2-1.7-15.7C765.3,944.4,768.3,936,768.3,936z"
			/>
		<path class="st17" d="M852.3,630.6L852.3,630.6c6.5-4,8.6-12.5,4.7-19l-34.8-57.4c-4-6.5-12.5-8.6-19-4.7l0,0
			c-6.5,4-8.6,12.5-4.7,19l34.8,57.4C837.2,632.5,845.7,634.6,852.3,630.6z"/>
		<g>
			<path class="st23" d="M681.9,950c2.9-0.7,5.8-0.9,8.6-0.7l1.6-5.2l6.1-20l-10.5,2.7l-19.1,4.9l-12.2,3.1l17.3,16.9l1.3,1.2
				C677,951.6,679.4,950.6,681.9,950z"/>
			<polygon class="st24" points="668.5,931.6 687.6,926.8 698.2,924.1 691.9,899.4 689.9,891.6 643.4,709.2 641.6,701.9 631,704.6 
				611.9,709.5 599.8,712.6 601.6,719.8 648.1,902.2 650,910 656.3,934.7 			"/>
			<g>
				<g>
					<polygon class="st25" points="668.5,931.6 662.2,906.9 660.2,899.1 613.8,716.7 601.6,719.8 648.1,902.2 650,910 656.3,934.7 
											"/>
					<polygon class="st25" points="681.3,902.1 687.6,926.8 698.2,924.1 691.9,899.4 689.9,891.6 643.4,709.2 632.9,711.9 
						679.4,894.3 					"/>
				</g>
			</g>
			<path class="st26" d="M643.4,709.2l-5.1-20.1c-1.6-6.3-7.5-10.3-13.7-9.8c-0.7,0.1-1.5,0.2-2.3,0.4l-16.4,4.2
				c-0.2,0-0.4,0.1-0.6,0.2c-6.7,2-10.7,9-8.9,15.8l5.1,20.1L643.4,709.2z"/>
			<path class="st27" d="M624.1,679.3C624.1,679.3,624.1,679.3,624.1,679.3L624.1,679.3c2.5,9.7-3.4,19.6-13.1,22.1l-13.2,3.4
				l3.9,15.1l41.8-10.7l-5.1-20.1C636.7,682.6,630.5,678.5,624.1,679.3z"/>
			
				<rect x="600.1" y="707.4" transform="matrix(0.969 -0.2471 0.2471 0.969 -156.4022 175.6298)" class="st28" width="43.2" height="7.2"/>
			<path class="st16" d="M681.9,950c-2.5,0.6-4.9,1.6-7,2.9l11.1,10.9l4.4-14.5C687.7,949.1,684.8,949.3,681.9,950z"/>
			<path class="st29" d="M610.8,692.8l-6.1,1.6c-1.6,0.4-3.2-0.5-3.6-2.1l0,0c-0.4-1.6,0.5-3.2,2.1-3.6l6.1-1.6
				c1.6-0.4,3.2,0.5,3.6,2.1l0,0C613.3,690.8,612.4,692.4,610.8,692.8z"/>
		</g>
		<path class="st17" d="M682.8,618.2L682.8,618.2c5.4,5.4,5.4,14.2,0,19.6L650,670.6c-5.4,5.4-14.2,5.4-19.6,0l0,0
			c-5.4-5.4-5.4-14.2,0-19.6l32.8-32.8C668.6,612.8,677.4,612.8,682.8,618.2z"/>
		<path class="st17" d="M857.5,610.1L857.5,610.1c-4.5-6.2-13.2-7.6-19.4-3.1l-34.1,24.7c-6.2,4.5-7.6,13.2-3.1,19.4l0,0
			c4.5,6.2,13.2,7.6,19.4,3.1l34.1-24.7C860.6,625,862,616.3,857.5,610.1z"/>
		<g>
			<g>
				<path class="st18" d="M608.9,681.6L608.9,681.6c-1.4-1.7-1.1-4.3,0.6-5.6l10.3-8.3c1.7-1.4,4.3-1.1,5.6,0.6l0,0
					c1.4,1.7,1.1,4.3-0.6,5.6l-10.3,8.3C612.9,683.6,610.3,683.4,608.9,681.6z"/>
				<path class="st18" d="M608.9,675L608.9,675c-1.4-1.7-0.8-4.5,1.4-6.2l12.8-10.3c2.1-1.7,5-1.7,6.4,0l0,0
					c1.4,1.7,0.8,4.5-1.4,6.2L615.3,675C613.2,676.7,610.3,676.7,608.9,675z"/>
				<path class="st18" d="M611,688.6L611,688.6c-1.4-1.7-0.7-4.6,1.6-6.4l13.6-11c2.3-1.8,5.2-1.9,6.6-0.2l0,0
					c1.4,1.7,0.7,4.6-1.6,6.4l-13.6,11C615.4,690.2,612.4,690.3,611,688.6z"/>
				<path class="st18" d="M621.8,659.6l9-7.3c1.8-1.5,4.5-1.2,6,0.6l11.3,14c1.5,1.8,1.2,4.5-0.6,6l-9,7.3c-1.8,1.5-4.5,1.2-6-0.6
					l-11.3-14C619.7,663.8,620,661.1,621.8,659.6z"/>
				<path class="st18" d="M639.6,692.3c-2.7-0.3-4.7-2.7-4.4-5.4l0.7-6.9c-2-0.1-4-1-5.4-2.7l-7.5-9.3c-2.5-3.1-2-7.7,1.1-10.2
					l4.3-3.5c3.1-2.5,7.7-2,10.2,1.1l7.5,9.3c2.1,2.6,2.1,6.1,0.3,8.7L645,688C644.7,690.7,642.3,692.6,639.6,692.3z"/>
				<path class="st18" d="M617,692.3L617,692.3c-1.4-1.7-0.5-4.8,2-6.8l15-12.1c2.5-2,5.7-2.3,7.1-0.5l0,0c1.4,1.7,0.5,4.8-2,6.8
					l-15,12.1C621.6,693.8,618.4,694,617,692.3z"/>
			</g>
		</g>
		<g>
			<g>
				<path class="st18" d="M800.5,669.1L800.5,669.1c1.8,1.3,4.3,0.8,5.6-1l7.5-10.9c1.3-1.8,0.8-4.3-1-5.6l0,0
					c-1.8-1.3-4.3-0.8-5.6,1l-7.5,10.9C798.2,665.3,798.7,667.8,800.5,669.1z"/>
				<path class="st18" d="M807.1,668.6L807.1,668.6c1.8,1.3,4.6,0.4,6.1-1.8l9.3-13.5c1.6-2.2,1.3-5.1-0.5-6.4l0,0
					c-1.8-1.3-4.6-0.4-6.1,1.8l-9.3,13.5C805.1,664.5,805.3,667.3,807.1,668.6z"/>
				<path class="st18" d="M793.5,667.5L793.5,667.5c1.8,1.3,4.7,0.3,6.3-2.1l9.9-14.4c1.7-2.4,1.5-5.4-0.3-6.6l0,0
					c-1.8-1.3-4.7-0.3-6.3,2.1l-9.9,14.4C791.5,663.3,791.6,666.3,793.5,667.5z"/>
				<path class="st18" d="M821.5,654.6l6.6-9.5c1.3-1.9,0.8-4.6-1.1-5.9l-14.8-10.2c-1.9-1.3-4.6-0.8-5.9,1.1l-6.6,9.5
					c-1.3,1.9-0.8,4.6,1.1,5.9l14.8,10.2C817.5,657,820.2,656.5,821.5,654.6z"/>
				<path class="st18" d="M787.6,639.3c0.5,2.7,3.1,4.4,5.7,4l6.8-1.3c0.2,2,1.3,3.9,3.1,5.1l9.9,6.8c3.3,2.3,7.8,1.4,10.1-1.9
					l3.1-4.6c2.3-3.3,1.4-7.8-1.9-10.1l-9.9-6.8c-2.7-1.9-6.2-1.6-8.7,0.3l-14.4,2.6C788.9,634,787.1,636.6,787.6,639.3z"/>
				<path class="st18" d="M789.3,661.8L789.3,661.8c1.8,1.3,4.8,0.1,6.6-2.5l11-15.9c1.8-2.6,1.8-5.8,0-7.1l0,0
					c-1.8-1.3-4.8-0.1-6.6,2.5l-11,15.9C787.5,657.4,787.5,660.6,789.3,661.8z"/>
			</g>
		</g>
		<path class="st21" d="M753.3,518.1L753.3,518.1c-3,0-5.4-3-5.4-6.6c0,0,2.4-16.1,5.4-16.1l0,0c3,0,5.4,16.1,5.4,16.1
			C758.7,515.1,756.3,518.1,753.3,518.1z"/>
		<path class="st15" d="M739.4,500.7c0,1.8-1.5,3.3-3.3,3.3c-1.8,0-3.3-1.5-3.3-3.3c0-1.8,1.5-3.3,3.3-3.3
			C737.9,497.4,739.4,498.9,739.4,500.7z"/>
		<path class="st30" d="M760.3,524.3c-4.2,4.2-11,4.2-15.2,0"/>
		<g>
			<path class="st15" d="M742.8,500.2c-1.3-0.7-2.7-1.1-4.1-1.4c-1.4-0.3-2.7-0.3-4.1,0c-1.5,0.3-3,0.4-4.6,0.2
				c-1.5-0.1-3-0.5-4.4-1.1c1.5,0,3,0,4.4,0c1.4-0.1,2.8-0.2,4.2-0.5c1.5-0.3,3.2-0.2,4.7,0.3C740.5,498.2,741.8,499,742.8,500.2z"
				/>
		</g>
		<path class="st15" d="M766.8,500.7c0,1.8,1.5,3.3,3.3,3.3c1.8,0,3.3-1.5,3.3-3.3c0-1.8-1.5-3.3-3.3-3.3
			C768.3,497.4,766.8,498.9,766.8,500.7z"/>
		<g>
			<path class="st15" d="M783.4,492.5c-0.4-1.8-1.3-3.6-2.9-4.6c-1.6-0.9-3.5-1.1-5.3-1.1c-1.8,0-3.7,0.3-5.5,0.6
				c-1.8,0.3-3.7,0.7-5.5,1l0,0c-0.4,0.1-0.8-0.2-0.9-0.6c-0.1-0.4,0.2-0.8,0.6-0.9c0,0,0,0,0,0c1.9-0.3,3.7-0.5,5.6-0.7
				c1.9-0.2,3.8-0.3,5.7-0.2c1.9,0.1,3.9,0.4,5.5,1.5C782.3,488.8,783.2,490.7,783.4,492.5z"/>
		</g>
		<g>
			<path class="st15" d="M722.6,492.5c0.3-1.8,1.1-3.7,2.7-4.9c1.6-1.1,3.6-1.4,5.5-1.5c1.9-0.1,3.8,0,5.7,0.2
				c1.9,0.2,3.7,0.4,5.6,0.7c0.4,0.1,0.7,0.4,0.6,0.8c-0.1,0.4-0.4,0.7-0.8,0.6c0,0,0,0,0,0l0,0c-1.8-0.4-3.7-0.7-5.5-1
				c-1.8-0.3-3.7-0.5-5.5-0.6c-1.8,0-3.7,0.2-5.3,1.1C723.9,488.9,723,490.7,722.6,492.5z"/>
		</g>
		<g>
			<path class="st15" d="M764.8,500.2c1-1.2,2.3-2,3.8-2.5c1.5-0.5,3.1-0.6,4.7-0.3c1.4,0.3,2.8,0.4,4.2,0.5c1.4,0.1,2.9,0.1,4.4,0
				c-1.4,0.6-2.9,1-4.4,1.1c-1.5,0.2-3,0.1-4.6-0.2c-1.3-0.3-2.7-0.3-4.1,0C767.5,499.1,766.1,499.5,764.8,500.2z"/>
		</g>
		<g>
			<g>
				<circle class="st15" cx="693" cy="498.3" r="9"/>
				<circle class="st15" cx="694" cy="510.5" r="9"/>
				<path class="st15" d="M717.1,533c0,5-4,9-9,9c-5,0-9-4-9-9c0-5,4-9,9-9C713.1,524,717.1,528,717.1,533z"/>
				<path class="st15" d="M700.6,488c-1.2,4.8-6.1,7.7-11,6.5c-4.8-1.2-7.7-6.1-6.5-11c1.2-4.8,6.1-7.7,11-6.5
					C699,478.3,701.9,483.2,700.6,488z"/>
				<path class="st15" d="M701.9,477.8c-2.4,4.4-7.9,6-12.2,3.6c-4.4-2.4-6-7.9-3.6-12.2c2.4-4.4,7.9-6,12.2-3.6
					C702.7,467.9,704.3,473.4,701.9,477.8z"/>
				<path class="st15" d="M705.7,468.2c-3.4,3.6-9.1,3.8-12.7,0.4c-3.6-3.4-3.8-9.1-0.4-12.7c3.4-3.6,9.1-3.8,12.7-0.4
					C708.9,458.8,709.1,464.5,705.7,468.2z"/>
				<path class="st15" d="M711.7,459.8c-4.2,2.7-9.8,1.5-12.4-2.7c-2.7-4.2-1.5-9.8,2.7-12.4c4.2-2.7,9.8-1.5,12.4,2.7
					C717.1,451.5,715.9,457.1,711.7,459.8z"/>
				<path class="st15" d="M719.6,453.1c-4.7,1.6-9.8-1-11.4-5.7c-1.6-4.7,1-9.8,5.7-11.4c4.7-1.6,9.8,1,11.4,5.7
					C726.9,446.5,724.3,451.6,719.6,453.1z"/>
				<path class="st15" d="M728.9,448.7c-5,0.3-9.3-3.4-9.6-8.4c-0.3-5,3.4-9.3,8.4-9.6c5-0.3,9.3,3.4,9.6,8.4
					C737.7,444,733.9,448.3,728.9,448.7z"/>
				<path class="st15" d="M739.1,446.7c-4.9-0.9-8.1-5.6-7.2-10.5c0.9-4.9,5.6-8.1,10.5-7.2c4.9,0.9,8.1,5.6,7.2,10.5
					C748.7,444.3,744,447.6,739.1,446.7z"/>
				<path class="st15" d="M749.4,447.2c-4.5-2.1-6.5-7.4-4.4-12c2.1-4.5,7.4-6.5,12-4.4c4.5,2.1,6.5,7.4,4.4,12
					C759.3,447.3,753.9,449.3,749.4,447.2z"/>
				<path class="st15" d="M759.2,450.3c-3.9-3.1-4.4-8.8-1.3-12.7s8.8-4.4,12.7-1.3c3.9,3.1,4.4,8.8,1.3,12.7
					C768.8,452.9,763.1,453.5,759.2,450.3z"/>
				<path class="st15" d="M768,455.8c-3-4-2.1-9.6,1.9-12.6c4-3,9.6-2.1,12.6,1.9c3,4,2.1,9.6-1.9,12.6
					C776.6,460.6,771,459.8,768,455.8z"/>
				<path class="st15" d="M775.2,463.2c-1.9-4.6,0.3-9.9,4.9-11.7c4.6-1.9,9.9,0.3,11.7,4.9c1.9,4.6-0.3,9.9-4.9,11.7
					C782.3,470,777.1,467.8,775.2,463.2z"/>
				<path class="st15" d="M780.3,472.2c-0.7-4.9,2.8-9.5,7.7-10.1c4.9-0.7,9.5,2.8,10.1,7.7c0.7,4.9-2.8,9.5-7.7,10.1
					C785.5,480.6,780.9,477.1,780.3,472.2z"/>
				<path class="st15" d="M783,482.2c0.6-4.9,5-8.5,10-7.9c4.9,0.6,8.5,5,7.9,10c-0.6,4.9-5,8.5-10,7.9
					C785.9,491.6,782.4,487.1,783,482.2z"/>
				<path class="st15" d="M783.1,492.5c1.8-4.6,7-7,11.6-5.2c4.6,1.8,7,7,5.2,11.6c-1.8,4.6-7,7-11.6,5.2
					C783.7,502.4,781.3,497.2,783.1,492.5z"/>
				<path class="st15" d="M701.7,534.8L701.7,534.8c-5.4,0-9.8-4.4-9.8-9.8v-53.7c0-5.4,4.4-9.8,9.8-9.8l0,0c5.4,0,9.8,4.4,9.8,9.8
					v53.7C711.5,530.4,707.1,534.8,701.7,534.8z"/>
				<path class="st15" d="M712.1,478.8c-3-4-2.1-9.6,1.9-12.6c4-3,9.6-2.1,12.6,1.9c3,4,2.1,9.6-1.9,12.6
					C720.7,483.7,715,482.8,712.1,478.8z"/>
				<path class="st15" d="M705,491.2c-3-4-2.1-9.6,1.9-12.6c4-3,9.6-2.1,12.6,1.9c3,4,2.1,9.6-1.9,12.6
					C713.6,496,707.9,495.2,705,491.2z"/>
				<path class="st15" d="M703.2,504.7c-3-4-2.1-9.6,1.9-12.6c4-3,9.6-2.1,12.6,1.9c3,4,2.1,9.6-1.9,12.6
					C711.8,509.5,706.2,508.7,703.2,504.7z"/>
				<path class="st15" d="M703.2,520.4c-3-4-2.1-9.6,1.9-12.6c4-3,9.6-2.1,12.6,1.9c3,4,2.1,9.6-1.9,12.6
					C711.8,525.2,706.2,524.4,703.2,520.4z"/>
				<path class="st15" d="M746.5,465.6c0,6.9-5.6,12.6-12.6,12.6c-6.9,0-12.6-5.6-12.6-12.6c0-6.9,5.6-12.6,12.6-12.6
					C740.9,453,746.5,458.6,746.5,465.6z"/>
				
					<ellipse transform="matrix(0.2305 -0.9731 0.9731 0.2305 132.975 1086.9883)" class="st15" cx="753.8" cy="459.4" rx="12.6" ry="12.6"/>
				
					<ellipse transform="matrix(0.7071 -0.7071 0.7071 0.7071 -98.6036 680.7877)" class="st15" cx="772.5" cy="459.4" rx="12.6" ry="12.6"/>
				<path class="st15" d="M794.6,461.2c0,6-4.9,10.9-10.9,10.9s-10.9-4.9-10.9-10.9c0-6,4.9-10.9,10.9-10.9S794.6,455.2,794.6,461.2
					z"/>
				<circle class="st15" cx="762.7" cy="451.9" r="12.6"/>
				<path class="st15" d="M755.1,448.9c0,6.9-5.6,12.6-12.6,12.6c-6.9,0-12.6-5.6-12.6-12.6c0-6.9,5.6-12.6,12.6-12.6
					C749.4,436.4,755.1,442,755.1,448.9z"/>
				<circle class="st15" cx="724" cy="453" r="12.6"/>
				<path class="st15" d="M722.7,466.6c-1.7,6.7-8.5,10.9-15.2,9.2c-6.7-1.7-10.9-8.5-9.2-15.2c1.7-6.7,8.5-10.9,15.2-9.2
					C720.2,453,724.3,459.8,722.7,466.6z"/>
			</g>
		</g>
		<g>
			<g>
				<path class="st15" d="M802.7,497c0,5,4,9,9,9s9-4,9-9c0-5-4-9-9-9S802.7,492,802.7,497z"/>
				<circle class="st15" cx="810.6" cy="509.2" r="9"/>
				<circle class="st15" cx="796.5" cy="531.7" r="9"/>
				<path class="st15" d="M804,486.8c1.2,4.8,6.1,7.7,11,6.5c4.8-1.2,7.7-6.1,6.5-11c-1.2-4.8-6.1-7.7-11-6.5
					C805.7,477,802.8,481.9,804,486.8z"/>
				<path class="st15" d="M802.7,476.5c2.4,4.4,7.9,6,12.2,3.6c4.4-2.4,6-7.9,3.6-12.2c-2.4-4.4-7.9-6-12.2-3.6
					C801.9,466.7,800.3,472.1,802.7,476.5z"/>
				<path class="st15" d="M799,466.9c3.4,3.6,9.1,3.8,12.7,0.4c3.6-3.4,3.8-9.1,0.4-12.7c-3.4-3.6-9.1-3.8-12.7-0.4
					C795.8,457.5,795.6,463.2,799,466.9z"/>
				<path class="st15" d="M792.9,458.5c4.2,2.7,9.8,1.5,12.4-2.7c2.7-4.2,1.5-9.8-2.7-12.4c-4.2-2.7-9.8-1.5-12.4,2.7
					C787.5,450.2,788.7,455.8,792.9,458.5z"/>
				<path class="st15" d="M785,451.9c4.7,1.6,9.8-1,11.4-5.7c1.6-4.7-1-9.8-5.7-11.4c-4.7-1.6-9.8,1-11.4,5.7
					C777.7,445.2,780.3,450.3,785,451.9z"/>
				<path class="st15" d="M775.7,447.4c5,0.3,9.3-3.4,9.6-8.4c0.3-5-3.4-9.3-8.4-9.6c-5-0.3-9.3,3.4-9.6,8.4
					C767,442.8,770.7,447,775.7,447.4z"/>
				<path class="st15" d="M765.6,445.4c4.9-0.9,8.1-5.6,7.2-10.5c-0.9-4.9-5.6-8.1-10.5-7.2c-4.9,0.9-8.1,5.6-7.2,10.5
					C756,443,760.7,446.3,765.6,445.4z"/>
				<path class="st15" d="M755.2,445.9c4.5-2.1,6.5-7.4,4.4-12c-2.1-4.5-7.4-6.5-12-4.4c-4.5,2.1-6.5,7.4-4.4,12
					C745.4,446.1,750.7,448,755.2,445.9z"/>
				<path class="st15" d="M745.4,449c3.9-3.1,4.4-8.8,1.3-12.7c-3.1-3.9-8.8-4.4-12.7-1.3c-3.9,3.1-4.4,8.8-1.3,12.7
					C735.9,451.6,741.5,452.2,745.4,449z"/>
				<path class="st15" d="M736.6,454.5c3-4,2.1-9.6-1.9-12.6c-4-3-9.6-2.1-12.6,1.9c-3,4-2.1,9.6,1.9,12.6
					C728,459.3,733.6,458.5,736.6,454.5z"/>
				<path class="st15" d="M729.4,461.9c1.9-4.6-0.3-9.9-4.9-11.7c-4.6-1.9-9.9,0.3-11.7,4.9c-1.9,4.6,0.3,9.9,4.9,11.7
					C722.3,468.8,727.6,466.5,729.4,461.9z"/>
				<path class="st15" d="M724.4,470.9c0.7-4.9-2.8-9.5-7.7-10.1c-4.9-0.7-9.5,2.8-10.1,7.7c-0.7,4.9,2.8,9.5,7.7,10.1
					C719.1,479.3,723.7,475.9,724.4,470.9z"/>
				<path class="st15" d="M721.7,480.9c-0.6-4.9-5-8.5-10-7.9c-4.9,0.6-8.5,5-7.9,10c0.6,4.9,5,8.5,10,7.9
					C718.7,490.3,722.2,485.8,721.7,480.9z"/>
				<path class="st15" d="M721.5,491.2c-1.8-4.6-7-7-11.6-5.2c-4.6,1.8-7,7-5.2,11.6c1.8,4.6,7,7,11.6,5.2
					C721,501.1,723.3,495.9,721.5,491.2z"/>
				<path class="st15" d="M802.9,533.5L802.9,533.5c5.4,0,9.8-4.4,9.8-9.8v-53.7c0-5.4-4.4-9.8-9.8-9.8l0,0c-5.4,0-9.8,4.4-9.8,9.8
					v53.7C793.2,529.2,797.6,533.5,802.9,533.5z"/>
				<path class="st15" d="M792.6,477.5c3-4,2.1-9.6-1.9-12.6c-4-3-9.6-2.1-12.6,1.9c-3,4-2.1,9.6,1.9,12.6
					C784,482.4,789.6,481.5,792.6,477.5z"/>
				<path class="st15" d="M799.7,489.9c3-4,2.1-9.6-1.9-12.6c-4-3-9.6-2.1-12.6,1.9c-3,4-2.1,9.6,1.9,12.6
					C791.1,494.7,796.7,493.9,799.7,489.9z"/>
				<path class="st15" d="M801.4,503.4c3-4,2.1-9.6-1.9-12.6c-4-3-9.6-2.1-12.6,1.9c-3,4-2.1,9.6,1.9,12.6
					C792.8,508.2,798.4,507.4,801.4,503.4z"/>
				<path class="st15" d="M801.4,519.1c3-4,2.1-9.6-1.9-12.6c-4-3-9.6-2.1-12.6,1.9c-3,4-2.1,9.6,1.9,12.6
					C792.8,524,798.4,523.1,801.4,519.1z"/>
				<path class="st15" d="M758.1,464.3c0,6.9,5.6,12.6,12.6,12.6c6.9,0,12.6-5.6,12.6-12.6c0-6.9-5.6-12.6-12.6-12.6
					C763.7,451.7,758.1,457.3,758.1,464.3z"/>
				<circle class="st15" cx="750.9" cy="458.1" r="12.6"/>
				<circle class="st15" cx="732.1" cy="458.1" r="12.6"/>
				<circle class="st15" cx="721" cy="459.9" r="10.9"/>
				<circle class="st15" cx="741.9" cy="450.6" r="12.6"/>
				<path class="st15" d="M749.6,447.6c0,6.9,5.6,12.6,12.6,12.6s12.6-5.6,12.6-12.6c0-6.9-5.6-12.6-12.6-12.6
					S749.6,440.7,749.6,447.6z"/>
				<circle class="st15" cx="780.6" cy="451.7" r="12.6"/>
				<path class="st15" d="M781.9,465.3c1.7,6.7,8.5,10.9,15.2,9.2c6.7-1.7,10.9-8.5,9.2-15.2c-1.7-6.7-8.5-10.9-15.2-9.2
					C784.4,451.7,780.3,458.5,781.9,465.3z"/>
			</g>
		</g>
	</g>
	<polyline class="st14" points="345.6,554.5 355.1,564 375.7,543.4 	"/>
	<polyline class="st14" points="345.6,639.6 355.1,649.2 375.7,628.5 	"/>
	<polyline class="st14" points="492.1,781 501.6,790.5 522.2,769.9 	"/>
	<polyline class="st14" points="488.7,602.2 498.2,611.7 518.8,591 	"/>
</g>
</svg>
