<?xml version="1.0" encoding="utf-8"?>
<!-- Generator: Adobe Illustrator 25.0.0, SVG Export Plug-In . SVG Version: 6.00 Build 0)  -->
<svg version="1.1" id="Calque_1" xmlns="http://www.w3.org/2000/svg" xmlns:xlink="http://www.w3.org/1999/xlink" x="0px" y="0px"
	 viewBox="0 0 1000 1000" style="enable-background:new 0 0 1000 1000;" xml:space="preserve">
<style type="text/css">
	.st0{fill:#FBC20A;}
	.st1{fill:#FFFFFF;}
	.st2{display:none;}
	.st3{display:inline;fill:#FFFFFF;}
	.st4{font-family:'Arial-Black';}
	.st5{font-size:121.8771px;}
	.st6{opacity:0.43;}
	.st7{fill:#CDEEFF;}
	.st8{opacity:0.13;fill:#464648;}
	.st9{fill:#7CBBCA;}
	.st10{enable-background:new    ;}
	.st11{fill:#E2E2E4;}
	.st12{fill:#7A7D7E;}
	.st13{fill:#95CAD6;}
	.st14{fill:#A9DAEB;}
	.st15{fill:#CFB02E;}
	.st16{fill:#E8C638;}
	.st17{fill:#FDDA48;}
	.st18{fill:#FD5A41;}
	.st19{fill:#88BFCC;}
	.st20{fill:#B5B1B4;}
	.st21{fill:#DEDBD9;}
	.st22{fill:#FDFDFD;}
	.st23{fill:#4F4F60;}
	.st24{opacity:0.61;}
	.st25{fill:#2C91C7;fill-opacity:0.2;}
	.st26{opacity:0.2;fill:#2C91C7;enable-background:new    ;}
	.st27{display:inline;fill:#474180;}
	.st28{opacity:0.9608;fill:#EBF6FF;enable-background:new    ;}
	.st29{fill:#D1E9ED;}
	.st30{fill:#934735;}
	.st31{opacity:7.000000e-02;fill:#010101;}
	.st32{fill:#002018;}
	.st33{opacity:0.21;fill:#010101;}
	.st34{fill:#FBFCFF;}
	.st35{fill:#142B35;}
	.st36{fill:#1F3C4C;}
	.st37{opacity:0.43;fill:#142F3A;}
	.st38{opacity:0.1;fill:#3A3132;}
	.st39{fill:#EC4A3B;}
	.st40{fill:#884133;}
	.st41{fill:#EEC536;}
	.st42{fill:#77B1BF;}
	.st43{fill:#E2E9F5;}
	.st44{fill:#5C84D0;}
	.st45{fill:#DCEEF0;}
	.st46{fill:#93CCDA;}
	.st47{fill:#FFD458;}
</style>
<rect x="-8.1" y="-8.1" class="st0" width="1016.2" height="1016.2"/>
<path class="st1" d="M72,131.5v-41h114v28.7l-51.4,228.7H90.7l48.6-216.3H72z"/>
<text transform="matrix(0.6772 0 0 1 266.4551 200.4673)" class="st2"><tspan x="0" y="0" class="st3 st4 st5">NUMERIQUE</tspan><tspan x="0" y="146.3" class="st3 st4 st5">EDUCATIF</tspan></text>
<g>
	<path class="st1" d="M272.6,113.2h17l22.2,48.3v-48.3h17.2v87.2h-17.2l-22.1-47.9v47.9h-17.2V113.2z"/>
	<path class="st1" d="M379.7,113.2h18.2v52c0,5.2-0.5,10-1.6,14.6c-1.1,4.6-2.8,8.6-5.1,12c-2.3,3.4-4.8,5.8-7.3,7.2
		c-3.5,1.9-7.8,2.9-12.8,2.9c-2.9,0-6-0.3-9.4-0.9c-3.4-0.6-6.2-1.8-8.5-3.5c-2.3-1.8-4.4-4.3-6.3-7.5c-1.9-3.3-3.2-6.6-3.9-10.1
		c-1.1-5.6-1.7-10.5-1.7-14.7v-52h18.2v53.2c0,4.8,0.9,8.5,2.7,11.1c1.8,2.7,4.3,4,7.4,4c3.1,0,5.6-1.3,7.4-4
		c1.8-2.6,2.7-6.4,2.7-11.2V113.2z"/>
	<path class="st1" d="M409.8,113.2h24l9.3,53.1l9.2-53.1h24v87.2h-15v-66.5l-11.5,66.5h-13.5l-11.5-66.5v66.5h-15V113.2z"/>
	<path class="st1" d="M487.9,113.2h48.9v18.6h-30.6v13.9h28.4v17.8h-28.4v17.2h31.5v19.8h-49.8V113.2z"/>
	<path class="st1" d="M547.8,200.5v-87.2h30.4c5.6,0,10,0.7,12.9,2.1s5.4,4.1,7.2,7.9c1.8,3.9,2.7,8.6,2.7,14.1
		c0,4.8-0.7,9-2.1,12.5c-1.4,3.5-3.3,6.4-5.8,8.5c-1.6,1.4-3.7,2.5-6.4,3.5c2.2,1.1,3.8,2.1,4.8,3.2c0.7,0.7,1.6,2.2,2.9,4.6
		s2.1,4.1,2.6,5.4l8.8,25.3h-20.6l-9.8-26.7c-1.2-3.5-2.3-5.7-3.3-6.7c-1.3-1.3-2.8-2-4.5-2h-1.6v35.4H547.8z M566.1,148.6h7.7
		c0.8,0,2.4-0.4,4.8-1.2c1.2-0.4,2.2-1.3,3-2.7c0.8-1.5,1.1-3.2,1.1-5.1c0-2.8-0.6-5-1.8-6.5c-1.2-1.5-3.5-2.3-6.8-2.3h-8V148.6z"/>
	<path class="st1" d="M612.4,113.2h18.3v87.2h-18.3V113.2z"/>
	<path class="st1" d="M696.3,187.7c2.3,2.3,3.8,3.8,4.5,4.4c1,0.9,2.5,1.9,4.2,3l-5.1,15.1c-2.6-1.8-5.1-4-7.6-6.5
		c-2.5-2.5-4.2-4.4-5.2-5.7c-4,2.6-9.1,3.9-15.2,3.9c-9,0-16.1-3.5-21.2-10.4c-6.1-8.2-9.2-19.7-9.2-34.5c0-14.4,2.7-25.5,8-33.5
		c5.4-8,12.8-11.9,22.5-11.9c9.8,0,17.4,3.9,22.7,11.7c5.3,7.8,8,18.9,8,33.4C702.8,169.7,700.6,180,696.3,187.7z M682.3,173.9
		c1.5-3.8,2.2-9.6,2.2-17.3c0-8.8-1.1-15.1-3.3-18.9c-2.2-3.8-5.3-5.7-9.2-5.7c-3.6,0-6.6,1.9-8.8,5.8c-2.3,3.8-3.4,9.9-3.4,18
		c0,9.5,1.1,16.2,3.3,20.1c2.2,3.8,5.2,5.8,9.1,5.8c1.2,0,2.4-0.2,3.5-0.5c-1.5-2.2-3.9-4.2-7.3-6.2l2.9-9.7c1.6,0.4,2.9,1,3.8,1.6
		c0.9,0.6,2.7,2.3,5.3,5C680.9,172.6,681.6,173.3,682.3,173.9z"/>
	<path class="st1" d="M751,113.2h18.2v52c0,5.2-0.5,10-1.6,14.6c-1.1,4.6-2.8,8.6-5.1,12s-4.8,5.8-7.3,7.2
		c-3.5,1.9-7.8,2.9-12.8,2.9c-2.9,0-6-0.3-9.4-0.9c-3.4-0.6-6.2-1.8-8.5-3.5c-2.3-1.8-4.4-4.3-6.3-7.5c-1.9-3.3-3.2-6.6-3.9-10.1
		c-1.1-5.6-1.7-10.5-1.7-14.7v-52h18.2v53.2c0,4.8,0.9,8.5,2.7,11.1c1.8,2.7,4.3,4,7.4,4c3.1,0,5.6-1.3,7.4-4s2.7-6.4,2.7-11.2
		V113.2z"/>
	<path class="st1" d="M781.3,113.2h48.9v18.6h-30.6v13.9H828v17.8h-28.4v17.2h31.5v19.8h-49.8V113.2z"/>
	<path class="st1" d="M272.5,259.5h48.9v18.6h-30.6V292h28.4v17.8h-28.4V327h31.5v19.8h-49.8V259.5z"/>
	<path class="st1" d="M332.3,259.5h27.1c5.3,0,9.7,1.1,13,3.2c3.3,2.1,6,5.2,8.2,9.2c2.1,4,3.7,8.7,4.7,14c1,5.3,1.5,10.9,1.5,16.9
		c0,9.3-0.7,16.6-2.2,21.7c-1.4,5.1-3.4,9.4-6,12.9c-2.6,3.5-5.3,5.8-8.2,6.9c-4,1.6-7.6,2.4-10.9,2.4h-27.1V259.5z M350.6,279.2
		v47.7h4.5c3.8,0,6.5-0.6,8.1-1.9c1.6-1.2,2.9-3.4,3.8-6.5c0.9-3.1,1.4-8.2,1.4-15.1c0-9.2-1-15.6-3.1-19c-2-3.4-5.4-5.1-10.2-5.1
		H350.6z"/>
	<path class="st1" d="M434.8,259.5H453v52c0,5.2-0.5,10-1.6,14.6c-1.1,4.6-2.8,8.6-5.1,12c-2.3,3.4-4.8,5.8-7.3,7.2
		c-3.5,1.9-7.8,2.9-12.8,2.9c-2.9,0-6-0.3-9.4-0.9c-3.4-0.6-6.2-1.8-8.5-3.5c-2.3-1.8-4.4-4.3-6.3-7.5c-1.9-3.3-3.2-6.6-3.9-10.1
		c-1.1-5.6-1.7-10.5-1.7-14.7v-52h18.2v53.2c0,4.8,0.9,8.5,2.7,11.1c1.8,2.7,4.3,4,7.4,4c3.1,0,5.6-1.3,7.4-4
		c1.8-2.6,2.7-6.4,2.7-11.2V259.5z"/>
	<path class="st1" d="M504.4,311l16,7.1c-1.1,6.6-2.8,12.2-5.1,16.6c-2.3,4.4-5.2,7.8-8.6,10.1s-7.8,3.4-13.1,3.4
		c-6.4,0-11.7-1.4-15.7-4.1c-4.1-2.8-7.6-7.6-10.5-14.5c-3-6.9-4.4-15.8-4.4-26.6c0-14.4,2.6-25.5,7.8-33.3
		c5.2-7.8,12.6-11.6,22.1-11.6c7.4,0,13.3,2.2,17.6,6.7c4.3,4.4,7.4,11.3,9.5,20.5l-16.1,5.3c-0.6-2.7-1.2-4.6-1.8-5.8
		c-1-2.1-2.3-3.6-3.7-4.8c-1.5-1.1-3.1-1.7-5-1.7c-4.1,0-7.3,2.5-9.5,7.4c-1.7,3.6-2.5,9.4-2.5,17.2c0,9.7,1,16.3,3,19.9
		c2,3.6,4.8,5.4,8.4,5.4c3.5,0,6.1-1.4,7.9-4.3C502.3,320.7,503.6,316.5,504.4,311z"/>
	<path class="st1" d="M565.6,332.3h-20.7l-2.9,14.4h-18.6l22.2-87.2h19.9l22.2,87.2h-19.1L565.6,332.3z M561.8,313.5l-6.5-31.4
		l-6.5,31.4H561.8z"/>
	<path class="st1" d="M583.6,259.5h55.5V281h-18.6v65.7h-18.3V281h-18.6V259.5z"/>
	<path class="st1" d="M648.1,259.5h18.3v87.2h-18.3V259.5z"/>
	<path class="st1" d="M679.6,259.5h45.1v18.7h-26.8v15.2h22.9v17.6h-22.9v35.6h-18.3V259.5z"/>
</g>
<g>
	<g class="st6">
		<path class="st7" d="M736.3,903.8c-112.9,64.8-294.9,64.3-406.7-1c-111.8-65.3-111.1-170.9,1.7-235.7c112.9-64.8,295.2-64.3,407,1
			C850.2,733.5,849.1,839,736.3,903.8z"/>
	</g>
	<g>
		<g>
			<g>
				<path class="st8" d="M376.8,946.5L376.8,946.5c-2.4,1.4-6.3,1.4-8.7,0l0,0l-133.4-78.3c-0.1-0.1-5.2-3.4-8.7-1.2
					c-3.9,2.5-7.4,4.5-9.7,5.8c-2.4,1.4-4.9,6.4,4.9,11.6l146.2,86.3c2.4,1.4,6.3,1.4,8.7,0l173.2-102.1c1.2-0.7,1.3-3.5-0.5-4.7
					l-24.7-12L376.8,946.5z"/>
				<path class="st9" d="M546.3,852.8l-142-70.9v-30.7L219.7,859.5l-3.6,6l2.1,13.3l4.4,5.5l139.6,77.1c2.4,1.4,6.3,1.4,8.7,0
					l175.3-103.4C548.7,856.5,548.7,854.2,546.3,852.8z"/>
				<g>
					<g class="st10">
						<g class="st10">
							<polygon class="st11" points="365.9,941.5 365.9,959 225,875.4 225,857.9 							"/>
						</g>
						<g>
							<polygon class="st1" points="538.7,843.1 538.7,857.6 365.9,959 365.9,941.5 							"/>
						</g>
						<g>
							<polygon class="st12" points="364.5,940.1 229.1,859.1 368.4,778.4 507.8,859.6 							"/>
						</g>
					</g>
				</g>
				<path class="st13" d="M225.5,867.7l136.8,80.5c1.2,0.7,2.8,1.1,4.4,1.1c1.6,0,3.1-0.4,4.3-1l175.4-103.4
					c1.2-0.7,1.8-1.6,1.8-2.6v-5.6c0,0.9-0.6,1.8-1.8,2.6L371,942.6c-2.4,1.4-6.3,1.4-8.7,0l-141.8-83c-0.1-0.1-5.2-3.4-8.7-1.2
					c-3.9,2.5-3.3,7.8-3.3,7.8v0.1c0,12.4,7.3,15.5,11.7,17.7l141.4,82.9l0,0c2.4,1.4,6.3,1.4,8.7,0l175.3-103.4
					c1.2-0.7,1.8-1.6,1.8-2.5l0.7-5.6c0,0.9-0.6,1.9-1.8,2.6L371,961.3c-1.2,0.7-2.8,1.1-4.4,1.1c-1.6,0-3.2-0.4-4.4-1.1v0
					c0,0,0,0,0,0l0,0l-140.7-82.2c-3.8-2.3-3.8-6.6-3.8-7.4v-0.9C217.8,863.4,224.6,867.2,225.5,867.7z"/>
				<path class="st14" d="M546.3,834.2l-142-83.2l0,0l-1.9-1.1c-2-1.2-5-1.1-7.4,0.2L211.7,858.4c0.1,0,1.7-0.4,2.4-0.2l5.7,1.6
					l142.5,82.8c2.4,1.4,6.3,1.4,8.7,0l175.3-103.4C548.7,837.9,548.7,835.6,546.3,834.2z"/>
				<path class="st8" d="M370.4,948.5c-0.9,0.5-3.1,0.8-4.2,0.8c-1.2,0-2.9-0.4-3.8-0.9l-137.8-81c-0.7-0.4-5.2-2.3-6.3,0.7
					l143.4,84.2c2.5,1.5,5.7,1.5,8.2,0l168.7-98.4v-4.5"/>
			</g>
			<g>
				<path class="st8" d="M379.4,905L379.4,905c-1.9,1.1-5.1,1.1-7,0l0,0l-106.7-62.6c-0.1-0.1-4.1-2.8-7-1c-3.1,2-5.9,3.6-7.8,4.7
					c-1.9,1.1-3.9,5.2,3.9,9.3l117,69c1.9,1.1,5.1,1.1,7,0l138.5-81.7c1-0.6,1-2.8-0.4-3.8l-19.8-9.6L379.4,905z"/>
				<path class="st15" d="M513.8,830.6l-112.6-66v-24.3l-146.4,85.9l-2.8,14.5l0.2,11.5l5.7,3l109.9,61.5c1.9,1.1,5,1.1,6.9,0
					l139.1-82C515.7,833.6,515.7,831.7,513.8,830.6z"/>
				<g>
					<g class="st10">
						<g class="st10">
							<polygon class="st11" points="370.7,891.2 370.7,914.9 259,848.6 259,824.9 							"/>
						</g>
						<g>
							<polygon class="st1" points="507.8,813.2 507.8,834.4 370.7,914.9 370.7,891.2 							"/>
						</g>
						<g>
							<polygon class="st12" points="369.6,890.1 262.2,825.9 372.7,761.8 483.3,826.3 							"/>
						</g>
					</g>
				</g>
				<path class="st16" d="M259.4,832.7l108.5,63.9v0c1,0.6,2.2,0.8,3.5,0.8c1.2,0,2.5-0.3,3.4-0.8l0,0l139.1-82
					c0.9-0.6,1.4-1.3,1.4-2v-4.4c0,0.7-0.5,1.5-1.4,2l-139.1,82v0c-1.9,1.1-5,1.1-6.9,0v0l-112.4-65.9c-0.1-0.1-4.1-2.7-6.9-1
					c-3.1,1.9-2.6,6.2-2.6,6.2v9.8c0,9.8,5.8,12.3,9.3,14l112.2,65.8l0,0c1.9,1.1,5,1.1,6.9,0l139.1-82c0.9-0.6,1.4-1.3,1.4-2
					l0.5-4.4c0,0.7-0.5,1.5-1.4,2l-139.1,82c-0.9,0.6-2.2,0.8-3.5,0.8c-1.3,0-2.5-0.3-3.5-0.8v0c0,0,0,0,0,0l0,0l-110.8-64.7
					c-3-1.8-3.8-5.7-3.8-6.3v-10.5C253.3,829.3,258.7,832.3,259.4,832.7z"/>
				<path class="st17" d="M513.8,806.1l-112.6-66l0,0l-1.5-0.9c-1.6-0.9-4-0.9-5.9,0.2l-145.4,86c0.1,0,1.3-0.3,1.9-0.1l4.5,1.3
					l113,65.7c1.9,1.1,5,1.1,6.9,0l139.1-82C515.7,809,515.7,807.2,513.8,806.1z"/>
				<path class="st8" d="M374,896.8c-0.8,0.5-1.8,0.7-2.9,0.7c-1,0-2.1-0.2-2.9-0.7v0l-109.1-64.3c-0.6-0.3-5.4-2.8-5.8,1.7L367,900
					c2.3,1.3,5.1,1.3,7.4,0l133.4-77.9v-4"/>
				<g>
					<path class="st8" d="M285.6,855.7l-17.6-10.2C268.1,845.6,278.9,850.8,285.6,855.7z"/>
					<path class="st18" d="M274,849.1c0,0-7.8,0.8-11.8,11.5l5.8-1l3.1,5.5c0,0,5-10.3,12-10.6L274,849.1z"/>
				</g>
				<g>
					<g>
						<g class="st10">
							<g>
								<path class="st1" d="M366.4,783.9l31-18c0.3-0.2,0.7-0.2,1,0l70.6,41.5c0.6,0.4,0.6,1.3,0,1.7l-31,18c-0.3,0.2-0.7,0.2-1,0
									l-70.6-41.5C365.7,785.2,365.7,784.3,366.4,783.9z"/>
							</g>
						</g>
					</g>
					<g>
						<g class="st10">
							<g>
								<path class="st19" d="M446.6,804.5c1.1,0.6,1.1,1.7,0,2.3c-1.1,0.6-2.9,0.6-4,0l-45.3-26.2c-1.1-0.6-1.1-1.7,0-2.3
									c1.1-0.6,2.9-0.6,4,0L446.6,804.5z"/>
							</g>
						</g>
					</g>
					<g>
						<g class="st10">
							<g>
								<path class="st19" d="M437,810.4c1.1,0.6,1.1,1.7,0,2.3c-1.1,0.6-2.9,0.6-4,0l-45.3-26.2c-1.1-0.6-1.1-1.7,0-2.3
									c1.1-0.6,2.9-0.6,4,0L437,810.4z"/>
							</g>
						</g>
					</g>
				</g>
			</g>
		</g>
		<g>
			<g>
				<g>
					<g>
						<g>
							<g>
								<path class="st20" d="M781.8,740.7L566.2,613.2c-9-4.9-16.3-16-16.3-24.7l-5.7-174.8c0,0,3-1.3,5.2-2.8c3-2,7.6-1.8,12.7,1
									L776.5,532c9,4.9,16.3,16,16.3,24.7v172c0,4.1-1.6,6.9-4.2,8.3C785.7,738.6,781.8,740.7,781.8,740.7z"/>
								<path class="st21" d="M770.5,738.9L556.1,618.8c-9-4.9-16.3-16-16.3-24.7V422c0-8.7,7.3-11.8,16.3-6.9l214.4,120.1
									c9,4.9,16.3,16,16.3,24.7v172C786.8,740.7,779.5,743.8,770.5,738.9z"/>
								<path class="st22" d="M764.1,714.6L561.3,601c-7.2-4-11.6-11.4-11.6-19.5V441.7c0-5.4,6.1-8.8,10.9-6.1l204.5,114.6
									c7.9,4.4,12.7,12.6,12.7,21.4v135.3C777.9,713.7,770.2,718,764.1,714.6z"/>
								<path class="st20" d="M669.3,487.9c0-1.6-1-3.5-2.3-4.2c-1.3-0.7-2.3,0-2.3,1.6c0,1.6,1,3.5,2.3,4.2
									C668.2,490.2,669.3,489.5,669.3,487.9z"/>
							</g>
							<path class="st20" d="M760.4,755l-142.5,77.8l-221.3-124l-15.7-8.8v7.8v2.8c0.4,2.4,1.9,4.7,4.4,6.1L605.1,840
								c4,2.2,8.4,3.4,12.8,3.5c4.9,0.1,9.7-1,14.1-3.5l138.5-77.6c2.5-1.4,4-3.7,4.4-6.1v-2.8v-6.1L760.4,755z"/>
							<path class="st21" d="M385.3,708.4l219.8,123.2c8.3,4.7,18.6,4.7,26.9,0L770.5,754c6-3.4,6-11.7,0-15.1L550.7,615.7
								c-8.3-4.7-18.6-4.7-26.9,0l-138.5,77.6C379.3,696.7,379.3,705.1,385.3,708.4z"/>
							<polygon class="st23" points="767.4,729.2 558.7,612.2 558.7,620.2 767.4,737.2 							"/>
							<g>
								<path class="st23" d="M504.8,649.5l-9.5-5.3c-0.6-0.3-0.6-0.8-0.1-1.1l6.5-3.7c0.5-0.3,1.4-0.3,1.9,0l9.5,5.3
									c0.6,0.3,0.6,0.8,0.1,1.1l-6.5,3.6C506.2,649.8,505.4,649.8,504.8,649.5z"/>
								<path class="st23" d="M517.2,656.4l-9.5-5.3c-0.6-0.3-0.6-0.8-0.1-1.1l6.5-3.6c0.5-0.3,1.4-0.3,1.9,0l9.5,5.3
									c0.6,0.3,0.6,0.8,0.1,1.1l-6.5,3.7C518.6,656.8,517.8,656.7,517.2,656.4z"/>
								<path class="st23" d="M529.6,663.4l-9.5-5.3c-0.6-0.3-0.6-0.8-0.1-1.1l6.5-3.6c0.5-0.3,1.4-0.3,1.9,0l9.5,5.3
									c0.6,0.3,0.6,0.8,0.1,1.1l-6.5,3.7C531,663.7,530.1,663.7,529.6,663.4z"/>
								<path class="st23" d="M542,670.3l-9.5-5.3c-0.6-0.3-0.6-0.8-0.1-1.1l6.5-3.7c0.5-0.3,1.4-0.3,1.9,0l9.5,5.3
									c0.6,0.3,0.6,0.8,0.1,1.1l-6.5,3.6C543.4,670.6,542.5,670.6,542,670.3z"/>
								<path class="st23" d="M554.4,677.3l-9.5-5.3c-0.6-0.3-0.6-0.8-0.1-1.1l6.5-3.6c0.5-0.3,1.4-0.3,1.9,0l9.5,5.3
									c0.6,0.3,0.6,0.8,0.1,1.1l-6.5,3.7C555.8,677.6,554.9,677.6,554.4,677.3z"/>
								<path class="st23" d="M566.8,684.2l-9.5-5.3c-0.6-0.3-0.6-0.8-0.1-1.1l6.5-3.7c0.5-0.3,1.4-0.3,1.9,0l9.5,5.3
									c0.6,0.3,0.6,0.8,0.1,1.1l-6.5,3.6C568.2,684.5,567.3,684.5,566.8,684.2z"/>
								<path class="st23" d="M579.1,691.1l-9.5-5.3c-0.6-0.3-0.6-0.8-0.1-1.1l6.5-3.7c0.5-0.3,1.4-0.3,1.9,0l9.5,5.3
									c0.6,0.3,0.6,0.8,0.1,1.1l-6.5,3.6C580.5,691.5,579.7,691.4,579.1,691.1z"/>
								<path class="st23" d="M591.5,698.1l-9.5-5.3c-0.6-0.3-0.6-0.8-0.1-1.1l6.5-3.6c0.5-0.3,1.4-0.3,1.9,0l9.5,5.3
									c0.6,0.3,0.6,0.8,0.1,1.1l-6.5,3.7C592.9,698.4,592.1,698.4,591.5,698.1z"/>
								<path class="st23" d="M603.9,705l-9.5-5.3c-0.6-0.3-0.6-0.8-0.1-1.1l6.5-3.7c0.5-0.3,1.4-0.3,1.9,0l9.5,5.3
									c0.6,0.3,0.6,0.8,0.1,1.1l-6.5,3.6C605.3,705.4,604.5,705.3,603.9,705z"/>
								<path class="st23" d="M616.3,712l-9.5-5.3c-0.6-0.3-0.6-0.8-0.1-1.1l6.5-3.7c0.5-0.3,1.4-0.3,1.9,0l9.5,5.3
									c0.6,0.3,0.6,0.8,0.1,1.1l-6.5,3.7C617.7,712.3,616.9,712.3,616.3,712z"/>
								<path class="st23" d="M628.7,718.9l-9.5-5.3c-0.6-0.3-0.6-0.8-0.1-1.1l6.5-3.7c0.5-0.3,1.4-0.3,1.9,0l9.5,5.3
									c0.6,0.3,0.6,0.8,0.1,1.1l-6.5,3.7C630.1,719.2,629.2,719.2,628.7,718.9z"/>
								<path class="st23" d="M641.1,725.8l-9.5-5.3c-0.6-0.3-0.6-0.8-0.1-1.1l6.5-3.6c0.5-0.3,1.4-0.3,1.9,0l9.5,5.3
									c0.6,0.3,0.6,0.8,0.1,1.1l-6.5,3.6C642.5,726.2,641.6,726.2,641.1,725.8z"/>
								<path class="st23" d="M653.5,732.8l-9.5-5.3c-0.6-0.3-0.6-0.8-0.1-1.1l6.5-3.7c0.5-0.3,1.4-0.3,1.9,0l9.5,5.3
									c0.6,0.3,0.6,0.8,0.1,1.1l-6.5,3.7C654.9,733.1,654,733.1,653.5,732.8z"/>
								<path class="st23" d="M685.3,750.6l-7.3-4.1c-0.6-0.3-0.6-0.8-0.1-1.1l6.5-3.7c0.5-0.3,1.4-0.3,1.9,0l7.3,4.1
									c0.6,0.3,0.6,0.8,0.1,1.1l-6.5,3.7C686.7,751,685.9,751,685.3,750.6z"/>
								<path class="st23" d="M695.4,756.3l-7.3-4.1c-0.6-0.3-0.6-0.8-0.1-1.1l6.5-3.6c0.5-0.3,1.4-0.3,1.9,0l7.3,4.1
									c0.6,0.3,0.6,0.8,0.1,1.1l-6.5,3.7C696.8,756.6,696,756.6,695.4,756.3z"/>
								<path class="st23" d="M705.6,762l-7.3-4.1c-0.6-0.3-0.6-0.8-0.1-1.1l6.5-3.7c0.5-0.3,1.4-0.3,1.9,0l7.3,4.1
									c0.6,0.3,0.6,0.8,0.1,1.1l-6.5,3.7C707,762.3,706.1,762.3,705.6,762z"/>
								<path class="st23" d="M715.7,767.7l-7.3-4.1c-0.6-0.3-0.6-0.8-0.1-1.1l6.5-3.7c0.5-0.3,1.4-0.3,1.9,0l7.3,4.1
									c0.6,0.3,0.6,0.8,0.1,1.1l-6.5,3.7C717.1,768,716.2,768,715.7,767.7z"/>
								<path class="st23" d="M674,757l-7.3-4.1c-0.6-0.3-0.6-0.8-0.1-1.1l6.5-3.7c0.5-0.3,1.4-0.3,1.9,0l7.3,4.1
									c0.6,0.3,0.6,0.8,0.1,1.1l-6.5,3.6C675.4,757.3,674.6,757.3,674,757z"/>
								<path class="st23" d="M684.1,762.7l-7.3-4.1c-0.6-0.3-0.6-0.8-0.1-1.1l6.5-3.7c0.5-0.3,1.4-0.3,1.9,0l7.3,4.1
									c0.6,0.3,0.6,0.8,0.1,1.1l-6.5,3.7C685.5,763,684.7,763,684.1,762.7z"/>
								<path class="st23" d="M694.2,768.3l-7.3-4.1c-0.6-0.3-0.6-0.8-0.1-1.1l6.5-3.7c0.5-0.3,1.4-0.3,1.9,0l7.3,4.1
									c0.6,0.3,0.6,0.8,0.1,1.1l-6.5,3.7C695.6,768.7,694.8,768.6,694.2,768.3z"/>
								<path class="st23" d="M662.7,763.4l-7.3-4.1c-0.6-0.3-0.6-0.8-0.1-1.1l6.5-3.7c0.5-0.3,1.4-0.3,1.9,0l7.3,4.1
									c0.6,0.3,0.6,0.8,0.1,1.1l-6.5,3.6C664.1,763.7,663.3,763.7,662.7,763.4z"/>
								<path class="st23" d="M672.8,769l-7.3-4.1c-0.6-0.3-0.6-0.8-0.1-1.1l6.5-3.6c0.5-0.3,1.4-0.3,1.9,0l7.3,4.1
									c0.6,0.3,0.6,0.8,0.1,1.1l-6.5,3.7C674.2,769.4,673.4,769.3,672.8,769z"/>
								<path class="st23" d="M682.9,774.7l-7.3-4.1c-0.6-0.3-0.6-0.8-0.1-1.1l6.5-3.7c0.5-0.3,1.4-0.3,1.9,0l7.3,4.1
									c0.6,0.3,0.6,0.8,0.1,1.1l-6.5,3.6C684.3,775,683.5,775,682.9,774.7z"/>
								<path class="st23" d="M693,780.4l-7.3-4.1c-0.6-0.3-0.6-0.8-0.1-1.1l17.8-10c0.5-0.3,1.4-0.3,1.9,0l7.3,4.1
									c0.6,0.3,0.6,0.8,0.1,1.1l-17.8,10C694.4,780.7,693.6,780.7,693,780.4z"/>
								<path class="st23" d="M651.4,769.7l-7.3-4.1c-0.6-0.3-0.6-0.8-0.1-1.1l6.5-3.6c0.5-0.3,1.4-0.3,1.9,0l7.3,4.1
									c0.6,0.3,0.6,0.8,0.1,1.1l-6.5,3.6C652.8,770,651.9,770,651.4,769.7z"/>
								<path class="st23" d="M661.5,775.4l-7.3-4.1c-0.6-0.3-0.6-0.8-0.1-1.1l6.5-3.6c0.5-0.3,1.4-0.3,1.9,0l7.3,4.1
									c0.6,0.3,0.6,0.8,0.1,1.1l-6.5,3.7C662.9,775.7,662.1,775.7,661.5,775.4z"/>
								<path class="st23" d="M671.6,781l-7.3-4.1c-0.6-0.3-0.6-0.8-0.1-1.1l6.5-3.6c0.5-0.3,1.4-0.3,1.9,0l7.3,4.1
									c0.6,0.3,0.6,0.8,0.1,1.1l-6.5,3.7C673,781.4,672.2,781.4,671.6,781z"/>
								<path class="st23" d="M640.1,776.1l-7.3-4.1c-0.6-0.3-0.6-0.8-0.1-1.1l6.5-3.6c0.5-0.3,1.4-0.3,1.9,0l7.3,4.1
									c0.6,0.3,0.6,0.8,0.1,1.1l-6.5,3.6C641.5,776.4,640.6,776.4,640.1,776.1z"/>
								<path class="st23" d="M650.2,781.7l-7.3-4.1c-0.6-0.3-0.6-0.8-0.1-1.1l6.5-3.6c0.5-0.3,1.4-0.3,1.9,0l7.3,4.1
									c0.6,0.3,0.6,0.8,0.1,1.1l-6.5,3.7C651.6,782.1,650.7,782,650.2,781.7z"/>
								<path class="st23" d="M660.3,787.4l-7.3-4.1c-0.6-0.3-0.6-0.8-0.1-1.1l6.5-3.6c0.5-0.3,1.4-0.3,1.9,0l7.3,4.1
									c0.6,0.3,0.6,0.8,0.1,1.1l-6.5,3.6C661.7,787.7,660.9,787.7,660.3,787.4z"/>
								<path class="st23" d="M670.4,793.1l-7.3-4.1c-0.6-0.3-0.6-0.8-0.1-1.1l17.8-10c0.5-0.3,1.4-0.3,1.9,0l7.3,4.1
									c0.6,0.3,0.6,0.8,0.1,1.1l-17.8,10C671.8,793.4,671,793.4,670.4,793.1z"/>
								<path class="st23" d="M673.8,744.2l-17.4-9.8c-0.6-0.3-0.6-0.8-0.1-1.1l6.5-3.7c0.5-0.3,1.4-0.3,1.9,0l17.4,9.8
									c0.6,0.3,0.6,0.8,0.1,1.1l-6.5,3.7C675.2,744.5,674.3,744.5,673.8,744.2z"/>
								<path class="st23" d="M523.6,638.9l-9.5-5.3c-0.6-0.3-0.6-0.8-0.1-1.1l6.5-3.6c0.5-0.3,1.4-0.3,1.9,0l9.5,5.3
									c0.6,0.3,0.6,0.8,0.1,1.1l-6.5,3.7C525.1,639.3,524.2,639.2,523.6,638.9z"/>
								<path class="st23" d="M536,645.9l-9.5-5.3c-0.6-0.3-0.6-0.8-0.1-1.1l6.5-3.7c0.5-0.3,1.4-0.3,1.9,0l9.5,5.3
									c0.6,0.3,0.6,0.8,0.1,1.1l-6.5,3.6C537.4,646.2,536.6,646.2,536,645.9z"/>
								<path class="st23" d="M548.4,652.8l-9.5-5.3c-0.6-0.3-0.6-0.8-0.1-1.1l6.5-3.6c0.5-0.3,1.4-0.3,1.9,0l9.5,5.3
									c0.6,0.3,0.6,0.8,0.1,1.1l-6.5,3.7C549.8,653.2,549,653.1,548.4,652.8z"/>
								<path class="st23" d="M560.8,659.8l-9.5-5.3c-0.6-0.3-0.6-0.8-0.1-1.1l6.5-3.7c0.5-0.3,1.4-0.3,1.9,0l9.5,5.3
									c0.6,0.3,0.6,0.8,0.1,1.1l-6.5,3.7C562.2,660.1,561.4,660.1,560.8,659.8z"/>
								<path class="st23" d="M573.2,666.7l-9.5-5.3c-0.6-0.3-0.6-0.8-0.1-1.1l6.5-3.7c0.5-0.3,1.4-0.3,1.9,0l9.5,5.3
									c0.6,0.3,0.6,0.8,0.1,1.1l-6.5,3.6C574.6,667,573.7,667,573.2,666.7z"/>
								<path class="st23" d="M585.6,673.6l-9.5-5.3c-0.6-0.3-0.6-0.8-0.1-1.1l6.5-3.6c0.5-0.3,1.4-0.3,1.9,0l9.5,5.3
									c0.6,0.3,0.6,0.8,0.1,1.1l-6.5,3.6C587,674,586.1,674,585.6,673.6z"/>
								<path class="st23" d="M598,680.6l-9.5-5.3c-0.6-0.3-0.6-0.8-0.1-1.1l6.5-3.7c0.5-0.3,1.4-0.3,1.9,0l9.5,5.3
									c0.6,0.3,0.6,0.8,0.1,1.1l-6.5,3.7C599.4,680.9,598.5,680.9,598,680.6z"/>
								<path class="st23" d="M610.4,687.5l-9.5-5.3c-0.6-0.3-0.6-0.8-0.1-1.1l6.5-3.7c0.5-0.3,1.4-0.3,1.9,0l9.5,5.3
									c0.6,0.3,0.6,0.8,0.1,1.1l-6.5,3.7C611.8,687.9,610.9,687.8,610.4,687.5z"/>
								<path class="st23" d="M622.7,694.5l-9.5-5.3c-0.6-0.3-0.6-0.8-0.1-1.1l6.5-3.7c0.5-0.3,1.4-0.3,1.9,0l9.5,5.3
									c0.6,0.3,0.6,0.8,0.1,1.1l-6.5,3.7C624.1,694.8,623.3,694.8,622.7,694.5z"/>
								<path class="st23" d="M635.1,701.4l-9.5-5.3c-0.6-0.3-0.6-0.8-0.1-1.1l6.5-3.7c0.5-0.3,1.4-0.3,1.9,0l9.5,5.3
									c0.6,0.3,0.6,0.8,0.1,1.1l-6.5,3.7C636.5,701.7,635.7,701.7,635.1,701.4z"/>
								<path class="st23" d="M647.5,708.4L638,703c-0.6-0.3-0.6-0.8-0.1-1.1l6.5-3.7c0.5-0.3,1.4-0.3,1.9,0l9.5,5.3
									c0.6,0.3,0.6,0.8,0.1,1.1l-6.5,3.7C648.9,708.7,648.1,708.7,647.5,708.4z"/>
								<path class="st23" d="M659.9,715.3l-9.5-5.3c-0.6-0.3-0.6-0.8-0.1-1.1l6.5-3.7c0.5-0.3,1.4-0.3,1.9,0l9.5,5.3
									c0.6,0.3,0.6,0.8,0.1,1.1l-6.5,3.7C661.3,715.6,660.5,715.6,659.9,715.3z"/>
								<path class="st23" d="M672.3,722.2l-9.5-5.3c-0.6-0.3-0.6-0.8-0.1-1.1l6.5-3.7c0.5-0.3,1.4-0.3,1.9,0l9.5,5.3
									c0.6,0.3,0.6,0.8,0.1,1.1l-6.5,3.6C673.7,722.6,672.8,722.5,672.3,722.2z"/>
								<path class="st23" d="M704.2,740.1l-7.3-4.1c-0.6-0.3-0.6-0.8-0.1-1.1l6.5-3.7c0.5-0.3,1.4-0.3,1.9,0l7.3,4.1
									c0.6,0.3,0.6,0.8,0.1,1.1l-6.5,3.7C705.6,740.4,704.7,740.4,704.2,740.1z"/>
								<path class="st23" d="M714.3,745.8l-7.3-4.1c-0.6-0.3-0.6-0.8-0.1-1.1l6.5-3.6c0.5-0.3,1.4-0.3,1.9,0l7.3,4.1
									c0.6,0.3,0.6,0.8,0.1,1.1l-6.5,3.6C715.7,746.1,714.8,746.1,714.3,745.8z"/>
								<path class="st23" d="M724.4,751.4l-7.3-4.1c-0.6-0.3-0.6-0.8-0.1-1.1l6.5-3.7c0.5-0.3,1.4-0.3,1.9,0l7.3,4.1
									c0.6,0.3,0.6,0.8,0.1,1.1l-6.5,3.7C725.8,751.8,724.9,751.7,724.4,751.4z"/>
								<path class="st23" d="M734.5,757.1l-7.3-4.1c-0.6-0.3-0.6-0.8-0.1-1.1l6.5-3.6c0.5-0.3,1.4-0.3,1.9,0l7.3,4.1
									c0.6,0.3,0.6,0.8,0.1,1.1l-6.5,3.6C735.9,757.4,735,757.4,734.5,757.1z"/>
								<path class="st23" d="M692.6,733.6l-17.4-9.8c-0.6-0.3-0.6-0.8-0.1-1.1l6.5-3.6c0.5-0.3,1.4-0.3,1.9,0l17.4,9.8
									c0.6,0.3,0.6,0.8,0.1,1.1l-6.5,3.7C694,733.9,693.1,733.9,692.6,733.6z"/>
								<path class="st23" d="M499.2,659.1l-15.2-8.5c-0.6-0.3-0.6-0.8-0.1-1.1l6.5-3.7c0.5-0.3,1.4-0.3,1.9,0l15.2,8.5
									c0.6,0.3,0.6,0.8,0.1,1.1l-6.5,3.7C500.7,659.4,499.8,659.4,499.2,659.1z"/>
								<path class="st23" d="M511.6,666l-9.5-5.3c-0.6-0.3-0.6-0.8-0.1-1.1l6.5-3.6c0.5-0.3,1.4-0.3,1.9,0l9.5,5.3
									c0.6,0.3,0.6,0.8,0.1,1.1l-6.5,3.7C513,666.3,512.2,666.3,511.6,666z"/>
								<path class="st23" d="M524,672.9l-9.5-5.3c-0.6-0.3-0.6-0.8-0.1-1.1l6.5-3.7c0.5-0.3,1.4-0.3,1.9,0l9.5,5.3
									c0.6,0.3,0.6,0.8,0.1,1.1l-6.5,3.7C525.4,673.3,524.6,673.3,524,672.9z"/>
								<path class="st23" d="M536.4,679.9l-9.5-5.3c-0.6-0.3-0.6-0.8-0.1-1.1l6.5-3.6c0.5-0.3,1.4-0.3,1.9,0l9.5,5.3
									c0.6,0.3,0.6,0.8,0.1,1.1l-6.5,3.6C537.8,680.2,537,680.2,536.4,679.9z"/>
								<path class="st23" d="M548.8,686.8l-9.5-5.3c-0.6-0.3-0.6-0.8-0.1-1.1l6.5-3.6c0.5-0.3,1.4-0.3,1.9,0l9.5,5.3
									c0.6,0.3,0.6,0.8,0.1,1.1l-6.5,3.6C550.2,687.2,549.3,687.1,548.8,686.8z"/>
								<path class="st23" d="M561.2,693.8l-9.5-5.3c-0.6-0.3-0.6-0.8-0.1-1.1l6.5-3.7c0.5-0.3,1.4-0.3,1.9,0l9.5,5.3
									c0.6,0.3,0.6,0.8,0.1,1.1l-6.5,3.6C562.6,694.1,561.7,694.1,561.2,693.8z"/>
								<path class="st23" d="M573.6,700.7l-9.5-5.3c-0.6-0.3-0.6-0.8-0.1-1.1l6.5-3.6c0.5-0.3,1.4-0.3,1.9,0l9.5,5.3
									c0.6,0.3,0.6,0.8,0.1,1.1l-6.5,3.6C575,701,574.1,701,573.6,700.7z"/>
								<path class="st23" d="M586,707.7l-9.5-5.3c-0.6-0.3-0.6-0.8-0.1-1.1l6.5-3.6c0.5-0.3,1.4-0.3,1.9,0l9.5,5.3
									c0.6,0.3,0.6,0.8,0.1,1.1l-6.5,3.7C587.4,708,586.5,708,586,707.7z"/>
								<path class="st23" d="M598.3,714.6l-9.5-5.3c-0.6-0.3-0.6-0.8-0.1-1.1l6.5-3.7c0.5-0.3,1.4-0.3,1.9,0l9.5,5.3
									c0.6,0.3,0.6,0.8,0.1,1.1l-6.5,3.6C599.7,714.9,598.9,714.9,598.3,714.6z"/>
								<path class="st23" d="M610.7,721.5l-9.5-5.3c-0.6-0.3-0.6-0.8-0.1-1.1l6.5-3.6c0.5-0.3,1.4-0.3,1.9,0l9.5,5.3
									c0.6,0.3,0.6,0.8,0.1,1.1l-6.5,3.6C612.1,721.9,611.3,721.8,610.7,721.5z"/>
								<path class="st23" d="M623.1,728.5l-9.5-5.3c-0.6-0.3-0.6-0.8-0.1-1.1l6.5-3.7c0.5-0.3,1.4-0.3,1.9,0l9.5,5.3
									c0.6,0.3,0.6,0.8,0.1,1.1l-6.5,3.7C624.5,728.8,623.7,728.8,623.1,728.5z"/>
								<path class="st23" d="M635.5,735.4l-9.5-5.3c-0.6-0.3-0.6-0.8-0.1-1.1l6.5-3.7c0.5-0.3,1.4-0.3,1.9,0l9.5,5.3
									c0.6,0.3,0.6,0.8,0.1,1.1l-6.5,3.7C636.9,735.8,636.1,735.7,635.5,735.4z"/>
								<path class="st23" d="M647.9,742.4l-9.5-5.3c-0.6-0.3-0.6-0.8-0.1-1.1l6.5-3.6c0.5-0.3,1.4-0.3,1.9,0l9.5,5.3
									c0.6,0.3,0.6,0.8,0.1,1.1l-6.5,3.6C649.3,742.7,648.4,742.7,647.9,742.4z"/>
								<path class="st23" d="M662.4,750.5l-11.7-6.5c-0.6-0.3-0.6-0.8-0.1-1.1l6.5-3.7c0.5-0.3,1.4-0.3,1.9,0l11.7,6.5
									c0.6,0.3,0.6,0.8,0.1,1.1l-6.5,3.7C663.9,750.9,663,750.8,662.4,750.5z"/>
								<path class="st23" d="M491.3,667.2l-18.8-10.5c-0.6-0.3-0.6-0.8-0.1-1.1l6.5-3.7c0.5-0.3,1.4-0.3,1.9,0l18.8,10.5
									c0.6,0.3,0.6,0.8,0.1,1.1l-6.5,3.7C492.7,667.6,491.8,667.6,491.3,667.2z"/>
								<path class="st23" d="M503.7,674.2l-9.5-5.3c-0.6-0.3-0.6-0.8-0.1-1.1l6.5-3.6c0.5-0.3,1.4-0.3,1.9,0l9.5,5.3
									c0.6,0.3,0.6,0.8,0.1,1.1l-6.5,3.6C505.1,674.5,504.2,674.5,503.7,674.2z"/>
								<path class="st23" d="M516.1,681.1l-9.5-5.3c-0.6-0.3-0.6-0.8-0.1-1.1l6.5-3.6c0.5-0.3,1.4-0.3,1.9,0l9.5,5.3
									c0.6,0.3,0.6,0.8,0.1,1.1l-6.5,3.7C517.5,681.5,516.6,681.4,516.1,681.1z"/>
								<path class="st23" d="M528.4,688.1l-9.5-5.3c-0.6-0.3-0.6-0.8-0.1-1.1l6.5-3.7c0.5-0.3,1.4-0.3,1.9,0l9.5,5.3
									c0.6,0.3,0.6,0.8,0.1,1.1l-6.5,3.6C529.8,688.4,529,688.4,528.4,688.1z"/>
								<path class="st23" d="M540.8,695l-9.5-5.3c-0.6-0.3-0.6-0.8-0.1-1.1l6.5-3.7c0.5-0.3,1.4-0.3,1.9,0l9.5,5.3
									c0.6,0.3,0.6,0.8,0.1,1.1l-6.5,3.6C542.2,695.3,541.4,695.3,540.8,695z"/>
								<path class="st23" d="M553.2,702l-9.5-5.3c-0.6-0.3-0.6-0.8-0.1-1.1l6.5-3.6c0.5-0.3,1.4-0.3,1.9,0l9.5,5.3
									c0.6,0.3,0.6,0.8,0.1,1.1l-6.5,3.6C554.6,702.3,553.8,702.3,553.2,702z"/>
								<path class="st23" d="M565.6,708.9l-9.5-5.3c-0.6-0.3-0.6-0.8-0.1-1.1l6.5-3.7c0.5-0.3,1.4-0.3,1.9,0l9.5,5.3
									c0.6,0.3,0.6,0.8,0.1,1.1l-6.5,3.7C567,709.2,566.1,709.2,565.6,708.9z"/>
								<path class="st23" d="M578,715.8l-9.5-5.3c-0.6-0.3-0.6-0.8-0.1-1.1l6.5-3.7c0.5-0.3,1.4-0.3,1.9,0l9.5,5.3
									c0.6,0.3,0.6,0.8,0.1,1.1l-6.5,3.6C579.4,716.2,578.5,716.1,578,715.8z"/>
								<path class="st23" d="M590.4,722.8l-9.5-5.3c-0.6-0.3-0.6-0.8-0.1-1.1l6.5-3.7c0.5-0.3,1.4-0.3,1.9,0l9.5,5.3
									c0.6,0.3,0.6,0.8,0.1,1.1l-6.5,3.6C591.8,723.1,590.9,723.1,590.4,722.8z"/>
								<path class="st23" d="M602.8,729.7l-9.5-5.3c-0.6-0.3-0.6-0.8-0.1-1.1l6.5-3.7c0.5-0.3,1.4-0.3,1.9,0l9.5,5.3
									c0.6,0.3,0.6,0.8,0.1,1.1l-6.5,3.6C604.2,730,603.3,730,602.8,729.7z"/>
								<path class="st23" d="M615.1,736.7l-9.5-5.3c-0.6-0.3-0.6-0.8-0.1-1.1l6.5-3.7c0.5-0.3,1.4-0.3,1.9,0l9.5,5.3
									c0.6,0.3,0.6,0.8,0.1,1.1l-6.5,3.7C616.6,737,615.7,737,615.1,736.7z"/>
								<path class="st23" d="M627.5,743.6l-9.5-5.3c-0.6-0.3-0.6-0.8-0.1-1.1l6.5-3.7c0.5-0.3,1.4-0.3,1.9,0l9.5,5.3
									c0.6,0.3,0.6,0.8,0.1,1.1l-6.5,3.6C628.9,743.9,628.1,743.9,627.5,743.6z"/>
								<path class="st23" d="M639.9,750.5l-9.5-5.3c-0.6-0.3-0.6-0.8-0.1-1.1l6.5-3.7c0.5-0.3,1.4-0.3,1.9,0l9.5,5.3
									c0.6,0.3,0.6,0.8,0.1,1.1l-6.5,3.6C641.3,750.9,640.5,750.9,639.9,750.5z"/>
								<path class="st23" d="M651.2,756.9l-20.8-11.6c-0.6-0.3-0.6-0.8-0.1-1.1l6.5-3.7c0.5-0.3,1.4-0.3,1.9,0l20.8,11.6
									c0.6,0.3,0.6,0.8,0.1,1.1l-6.5,3.7C652.6,757.2,651.7,757.2,651.2,756.9z"/>
								<path class="st23" d="M483.3,675.4L461.2,663c-0.6-0.3-0.6-0.8-0.1-1.1l6.5-3.6c0.5-0.3,1.4-0.3,1.9,0l22.1,12.4
									c0.6,0.3,0.6,0.8,0.1,1.1l-6.5,3.6C484.7,675.8,483.9,675.7,483.3,675.4z"/>
								<path class="st23" d="M495.7,682.4l-9.5-5.3c-0.6-0.3-0.6-0.8-0.1-1.1l6.5-3.7c0.5-0.3,1.4-0.3,1.9,0l9.5,5.3
									c0.6,0.3,0.6,0.8,0.1,1.1l-6.5,3.6C497.1,682.7,496.2,682.7,495.7,682.4z"/>
								<path class="st23" d="M508.1,689.3l-9.5-5.3c-0.6-0.3-0.6-0.8-0.1-1.1l6.5-3.6c0.5-0.3,1.4-0.3,1.9,0l9.5,5.3
									c0.6,0.3,0.6,0.8,0.1,1.1l-6.5,3.6C509.5,689.6,508.6,689.6,508.1,689.3z"/>
								<path class="st23" d="M520.5,696.2l-9.5-5.3c-0.6-0.3-0.6-0.8-0.1-1.1l6.5-3.6c0.5-0.3,1.4-0.3,1.9,0l9.5,5.3
									c0.6,0.3,0.6,0.8,0.1,1.1l-6.5,3.6C521.9,696.6,521,696.6,520.5,696.2z"/>
								<path class="st23" d="M532.9,703.2l-9.5-5.3c-0.6-0.3-0.6-0.8-0.1-1.1l6.5-3.6c0.5-0.3,1.4-0.3,1.9,0l9.5,5.3
									c0.6,0.3,0.6,0.8,0.1,1.1l-6.5,3.7C534.3,703.5,533.4,703.5,532.9,703.2z"/>
								<path class="st23" d="M545.2,710.1l-9.5-5.3c-0.6-0.3-0.6-0.8-0.1-1.1l6.5-3.7c0.5-0.3,1.4-0.3,1.9,0l9.5,5.3
									c0.6,0.3,0.6,0.8,0.1,1.1l-6.5,3.6C546.6,710.5,545.8,710.4,545.2,710.1z"/>
								<path class="st23" d="M557.6,717.1l-9.5-5.3c-0.6-0.3-0.6-0.8-0.1-1.1l6.5-3.6c0.5-0.3,1.4-0.3,1.9,0l9.5,5.3
									c0.6,0.3,0.6,0.8,0.1,1.1l-6.5,3.6C559,717.4,558.2,717.4,557.6,717.1z"/>
								<path class="st23" d="M570,724l-9.5-5.3c-0.6-0.3-0.6-0.8-0.1-1.1l6.5-3.6c0.5-0.3,1.4-0.3,1.9,0l9.5,5.3
									c0.6,0.3,0.6,0.8,0.1,1.1l-6.5,3.6C571.4,724.3,570.6,724.3,570,724z"/>
								<path class="st23" d="M582.4,731l-9.5-5.3c-0.6-0.3-0.6-0.8-0.1-1.1l6.5-3.7c0.5-0.3,1.4-0.3,1.9,0l9.5,5.3
									c0.6,0.3,0.6,0.8,0.1,1.1l-6.5,3.7C583.8,731.3,583,731.3,582.4,731z"/>
								<path class="st23" d="M594.8,737.9l-9.5-5.3c-0.6-0.3-0.6-0.8-0.1-1.1l6.5-3.7c0.5-0.3,1.4-0.3,1.9,0l9.5,5.3
									c0.6,0.3,0.6,0.8,0.1,1.1l-6.5,3.6C596.2,738.2,595.3,738.2,594.8,737.9z"/>
								<path class="st23" d="M607.2,744.8l-9.5-5.3c-0.6-0.3-0.6-0.8-0.1-1.1l6.5-3.7c0.5-0.3,1.4-0.3,1.9,0l9.5,5.3
									c0.6,0.3,0.6,0.8,0.1,1.1l-6.5,3.7C608.6,745.2,607.7,745.1,607.2,744.8z"/>
								<path class="st23" d="M619.6,751.8l-9.5-5.3c-0.6-0.3-0.6-0.8-0.1-1.1l6.5-3.7c0.5-0.3,1.4-0.3,1.9,0l9.5,5.3
									c0.6,0.3,0.6,0.8,0.1,1.1l-6.5,3.6C621,752.1,620.1,752.1,619.6,751.8z"/>
								<path class="st23" d="M639.9,763.2l-17.5-9.8c-0.6-0.3-0.6-0.8-0.1-1.1l6.5-3.6c0.5-0.3,1.4-0.3,1.9,0l17.5,9.8
									c0.6,0.3,0.6,0.8,0.1,1.1l-6.5,3.7C641.3,763.5,640.5,763.5,639.9,763.2z"/>
								<path class="st23" d="M475.3,683.6L450,669.4c-0.6-0.3-0.6-0.8-0.1-1.1l6.5-3.7c0.5-0.3,1.4-0.3,1.9,0l25.4,14.2
									c0.6,0.3,0.6,0.8,0.1,1.1l-6.5,3.6C476.7,683.9,475.9,683.9,475.3,683.6z"/>
								<path class="st23" d="M487.7,690.5l-9.5-5.3c-0.6-0.3-0.6-0.8-0.1-1.1l6.5-3.6c0.5-0.3,1.4-0.3,1.9,0l9.5,5.3
									c0.6,0.3,0.6,0.8,0.1,1.1l-6.5,3.6C489.1,690.9,488.3,690.8,487.7,690.5z"/>
								<path class="st23" d="M500.1,697.5l-9.5-5.3c-0.6-0.3-0.6-0.8-0.1-1.1l6.5-3.7c0.5-0.3,1.4-0.3,1.9,0l9.5,5.3
									c0.6,0.3,0.6,0.8,0.1,1.1l-6.5,3.7C501.5,697.8,500.7,697.8,500.1,697.5z"/>
								<path class="st23" d="M562,732.2l-59.3-32.8c-0.6-0.3-0.6-0.8-0.1-1.1l6.5-3.7c0.5-0.3,1.4-0.3,1.9,0l59.3,32.8
									c0.6,0.3,0.6,0.8,0.1,1.1l-6.5,3.6C563.4,732.5,562.6,732.5,562,732.2z"/>
								<path class="st23" d="M574.4,739.1l-9.5-5.3c-0.6-0.3-0.6-0.8-0.1-1.1l6.5-3.7c0.5-0.3,1.4-0.3,1.9,0l9.5,5.3
									c0.6,0.3,0.6,0.8,0.1,1.1l-6.5,3.7C575.8,739.5,575,739.4,574.4,739.1z"/>
								<path class="st23" d="M586.8,746.1l-9.5-5.3c-0.6-0.3-0.6-0.8-0.1-1.1l6.5-3.6c0.5-0.3,1.4-0.3,1.9,0l9.5,5.3
									c0.6,0.3,0.6,0.8,0.1,1.1l-6.5,3.6C588.2,746.4,587.4,746.4,586.8,746.1z"/>
								<path class="st23" d="M599.2,753l-9.5-5.3c-0.6-0.3-0.6-0.8-0.1-1.1l6.5-3.7c0.5-0.3,1.4-0.3,1.9,0l9.5,5.3
									c0.6,0.3,0.6,0.8,0.1,1.1l-6.5,3.7C600.6,753.3,599.8,753.3,599.2,753z"/>
								<path class="st23" d="M611.6,760l-9.5-5.3c-0.6-0.3-0.6-0.8-0.1-1.1l6.5-3.7c0.5-0.3,1.4-0.3,1.9,0l9.5,5.3
									c0.6,0.3,0.6,0.8,0.1,1.1l-6.5,3.7C613,760.3,612.1,760.3,611.6,760z"/>
								<path class="st23" d="M628.6,769.5l-14.2-7.9c-0.6-0.3-0.6-0.8-0.1-1.1l6.5-3.7c0.5-0.3,1.4-0.3,1.9,0l14.2,7.9
									c0.6,0.3,0.6,0.8,0.1,1.1l-6.5,3.6C630.1,769.8,629.2,769.8,628.6,769.5z"/>
								<path class="st20" d="M541.1,776.5l-58.3-32.7c-2.6-1.4-2.8-3.7-0.4-5l33.1-18.6c2.3-1.3,6.3-1.2,8.9,0.2l58.3,32.7
									c2.6,1.4,2.8,3.7,0.4,5l-33.1,18.6C547.7,778.1,543.7,778,541.1,776.5z"/>
								<path class="st23" d="M551.8,631.3l-16.6-9.3c-1.1-0.6-2.7-0.6-3.7-0.1l0,0c-1,0.5-0.9,1.5,0.2,2.1l16.6,9.3
									c1.1,0.6,2.7,0.6,3.7,0.1l0,0C552.9,632.8,552.8,631.9,551.8,631.3z"/>
							</g>
						</g>
					</g>
				</g>
				<g class="st24">
					<g>
						<polygon class="st25" points="550.2,446.2 777.9,574.5 777.9,573 550.1,444.6 						"/>
						<g>
							<g>
								<g>
									<g>
										<path class="st26" d="M764.9,558.1c-1-0.6-1.8-0.1-1.8,1c0,1.1,0.8,2.5,1.8,3c1,0.6,1.8,0.1,1.8-1
											C766.7,560,765.9,558.6,764.9,558.1z"/>
									</g>
								</g>
							</g>
							<g>
								<g>
									<g>
										<path class="st26" d="M759.6,554.7c-1-0.6-1.8-0.1-1.8,1c0,1.1,0.8,2.5,1.8,3c1,0.6,1.8,0.1,1.8-1
											C761.3,556.5,760.6,555.2,759.6,554.7z"/>
									</g>
								</g>
							</g>
							<g>
								<g>
									<g>
										<path class="st26" d="M754.2,551.1c-1-0.6-1.8-0.1-1.8,1c0,1.1,0.8,2.5,1.8,3c1,0.6,1.8,0.1,1.8-1
											C755.9,553,755.2,551.7,754.2,551.1z"/>
									</g>
								</g>
							</g>
						</g>
					</g>
					<g class="st2">
						<path class="st27" d="M624.8,462.9l1.6,192.7c0,2.8,2.1,6.3,4.6,7.7l188.9,106.3c2.5,1.4,4.5,0.2,4.5-2.7l-1.6-192.7
							L624.8,462.9z"/>
					</g>
					<path class="st14" d="M590.5,617.4l-33.8-17.3c-2.9-1.6-7-5-6.6-16.1l-0.4-139.7l40.4,23.3L590.5,617.4z"/>
					<path class="st28" d="M575,488.7c0-0.8-0.5-1.7-1.2-2.1l-18-10.6c-0.3-0.2-0.7-0.2-0.9-0.1c-0.3,0.1-0.4,0.4-0.4,0.8
						c0,0.4,0.1,0.8,0.4,1.2c0.2,0.4,0.5,0.7,0.8,0.9l18,10.6c0.3,0.2,0.7,0.2,0.9,0.1C574.9,489.4,575,489.1,575,488.7z"/>
					<path class="st28" d="M575,495.4c0-0.8-0.5-1.7-1.2-2.1l-18-10.6c-0.3-0.2-0.7-0.2-0.9-0.1c-0.3,0.1-0.4,0.4-0.4,0.8
						c0,0.4,0.1,0.8,0.4,1.2c0.2,0.4,0.5,0.7,0.8,0.9l18,10.6c0.3,0.2,0.7,0.2,0.9,0.1C574.9,496.1,575,495.8,575,495.4z"/>
					<path class="st28" d="M575,502.2c0-0.8-0.5-1.7-1.2-2.1l-18-10.6c-0.3-0.2-0.7-0.2-0.9-0.1c-0.3,0.1-0.4,0.4-0.4,0.8
						c0,0.4,0.1,0.8,0.4,1.2c0.2,0.4,0.5,0.7,0.8,0.9l18,10.6c0.3,0.2,0.7,0.2,0.9,0.1C574.9,502.9,575,502.6,575,502.2z"/>
					<path class="st28" d="M575,508.8c0-0.8-0.5-1.7-1.2-2.1l-18-10.6c-0.3-0.2-0.7-0.2-0.9-0.1c-0.3,0.1-0.4,0.4-0.4,0.8
						c0,0.4,0.1,0.8,0.4,1.2c0.2,0.4,0.5,0.7,0.8,0.9l18,10.6c0.3,0.2,0.7,0.2,0.9,0.1C574.9,509.5,575,509.2,575,508.8z"/>
					<path class="st28" d="M575.1,515.6c0-0.8-0.5-1.7-1.2-2.1l-18-10.6c-0.3-0.2-0.7-0.2-0.9-0.1c-0.3,0.1-0.4,0.4-0.4,0.8
						c0,0.4,0.1,0.8,0.4,1.2c0.2,0.4,0.5,0.7,0.8,0.9l18,10.6c0.3,0.2,0.7,0.2,0.9,0.1C574.9,516.3,575.1,516,575.1,515.6z"/>
					<path class="st28" d="M575.1,522.3c0-0.8-0.5-1.7-1.2-2.1l-18-10.6c-0.3-0.2-0.7-0.2-0.9-0.1c-0.3,0.1-0.4,0.4-0.4,0.8
						c0,0.4,0.1,0.8,0.4,1.2c0.2,0.4,0.5,0.7,0.8,0.9l18,10.6c0.3,0.2,0.7,0.2,0.9,0.1C574.9,523,575.1,522.7,575.1,522.3z"/>
					<path class="st28" d="M575.1,529.1c0-0.8-0.5-1.7-1.2-2.1l-18-10.6c-0.3-0.2-0.7-0.2-0.9-0.1c-0.3,0.1-0.4,0.4-0.4,0.8
						c0,0.4,0.1,0.8,0.4,1.2c0.2,0.4,0.5,0.7,0.8,0.9l18,10.6c0.3,0.2,0.7,0.2,0.9,0.1C574.9,529.7,575.1,529.4,575.1,529.1z"/>
					<path class="st28" d="M575.1,535.7c0-0.8-0.5-1.7-1.2-2.1l-18-10.6c-0.3-0.2-0.7-0.2-0.9-0.1c-0.3,0.1-0.4,0.4-0.4,0.8
						c0,0.4,0.1,0.8,0.4,1.2c0.2,0.4,0.5,0.7,0.8,0.9l18,10.6c0.3,0.2,0.7,0.2,0.9,0.1C574.9,536.4,575.1,536.1,575.1,535.7z"/>
					<path class="st28" d="M575.1,542.3c0-0.8-0.5-1.7-1.2-2.1l-18-10.6c-0.3-0.2-0.7-0.2-0.9-0.1c-0.3,0.1-0.4,0.4-0.4,0.8
						c0,0.4,0.1,0.8,0.4,1.2c0.2,0.4,0.5,0.7,0.8,0.9l18,10.6c0.3,0.2,0.7,0.2,0.9,0.1C575,543,575.1,542.7,575.1,542.3z"/>
					<path class="st28" d="M575.1,549.1c0-0.8-0.5-1.7-1.2-2.1l-18-10.6c-0.3-0.2-0.7-0.2-0.9-0.1c-0.3,0.1-0.4,0.4-0.4,0.8
						c0,0.4,0.1,0.8,0.4,1.2c0.2,0.4,0.5,0.7,0.8,0.9l18,10.6c0.3,0.2,0.7,0.2,0.9,0.1C575,549.8,575.1,549.5,575.1,549.1z"/>
					<path class="st28" d="M575.1,555.7c0-0.8-0.5-1.7-1.2-2.1l-18-10.6c-0.3-0.2-0.7-0.2-0.9-0.1c-0.3,0.1-0.4,0.4-0.4,0.8
						c0,0.4,0.1,0.8,0.4,1.2c0.2,0.4,0.5,0.7,0.8,0.9l18,10.6c0.3,0.2,0.7,0.2,0.9,0.1C575,556.4,575.1,556.1,575.1,555.7z"/>
					<path class="st28" d="M586.1,480.9c0-0.8-0.5-1.7-1.2-2.1l-28.3-16.6c-0.3-0.2-0.7-0.2-0.9-0.1c-0.3,0.1-0.4,0.4-0.4,0.8
						c0,0.4,0.1,0.8,0.4,1.2c0.2,0.4,0.5,0.7,0.8,0.9l28.3,16.6c0.3,0.2,0.7,0.2,0.9,0.1C585.9,481.6,586.1,481.3,586.1,480.9z"/>
					<g>
						<path class="st14" d="M602.5,532.5c0-0.6-0.4-1.3-0.9-1.6c-0.3-0.2-0.5-0.2-0.7-0.1c-0.2,0.1-0.3,0.3-0.3,0.6
							c0,0.3,0.1,0.6,0.3,0.9c0.2,0.3,0.4,0.5,0.6,0.7c0.3,0.2,0.5,0.2,0.7,0.1C602.3,533,602.5,532.8,602.5,532.5z"/>
						<path class="st14" d="M617.6,541.3c0-0.6-0.4-1.3-0.9-1.6l-12.7-7.4c-0.3-0.2-0.5-0.2-0.7-0.1c-0.2,0.1-0.3,0.3-0.3,0.6
							c0,0.3,0.1,0.6,0.3,0.9c0.2,0.3,0.4,0.5,0.6,0.7l12.7,7.4c0.3,0.2,0.5,0.2,0.7,0.1C617.5,541.8,617.6,541.6,617.6,541.3z"/>
						<path class="st14" d="M615,547.2c0-0.6-0.4-1.3-0.9-1.6l-13.9-8.2c-0.3-0.2-0.5-0.2-0.7-0.1c-0.2,0.1-0.3,0.3-0.3,0.6
							c0,0.3,0.1,0.6,0.3,0.9c0.2,0.3,0.4,0.5,0.6,0.7l13.9,8.2c0.3,0.2,0.5,0.2,0.7,0.1C614.9,547.8,615,547.5,615,547.2z"/>
						<path class="st14" d="M615,550.4c0-0.6-0.4-1.3-0.9-1.6l-13.9-8.2c-0.3-0.2-0.5-0.2-0.7-0.1c-0.2,0.1-0.3,0.3-0.3,0.6
							c0,0.3,0.1,0.6,0.3,0.9c0.2,0.3,0.4,0.5,0.6,0.7l13.9,8.2c0.3,0.2,0.5,0.2,0.7,0.1C614.9,550.9,615,550.7,615,550.4z"/>
						<path class="st14" d="M615,553.6c0-0.6-0.4-1.3-0.9-1.6l-13.9-8.2c-0.3-0.2-0.5-0.2-0.7-0.1c-0.2,0.1-0.3,0.3-0.3,0.6
							c0,0.3,0.1,0.6,0.3,0.9c0.2,0.3,0.4,0.5,0.6,0.7l13.9,8.2c0.3,0.2,0.5,0.2,0.7,0.1C614.9,554.1,615,553.9,615,553.6z"/>
						<path class="st14" d="M615,556.7c0-0.6-0.4-1.3-0.9-1.6l-13.9-8.2c-0.3-0.2-0.5-0.2-0.7-0.1c-0.2,0.1-0.3,0.3-0.3,0.6
							c0,0.3,0.1,0.6,0.3,0.9c0.2,0.3,0.4,0.5,0.6,0.7l13.9,8.2c0.3,0.2,0.5,0.2,0.7,0.1C614.9,557.3,615,557,615,556.7z"/>
						<path class="st14" d="M615,560c0-0.6-0.4-1.3-0.9-1.6l-13.9-8.2c-0.3-0.2-0.5-0.2-0.7-0.1c-0.2,0.1-0.3,0.3-0.3,0.6
							c0,0.3,0.1,0.6,0.3,0.9c0.2,0.3,0.4,0.5,0.6,0.7l13.9,8.2c0.3,0.2,0.5,0.2,0.7,0.1C614.9,560.5,615,560.3,615,560z"/>
						<path class="st14" d="M615,563.1c0-0.6-0.4-1.3-0.9-1.6l-13.9-8.2c-0.3-0.2-0.5-0.2-0.7-0.1c-0.2,0.1-0.3,0.3-0.3,0.6
							c0,0.3,0.1,0.6,0.3,0.9c0.2,0.3,0.4,0.5,0.6,0.7l13.9,8.2c0.3,0.2,0.5,0.2,0.7,0.1C614.9,563.6,615,563.4,615,563.1z"/>
						<path class="st14" d="M615,566.3c0-0.6-0.4-1.3-0.9-1.6l-13.9-8.2c-0.3-0.2-0.5-0.2-0.7-0.1c-0.2,0.1-0.3,0.3-0.3,0.6
							c0,0.3,0.1,0.6,0.3,0.9c0.2,0.3,0.4,0.5,0.6,0.7l13.9,8.2c0.3,0.2,0.5,0.2,0.7,0.1C614.9,566.9,615,566.6,615,566.3z"/>
						<path class="st14" d="M615,569.5c0-0.6-0.4-1.3-0.9-1.6l-13.9-8.2c-0.3-0.2-0.5-0.2-0.7-0.1c-0.2,0.1-0.3,0.3-0.3,0.6
							c0,0.3,0.1,0.6,0.3,0.9c0.2,0.3,0.4,0.5,0.6,0.7l13.9,8.2c0.3,0.2,0.5,0.2,0.7,0.1C614.9,570,615,569.8,615,569.5z"/>
						<path class="st14" d="M615,572.6c0-0.6-0.4-1.3-0.9-1.6l-13.9-8.2c-0.3-0.2-0.5-0.2-0.7-0.1c-0.2,0.1-0.3,0.3-0.3,0.6
							c0,0.3,0.1,0.6,0.3,0.9c0.2,0.3,0.4,0.5,0.6,0.7l13.9,8.2c0.3,0.2,0.5,0.2,0.7,0.1C614.9,573.1,615,572.9,615,572.6z"/>
						<path class="st14" d="M615,575.8c0-0.6-0.4-1.3-0.9-1.6l-13.9-8.2c-0.3-0.2-0.5-0.2-0.7-0.1c-0.2,0.1-0.3,0.3-0.3,0.6
							c0,0.3,0.1,0.6,0.3,0.9c0.2,0.3,0.4,0.5,0.6,0.7l13.9,8.2c0.3,0.2,0.5,0.2,0.7,0.1C614.9,576.3,615,576.1,615,575.8z"/>
						<path class="st14" d="M615.1,578.9c0-0.6-0.4-1.3-0.9-1.6l-13.9-8.2c-0.3-0.2-0.5-0.2-0.7-0.1c-0.2,0.1-0.3,0.3-0.3,0.6
							c0,0.3,0.1,0.6,0.3,0.9c0.2,0.3,0.4,0.5,0.6,0.7l13.9,8.2c0.3,0.2,0.5,0.2,0.7,0.1C614.9,579.4,615.1,579.2,615.1,578.9z"/>
						<path class="st19" d="M600.4,495.9c0-0.6-0.4-1.3-0.9-1.6c-0.3-0.2-0.5-0.2-0.7-0.1c-0.2,0.1-0.3,0.3-0.3,0.6
							c0,0.3,0.1,0.6,0.3,0.9c0.2,0.3,0.4,0.5,0.6,0.7c0.3,0.2,0.5,0.2,0.7,0.1C600.3,496.5,600.4,496.2,600.4,495.9z"/>
						<path class="st19" d="M624.7,510.1c0-0.6-0.4-1.3-0.9-1.6l-21.9-12.8c-0.3-0.2-0.5-0.2-0.7-0.1c-0.2,0.1-0.3,0.3-0.3,0.6
							c0,0.3,0.1,0.6,0.3,0.9c0.2,0.3,0.4,0.5,0.6,0.7l21.9,12.8c0.3,0.2,0.5,0.2,0.7,0.1C624.6,510.7,624.7,510.4,624.7,510.1z"/>
						<path class="st19" d="M744.8,653c0-0.6-0.4-1.3-0.9-1.6l-13.9-8.2c-0.3-0.2-0.5-0.2-0.7-0.1c-0.2,0.1-0.3,0.3-0.3,0.6
							c0,0.3,0.1,0.6,0.3,0.9c0.2,0.3,0.4,0.5,0.6,0.7l13.9,8.2c0.3,0.2,0.5,0.2,0.7,0.1C744.7,653.5,744.8,653.3,744.8,653z"/>
						<path class="st19" d="M747.3,658.6c0-0.6-0.4-1.3-0.9-1.6l-16.8-9.8c-0.3-0.2-0.5-0.2-0.7-0.1c-0.2,0.1-0.3,0.3-0.3,0.6
							c0,0.3,0.1,0.6,0.3,0.9c0.2,0.3,0.4,0.5,0.6,0.7l16.8,9.8c0.3,0.2,0.5,0.2,0.7,0.1C747.2,659.1,747.3,658.9,747.3,658.6z"/>
						<path class="st19" d="M745.1,683.7c0-0.6-0.4-1.3-0.9-1.6l-13.9-8.2c-0.3-0.2-0.5-0.2-0.7-0.1c-0.2,0.1-0.3,0.3-0.3,0.6
							c0,0.3,0.1,0.6,0.3,0.9c0.2,0.3,0.4,0.5,0.6,0.7l13.9,8.2c0.3,0.2,0.5,0.2,0.7,0.1C744.9,684.2,745.1,684,745.1,683.7z"/>
						<path class="st19" d="M650.9,568.7c0-0.9-0.6-1.9-1.4-2.4l-14.8-8.5c-0.4-0.2-0.8-0.3-1.1-0.1c-0.3,0.2-0.4,0.5-0.4,0.9
							c0,0.4,0.2,0.9,0.4,1.4c0.2,0.4,0.6,0.8,1,1l14.8,8.5c0.4,0.2,0.8,0.3,1,0.1C650.7,569.5,650.9,569.1,650.9,568.7z"/>
						<path class="st14" d="M617.9,536.1c0-0.9-0.6-1.9-1.4-2.4l-14.8-8.5c-0.4-0.2-0.8-0.3-1.1-0.1c-0.3,0.2-0.4,0.5-0.4,0.9
							c0,0.4,0.2,0.9,0.4,1.4c0.2,0.4,0.6,0.8,1,1l14.8,8.5c0.4,0.2,0.8,0.3,1,0.1C617.8,536.9,617.9,536.5,617.9,536.1z"/>
						<path class="st19" d="M671.8,580.7c0-0.9-0.6-1.9-1.4-2.4l-14.8-8.5c-0.4-0.2-0.8-0.3-1.1-0.1c-0.3,0.2-0.4,0.5-0.4,0.9
							c0,0.4,0.2,0.9,0.4,1.4c0.2,0.4,0.6,0.8,1,1l14.8,8.5c0.4,0.2,0.8,0.3,1,0.1C671.7,581.5,671.8,581.1,671.8,580.7z"/>
						<path class="st19" d="M692.7,592.6c0-0.9-0.6-1.9-1.4-2.4l-14.8-8.5c-0.4-0.2-0.8-0.3-1.1-0.1c-0.3,0.2-0.4,0.5-0.4,0.9
							c0,0.4,0.2,0.9,0.4,1.4c0.2,0.4,0.6,0.8,1,1l14.8,8.5c0.4,0.2,0.8,0.3,1,0.1C692.6,593.4,692.7,593,692.7,592.6z"/>
						<path class="st19" d="M713.2,604.4c0-0.9-0.6-1.9-1.4-2.4l-14.8-8.5c-0.4-0.2-0.8-0.3-1.1-0.1c-0.3,0.2-0.4,0.5-0.4,0.9
							c0,0.4,0.2,0.9,0.4,1.4c0.2,0.4,0.6,0.8,1,1l14.8,8.5c0.4,0.2,0.8,0.3,1,0.1C713,605.2,713.2,604.8,713.2,604.4z"/>
						<path class="st14" d="M730.9,652.7c-1-0.6-1.8-0.1-1.8,1l0,15.9c0,0.9,0.7,2.1,1.5,2.6l21.9,12.6c0.8,0.4,1.7-0.1,1.7-1
							l0-16.1c0-0.8-0.6-1.8-1.3-2.2L730.9,652.7z M753.8,685.1"/>
						<path class="st29" d="M731,622c-1-0.6-1.8-0.1-1.8,1l0,15.9c0,0.9,0.7,2.1,1.5,2.6l21.9,12.6c0.8,0.4,1.7-0.1,1.7-1l0-16.1
							c0-0.8-0.6-1.8-1.3-2.2L731,622z M753.9,654.4"/>
						<path class="st14" d="M697.4,602.5c-1-0.6-1.8-0.1-1.8,1l0,26c0,0.9,0.7,2.1,1.5,2.6l21.9,12.6c0.8,0.4,1.7-0.1,1.7-1l0-26.3
							c0-0.8-0.6-1.8-1.3-2.2L697.4,602.5z M720.4,645.2"/>
						<path class="st19" d="M692.3,656.7l0-53.7c0-2-1.4-4.4-3.1-5.3l-52.7-30.3c-2.4-1.4-4.3-0.2-4.3,2.5l0,52.6 M691.4,669.2"/>
						<path class="st14" d="M720.8,673.4l0-22.7c0-0.8-0.6-1.8-1.3-2.2l-22.2-12.8c-1-0.6-1.8-0.1-1.8,1l0,22.2 M720.4,678.7"/>
						<path class="st19" d="M616.6,523.8L616.6,523.8l-0.2-14.4c0-0.5-0.3-1-0.8-1.3l-12.3-7.1c-0.5-0.3-1.1-0.3-1.5,0
							c-0.5,0.3-0.8,0.8-0.8,1.3l0.1,14.4c0,0.3,0.1,0.5,0.2,0.8c0.1,0.2,0.3,0.4,0.6,0.6l12.4,7.2c0.5,0.3,1.1,0.3,1.5,0
							C616.3,524.9,616.6,524.4,616.6,523.8z"/>
						<path class="st29" d="M754.5,616.2C754.5,616.2,754.5,616.2,754.5,616.2l-0.3-31.9c0-2-1.1-4-2.9-5l-112.5-66.6
							c-1.3-0.7-2.8-0.8-4,0c-1.3,0.7-2,2-2,3.5l0,32.9c0,1.1,0.3,2.1,0.8,3c0.5,0.9,1.3,1.6,2.2,2.2l113.8,65
							c1.1,0.6,2.3,0.6,3.4,0C753.9,618.6,754.5,617.5,754.5,616.2z"/>
					</g>
				</g>
				<g>
					<g>
						<path class="st30" d="M550.7,566.7c0,0-1.3,6.9,0,8.6c-14.5,12.1-20.9,1.4-22.1,0.2c0,0,2.1-2.6,1.9-7.2
							C530.5,568.3,549.4,567.4,550.7,566.7z"/>
						<path class="st31" d="M531.2,570.2c0,0,8.7,1.5,14,0.4c0,0-5.5,2.7-14.9,1.8L531.2,570.2z"/>
						<g>
							<g>
								<g>
									<path class="st30" d="M551.1,514.7c0,0,5.3,1.3,10.9,4.5c5.7,3.3,11.7,8.8,12.5,17c0.5,4.8,0.1,9.4-1.2,13.6
										c-3.1,10.3-11.2,18.3-24.1,20.7c-9.1,1.7-19,0.5-26.3-4.9c-7.3-5.4-11.7-16.8-9.9-26.4c1.8-9.5,6.2-14.6,13-19
										C532.7,515.9,541.4,514,551.1,514.7z"/>
									<path class="st32" d="M559.2,556.5c-3,3-7.8,3.6-11,0.4c-3.2-3.2-4.2-6-7.7-6.8c-7.6-1.7-11.7-1.5-15.5,1.6
										c-2.6,2.2-10,0.7-10.7-2.5c-0.7-3.2-1.7,1.2-1.7,1.2s1,7.4,4.6,13.3c2.5,4.2,11.4,12.6,24.4,11.6
										c12.9-1,21.4-6.3,23.1-15.7c1.8-9.4,1.2-10.3,1.2-10.3s-2.6-1-3.3,1.3C561.9,552.7,560.5,555.3,559.2,556.5z"/>
									<g>
										<path class="st33" d="M536.5,549.2C536.5,549.2,536.5,549.2,536.5,549.2c-0.1,0-0.9-0.1-1.4-0.2c-1.2-0.3-1.6-1-1.8-1.5
											c-0.2-0.5-0.2-1.3,0.7-2.3c0.8-0.9,0.9-2.8,0.9-3.4c0-0.3,0.3-0.6,0.6-0.6c0,0,0,0,0,0c0.3,0,0.6,0.3,0.6,0.6
											c0,0.1,0,2.8-1.1,4.3c-0.4,0.5-0.6,0.9-0.5,1.2c0.1,0.3,0.4,0.5,0.9,0.6c0.3,0.1,0.9,0.2,1.1,0.2c0.3,0,0.6,0.3,0.6,0.7
											C537.1,549,536.9,549.2,536.5,549.2z"/>
									</g>
									<path class="st32" d="M523.3,542.9c0,1.3,0.6,2.3,1.5,2.3c0.9,0,1.7-1,1.7-2.2c0-1.3-0.6-2.3-1.5-2.3
										C524.1,540.7,523.4,541.7,523.3,542.9z"/>
									<path class="st32" d="M548.2,543.9c0,1.3,0.6,2.3,1.5,2.3c0.9,0,1.7-1,1.7-2.2c0-1.3-0.6-2.3-1.5-2.3
										C549,541.6,548.3,542.6,548.2,543.9z"/>
									<path class="st31" d="M550.1,552.3c0.1,3.1,2.6,5.5,5.7,5.5c3.1-0.1,5.5-2.6,5.5-5.7c-0.1-3.1-2.6-5.5-5.7-5.5
										C552.5,546.7,550.1,549.2,550.1,552.3z"/>
									<path class="st31" d="M515.5,555.5c0.5,0.1,1,0.2,1.5,0.2c3.1-0.1,5.5-2.6,5.5-5.7c-0.1-3.1-2.6-5.5-5.7-5.5
										c-0.7,0-1.4,0.2-2,0.4c0,0-0.3,3.7,0,6.3C515.2,553.8,515.5,555.5,515.5,555.5z"/>
									<g>
										<path class="st34" d="M532.6,552.1c0.4,1.6,1.6,2.9,3.2,3.1c1.9,0.3,3.5-0.7,4.6-2.1C541,552.4,532.4,551.2,532.6,552.1z"
											/>
									</g>
								</g>
							</g>
							<g>
								<path class="st32" d="M524.9,515c0.4-0.4,1.1,0.1,1.6,0.1c6.5,0,23.8-4.6,34-0.5c10.2,4.1,16.8,14.9,16.8,25.2
									c0,10.3-6.9,19.5-9.6,20.4c2.5-4.3,4.3-8.6,1.5-9.2c-3.9-0.8-4.7,8.6-4.7,8.6s-6-0.5-4-2.5c2-2,4.4-16.1-1.6-17.6
									c-15.9-4-30.9-18.1-40.4-5.3c-7.8,10.4-2,24.4-2,24.4c-9-9.6-1.9-27-1.9-27S519.1,520.9,524.9,515z"/>
								<path class="st32" d="M577.4,535.7c0,0,4.5-5.1,1.8-9.8c-2.7-4.7-8.1-3.5-8.1-3.5s2.7-4.6-1.2-8.4c-3.8-3.8-9.3,0.6-9.3,0.6
									s1.2-5.9-4.9-9.4c-4.6-2.7-10.2,0.6-12.5,2.2c-2.9-2.1-6.2-3.9-9.2-3.9c-7.7,0-9.1,6.6-9.1,6.6c-9.1,0-10.2,7.4-9.3,11.7
									c-0.6,0.3-1.3,0.7-2.1,1.2c-3.4,2.5-5.2,8.3-2.4,13.1c2.8,4.8,3.5,2.2,3.5,2.2l10.8-14.8l-0.3-0.1l23.5-7.9l10,11.5
									l14.3,21.6c0,0,6.4-1.5,7-7C580.4,537.1,577.4,535.7,577.4,535.7z"/>
							</g>
						</g>
					</g>
					<g>
						<g>
							<g>
								<path class="st35" d="M521.6,744.2c-1.4,0.5-8.9,3-9.9,3.2c-2.3,0.5-4.3,1.2-4.2,3.5c0.2,2.9,3.6,3.6,6,3.5
									c6.9-0.3,12.9-2,12.9-2s2.6-0.4,4.4-0.6c2.1-0.2,2.5-1.6,2.5-1.6s0.2-2,0.1-3.2c-0.1-0.8-0.6-2.2-0.6-2.2s-1.1,0.9-4,1.9
									c-2.8,0.9-2.8-0.5-4-1.4C523,743.9,521.6,744.2,521.6,744.2z"/>
								<path class="st1" d="M532.9,744.8c0.2,1.2-2,2.6-6.6,2.6c-0.9-3.1-4.7-3.2-4.7-3.2s0.5-0.1,1.9-1.2c1.8-1.4,0.7-7.3,0.7-7.3
									s7.6-1.2,7.9,2.9C532.5,743.2,532.9,744.8,532.9,744.8z"/>
							</g>
							<g>
								<path class="st35" d="M541.6,753.2c-1.3,0.8-8.1,4.7-9,5.1c-2.1,1-3.9,2.1-3.4,4.2c0.7,2.8,4.2,2.8,6.5,2.3
									c6.7-1.6,12.3-4.5,12.3-4.5s2.5-1,4.2-1.5c2-0.6,2.1-2,2.1-2s-0.2-2-0.5-3.1c-0.2-0.8-1-2-1-2s-0.9,1.1-3.5,2.6
									c-2.6,1.4-2.8,0-4.2-0.6C542.9,752.6,541.6,753.2,541.6,753.2z"/>
								<path class="st1" d="M553.5,753.1c0.2,1.2-2,2.6-6.6,2.6c-0.9-3.1-5.2-2.6-5.2-2.6s1-0.7,2.4-1.8c1.8-1.4,0.7-7.3,0.7-7.3
									s7.6-1.2,7.9,2.9C553.1,751.6,553.5,753.1,553.5,753.1z"/>
							</g>
							<g>
								<path class="st36" d="M534.5,707c0,0,4.6,39.9,5.5,44.9c0.3,1.9,14.5,2.3,15.7,0.1l0.6-49.5c0,0,7.7-33.5,4.6-50.4
									c0-2-41.8-7-43-2.6c-3.2,11.2-4.7,35.3-3.7,48.1c0.7,9.4,6.9,44.9,7.4,46.7c3.5,3.8,12.6,1.8,12.6,0"/>
								<path class="st37" d="M533.7,701.4L533,674c0,0-1.2,23.6-1.2,25.8c0,0.9,1.9,8.2,2.7,10c0.5,1.1,0-2.8,0-2.8L533.7,701.4z"
									/>
							</g>
						</g>
						<polygon class="st38" points="520.4,596.6 520.8,606.5 519.7,608.5 						"/>
						<polygon class="st37" points="557.4,607.7 557.2,611.1 555.3,601.1 						"/>
						<g>
							<path class="st37" d="M515.6,661.9l2.3-16.6l11.4,2.8c0.2-2.3,0.3-3.7,0.3-3.7l32.1,5.6l-0.1,16.5
								C551.3,671,526.8,673.5,515.6,661.9z"/>
							<path class="st17" d="M571.9,604.2c-0.8-7.8-1.6-13.2-6.3-19.2c-1.1-1.4-2.7-2.8-4.5-4c0,0,0,0,0,0c-2.4-2-7.1-4.2-9.3-5.1
								c-0.7-0.3-1.1-0.5-1.1-0.5c-4.4,2.7-8.8,5.4-16,3.6c-4.1-1-5.7-4-5.7-4s-4.4,0.2-10.7,5.3c-7.3,6-9.4,24.3-9.2,26
								c1.2,6.6,9,1.7,9,1.7s-2.9,33.6-3,34.8c-0.6,10.1-0.9,13.8-0.5,16.7c18.5,16.3,48.2,4.7,48.2,4.7s0.4,0.6,0.5-6
								c0.1-9.5-1.4-25.9-1.7-32.8c-0.3-6.9-1.1-9.4,3.2-6C568.8,622.5,573.8,622.9,571.9,604.2z"/>
						</g>
						<g>
							<path class="st39" d="M495.4,584.7c0,0-5.4,2.7-5.9,9.1C489.5,593.8,495.5,590.7,495.4,584.7z"/>
							<path class="st17" d="M514.3,585.5l-5.2,11.6c0,0-13.1-11.8-13.7-12.4c-0.3,5.8-5.9,9.1-5.9,9.1s9.8,13.4,13.3,16.9
								c4,4,10.3,8,14.6,4.3c4.4-3.7,6.7-14.6,6.7-14.6L514.3,585.5z"/>
							<g>
								<path class="st40" d="M482,582.7c-0.8-0.2-2.6-0.1-3.5,0c-0.9,0.1-1.2,0.3-1.1,0.7s0.6,0.7,1.2,0.6c0.5,0,5,0.5,6.9,1.4
									c0,0,0.6-4.4-1.2-5.1c-0.7-0.3-6.3,0-7.1,0.2c-0.8,0.2-0.8,0.7-0.5,1.1c0.4,0.5,2.2,0.1,3.9,0.3c1.8,0.2,2.9,1.1,2.9,1.1
									S482.8,582.9,482,582.7"/>
								<path class="st30" d="M495.1,586.8c-0.3-0.5-5.5-6.3-7.1-7.2c-1.6-0.9-8-1.9-9.8-0.8c-1,0.6-0.7,1.4,0.9,1.4
									c1.6,0,4.2,0.1,5.2,1.9c0.4,0.7,1.1,2.7-0.1,3.2c-0.6,0.3-2.2,0.4-3.2,0.3c-1.3-0.1-1.6,0.6-1.2,1.2
									c0.6,0.9,3.9,0.5,5.2,1.4c2.8,1.9,6.9,3.8,6.9,3.8S494.6,589.3,495.1,586.8z"/>
							</g>
							<polygon class="st41" points="518.3,600.2 517.6,614.9 516.7,615.6 							"/>
						</g>
						<g>
							<path class="st41" d="M555.3,601.1c0,0,1.2,15.5-2,17.4c-2.3,1.4-25-1.1-25-1.1l-2.2,10c0,0,28.7,7.9,34.6,7.9
								c0.5,0,1-0.1,1.5-0.4c-0.1-1.6-0.7-2.6,0-3.4c4.5-5.2,10.1-16.9,8.9-24.8C570.3,601.1,555.3,601.1,555.3,601.1z"/>
							<path class="st30" d="M521.2,615.8c0.4,0.5-0.5,1.7-1,1.6c-1.7-0.3-4-1.4-4.6-1.6c-0.8-0.3-1.4-0.9-1.9-0.6
								c-0.7,0.4-0.1,1.4,1.3,2.3c1.6,1,3.5,1.6,3.5,1.6s-0.2,0.4-1.8,0c-1.6-0.4-3.7-1.7-4.2-2c-0.5-0.3-1.2-0.3-1.5,0
								c-0.3,0.4-0.1,0.7,0.7,1.2c0.8,0.5,3.4,2.1,4.3,2.5c0.9,0.4,1.6,0.8,1.6,0.8s-1.9-0.3-3.7-1.1c-1.7-0.7-2-1.1-2.4-1
								c-0.4,0.1-0.7,0.7,0,1.3c0.7,0.6,3,1.5,3.7,1.9c0.7,0.3,1.7,0.6,1.7,0.6s-1.9,0-3.9-0.8c-0.6-0.2-1,0.3-0.5,0.8
								c0.5,0.5,4.5,1.9,6.4,1.9c1.2,0,4.8-0.6,4.8-0.6l3.9,0.3c0,0,3.6-2.6,2.6-5.4c-0.1-0.3-3.3-0.9-3.4-1.2c0,0-0.9-1.6-1.8-2.3
								c-0.2-0.1-0.7-0.5-1-0.7c0,0-2.9-2.7-3.4-2.9c-0.5-0.2-1.7,0.2-0.9,1.4C520,614.2,520.7,615.1,521.2,615.8z"/>
							<path class="st17" d="M554.9,599.2c0,0,2.5,19,0.2,20.4c-2.3,1.4-25.4-2.2-26.8-2.2c0.5,4.2-1.9,9.3-1.9,9.3
								s31.1,7.7,37.1,7.7c6,0,12.1-9.1,7.7-35.6C569.6,588.9,554.9,599.2,554.9,599.2z"/>
						</g>
					</g>
				</g>
			</g>
			<g>
				<g>
					<path class="st42" d="M415.6,536.5c15.9,9.2,28.8,31.5,28.8,49.8c-0.1,18.3-13,25.7-29,16.5c-15.9-9.2-28.8-31.5-28.8-49.8
						C386.7,534.7,399.7,527.3,415.6,536.5z M415.4,599.5c14.3,8.3,26,1.6,26.1-14.9c0-16.5-11.6-36.6-25.9-44.9
						c-14.3-8.3-26-1.6-26.1,14.9C389.5,571.1,401.1,591.2,415.4,599.5"/>
				</g>
				<g>
					<path class="st42" d="M405.7,544.7c0.4,0.2,0.9,0.6,1.3,1.1l25.2,31.3c1.7,2.1,1.7,4.9,0,5.1l-25.3,2.2c-0.4,0-0.9-0.1-1.3-0.3
						c-1.3-0.8-2.6-2.7-2.6-4.4l0.1-33.4C403.2,544.4,404.4,543.9,405.7,544.7z"/>
				</g>
			</g>
			<path class="st42" d="M529,574.8c0,0,1.6,3,5.7,4c7.3,1.8,11.6-0.9,16-3.6l3.2,1.5c0,0-4.5,4.3-10.8,6.2s-11.6,0.2-14.7-2.9
				s-3.2-3.6-3.5-4.1C527.2,575,529,574.8,529,574.8z"/>
			<g>
				<g class="st10">
					<g>
						<path class="st43" d="M730.4,457.8c0.7,0.4,1.1,0.5,1.4,0.4l-4.5,2.6c-0.3,0.2-0.7,0-1.4-0.4c-2.5-1.5-5-2.9-7.6-4.4
							c-1.2-0.7-1.6-1.4-1.6-2.8c1.5-0.9,3-1.7,4.5-2.6c0,1.4,0.4,2.1,1.6,2.8C725.3,454.9,727.8,456.4,730.4,457.8z"/>
					</g>
					<g>
						<path class="st43" d="M734.3,459.5C734.3,459.5,734.3,459.5,734.3,459.5c-1.5,0.9-3,1.7-4.5,2.6c0,0,0,0,0,0
							c-0.7-0.5-0.9-1-0.9-1.7c1.5-0.9,3-1.7,4.5-2.6C733.4,458.5,733.6,458.9,734.3,459.5z"/>
					</g>
					<g>
						<path class="st43" d="M734.3,459.5c1.5,1.2,2.9,2.5,4.3,3.8c-1.5,0.9-3,1.7-4.5,2.6c-1.4-1.3-2.9-2.6-4.3-3.8
							C731.3,461.2,732.8,460.4,734.3,459.5z"/>
					</g>
					<g>
						<path class="st43" d="M721.2,433.3c0,2.9,0,14.5,0,17.4c-1.5,0.9-3,1.7-4.5,2.6c0,0,0,0,0,0c1.5-0.9,3-1.7,4.5-2.6
							c-1.5,0.9-3,1.7-4.5,2.6c0-2.9,0-14.5,0-17.4C718.2,435,719.7,434.1,721.2,433.3z"/>
					</g>
					<g>
						<path class="st43" d="M721.2,433.3C721.2,433.3,721.2,433.3,721.2,433.3c-1.5,0.9-3,1.8-4.5,2.6c0,0,0,0,0,0c0,0,0,0,0,0
							C718.2,435,719.7,434.1,721.2,433.3C721.2,433.3,721.2,433.3,721.2,433.3z"/>
					</g>
					<g>
						<path class="st43" d="M721.6,432c-0.3,0.1-0.4,0.6-0.4,1.3c-1.5,0.9-3,1.7-4.5,2.6c0-0.7,0.1-1.1,0.4-1.3
							C718.4,433.8,720.2,432.8,721.6,432z"/>
					</g>
					<g>
						<path class="st44" d="M717.1,434.6l4.5-2.6c0.3-0.1,0.7,0,1.3,0.3c2.5,1.5,5.1,2.9,7.6,4.4l-4.5,2.6c-2.5-1.5-5.1-2.9-7.6-4.4
							C717.8,434.6,717.3,434.5,717.1,434.6z"/>
					</g>
					<g>
						<path class="st44" d="M731.7,458.2l-4.5,2.6c0.3-0.2,0.4-0.6,0.4-1.4c0-5.8,0-11.5,0-17.3c0-1.4-0.4-2.1-1.6-2.8l4.5-2.6
							c1.2,0.7,1.6,1.4,1.6,2.8c0,5.8,0,11.5,0,17.3C732.1,457.6,732,458,731.7,458.2z"/>
					</g>
					<g>
						<path class="st42" d="M726,439.3c1.2,0.7,1.6,1.4,1.6,2.8c0,5.8,0,11.5,0,17.3c0,1.5-0.4,1.8-1.7,1c-2.5-1.5-5-2.9-7.6-4.4
							c-1.2-0.7-1.6-1.4-1.6-2.8c0-2.9,0-14.5,0-17.4c0-1.4,0.4-1.7,1.7-0.9C720.9,436.4,723.5,437.9,726,439.3z"/>
					</g>
					<g>
						<path class="st43" d="M733.4,440.1c0,3,0,14.8-0.1,17.7c-1.5,0.9-3,1.7-4.5,2.6c0-2.9,0.1-14.7,0.1-17.7c0,0,0,0,0,0
							C730.4,441.8,731.9,440.9,733.4,440.1C733.4,440.1,733.4,440.1,733.4,440.1z"/>
					</g>
					<g>
						<path class="st43" d="M733.7,439.4c-0.1,0.1-0.2,0.3-0.2,0.7c-1.5,0.9-3,1.7-4.5,2.6c0-0.4,0.1-0.6,0.2-0.7
							C730.5,441.2,732.3,440.2,733.7,439.4z"/>
					</g>
					<g>
						<path class="st43" d="M752.7,472.8c0.9,0.5,1.8,0.6,2.4,0.2l-4.5,2.6c-0.6,0.4-1.5,0.3-2.4-0.2c0,0-1-0.6-2.4-1.4
							c-2.2-1.3-5.5-3.2-7.5-4.5c-1.4-0.9-2.9-2.4-4.3-3.7c0,0,0,0,0,0c1.5-0.9,3-1.7,4.5-2.6c0,0,0,0,0,0c1.4,1.3,2.8,2.8,4.3,3.7
							c1.9,1.3,5.2,3.2,7.5,4.5C751.7,472.3,752.7,472.8,752.7,472.8z"/>
					</g>
					<g>
						<path class="st44" d="M755.1,473.1l-4.5,2.6c0.6-0.3,1-1.1,1-2.2c0-0.7-0.2-1.4-0.4-2.2l4.5-2.6c0.2,0.7,0.4,1.5,0.4,2.2
							C756.1,472,755.7,472.7,755.1,473.1z"/>
					</g>
					<g>
						<path class="st44" d="M729.2,442l4.5-2.6c0.1-0.1,0.3,0,0.6,0.1c2.2,1.1,3.9,1,5.3,0.2l-4.5,2.6c-1.4,0.8-3.1,0.9-5.3-0.2
							C729.5,442,729.3,441.9,729.2,442z"/>
					</g>
					<g>
						<path class="st43" d="M756.9,468.6l-4.5,2.6c-0.4,0.2-0.8,0.3-1.3,0.2l4.5-2.6C756.2,468.8,756.6,468.8,756.9,468.6z"/>
					</g>
					<g>
						<path class="st44" d="M756.9,468.6l-4.5,2.6c0.6-0.3,1-1.1,1-2.2c0-0.6-0.1-1.2-0.3-1.9l4.5-2.6c0.2,0.6,0.3,1.3,0.3,1.9
							C757.9,467.5,757.6,468.2,756.9,468.6z"/>
					</g>
					<g>
						<path class="st44" d="M753.3,467l4.5-2.6c-0.1,0.1-0.1,0.1-0.2,0.2l-4.5,2.6C753.2,467.1,753.2,467,753.3,467z"/>
					</g>
					<g>
						<path class="st43" d="M758.2,464.2l-4.5,2.6c-0.1,0.1-0.3,0.1-0.4,0.2l4.5-2.6C758,464.3,758.1,464.3,758.2,464.2z"/>
					</g>
					<g>
						<polygon class="st44" points="743.8,446.5 748.3,443.8 748.3,444 743.8,446.6 						"/>
					</g>
					<g>
						<polygon class="st44" points="753.2,460.2 757.7,457.6 757.9,457.8 753.3,460.4 						"/>
					</g>
					<g>
						<polygon class="st44" points="753.2,460 757.7,457.4 757.7,457.6 753.2,460.2 						"/>
					</g>
					<g>
						<path class="st43" d="M741.1,438.3c-0.5,0.5-1,1-1.6,1.3l-4.5,2.6c0.6-0.3,1.1-0.8,1.6-1.3c1.2-1.3,1.9-3.2,2.5-5.2
							c0,0,0,0,0,0c1.5-0.9,3-1.7,4.5-2.6c0,0,0,0,0,0C743,435.2,742.3,437,741.1,438.3z"/>
					</g>
					<g>
						<path class="st44" d="M758.2,464.2l-4.5,2.6c0.6-0.4,1.1-1.2,1.1-2.3c0-1.3-0.5-2.8-1.4-4.1l4.5-2.6c0.9,1.3,1.4,2.8,1.4,4.1
							C759.3,463,758.9,463.8,758.2,464.2z"/>
					</g>
					<g>
						<path class="st43" d="M743.8,431.2c-0.1,0.1-0.3,0.2-0.5,0.3c-0.2,0.1-0.4,0.2-0.5,0.3c-1,0.6-2,1.2-3,1.7c0,0,0,0,0,0
							C741.1,432.8,742.4,432,743.8,431.2z"/>
					</g>
					<g>
						<path class="st44" d="M743.8,446.6l4.5-2.6c-0.3,1.7,0,2.1,1,2.6c0.1,0.1,0.3,0.2,0.4,0.2c0.3,0.2,0.7,0.4,1.1,0.6
							c1.7,1,4,2.4,4.1,2.4c1.9,1.1,3.4,3.7,3.4,5.8c0,0.8-0.2,1.4-0.5,1.8l-4.5,2.6c0.3-0.4,0.5-1,0.5-1.8c0-2.1-1.5-4.7-3.4-5.8
							c-0.1,0-2.4-1.4-4.1-2.4c-0.4-0.2-0.8-0.5-1.1-0.6c-0.2-0.1-0.3-0.2-0.4-0.2C743.8,448.7,743.5,448.3,743.8,446.6z"/>
					</g>
					<g>
						<path class="st43" d="M744.3,430.9c-0.3,0.7-0.5,1.5-0.7,2.2c-1.5,0.9-3,1.7-4.5,2.6c0.2-0.8,0.4-1.5,0.7-2.2c0,0,0,0,0,0
							c0.1,0,0.2-0.1,0.2-0.1c0.7-0.4,1.3-0.8,2-1.2c0.6-0.3,1.2-0.7,1.8-1C743.9,431.1,744.1,431,744.3,430.9
							c-1.5,0.9-3,1.7-4.5,2.6c0.2-0.4,0.4-0.6,0.6-0.7l4.5-2.6C744.6,430.3,744.4,430.5,744.3,430.9z"/>
					</g>
					<g>
						<path class="st44" d="M740.4,432.8l4.5-2.6c0.4-0.2,0.8-0.2,1.3,0.1l-4.5,2.6C741.2,432.6,740.8,432.6,740.4,432.8z"/>
					</g>
					<g>
						<path class="st44" d="M741.7,432.9l4.5-2.6c0.6,0.3,1.2,1,1.8,2.1c0.7,1.4,0.9,2.7,1,4c0.1,2.7-0.2,5.2-0.7,7.5l-4.5,2.6
							c0.5-2.3,0.8-4.8,0.7-7.5c-0.1-1.3-0.3-2.6-1-4C742.9,433.9,742.3,433.2,741.7,432.9z"/>
					</g>
					<g>
						<path class="st42" d="M741.7,432.9c0.6,0.3,1.2,1,1.8,2.1c0.7,1.4,0.9,2.7,1,4c0.1,2.7-0.2,5.2-0.7,7.5l0,0.1
							c-0.3,1.7,0,2.1,1,2.6c0.1,0.1,0.3,0.2,0.4,0.2c0.3,0.2,0.7,0.4,1.1,0.6c1.7,1,4,2.4,4.1,2.4c1.9,1.1,3.4,3.7,3.4,5.8
							c0,0.8-0.2,1.4-0.5,1.8l0.1,0.1l0.1,0.2c0.9,1.3,1.4,2.8,1.4,4.1c0,1.4-0.6,2.2-1.5,2.5c-0.1,0.1-0.1,0.1-0.2,0.2
							c0.2,0.6,0.3,1.3,0.3,1.9c0,1.7-0.9,2.5-2.2,2.4c0.2,0.7,0.4,1.5,0.4,2.2c0,2.1-1.5,3-3.4,1.9c0,0-1-0.6-2.4-1.4
							c-2.2-1.3-5.5-3.2-7.5-4.5c-1.4-0.9-2.9-2.4-4.3-3.7c-1.4-1.3-2.9-2.6-4.3-3.8c-0.7-0.5-0.9-1-0.9-1.7
							c0-2.9,0.1-14.7,0.1-17.7c0-0.7,0.2-0.9,0.8-0.6c3.1,1.5,5.2,0.7,6.8-1.1c1.2-1.3,1.9-3.2,2.5-5.2c0.2-0.8,0.4-1.5,0.7-2.2
							C740.2,432.6,740.9,432.4,741.7,432.9z"/>
					</g>
					<path class="st14" d="M740.3,411.7c-8.9-5.2-17-5.6-22.8-2.2l-4.5,2.6c5.8-3.4,13.9-2.9,22.8,2.2c17.7,10.2,32,35,32,55.4
						c0,10.1-3.6,17.2-9.4,20.6l4.5-2.6c5.8-3.3,9.3-10.5,9.4-20.6C772.4,446.7,758.1,421.9,740.3,411.7z"/>
					<g>
						<path class="st45" d="M735.8,414.3c17.7,10.2,32,35,32,55.4c-0.1,20.4-14.5,28.6-32.2,18.4c-3.4-1.9-6.6-4.4-9.6-7.3l-7.9,1.5
							c-0.4,0.1-0.8,0-1.2-0.3c-1.1-0.6-2.2-2.3-2.1-3.7l0-11.3c-6.8-10.7-11.2-23.3-11.1-34.5C703.7,412.3,718.1,404.1,735.8,414.3
							z M753.3,467c0.9-0.3,1.5-1.1,1.5-2.5c0-1.3-0.5-2.8-1.4-4.1l-0.1-0.2l-0.1-0.1c0.3-0.4,0.5-1,0.5-1.8c0-2.1-1.5-4.7-3.4-5.8
							c-0.1,0-2.4-1.4-4.1-2.4c-0.4-0.2-0.8-0.5-1.1-0.6c-0.2-0.1-0.3-0.2-0.4-0.2c-1-0.6-1.3-0.9-1-2.6l0-0.1
							c0.5-2.3,0.8-4.8,0.7-7.5c-0.1-1.3-0.3-2.6-1-4c-0.5-1-1.2-1.7-1.8-2.1c-0.8-0.5-1.5-0.3-1.9,0.6c-0.3,0.7-0.5,1.5-0.7,2.2
							c-0.6,2-1.3,3.9-2.5,5.2c-1.7,1.8-3.8,2.7-6.8,1.1c-0.6-0.3-0.8-0.1-0.8,0.6c0,3,0,14.8-0.1,17.7c0,0.7,0.2,1.2,0.9,1.7
							c1.5,1.2,2.9,2.6,4.3,3.8c1.4,1.3,2.8,2.8,4.3,3.7c1.9,1.3,5.2,3.2,7.5,4.5c1.4,0.8,2.3,1.3,2.4,1.4c1.9,1.1,3.4,0.2,3.4-1.9
							c0-0.7-0.2-1.4-0.4-2.2c1.3,0.2,2.3-0.7,2.3-2.4c0-0.6-0.1-1.2-0.3-1.9C753.2,467.1,753.2,467,753.3,467 M727.6,459.4
							c0-5.8,0-11.5,0-17.3c0-1.4-0.4-2.1-1.6-2.8c-2.5-1.5-5.1-2.9-7.6-4.4c-1.3-0.7-1.7-0.5-1.7,0.9c0,2.9,0,14.5,0,17.4
							c0,1.4,0.4,2.1,1.6,2.8c2.5,1.5,5,2.9,7.6,4.4C727.2,461.2,727.6,461,727.6,459.4"/>
					</g>
				</g>
			</g>
			<g>
				<g class="st10">
					<path class="st46" d="M485.7,509.5l4.1-1.8c0.6-0.3,1-0.9,1-1.5v-7.6l-5.7-1.8L485.7,509.5z"/>
					<g>
						<polygon class="st44" points="484.9,498.8 452.3,474.1 453,474.7 485.7,499.3 						"/>
					</g>
					<g>
						<path class="st44" d="M457.1,455.9c1.1,0.6,2.1,0.7,2.8,0.3l-5,2.9c-0.7,0.4-1.7,0.4-2.8-0.3
							C453.5,458,455.5,456.8,457.1,455.9z"/>
					</g>
					<g>
						<path class="st44" d="M453.1,449c0,2.5,1.8,5.6,4,6.9c-4.4,2.5-4.4,2.5-4.4,2.6l-0.6,0.3c-2.2-1.3-4-4.4-4-6.9
							C449.7,451,451.4,450,453.1,449c-1.7,1-3.4,1.9-5,2.9c0-1.3,0.4-2.1,1.2-2.6l5-2.9C453.5,446.9,453.1,447.8,453.1,449z"/>
					</g>
					<g>
						<path class="st47" d="M449.2,449.4l5-2.9c0.7-0.4,1.7-0.4,2.8,0.3l-5,2.9C450.9,449,449.9,449,449.2,449.4z"/>
					</g>
					<g>
						<path class="st22" d="M452.1,449.7c2.2,1.3,4,4.4,4,6.9c0,2.5-1.8,3.6-4,2.3c-2.2-1.3-4-4.4-4-6.9
							C448.1,449.4,449.9,448.4,452.1,449.7z"/>
					</g>
					<g>
						<path class="st47" d="M459.9,456.2l-5,2.9c0.7-0.4,1.2-1.3,1.2-2.6c0-2.5-1.8-5.6-4-6.9l5-2.9c2.2,1.3,4,4.4,4,6.9
							C461.1,454.9,460.6,455.8,459.9,456.2z"/>
					</g>
					<g>
						<path class="st44" d="M470.7,463.8c1.1,0.6,2.1,0.7,2.8,0.3l-5,2.9c-0.7,0.4-1.7,0.4-2.8-0.3
							C467.2,465.8,469.2,464.7,470.7,463.8z"/>
					</g>
					<g>
						<path class="st44" d="M466.7,456.9c0,2.5,1.8,5.6,4,6.9c-1.5,0.9-3,1.7-4.4,2.6l-0.6,0.3c-2.2-1.3-4-4.4-4-6.9
							C463.4,458.8,465,457.9,466.7,456.9c-1.7,1-3.4,1.9-5,2.9c0-1.3,0.4-2.1,1.2-2.6l5-2.9C467.2,454.8,466.7,455.6,466.7,456.9z"
							/>
					</g>
					<g>
						<path class="st47" d="M462.9,457.3l5-2.9c0.7-0.4,1.7-0.4,2.8,0.3l-5,2.9C464.6,456.9,463.6,456.8,462.9,457.3z"/>
					</g>
					<g>
						<path class="st47" d="M473.5,464.1l-5,2.9c0.7-0.4,1.2-1.3,1.2-2.6c0-2.5-1.8-5.6-4-6.9l5-2.9c2.2,1.3,4,4.4,4,6.9
							C474.7,462.8,474.3,463.6,473.5,464.1z"/>
					</g>
					<g>
						<path class="st22" d="M465.7,457.5c2.2,1.3,4,4.4,4,6.9c0,2.5-1.8,3.6-4,2.3c-2.2-1.3-4-4.4-4-6.9
							C461.7,457.3,463.5,456.3,465.7,457.5z"/>
					</g>
					<g>
						<path class="st44" d="M484.3,471.7c1.1,0.6,2.1,0.7,2.8,0.3l-5,2.9c-0.7,0.4-1.7,0.4-2.8-0.3
							C480.8,473.7,482.8,472.5,484.3,471.7z"/>
					</g>
					<g>
						<path class="st44" d="M480.4,464.8c0,2.5,1.8,5.6,4,6.9c-4.4,2.5-4.4,2.5-4.4,2.6l-0.6,0.3c-2.2-1.3-4-4.4-4-6.9
							C477,466.7,478.7,465.7,480.4,464.8c-1.7,1-3.4,1.9-5,2.9c0-1.3,0.4-2.1,1.2-2.6l5-2.9C480.8,462.6,480.4,463.5,480.4,464.8z"
							/>
					</g>
					<g>
						<path class="st47" d="M476.5,465.1l5-2.9c0.7-0.4,1.7-0.4,2.8,0.3l-5,2.9C478.2,464.8,477.2,464.7,476.5,465.1z"/>
					</g>
					<g>
						<path class="st47" d="M487.2,471.9l-5,2.9c0.7-0.4,1.2-1.3,1.2-2.6c0-2.5-1.8-5.6-4-6.9l5-2.9c2.2,1.3,4,4.4,4,6.9
							C488.3,470.6,487.9,471.5,487.2,471.9z"/>
					</g>
					<g>
						<path class="st22" d="M479.3,465.4c2.2,1.3,4,4.4,4,6.9c0,2.5-1.8,3.6-4,2.3c-2.2-1.3-4-4.4-4-6.9
							C475.3,465.2,477.1,464.1,479.3,465.4z"/>
					</g>
					<path class="st46" d="M501.1,451.2l-61-35.2c-1.5-0.9-2.9-1-3.9-0.4l-5,2.9c1-0.6,2.4-0.5,3.9,0.4l61,35.2
						c3.1,1.8,5.5,6.1,5.5,9.6l-0.1,38.3c0,1.7-0.6,3-1.6,3.5l5-2.9c1-0.6,1.6-1.8,1.6-3.5l0.1-38.3
						C506.6,457.2,504.1,453,501.1,451.2z"/>
					<g>
						<path class="st14" d="M496.1,454.1c3.1,1.8,5.5,6.1,5.5,9.6l-0.1,38.3c0,3.5-2.5,4.9-5.6,3.2l-10.2-5.9l-0.1,10.3l-8.1-15
							l-42.7-24.6c-3.1-1.8-5.5-6.1-5.5-9.6l0.1-38.3c0-3.5,2.5-4.9,5.6-3.2L496.1,454.1z M452,458.8c2.2,1.3,4,0.3,4-2.3
							c0-2.5-1.8-5.6-4-6.9c-2.2-1.3-4-0.2-4,2.3C448,454.5,449.8,457.6,452,458.8 M465.7,466.7c2.2,1.3,4,0.3,4-2.3
							c0-2.5-1.8-5.6-4-6.9c-2.2-1.3-4-0.2-4,2.3C461.7,462.4,463.5,465.4,465.7,466.7 M479.3,474.6c2.2,1.3,4,0.3,4-2.3
							c0-2.5-1.8-5.6-4-6.9c-2.2-1.3-4-0.2-4,2.3C475.3,470.2,477.1,473.3,479.3,474.6"/>
					</g>
				</g>
			</g>
		</g>
	</g>
</g>
</svg>
