<?xml version="1.0" encoding="utf-8"?>
<!-- Generator: Adobe Illustrator 25.0.0, SVG Export Plug-In . SVG Version: 6.00 Build 0)  -->
<svg version="1.1" id="Calque_1" xmlns="http://www.w3.org/2000/svg" xmlns:xlink="http://www.w3.org/1999/xlink" x="0px" y="0px"
	 viewBox="0 0 1000 1000" style="enable-background:new 0 0 1000 1000;" xml:space="preserve">
<style type="text/css">
	.st0{fill:#A11841;}
	.st1{fill:#FFFFFF;}
	.st2{display:none;}
	.st3{display:inline;fill:#FFFFFF;}
	.st4{font-family:'Arial-Black';}
	.st5{font-size:121.8771px;}
	.st6{fill:#B9A7AD;}
	.st7{fill:#9B98A8;}
	.st8{fill:#D1B8B3;}
	.st9{fill:#E8DAD3;}
	.st10{fill:#A85B3E;}
	.st11{fill:#54609E;}
	.st12{fill:#2C4A83;}
	.st13{fill:#242340;}
	.st14{fill:#B56142;}
	.st15{fill:#4D67AE;}
	.st16{fill:#6B5CA4;}
	.st17{fill:#C46D49;}
	.st18{fill:#C0552C;}
	.st19{fill:#B34D3D;}
	.st20{fill:#63230B;}
	.st21{fill:#B03312;}
	.st22{fill:#3B1900;}
	.st23{fill:#4393C7;}
	.st24{fill:#56B1DA;}
	.st25{fill:#6FC8E7;}
	.st26{fill:#35A0D1;}
	.st27{fill:#3291C6;}
	.st28{fill:#3B6DAB;}
	.st29{fill:#3FA285;}
	.st30{fill:#81C394;}
	.st31{fill:#B8D695;}
	.st32{fill:#59B893;}
	.st33{fill:#C8DC95;}
	.st34{fill:#ED7AA5;}
	.st35{fill:#F092B3;}
	.st36{fill:#F3A6C0;}
	.st37{fill:#EA5A94;}
	.st38{fill:#C24B86;}
	.st39{fill:#AB6040;}
	.st40{fill:#E05757;}
	.st41{fill:#914E34;}
	.st42{fill:#240A00;}
	.st43{fill:#491316;}
	.st44{fill:#C55D6C;}
	.st45{fill:#C76A4E;}
	.st46{fill:#9B599E;}
	.st47{fill:#F1E7DE;}
	.st48{fill:#EFD9CE;}
	.st49{fill:#C73547;}
	.st50{fill:#9E6F9E;}
	.st51{fill:#6CC7E6;}
	.st52{fill:#93D3EA;}
</style>
<path class="st0" d="M-5.2-8.1h1010.4c1.6,0,2.9,1.3,2.9,2.9v1010.4c0,1.6-1.3,2.9-2.9,2.9H-5.2c-1.6,0-2.9-1.3-2.9-2.9V-5.2
	C-8.1-6.8-6.8-8.1-5.2-8.1z"/>
<path class="st1" d="M73.1,253.6c0-17.5,5.7-29.2,17.2-35.1c-11.5-5.9-17.2-17.6-17.2-35.1v-41.4c0-37,18.5-55.6,55.5-55.7
	c37-0.1,55.5,18.5,55.4,55.7v41.4c0,17.5-5.7,29.2-17.2,35.1c11.5,5.9,17.2,17.6,17.2,35.1v42.5c0,37.1-18.5,55.7-55.4,55.7
	s-55.4-18.6-55.5-55.7V253.6z M115.5,183.2c0,10,4.3,15,13,15c8.7,0,13-5,13.1-15v-41.1c-0.2-9.7-4.6-14.5-13-14.5
	s-12.8,4.9-13.1,14.5V183.2z M115.5,296.2c0.3,9.7,4.6,14.5,13.1,14.5s12.8-4.9,13-14.5v-42.6c0-8.1-1.4-12.8-4.1-14
	c-1.5-0.7-4.3-1-8.4-1c-1.1,0-2.3,0-3.5,0.1c-6.8,0.3-10.2,5.2-10.2,14.9L115.5,296.2z"/>
<text transform="matrix(0.6058 0 0 1 234.0005 193.4673)" class="st2"><tspan x="0" y="0" class="st3 st4 st5">EDUCATION DE LA</tspan><tspan x="0" y="146.3" class="st3 st4 st5">PETITE ENFANCE</tspan></text>
<g>
	<path class="st1" d="M239.4,106.2h43.8v18.6h-27.4v13.9h25.4v17.8h-25.4v17.2h28.2v19.8h-44.6V106.2z"/>
	<path class="st1" d="M292.9,106.2h24.3c4.8,0,8.6,1.1,11.6,3.2c2.9,2.1,5.4,5.2,7.3,9.2c1.9,4,3.3,8.7,4.2,14
		c0.9,5.3,1.3,10.9,1.3,16.9c0,9.3-0.6,16.6-1.9,21.7c-1.3,5.1-3.1,9.4-5.4,12.9c-2.3,3.5-4.7,5.8-7.4,6.9c-3.6,1.6-6.8,2.4-9.7,2.4
		h-24.3V106.2z M309.3,126v47.7h4c3.4,0,5.8-0.6,7.3-1.9c1.4-1.2,2.6-3.4,3.4-6.5c0.8-3.1,1.2-8.2,1.2-15.1c0-9.2-0.9-15.6-2.7-19
		c-1.8-3.4-4.9-5.1-9.1-5.1H309.3z"/>
	<path class="st1" d="M384.6,106.2h16.3v52c0,5.2-0.5,10-1.5,14.6c-1,4.6-2.5,8.6-4.6,12c-2.1,3.4-4.3,5.8-6.5,7.2
		c-3.2,1.9-7,2.9-11.4,2.9c-2.6,0-5.4-0.3-8.4-0.9c-3-0.6-5.6-1.8-7.6-3.5c-2-1.8-3.9-4.3-5.6-7.5c-1.7-3.3-2.9-6.6-3.5-10.1
		c-1-5.6-1.5-10.5-1.5-14.7v-52h16.3v53.2c0,4.8,0.8,8.5,2.4,11.1c1.6,2.7,3.8,4,6.7,4c2.8,0,5-1.3,6.6-4c1.6-2.6,2.4-6.4,2.4-11.2
		V106.2z"/>
	<path class="st1" d="M446.8,157.8l14.3,7.1c-1,6.6-2.5,12.2-4.5,16.6c-2.1,4.4-4.6,7.8-7.7,10.1s-7,3.4-11.7,3.4
		c-5.7,0-10.4-1.4-14.1-4.1c-3.6-2.8-6.8-7.6-9.4-14.5c-2.6-6.9-4-15.8-4-26.6c0-14.4,2.3-25.5,7-33.3c4.7-7.8,11.2-11.6,19.7-11.6
		c6.7,0,11.9,2.2,15.7,6.7c3.8,4.4,6.6,11.3,8.5,20.5l-14.4,5.3c-0.5-2.7-1-4.6-1.6-5.8c-0.9-2.1-2-3.6-3.4-4.8
		c-1.3-1.1-2.8-1.7-4.4-1.7c-3.7,0-6.5,2.5-8.5,7.4c-1.5,3.6-2.2,9.4-2.2,17.2c0,9.7,0.9,16.3,2.7,19.9c1.8,3.6,4.3,5.4,7.5,5.4
		c3.1,0,5.5-1.4,7.1-4.3C445,167.5,446.1,163.3,446.8,157.8z"/>
	<path class="st1" d="M501.6,179.1H483l-2.6,14.4h-16.7l19.9-87.2h17.8l19.9,87.2h-17.1L501.6,179.1z M498.2,160.2l-5.8-31.4
		l-5.8,31.4H498.2z"/>
	<path class="st1" d="M517.7,106.2h49.6v21.5h-16.7v65.7h-16.3v-65.7h-16.7V106.2z"/>
	<path class="st1" d="M575.4,106.2h16.4v87.2h-16.4V106.2z"/>
	<path class="st1" d="M601.4,149.9c0-14.2,2.4-25.3,7.2-33.3c4.8-7.9,11.5-11.9,20.1-11.9c8.8,0,15.6,3.9,20.3,11.7
		s7.1,18.7,7.1,32.8c0,10.2-1,18.6-3.1,25.1c-2.1,6.5-5.1,11.6-9,15.2c-3.9,3.6-8.8,5.4-14.7,5.4c-6,0-10.9-1.6-14.8-4.7
		c-3.9-3.1-7.1-8.1-9.5-14.9C602.7,168.6,601.4,160.1,601.4,149.9z M617.8,150c0,8.8,1,15.1,3,19c2,3.8,4.7,5.8,8.1,5.8
		c3.5,0,6.2-1.9,8.1-5.7c1.9-3.8,2.9-10.5,2.9-20.3c0-8.2-1-14.2-3-18c-2-3.8-4.7-5.7-8.2-5.7c-3.3,0-5.9,1.9-7.9,5.8
		C618.8,134.8,617.8,141.1,617.8,150z"/>
	<path class="st1" d="M665.1,106.2h15.2l19.9,48.3v-48.3h15.4v87.2h-15.4l-19.8-47.9v47.9h-15.4V106.2z"/>
	<path class="st1" d="M751.3,106.2h24.3c4.8,0,8.6,1.1,11.6,3.2c2.9,2.1,5.4,5.2,7.3,9.2c1.9,4,3.3,8.7,4.2,14
		c0.9,5.3,1.3,10.9,1.3,16.9c0,9.3-0.6,16.6-1.9,21.7c-1.3,5.1-3.1,9.4-5.4,12.9c-2.3,3.5-4.7,5.8-7.4,6.9c-3.6,1.6-6.8,2.4-9.7,2.4
		h-24.3V106.2z M767.7,126v47.7h4c3.4,0,5.8-0.6,7.3-1.9c1.4-1.2,2.6-3.4,3.4-6.5c0.8-3.1,1.2-8.2,1.2-15.1c0-9.2-0.9-15.6-2.7-19
		c-1.8-3.4-4.9-5.1-9.1-5.1H767.7z"/>
	<path class="st1" d="M808.5,106.2h43.8v18.6h-27.4v13.9h25.4v17.8h-25.4v17.2h28.2v19.8h-44.6V106.2z"/>
	<path class="st1" d="M886.5,106.2h16.3V172h25.5v21.5h-41.8V106.2z"/>
	<path class="st1" d="M968.2,179.1h-18.5l-2.6,14.4h-16.7l19.9-87.2h17.8l19.9,87.2h-17.1L968.2,179.1z M964.8,160.2l-5.8-31.4
		l-5.8,31.4H964.8z"/>
	<path class="st1" d="M239.3,252.5h27.1c5.9,0,10.3,2.3,13.3,7c2.9,4.6,4.4,11.2,4.4,19.8c0,8.8-1.6,15.7-4.8,20.6
		c-3.2,5-8.1,7.4-14.7,7.4h-8.9v32.4h-16.4V252.5z M255.7,289.7h4c3.1,0,5.4-0.9,6.6-2.7c1.3-1.8,1.9-4.1,1.9-6.9
		c0-2.7-0.6-5.1-1.7-7s-3.2-2.9-6.2-2.9h-4.7V289.7z"/>
	<path class="st1" d="M292.7,252.5h43.8v18.6h-27.4V285h25.4v17.8h-25.4V320h28.2v19.8h-44.6V252.5z"/>
	<path class="st1" d="M342.3,252.5H392V274h-16.7v65.7H359V274h-16.7V252.5z"/>
	<path class="st1" d="M400,252.5h16.4v87.2H400V252.5z"/>
	<path class="st1" d="M424.4,252.5H474V274h-16.7v65.7H441V274h-16.7V252.5z"/>
	<path class="st1" d="M481.4,252.5h43.8v18.6h-27.4V285h25.4v17.8h-25.4V320h28.2v19.8h-44.6V252.5z"/>
	<path class="st1" d="M559.3,252.5h43.8v18.6h-27.4V285h25.4v17.8h-25.4V320h28.2v19.8h-44.6V252.5z"/>
	<path class="st1" d="M612.8,252.5H628l19.9,48.3v-48.3h15.4v87.2h-15.4l-19.8-47.9v47.9h-15.4V252.5z"/>
	<path class="st1" d="M674.3,252.5h40.4v18.7h-24v15.2h20.5v17.6h-20.5v35.6h-16.4V252.5z"/>
	<path class="st1" d="M749,325.3h-18.5l-2.6,14.4h-16.7l19.9-87.2h17.8l19.9,87.2h-17.1L749,325.3z M745.6,306.5l-5.8-31.4
		l-5.8,31.4H745.6z"/>
	<path class="st1" d="M774,252.5h15.2l19.9,48.3v-48.3h15.4v87.2h-15.4l-19.8-47.9v47.9H774V252.5z"/>
	<path class="st1" d="M870.6,304l14.3,7.1c-1,6.6-2.5,12.2-4.5,16.6c-2.1,4.4-4.6,7.8-7.7,10.1s-7,3.4-11.7,3.4
		c-5.7,0-10.4-1.4-14.1-4.1c-3.6-2.8-6.8-7.6-9.4-14.5c-2.6-6.9-4-15.8-4-26.6c0-14.4,2.3-25.5,7-33.3c4.7-7.8,11.2-11.6,19.7-11.6
		c6.7,0,11.9,2.2,15.7,6.7c3.8,4.4,6.6,11.3,8.5,20.5l-14.4,5.3c-0.5-2.7-1-4.6-1.6-5.8c-0.9-2.1-2-3.6-3.4-4.8
		c-1.3-1.1-2.8-1.7-4.4-1.7c-3.7,0-6.5,2.5-8.5,7.4c-1.5,3.6-2.2,9.4-2.2,17.2c0,9.7,0.9,16.3,2.7,19.9c1.8,3.6,4.3,5.4,7.5,5.4
		c3.1,0,5.5-1.4,7.1-4.3C868.7,313.7,869.9,309.5,870.6,304z"/>
	<path class="st1" d="M892.8,252.5h43.8v18.6h-27.4V285h25.4v17.8h-25.4V320h28.2v19.8h-44.6V252.5z"/>
</g>
<g>
	<rect x="238.8" y="383.9" class="st6" width="614.2" height="577"/>
	<g>
		<path class="st7" d="M454.4,731.7v-3.5c-0.2,0.1-0.4,0.2-0.6,0.3C454,729.8,454.2,730.9,454.4,731.7z"/>
		<path class="st7" d="M504.8,681.5c0.9,1.1,1.4,2.1,1.5,3.1h13.9c0.5-7.8,4.2-13.7,9-17.6c6.6-5.4,13.2-9.1,22.6-7.8
			c3.5,0.5,8.3,2.5,12.5,5.3c2.6-3.3,5.4-3,7.1-0.6c3.9-7.9,10.3-15.2,20.2-21.1c0,0,28-17.3,58.8-18.7c-23.3-3.6-47.8-3.4-70.1,3.9
			c-22.1,7.3-40.4,20.8-57.5,35.5c-6.5,5.6-13,11.3-19.6,16.9C503.8,681.2,504.3,681,504.8,681.5z"/>
		<path class="st7" d="M766.1,696.8c-1.8-0.6-3.6-1.4-5.2-2.4c-4.2-1.1-7.8,0.4-7.3,6.4c0.7,7.9,7.2,9.3,13.9,5.7
			c3-1.7,5.8,2.7,2.7,4.4c-5.1,2.8-7.5,8.5-0.9,11.3c6.2,2.6,10.9-1.7,13.5-6.7c1.2-2.2,5.4-1.3,5.1,1.3c-0.4,2.9-0.7,14.7,5.8,10.3
			c5.4-3.6,4-10.6,1.6-15.4c-1.4-2.9,2.8-5.4,4.7-2.6c2.2,3.4,10.2,11.3,11.7,2.9c1.2-6.3-4.3-10.5-9.7-12.9
			c-2.9-1.3-0.8-5.4,2.1-4.7c4.2,1,10.9,0.2,10.2-5.4c-0.6-4.5-5.6-2.7-9.4-0.6c-1.4,1-2.7,1.8-4,2.5c-3.1,1.6-5.5-2.5-2.7-4.4
			c0.7-0.5,1.6-1.1,2.6-1.6c4.4-3,11.4-8.9,5.3-11.6c-6.8-2.9-11.6,6.7-13.3,11.1c0,0,0,0,0,0c-0.1,0.2-0.2,0.4-0.3,0.6
			c-1.2,2.7-6,0.7-5-2c0.2-0.5,0.4-1.1,0.7-1.7c2.2-5.6,4.2-16.9-4.4-18.1c-9.1-1.3-4.6,13-3,17.2c0.1,0.1,0.1,0.2,0.1,0.3
			c0,0,0,0,0,0.1c0.6,1.4-0.2,2.4-1.4,2.9c-0.9,0.5-2.2,0.6-3.2-0.4c-1.4-1.4-3.9-3.4-6.6-4.8c-0.7,3.2-1.4,6.5-1.9,9.7
			c-0.1,0.8-1.3,1-1.8,0.5c-2.5-2.5-5-4.9-7.6-7.3c-1,3.4,1.1,6.2,4,8.2c1.8,0.5,3.7,1.4,5.5,2.6
			C770.6,693.7,769.2,697.8,766.1,696.8z M778.6,689.8c0.1-0.1,0.2-0.2,0.3-0.3c-0.2-1.4,0.6-3.1,2.6-3.2c5.4-0.3,12,1.9,14.3,6.9
			c2.4,5.1,0.4,10.7-4.9,13.4c-4.8,2.5-10.9,2.3-14.2-2.3C773.3,699.5,774.9,693.9,778.6,689.8z"/>
		<path class="st7" d="M784.3,803.7c20.9-10.7-0.8-40.9-18.9-24.9c-2.1,1.8-5.1,0-4.5-2.5c2.9-13.7-3.7-36.6-23.5-26.5
			c-9,4.6-13.6,12.7-15.4,21.7c14,4.9,31.4,15,50.1,35.6h11.2C782.7,805.9,782.8,804.5,784.3,803.7z"/>
		<path class="st7" d="M532.9,807h4.1c0.1-0.3,0.2-0.6,0.4-1c0.1-0.3,0.3-0.6,0.4-0.9c0.2-0.3,0.3-0.6,0.5-0.9
			c0.2-0.3,0.4-0.6,0.5-0.9c0.2-0.3,0.3-0.5,0.5-0.8c0.2-0.3,0.4-0.6,0.6-0.8c0.2-0.2,0.4-0.5,0.6-0.7c0.2-0.3,0.5-0.5,0.8-0.8
			c0.2-0.2,0.4-0.4,0.6-0.6c0.3-0.3,0.6-0.5,0.9-0.8c0.2-0.2,0.4-0.4,0.6-0.5c0.3-0.2,0.6-0.5,1-0.7c0.2-0.2,0.4-0.3,0.6-0.5
			c0.3-0.2,0.7-0.4,1.1-0.6c0.2-0.1,0.4-0.3,0.7-0.4c0.4-0.2,0.8-0.4,1.2-0.5c0.2-0.1,0.4-0.2,0.7-0.3c0.4-0.2,0.8-0.3,1.2-0.5
			c0.2-0.1,0.5-0.2,0.7-0.2c0.4-0.1,0.9-0.2,1.3-0.3c0.2-0.1,0.5-0.1,0.7-0.2c0.4-0.1,0.9-0.2,1.3-0.2c0.3,0,0.5-0.1,0.8-0.1
			c0.5-0.1,0.9-0.1,1.4-0.1c0.2,0,0.4,0,0.5,0c0,0,0,0,0,0c0.2,0,0.4,0,0.7,0h15.6h57.6h15.6c7.3,0,13.7,3.4,17.6,8.6l8.7-22.5
			l-0.1-0.3l-4.3-8.4c-23,6.8-47.7,1.2-64.4-13.8c0,0.1-0.1,0.1-0.1,0.2c-0.1,0.2-0.1,0.4-0.2,0.6c-0.1,0.2-0.1,0.3-0.2,0.5
			c-0.1,0.2-0.2,0.4-0.3,0.6c-0.1,0.1-0.1,0.3-0.2,0.4c-0.1,0.2-0.2,0.4-0.4,0.6c-0.1,0.1-0.2,0.3-0.3,0.4c-0.1,0.2-0.3,0.4-0.5,0.6
			c-0.1,0.1-0.2,0.2-0.3,0.3c-0.2,0.2-0.4,0.4-0.6,0.6c-0.1,0.1-0.2,0.2-0.3,0.3c-0.3,0.3-0.6,0.5-1,0.8c-3.7,2.7-8.8,2.8-13.1,0.7
			v9.6c0,11.1-9.6,20.1-21.4,20.1H549h-36.2C522,793.7,529.9,799.2,532.9,807z"/>
		<path class="st7" d="M788.9,701.7c2.6-1.9,3.5-5.1,1.1-7.5c-1.9-1.8-4.3-2.7-6.9-2.8c0.1,0.7-0.1,1.3-0.7,2
			c-1.9,2.1-3.4,5.9-1,8.3C783.6,703.8,786.5,703.4,788.9,701.7z"/>
		<path class="st7" d="M559.4,684.1c-1.8,0.1-3.4,0.3-4.9,0.6h5C559.4,684.5,559.4,684.3,559.4,684.1z"/>
		<path class="st7" d="M713.9,681.3c6.8-1.7,13.9,2.9,15.9,10.2c2,7.3-1.8,14.6-8.6,16.2c-0.4,0.1-0.8,0.2-1.2,0.2
			c-0.1,0-0.3,0-0.4,0c-0.3,0-0.5,0.1-0.8,0.1c-0.2,0-0.3,0-0.5,0c-0.2,0-0.5,0-0.7,0c-0.2,0-0.4,0-0.6-0.1c-0.2,0-0.4-0.1-0.6-0.1
			c-0.2,0-0.4-0.1-0.6-0.1c-0.2,0-0.4-0.1-0.6-0.1c-0.2-0.1-0.4-0.1-0.6-0.2c-0.2-0.1-0.4-0.1-0.6-0.2c-0.1,0-0.2-0.1-0.3-0.1
			c0.5,5.6,0.2,11.2-0.9,16.6c0,0,0,0,0,0c0,0.1,0,0.2-0.1,0.3c-0.2,1-0.4,1.9-0.7,2.9c0,0.1,0,0.2-0.1,0.3c-0.3,1.1-0.6,2.2-1,3.3
			c0,0.1-0.1,0.2-0.1,0.3c-0.3,0.9-0.7,1.9-1,2.8c-0.1,0.3-0.2,0.5-0.3,0.8c-0.3,0.8-0.6,1.5-1,2.3c-0.1,0.3-0.3,0.6-0.4,0.9
			c-0.4,0.7-0.7,1.5-1.1,2.2c-0.1,0.3-0.3,0.5-0.4,0.8c-0.5,0.9-1,1.8-1.6,2.7c0,0.1-0.1,0.1-0.1,0.2c-0.6,1-1.2,1.9-1.9,2.9
			c-0.1,0.2-0.3,0.4-0.4,0.5c-0.5,0.7-1.1,1.4-1.6,2.1c-0.2,0.3-0.5,0.6-0.7,0.8c-0.5,0.6-1,1.2-1.5,1.8c-0.3,0.3-0.5,0.6-0.8,0.9
			c-0.5,0.6-1.1,1.2-1.7,1.8c-0.2,0.2-0.5,0.5-0.7,0.7c-0.8,0.7-1.6,1.5-2.4,2.2c-0.1,0.1-0.1,0.1-0.2,0.2c-0.9,0.8-1.8,1.5-2.7,2.2
			c-0.3,0.2-0.5,0.4-0.8,0.6c-0.7,0.5-1.4,1-2.1,1.5c-0.3,0.2-0.7,0.5-1.1,0.7c-0.4,0.3-0.8,0.5-1.2,0.8l2.7,5.3
			c0.6-0.1,1.2-0.2,1.8-0.3c0,0,10.6-3,27.3,1.7c2.5-12.5,9.5-23.9,23.7-26.6c19.7-3.8,27.2,12.8,26.3,28.2
			c22-11.3,44.4,21.7,22,35.6h16.8c0-0.2-0.1-0.4-0.1-0.6c0.1-26.8,2.4-53.6-4.4-79.6c-1.3,2.6-3.4,4.7-6.9,5.7
			c-7.3,2.2-10.6-2.8-11.7-8.4c-5.1,4.3-12.3,5.9-18.5,1c-4.5-3.6-5.2-7.9-3.5-11.7c-6.7-0.1-12.3-4.3-12.6-12.6
			c-0.2-6.3,2.8-10.2,7.1-11.4c-2.5-3.4-3.3-7.6-0.7-11.9c-7.3-6.7-15-13.2-23-19.2c-13.8-10.2-28.9-18.8-45.1-25
			c-0.7,0.8-1.8,1.4-3.2,1.7C704.1,651.8,713.9,681.3,713.9,681.3z"/>
		<path class="st7" d="M433.7,756.6l2.5,37.1h3.4h36.2c-11.8,0-21.4-9-21.4-20.1v-39.5c-6.5,3.6-14.4,6.2-21.6,8.2
			C433.5,746.4,433.9,751.2,433.7,756.6z"/>
		<path class="st7" d="M830.7,749.5c0.6-1.6,1.3-3.3,1-5c0-2.4-1.4-3.6-4.1-3.5c-3.6,3.3-5.5,7.9-7.4,12.2
			c-2.3,5.3-4.3,10.7-5.8,16.2c3.4-3.2,6.6-6.6,9.6-10.1C826.5,756.5,829.4,753.1,830.7,749.5z"/>
		<path class="st7" d="M835.5,573.6c-9.5,7.4-18.1,15.7-25.7,24.5c0.4-0.1,0.9-0.1,1.3-0.2c3.4-0.6,4.9,4.3,1.4,4.9
			c-2.2,0.4-4.3,0.8-6.5,1.1c0.1,2.2,0.3,4.4,0.7,6.6c0.5,3.2-4.7,4.6-5.2,1.4c-0.2-1-0.3-1.9-0.4-2.9
			c-14.2,19.4-24.1,41.3-29.9,64.6c0.9,0.4,1.8,0.8,2.7,1.3c-1.4-8.2-0.1-18.1,10.8-16.6c7.8,1.1,10.6,6.8,10.7,13.2
			c4.2-3.8,9.4-5.8,14.8-1.7c4.7,3.6,4.3,7.9,1.8,11.8c3.9,0,7.2,1.7,7.9,6.8c0.7,5.9-3,9.5-8,10.9c5.2,4.8,7.9,11.6,3.4,18
			c-2.9,4.2-6.7,4.5-10.2,3c4.2,13.4,5.8,27,6.3,40.7c4.3-13.5,11.6-30.1,20.3-25.2c17.9,10.2-10.8,35.3-19.3,42.6
			c-0.2,0.4-0.5,0.7-0.8,0.8c-0.1,9-0.4,18.1-0.4,27.1c0,0.2,0,0.4-0.1,0.6h42V561.4C847,565.1,841.1,569.2,835.5,573.6z"/>
		<path class="st7" d="M355.1,776.3c-0.1-4.9,0-9.5,0.3-13.7c-8.6,3.8-20.5,7.5-35.1,8.5l1.3,1.1l-3.9,24.3c0,0-4.5-12.5-13.9-13
			c-0.3,0.7-0.7,1.4-1,2.2c-0.2,0.3-0.3,0.6-0.5,1c0,0.1-0.1,0.2-0.1,0.3c0,0.1,0,0.1-0.1,0.2h0c-0.6,1.2-1.2,2.4-1.8,3.6l-8.1,0
			l-1.2,6.5l-0.8,0l-0.8,0l-1.1-6.5l-8.1,0c-0.6-1.2-1.2-2.4-1.8-3.6h0c0,0,0-0.1-0.1-0.1c-0.6-1.2-1.1-2.3-1.6-3.4
			c-9.2,0.7-13.7,12.8-13.7,12.8l-3.5-24.3l10.4-8.4c-5-21.5-0.1-36.2,6.3-45.7l0,0c0,0,0.1-0.1,0.1-0.1c0.4-0.5,0.7-1.1,1.1-1.6
			c0,0,0.1-0.1,0.1-0.1c0.4-0.5,0.8-1,1.2-1.5c0,0,0,0,0-0.1c0.4-0.5,0.8-1,1.2-1.4c0.1-0.1,0.1-0.1,0.2-0.2
			c0.4-0.4,0.8-0.9,1.1-1.3c0.1-0.1,0.1-0.1,0.2-0.2c0.4-0.4,0.8-0.8,1.2-1.2c0,0,0,0,0,0c0.4-0.4,0.8-0.7,1.1-1.1
			c0,0,0.1-0.1,0.1-0.1c0.4-0.3,0.7-0.6,1.1-0.9c0,0,0.1-0.1,0.1-0.1c0.3-0.3,0.7-0.6,1-0.8c0,0,0.1,0,0.1-0.1
			c0.7-0.5,1.3-1,1.8-1.4c0,0,0.1-0.1,0.1-0.1c0.3-0.2,0.5-0.4,0.7-0.5c0,0,0.1,0,0.1-0.1c0.2-0.1,0.4-0.3,0.6-0.4c0,0,0,0,0,0
			c0.2-0.1,0.4-0.2,0.5-0.3c0,0,0,0,0,0c0.1-0.1,0.3-0.2,0.4-0.2c0,0,0,0,0.1,0c0.1-0.1,0.2-0.1,0.2-0.1c0,0,0,0,0,0
			c0,0,0.1,0,0.1,0s0,0,0.1,0c0,0,0,0,0,0c0.1,0,0.1,0.1,0.2,0.1c0,0,0,0,0,0c0.1,0.1,0.2,0.1,0.4,0.2c0,0,0,0,0,0
			c0.2,0.1,0.3,0.2,0.5,0.3c0,0,0,0,0,0c0.2,0.1,0.4,0.3,0.6,0.4c0,0,0.1,0,0.1,0.1c0.2,0.2,0.5,0.3,0.7,0.5c0,0,0.1,0.1,0.1,0.1
			c0.6,0.4,1.2,0.9,1.8,1.4c0,0,0.1,0,0.1,0.1c0.3,0.3,0.6,0.5,1,0.8c0,0,0.1,0.1,0.1,0.1c0.3,0.3,0.7,0.6,1,0.9
			c0,0,0.1,0.1,0.1,0.1c0.4,0.3,0.7,0.7,1.1,1.1c0,0,0,0,0,0c0.4,0.4,0.8,0.8,1.1,1.2c0,0.1,0.1,0.1,0.1,0.2
			c0.4,0.4,0.7,0.8,1.1,1.3c0.1,0.1,0.1,0.1,0.2,0.2c0.4,0.5,0.8,0.9,1.2,1.4c0,0,0,0,0,0.1c0.4,0.5,0.8,1,1.2,1.5
			c0,0,0.1,0.1,0.1,0.1c0.4,0.5,0.7,1.1,1.1,1.6c0,0,0.1,0.1,0.1,0.1c0,0,0,0,0,0c2.8,4.3,5.3,9.7,6.7,16.3c0,0,0,0,0,0
			c0,0.1,0,0.2,0,0.3c0.3,1.5,0.6,3.1,0.8,4.8c0,0.2,0,0.4,0.1,0.5c0.1,0.8,0.2,1.7,0.2,2.5c0,0.1,0,0.1,0,0.2
			c0.1,0.8,0.1,1.6,0.1,2.5c0,0.2,0,0.4,0,0.6c0,0.9,0,1.8,0,2.7c0,0.1,0,0.2,0,0.4c0,0.8-0.1,1.7-0.1,2.5c0,0.2,0,0.4-0.1,0.6
			c-0.1,1-0.2,1.9-0.3,2.9c0,0.2-0.1,0.4-0.1,0.5c-0.1,0.9-0.3,1.7-0.4,2.6c0,0.2-0.1,0.4-0.1,0.7c-0.1,0.7-0.3,1.5-0.4,2.2
			c8.5-1.6,20.9-5,33.9-12.1c-0.9-1.4-1.6-2.8-2.2-4.2l24.4-22.2c0,0,0,0,0.1,0c5.6-7.1,12.1-9.8,16.9-10.9l0-7
			c-0.5-0.1-1-0.1-1.5-0.2c-0.4-0.1-0.9-0.1-1.3-0.2c-0.8-0.1-1.7-0.3-2.5-0.5c-0.3-0.1-0.7-0.1-1-0.2c-1.2-0.3-2.3-0.6-3.5-0.9
			c-0.1,0-0.2-0.1-0.3-0.1c-1-0.3-2.1-0.6-3.1-1c-0.3-0.1-0.7-0.2-1-0.4c-0.8-0.3-1.5-0.6-2.3-0.9c-0.4-0.1-0.7-0.3-1.1-0.5
			c-0.7-0.3-1.5-0.6-2.2-1c-0.3-0.2-0.7-0.3-1-0.5c-0.8-0.4-1.6-0.8-2.4-1.2c-0.2-0.1-0.4-0.2-0.6-0.3c-1-0.6-2-1.2-3-1.8
			c-0.1-0.1-0.2-0.1-0.2-0.2c-0.9-0.6-1.8-1.1-2.6-1.7c-0.3-0.2-0.5-0.4-0.8-0.5c-0.7-0.5-1.4-1-2-1.5c-0.3-0.2-0.5-0.4-0.8-0.6
			c-0.7-0.5-1.3-1.1-1.9-1.6c-0.2-0.2-0.5-0.4-0.7-0.6c-0.7-0.7-1.5-1.4-2.2-2.1c-0.1-0.1-0.2-0.2-0.3-0.2c-0.8-0.8-1.6-1.7-2.4-2.5
			c-0.1-0.1-0.1-0.2-0.2-0.3c-0.7-0.8-1.3-1.5-1.9-2.3c-0.1-0.1-0.1-0.2-0.2-0.2c0,0,0,0,0,0c-3.5-4.4-6.4-9.3-8.5-14.5
			c-0.1,0.1-0.1,0.1-0.2,0.2c-0.2,0.2-0.3,0.3-0.5,0.5c-0.1,0.1-0.3,0.2-0.4,0.3c-0.2,0.1-0.3,0.3-0.5,0.4c-0.1,0.1-0.3,0.2-0.4,0.3
			c-0.2,0.1-0.4,0.3-0.6,0.4c-0.1,0.1-0.3,0.2-0.4,0.3c-0.2,0.1-0.4,0.2-0.7,0.3c-0.1,0.1-0.3,0.1-0.4,0.2c-0.3,0.1-0.5,0.2-0.8,0.3
			c-0.1,0-0.2,0.1-0.4,0.1c-0.4,0.1-0.8,0.2-1.2,0.3c-6.9,1.3-13.7-3.6-15.3-11c-1.6-7.4,2.7-14.5,9.5-15.8c0.5-0.1,1-0.2,1.6-0.2
			c0.1,0,0.3,0,0.4,0c0.4,0,0.8,0,1.2,0c0.1,0,0.1,0,0.2,0c0,0,0,0,0,0c0.1,0,0.1,0,0.2,0c-12.6-41.2,14-52.8,14.8-53.1
			c-2.8-2.9-5-6.2-6.3-10.1c-5.2-15.8,15-6.7,23.9-13.4c5.6-4.2,10.2-8.6,15.7-11c-40.3-20.1-89.9-23.1-133.7-12.2V807h113.7
			L355.1,776.3z M274.5,616.4c1.9-0.3,3.8-0.6,5.8-0.9c0-1.6-0.1-3.2-0.1-4.8c0-3.3,5.4-3.3,5.4,0c0,1.3,0,2.6,0,3.9
			c1.7-0.3,3.5-0.6,5.2-0.9c3.4-0.6,4.9,4.3,1.4,4.9c-2.2,0.4-4.3,0.8-6.5,1.1c0.1,2.2,0.3,4.4,0.7,6.6c0.5,3.2-4.7,4.6-5.2,1.4
			c-0.4-2.4-0.6-4.7-0.8-7.1c-1.5,0.2-3,0.5-4.6,0.7C272.6,621.9,271.1,617,274.5,616.4z"/>
		<path class="st7" d="M404.1,704.3l0,7.6c1.2,0.3,2.4,0.6,3.7,1h0l38.2-4.7c0.9,1.2,1.7,2.6,2.4,4.1c2.1-0.9,4-1.8,5.9-2.8v-4.6
			c0-0.7,0-1.4,0.1-2c0-0.2,0.1-0.5,0.1-0.7c0.1-0.4,0.1-0.9,0.2-1.3c0.1-0.3,0.1-0.5,0.2-0.8c0.1-0.4,0.2-0.7,0.3-1.1
			c0.1-0.3,0.2-0.6,0.3-0.9c0.1-0.3,0.2-0.6,0.4-1c0.1-0.3,0.3-0.6,0.4-0.9c0.1-0.3,0.3-0.6,0.4-0.9c0.2-0.3,0.4-0.6,0.6-0.9
			c0.2-0.3,0.3-0.5,0.5-0.8c0.2-0.3,0.4-0.6,0.7-0.9c0.2-0.2,0.3-0.5,0.5-0.7c0.2-0.3,0.5-0.5,0.8-0.8c-2.6-6.6-4.9-13.4-7-20.1
			C443.7,688.5,425.7,701.2,404.1,704.3z"/>
		<path class="st8" d="M805.8,807H789c-0.6,0.4-1.3,0.8-1.9,1.1c-1.6,0.8-3.1,0-3.7-1.1h-11.2c7.6,8.4,15.5,18.5,23.4,30.7h57.6V807
			h-42C810.5,809.6,806.3,809.6,805.8,807z"/>
		<path class="st8" d="M535.7,813.8c0-0.7,0-1.4,0.1-2c0-0.2,0.1-0.5,0.1-0.7c0.1-0.4,0.1-0.9,0.2-1.3c0.1-0.3,0.1-0.5,0.2-0.8
			c0.1-0.4,0.2-0.7,0.3-1.1c0.1-0.3,0.2-0.6,0.3-0.8c0,0,0,0,0,0h-4.1c0.8,2.1,1.3,4.4,1.3,6.8v23.8h1.5V813.8z"/>
		<path class="st8" d="M356.4,821.5c-1.7-0.3-3.4-0.7-5.1-1.1l1.2-13.5H238.8v30.7h117.1L356.4,821.5z"/>
		<path class="st9" d="M310.1,885.5l0.1-0.9C310,885,310,885.2,310.1,885.5z"/>
		<path class="st9" d="M709.6,884.7l0.6-0.7l6.9-9.1c-0.6,0-1.2,0-1.8,0c0,0-7.7-7.2-16.6-18.6l-6.4,28.1
			C698.1,884.5,703.9,884.5,709.6,884.7z"/>
		<path class="st9" d="M667.2,884.7c2.4-0.1,4.8-0.1,7.2-0.1l0.5-27.3l-7.6,18.5v6.8C667.3,883.3,667.3,884,667.2,884.7z"/>
		<path class="st9" d="M795.8,838.1c0,0-0.7,0.9-2,2.4c14.4,16.8,10.5,28.6,10.5,28.6c0.9,11-10.1,20.7-12,22.3
			c3.4,0.5,6.6,1.1,9.6,1.7l0.8-0.5l0.5,0.7c21.2,4.2,33.9,9.6,33.9,15.4c0,3.9-5.6,7.5-15.6,10.8l0.4,0.5l-2.7,1.7l-0.9-1.2h0
			l0.9,1.3c-2.7,1.7-4.7-0.2-4.7-0.2l0,0c-26.3,6.9-73.1,11.4-126.4,11.4c-65.3,0-120.8-6.8-140.9-16.3C521.6,924,473,929,417.2,929
			c-82.3,0-149-10.9-149-24.3c0-4.6,7.9-8.9,21.6-12.6l16.8-21.6l2.6,1.8l-7.6,9.8l7.6-9.7l11.1,7.2l26.1-1.8l3.4-4.5l2.6,1.8l0,0.1
			l3.2,2l8.4-0.6l-1.9-10.9c-2.5-0.4-4.8-0.9-6.9-1.7l0.8-26.4H238.8v123.2h614.2V837.7h-57.6C795.6,837.8,795.7,837.9,795.8,838.1z
			"/>
		<path class="st9" d="M535.7,837.7h-1.5v44.9c0,2.4-0.5,4.7-1.3,6.9c1.5,0.3,3,0.6,4.5,0.9c-1.1-2.4-1.7-5-1.7-7.8V837.7z"/>
		<path class="st9" d="M402.6,880v-14.9c-2-0.2-4-0.4-6.1-0.8l-1.8-23l-1.5,22.7c0,0-3,0.7-7.4,1.3l-0.9,15.7c2-0.1,4.1-0.1,6.1-0.2
			L402.6,880z"/>
		<path class="st1" d="M684.1,489.8c1.8,21.1,26.9,40.1,49.1,39.2c11.7-0.5,22.5-8.9,30.2-16.4c8.5-8.4,13.5-18.4,13.4-30.1
			c-0.3-25.8-26.2-48-53.4-43.4C699.3,444.5,682.2,466.7,684.1,489.8z M724.9,444.4c25.3-4.3,45.9,17.5,46.1,40.1
			c0.2,18.1-21.7,39.6-41.2,39.1c-19.2-0.4-38.7-18.1-40.1-35.7C688.1,467.9,704.7,448.9,724.9,444.4z"/>
		<path class="st1" d="M745.7,500.9c6.1-7.3,8.6-18.2,3.4-26.5c-4.4-7-17.6-10.3-24.5-4.8c-10.6,8.4,1.1,29,10.4,15.7
			c2-2.9-3-5.7-5-2.7c-2.7,3.9-3.9-0.2-4-3.2c-0.3-6.5,6.1-7.5,11.5-6.4c9.7,1.9,9.7,12.1,7.1,19c-2.6,7-9.1,11.8-16.6,13.3
			c-11.5,2.3-18.7-9-20.5-17.9c-2.4-12.3,5.3-22.8,18.1-25.3c3.6-0.7,2.1-5.9-1.5-5.2c-19.4,3.8-27.2,22.6-19.9,39.1
			C711.6,513,733.5,515.6,745.7,500.9z"/>
		<path class="st1" d="M709.2,435.1c2.5,2.6,6.6-1.2,4.1-3.8c-1.3-1.4-2-3.7-2.8-5.4c-1.1-2.6-2.1-5.3-3.2-7.9
			c-1.4-3.2-6.9-1.8-5.6,1.4C703.8,424.5,705.3,431,709.2,435.1z"/>
		<path class="st1" d="M736.3,428.7c0.1-4,0.8-8.1,1.8-11.9c0.9-3.4-4.7-4.8-5.6-1.4c-1.1,4.3-2,8.9-2,13.4
			C730.4,432.2,736.2,432.1,736.3,428.7z"/>
		<path class="st1" d="M758.4,434.1c-0.1,1,0.3-0.7,0.4-1c0.3-0.9,0.7-1.7,1-2.6c0.8-1.9,1.6-3.7,2.3-5.7c1.2-3.3-4.4-4.7-5.6-1.4
			c-1.2,3.4-3.6,7-4,10.7C752.3,437.6,758.1,437.5,758.4,434.1z"/>
		<path class="st1" d="M777.8,449.6c2.5-2.4,5.1-4.9,8.1-6.8c3.1-2,0.2-6.7-2.9-4.7c-3.4,2.2-6.4,4.9-9.3,7.7
			C771.1,448.2,775.2,452,777.8,449.6z"/>
		<path class="st1" d="M784.4,473.9c4.9-0.1,9.6-1.7,14.3-2.8c3.6-0.9,2.1-6.1-1.5-5.2c-4.2,1-8.4,2.5-12.7,2.6
			C780.7,468.6,780.7,474,784.4,473.9z"/>
		<path class="st1" d="M797.9,491.1c-4.3,0-8.5-0.1-12.7-0.8c-3.6-0.6-5.2,4.6-1.5,5.2c4.7,0.8,9.4,1,14.3,1
			C801.6,496.5,801.6,491.1,797.9,491.1z"/>
		<path class="st1" d="M776.2,514.1c-3.1-2-6,2.7-2.9,4.7c3.1,2,5.8,4.5,9.4,5.7c3.5,1.2,5-4,1.5-5.2
			C781.2,518.2,778.8,515.7,776.2,514.1z"/>
		<path class="st1" d="M754.7,533.4c1,3.4,2.9,6.5,3.9,10c1,3.4,6.5,1.9,5.6-1.4c-1-3.4-2.9-6.5-3.9-10
			C759.3,528.6,753.7,530,754.7,533.4z"/>
		<path class="st1" d="M726.6,544.5c0,4.2,0.1,8.4,1.1,12.5c0.8,3.4,6.4,2,5.6-1.4c-0.9-3.6-0.9-7.3-0.9-11
			C732.4,541,726.6,541,726.6,544.5z"/>
		<path class="st1" d="M702.7,535.6c-1.1,4.9-3.3,9.7-6.5,13.8c-2.2,2.8,2.8,5.6,5,2.7c3.4-4.4,5.8-9.8,7-15.1
			C709,533.6,703.4,532.2,702.7,535.6z"/>
		<path class="st1" d="M671.3,536.8c4.9-2.5,9-6.8,13.5-10c2.9-2.1,0.1-6.8-2.9-4.7c-2.5,1.8-4.8,3.6-7.2,5.4c-2,1.5-4,3.3-6.3,4.5
			C665.1,533.8,668,538.5,671.3,536.8z"/>
		<path class="st1" d="M669.3,497.8c-3.5,1.5-8.2,2.2-12,2.3c-3.7,0.1-3.7,5.5,0,5.4c4.9-0.1,10.5-1.1,14.9-3.1
			C675.6,501,672.7,496.3,669.3,497.8z"/>
		<path class="st1" d="M668.7,474.2c3.6,0.6,5.2-4.6,1.5-5.2c-3-0.5-6.1-0.9-9.1-1.7c-1.1-0.3-0.7-0.1-1.4-0.5c0,0,0,0,0,0
			c0,0-0.1-0.1-0.1-0.1c-0.2-0.2-0.4-0.4-0.6-0.6c-2.6-2.5-6.7,1.4-4.1,3.8C658.4,473.3,664,473.4,668.7,474.2z"/>
		<path class="st1" d="M673.2,441.9c4.6,2.9,9.1,5.9,13.5,9c3,2.1,5.9-2.6,2.9-4.7c-4.4-3.1-8.9-6.2-13.5-9
			C673,435.2,670.1,439.9,673.2,441.9z"/>
		<path class="st1" d="M337.2,499.3c5.5,6.9,13.3,12,22.9,11.5c8.5-0.4,14.4-6.1,18.1-12.7c4.7,6,12.6,9.4,20.6,10.2
			c10.7,1.1,19.1-5,22.2-14c12.6,3.6,23.4-8.8,20.7-21.1c-3.4-15.1-17.1-20.1-29.5-13c-1.3-5.8-5.8-10.3-12.1-12.6
			c-6-2.1-11.8-0.3-16.1,3.3c-0.5-5.5-1.8-10.9-5.4-15.3c-5.8-7-15-9.1-23.9-10.2c-11.5-1.4-21.2,1.2-28.5,10
			c-4.3,5.2-6.6,11.7-6.6,18.3c-17.9-11.8-44.7,19.3-30.1,38.3C298.6,506.1,324.5,512,337.2,499.3z M322,464.3c1.4,2.5,6.1,0.7,5-2
			c-3.3-7.6-2-15.4,2.5-22.4c5.7-8.8,15.1-10.3,25.2-9.3c7.5,0.8,15.8,2.9,20.3,9.1c3.8,5.2,3.9,12.4,3.9,18.5
			c0,2.5,3.8,3.6,5.1,1.3c6.4-11.7,24.3-8.1,23.2,5.5c-0.2,2.4,3,3.2,4.6,1.8c9.9-8.2,20.7-5.7,24.4,6.4c2.7,8.8-5.3,20.6-15.6,15.5
			c-1.5-0.7-3.6-0.1-4,1.5c-2,8.8-8.3,13.5-17.8,13c-7.4-0.4-15.7-4.9-18.2-11.6c-0.9-2.4-4.4-2.5-5.2,0
			c-2.7,7.3-7.8,13.8-16.6,14.2c-8.3,0.4-15-6-19-12.1c-1.1-1.7-3.6-1.6-4.7,0c-9.2,13.2-33.3,7.4-40.8-4.1
			C281.6,473.2,309.1,441.7,322,464.3z"/>
		<path class="st1" d="M566.5,496.3c1.5-0.2,3-0.5,4.6-0.7c0.2,2.4,0.4,4.7,0.8,7.1c0.5,3.2,5.8,1.9,5.2-1.4
			c-0.4-2.2-0.6-4.4-0.7-6.6c2.2-0.4,4.3-0.7,6.5-1.1c3.4-0.6,2-5.6-1.4-4.9c-1.7,0.3-3.5,0.6-5.2,0.9c0-1.3,0-2.6,0-3.9
			c0-3.3-5.4-3.3-5.4,0c0,1.6,0,3.2,0.1,4.8c-1.9,0.3-3.8,0.6-5.8,0.9C561.6,491.9,563.1,496.8,566.5,496.3z"/>
		<path class="st1" d="M463.8,540.1c1.5-0.2,3-0.5,4.6-0.7c0.2,2.4,0.4,4.7,0.8,7.1c0.5,3.2,5.8,1.9,5.2-1.4
			c-0.4-2.2-0.5-4.4-0.7-6.6c2.2-0.4,4.3-0.7,6.5-1.1c3.4-0.6,2-5.6-1.4-4.9c-1.7,0.3-3.5,0.6-5.2,0.9c0-1.3,0-2.6,0-3.9
			c0-3.3-5.4-3.3-5.4,0c0,1.6,0,3.2,0.1,4.8c-1.9,0.3-3.8,0.6-5.8,0.9C458.9,535.7,460.4,540.7,463.8,540.1z"/>
		<path class="st1" d="M276,621.3c1.5-0.2,3-0.5,4.6-0.7c0.2,2.4,0.4,4.7,0.8,7.1c0.5,3.2,5.8,1.9,5.2-1.4c-0.4-2.2-0.5-4.4-0.7-6.6
			c2.2-0.4,4.3-0.7,6.5-1.1c3.4-0.6,2-5.6-1.4-4.9c-1.7,0.3-3.5,0.6-5.2,0.9c0-1.3,0-2.6,0-3.9c0-3.3-5.4-3.3-5.4,0
			c0,1.6,0,3.2,0.1,4.8c-1.9,0.3-3.8,0.6-5.8,0.9C271.1,617,272.6,621.9,276,621.3z"/>
		<path class="st1" d="M806.8,610.5c-0.4-2.2-0.5-4.4-0.7-6.6c2.2-0.4,4.3-0.7,6.5-1.1c3.4-0.6,2-5.6-1.4-4.9
			c-0.4,0.1-0.9,0.2-1.3,0.2c-1.3,0.2-2.6,0.5-3.9,0.7c0-1.3,0-2.6,0-3.9c0-3.3-5.4-3.3-5.4,0c0,1.6,0,3.2,0.1,4.8
			c-1.9,0.3-3.8,0.6-5.8,0.9c-3.4,0.5-2,5.5,1.4,4.9c1.5-0.2,3-0.5,4.6-0.7c0.1,1.4,0.2,2.8,0.4,4.2c0.1,1,0.2,1.9,0.4,2.9
			C802.1,615.1,807.3,613.7,806.8,610.5z"/>
		<path class="st1" d="M581.9,605.6c-1.7,0.3-3.5,0.6-5.2,0.9c0-1.3,0-2.6,0-3.9c0-3.3-5.4-3.3-5.4,0c0,1.6,0,3.2,0.1,4.8
			c-1.9,0.3-3.8,0.6-5.8,0.9c-3.5,0.5-2,5.5,1.4,4.9c1.5-0.2,3-0.5,4.6-0.7c0.2,2.4,0.4,4.7,0.8,7.1c0.5,3.2,5.8,1.9,5.2-1.4
			c-0.4-2.2-0.5-4.4-0.7-6.6c2.2-0.4,4.3-0.7,6.5-1.1C586.8,609.8,585.4,604.9,581.9,605.6z"/>
		<path class="st1" d="M491.9,436.5c1.5-0.2,3-0.5,4.6-0.7c0.2,2.4,0.4,4.7,0.8,7.1c0.5,3.2,5.8,1.9,5.2-1.4
			c-0.4-2.2-0.5-4.4-0.7-6.6c2.2-0.4,4.3-0.7,6.5-1.1c3.4-0.6,2-5.6-1.4-4.9c-1.7,0.3-3.5,0.6-5.2,0.9c0-1.3,0-2.6,0-3.9
			c0-3.3-5.4-3.3-5.4,0c0,1.6,0,3.2,0.1,4.8c-1.9,0.3-3.8,0.6-5.8,0.9C487,432.2,488.5,437.1,491.9,436.5z"/>
		<path class="st1" d="M790.9,706.5c5.3-2.7,7.3-8.3,4.9-13.4c-2.3-5-9-7.2-14.3-6.9c-1.9,0.1-2.8,1.8-2.6,3.2
			c-0.1,0.1-0.2,0.2-0.3,0.3c-3.7,4.1-5.2,9.8-1.8,14.5C780,708.8,786.1,709,790.9,706.5z M782.4,693.4c0.6-0.6,0.7-1.3,0.7-2
			c2.6,0.1,5,0.9,6.9,2.8c2.5,2.4,1.6,5.6-1.1,7.5c-2.4,1.7-5.4,2.1-7.5,0C779,699.3,780.6,695.5,782.4,693.4z"/>
		<path class="st1" d="M755.3,689.5c-4.3,1.3-7.3,5.1-7.1,11.4c0.2,8.2,5.8,12.5,12.6,12.6c-1.7,3.8-0.9,8.2,3.5,11.7
			c6.2,4.9,13.3,3.3,18.5-1c1,5.6,4.4,10.6,11.7,8.4c3.5-1,5.7-3.1,6.9-5.7c6.8,26,4.4,52.7,4.4,79.6c0,0.2,0,0.4,0.1,0.6
			c0.5,2.5,4.8,2.5,5.3,0c0-0.2,0.1-0.4,0.1-0.6c0-9.1,0.3-18.1,0.4-27.1c0.3-0.2,0.6-0.5,0.8-0.8c8.6-7.3,37.3-32.4,19.3-42.6
			c-8.7-5-16.1,11.7-20.3,25.2c-0.5-13.7-2.1-27.4-6.3-40.7c3.6,1.5,7.3,1.1,10.2-3c4.5-6.5,1.7-13.2-3.4-18c4.9-1.4,8.7-5,8-10.9
			c-0.7-5.2-3.9-6.9-7.9-6.8c2.5-3.9,3-8.2-1.8-11.8c-5.4-4.1-10.6-2.1-14.8,1.7c-0.2-6.3-2.9-12.1-10.7-13.2
			c-10.9-1.5-12.2,8.3-10.8,16.6c-0.9-0.5-1.8-0.9-2.7-1.3c-5.7-2.5-12.1-2.8-16.1,3c-0.2,0.3-0.4,0.6-0.6,0.9
			C752,681.9,752.8,686.1,755.3,689.5z M820.2,753.3c1.9-4.3,3.8-8.9,7.4-12.2c2.7-0.1,4.1,1,4.1,3.5c0.2,1.7-0.5,3.4-1,5
			c-1.3,3.6-4.1,7-6.6,9.9c-3,3.5-6.2,6.9-9.6,10.1C815.9,764,817.9,758.6,820.2,753.3z M768.2,692.2c-1.8-1.2-3.7-2-5.5-2.6
			c-2.9-2-5-4.8-4-8.2c0.1-0.5,0.3-1,0.6-1.5c2.3-4.3,6.8-3.5,10.7-1.4c2.7,1.4,5.2,3.5,6.6,4.8c1,1,2.2,0.9,3.2,0.4
			c1.2-0.4,1.9-1.4,1.4-2.9c0,0,0,0,0-0.1c0-0.1-0.1-0.2-0.1-0.3c-1.6-4.1-6.1-18.4,3-17.2c8.6,1.2,6.6,12.5,4.4,18.1
			c-0.3,0.6-0.5,1.1-0.7,1.7c-1,2.7,3.8,4.6,5,2c0.1-0.2,0.2-0.4,0.3-0.6c0,0,0,0,0,0c1.7-4.4,6.6-14,13.3-11.1
			c6.1,2.7-0.9,8.6-5.3,11.6c-1,0.5-1.8,1.1-2.6,1.6c-2.7,1.9-0.4,6,2.7,4.4c1.2-0.6,2.6-1.5,4-2.5c3.8-2.1,8.9-3.9,9.4,0.6
			c0.7,5.6-6,6.4-10.2,5.4c-2.9-0.7-4.9,3.4-2.1,4.7c5.4,2.4,10.9,6.7,9.7,12.9c-1.6,8.4-9.6,0.5-11.7-2.9c-1.8-2.9-6.1-0.4-4.7,2.6
			c2.4,4.8,3.7,11.8-1.6,15.4c-6.5,4.3-6.2-7.5-5.8-10.3c0.3-2.5-3.9-3.5-5.1-1.3c-2.7,5-7.3,9.3-13.5,6.7
			c-6.6-2.8-4.2-8.5,0.9-11.3c3-1.7,0.3-6.1-2.7-4.4c-6.7,3.7-13.3,2.3-13.9-5.7c-0.5-6.1,3.1-7.6,7.3-6.4c1.6,1,3.4,1.8,5.2,2.4
			C769.2,697.8,770.6,693.7,768.2,692.2z"/>
		<path class="st1" d="M767,771.4c0.9-15.4-6.6-32.1-26.3-28.2c-14.2,2.8-21.2,14.2-23.7,26.6c1.6,0.4,3.3,1,5,1.6
			c1.8-8.9,6.4-17.1,15.4-21.7c19.8-10.1,26.5,12.8,23.5,26.5c-0.5,2.5,2.5,4.3,4.5,2.5c18.1-15.9,39.8,14.3,18.9,24.9
			c-1.5,0.8-1.6,2.2-1,3.3c0.7,1.1,2.1,1.9,3.7,1.1c0.7-0.3,1.3-0.7,1.9-1.1C811.4,793.2,788.9,760.1,767,771.4z"/>
		<path class="st8" d="M384.9,881l0,0.2l6.1-0.4C389,880.9,387,880.9,384.9,881z"/>
		<path class="st8" d="M810.9,918.9c-0.3,0.1-0.6,0-0.8-0.3c-0.1-0.2-0.1-0.4-0.2-0.6l-1.8-1.4c-0.1,0.1-0.2,0.2-0.3,0.2
			c-0.3,0.1-0.6-0.1-0.7-0.4c-0.1-0.2-0.1-0.4-0.1-0.7l-1.3-1c-0.1,0.2-0.2,0.3-0.4,0.4c-0.3,0.1-0.6-0.1-0.7-0.4
			c-0.1-0.2-0.1-0.5-0.1-0.8l-1.9-0.4c0,0.1,0,0.2,0.1,0.3c0.1,0.3-0.1,0.6-0.4,0.7c-0.3,0.1-0.6-0.1-0.7-0.4
			c-0.1-0.2-0.1-0.5-0.2-0.8l-5.9-1.3l-0.6-0.8l-10.6,1l4.8,7.1l-2.7,1.6l0,0.1c-2.7,1.6-4.7-0.3-4.7-0.3l-3.5-2.8c0,0,0,0-0.1,0
			c-0.3,0.1-0.6,0-0.7-0.3c-0.1-0.2-0.1-0.4-0.2-0.6l-1.8-1.4c-0.1,0.1-0.2,0.2-0.3,0.2c-0.3,0.1-0.6-0.1-0.7-0.4
			c-0.1-0.2-0.1-0.4-0.1-0.6l-1.4-1.1c-0.1,0.2-0.2,0.3-0.4,0.4c-0.3,0.1-0.6-0.1-0.7-0.4c0-0.1,0-0.3,0-0.4l-36,3.4l-0.4,0.3
			c-2.7,0.4-5.5,0.3-8.1-0.4c-1.2-0.3-2.1-0.8-2.8-1.4c-14.2,1-22.1,0.7-22.1,0.7c0,0,0,0,0,0c-1.9,0-3.8-0.2-5.6-0.8
			c-6.3-2-4.6-8.3-2.3-12.9l15-17.7c-5.7-0.1-11.5-0.2-17.4-0.2l-6.3,27.7l-0.1,0c0,0,0,0,0,0c0,1.7-4.7,3.6-5.3,3.8
			c-6.3,1.8-11,1.3-23.9,0.6c-2.7-0.1-7.5-2.2-7.9-4.2c-0.1,0-0.2,0.1-0.2,0.1c-6.3,1.8-11,1.3-23.9,0.6c-3.7-0.2-11.2-4-6.3-6.3
			l8.6-4.1h-54.2h-15.6c-3.4,0-6.7-0.8-9.5-2.1c-4.6-2.1-8.2-5.8-10.2-10.2c-1.4-0.3-2.9-0.6-4.5-0.9c-3,7.7-10.9,13.3-20.1,13.3
			h-15.6h-57.6H424c-3,0-5.8-0.6-8.4-1.6l-34.8-4.9c-1.3,1.3-2.8,2.2-4.5,2.3l0,0l-0.1,0c-0.7,0-1.5-0.1-2.3-0.3l-23.9-3.4
			c0,0.1,0,0.2-0.1,0.2c-0.1,0.3-0.4,0.4-0.7,0.3c-0.3-0.1-0.5-0.4-0.4-0.7c0,0,0-0.1,0-0.1l-0.5-0.1l-1.3,0.2
			c0,0.3-0.1,0.5-0.1,0.7c-0.1,0.3-0.4,0.5-0.7,0.4c-0.2,0-0.4-0.2-0.4-0.4l-1.4,1c0,0.2-0.1,0.4-0.1,0.6l0,0
			c-0.1,0.3-0.4,0.4-0.7,0.4c-0.1,0-0.2-0.1-0.3-0.2l-1.8,1.3c-0.1,0.2-0.1,0.4-0.2,0.6c-0.1,0.3-0.5,0.4-0.8,0.2c0,0,0,0-0.1-0.1
			l-3.7,2.6c0,0-2.1,1.8-4.7,0l6.7-8.8l-6.6,8.7l-2.6-1.8l5.7-7.4l-21.8-3.1l-0.6,0.8l-5.9,1c-0.1,0.3-0.1,0.6-0.2,0.8
			c-0.1,0.3-0.4,0.4-0.7,0.3c-0.3-0.1-0.5-0.4-0.4-0.7c0-0.1,0-0.2,0.1-0.3l-1.9,0.3c0,0.3-0.1,0.5-0.1,0.7
			c-0.1,0.3-0.4,0.5-0.7,0.4c-0.2-0.1-0.4-0.2-0.4-0.4l-1.4,1c0,0.2-0.1,0.4-0.1,0.6c-0.1,0.3-0.4,0.4-0.7,0.4
			c-0.1,0-0.2-0.1-0.3-0.2l-1.8,1.3c-0.1,0.2-0.1,0.4-0.2,0.6c-0.1,0.3-0.5,0.4-0.8,0.2c0,0,0,0-0.1-0.1l-3.7,2.5c0,0-2.1,1.8-4.7,0
			l0.1-0.1L286,897l3.8-4.9c-13.7,3.7-21.6,8-21.6,12.6c0,13.4,66.7,24.3,149,24.3c55.8,0,104.4-5,129.9-12.4
			c20.1,9.5,75.6,16.3,140.9,16.3c53.3,0,100.1-4.6,126.4-11.4L810.9,918.9C811,918.8,811,918.9,810.9,918.9z"/>
		<path class="st8" d="M674,903.4l0.4-18.9c-2.4,0-4.8,0.1-7.2,0.1c-0.7,6.2-4.3,11.5-9.6,14.7l-3.8,9.2l5.8-2.8L674,903.4z"/>
		<path class="st8" d="M837.1,908.7c0-5.9-12.7-11.2-33.9-15.4l18.4,26.2C831.5,916.2,837.1,912.6,837.1,908.7z"/>
		<path class="st8" d="M780,900l8.6,1l11.5-6.7l18.3,26.2h0L800,894.2l1.9-1.2c-3-0.6-6.3-1.1-9.6-1.7c-0.2,0.2-0.3,0.2-0.3,0.2
			L780,900z"/>
		<path class="st8" d="M798.4,906.5l0,0.9C798.6,907.1,798.6,906.9,798.4,906.5z"/>
		<path class="st10" d="M402.6,882.5V880l-11.5,0.8l-6.1,0.4l-0.5,9.5c-0.9,1.9-2.1,4-3.6,5.5l34.8,4.9
			C408,898,402.6,890.9,402.6,882.5z"/>
		<polygon class="st11" points="355.6,877.2 352.4,875.2 350.6,877.6 		"/>
		<path class="st11" d="M347.1,894.8l1.3-0.2l-1.3-0.2C347.1,894.5,347.1,894.6,347.1,894.8z"/>
		<path class="st11" d="M346,894.2l-1.7-0.2c0.1,0.6,0.2,1.2,0.2,1.8c0,0.3,0,0.5-0.1,0.8l1.4-1c0-0.1,0-0.2,0-0.2
			C345.9,894.9,346,894.6,346,894.2z"/>
		<path class="st11" d="M343.2,896.8c0.1-0.3,0.1-0.7,0.1-1.1c0-0.6-0.1-1.3-0.3-1.9l-4.4-0.6l-6.7,8.8c2.6,1.8,4.7,0,4.7,0l3.7-2.6
			c-0.2-0.2-0.3-0.4-0.2-0.7c0.2-0.4,0.3-0.9,0.3-1.5c0-0.7-0.2-1.5-0.3-2c-0.1-0.3,0.1-0.6,0.4-0.7c0.3-0.1,0.6,0.1,0.7,0.4
			c0.2,0.6,0.4,1.5,0.4,2.3c0,0.5-0.1,1-0.2,1.4l1.8-1.3C343.2,897.2,343.2,897,343.2,896.8z"/>
		<polygon class="st12" points="329.5,900.1 332.1,901.9 338.7,893.2 335.1,892.7 		"/>
		<polygon class="st12" points="352.4,875.2 352.5,875.1 349.8,873.4 346.4,877.8 350.6,877.6 		"/>
		<path class="st13" d="M348.9,894.7c-0.1,0.3,0.1,0.6,0.4,0.7c0.3,0.1,0.6-0.1,0.7-0.3c0-0.1,0-0.2,0.1-0.2L348.9,894.7
			C349,894.6,349,894.7,348.9,894.7z"/>
		<path class="st13" d="M346,894.2c0,0.4-0.1,0.8-0.1,1.1c0,0.1,0,0.2,0,0.2c0,0.2,0.2,0.4,0.4,0.4c0.3,0.1,0.6-0.1,0.7-0.4
			c0.1-0.2,0.1-0.5,0.1-0.7c0-0.1,0-0.3,0-0.4L346,894.2z"/>
		<path class="st13" d="M344.3,894l-1.2-0.2c0.2,0.6,0.3,1.3,0.3,1.9c0,0.4,0,0.8-0.1,1.1c0,0.2,0,0.3,0.1,0.4
			c0.1,0.1,0.2,0.2,0.3,0.2c0.3,0.1,0.6-0.1,0.7-0.4l0,0c0.1-0.2,0.1-0.4,0.1-0.6c0-0.2,0.1-0.5,0.1-0.8
			C344.5,895.1,344.4,894.5,344.3,894z"/>
		<path class="st13" d="M341.4,894.8c-0.1-0.3-0.4-0.4-0.7-0.4c-0.3,0.1-0.5,0.4-0.4,0.7c0.2,0.5,0.3,1.3,0.3,2
			c0,0.6-0.1,1.1-0.3,1.5c-0.1,0.2,0,0.5,0.2,0.7c0,0,0,0,0.1,0.1c0.3,0.1,0.6,0,0.8-0.2c0.1-0.2,0.2-0.4,0.2-0.6
			c0.1-0.5,0.2-0.9,0.2-1.4C341.7,896.3,341.6,895.4,341.4,894.8z"/>
		<path class="st14" d="M315.3,881.2c-3-0.7-4.9,3-4.9,3c-0.1,0.1-0.2,0.3-0.2,0.4l-0.1,0.9c0.2,0.3,0.6,0.5,0.6,0.5l3.1-0.3
			c2.9-0.3,1.3,1.6,1.3,1.6l-1.9,2.4l21.8,3.1l3.6,0.5l4.4,0.6l1.2,0.2l1.7,0.2l1.1,0.2l1.3,0.2l0.5,0.1l1.1,0.2l23.9,3.4
			c0.8,0.3,1.6,0.4,2.3,0.3l0.1,0l0,0c1.7-0.1,3.2-1,4.5-2.3c1.5-1.5,2.7-3.6,3.6-5.5l0.5-9.5l0-0.2l0.9-15.7
			c-6.3,0.9-15.7,1.7-23.7,0.5l1.9,10.9l-8.4,0.6l-5,0.3l-4.2,0.3l-26.1,1.8l0.6,0.4C319.9,881.2,315.3,881.2,315.3,881.2z"/>
		<path class="st11" d="M288.5,898.9c2.6,1.8,4.7,0,4.7,0l3.7-2.5c-0.2-0.2-0.3-0.4-0.2-0.7c0.2-0.4,0.3-1,0.3-1.6
			c0-0.7-0.1-1.5-0.3-2c-0.1-0.3,0.1-0.6,0.4-0.7c0.3-0.1,0.6,0.1,0.7,0.4c0.2,0.6,0.3,1.4,0.3,2.3c0,0.5-0.1,1-0.2,1.5l1.8-1.3
			c-0.1-0.1-0.1-0.3-0.1-0.4c0.1-0.3,0.2-0.7,0.2-1.2c0-0.9-0.3-2-0.5-2.7c-0.1-0.3,0.1-0.6,0.4-0.7c0.3-0.1,0.6,0.1,0.7,0.4
			c0.3,0.8,0.5,1.9,0.5,3c0,0.3,0,0.5-0.1,0.8l1.4-1c0-0.1,0-0.2,0-0.2c0.1-0.5,0.2-1,0.2-1.6c0-0.8-0.1-1.6-0.3-2.2
			c-0.1-0.3,0.1-0.6,0.4-0.6c0.3-0.1,0.6,0.1,0.7,0.4c0.2,0.7,0.3,1.6,0.3,2.4c0,0.4,0,0.7-0.1,1.1l1.9-0.3c0.2-0.6,0.3-1.4,0.3-2.2
			c0-0.6-0.1-1.2-0.2-1.8c-0.1-0.3,0.1-0.6,0.4-0.6c0.3-0.1,0.6,0.1,0.7,0.4c0.1,0.6,0.2,1.3,0.2,2c0,0.7-0.1,1.4-0.2,2l5.9-1
			l0.6-0.8l1.9-2.4c0,0,1.6-1.9-1.3-1.6l-3.1,0.3c0,0-0.4-0.1-0.6-0.5c-0.1-0.2-0.2-0.5,0.1-0.9c0.1-0.1,0.1-0.2,0.2-0.4
			c0,0,1.9-3.7,4.9-3c0,0,4.6,0,5.6-1.3l-0.6-0.4l-11.1-7.2l-7.6,9.7L288.5,898.9L288.5,898.9z"/>
		<polygon class="st12" points="288.6,898.8 301.6,882.1 309.3,872.3 306.6,870.5 289.8,892.1 286,897 		"/>
		<path class="st13" d="M306.8,887.3c-0.1-0.3-0.4-0.5-0.7-0.4c-0.3,0.1-0.5,0.3-0.4,0.6c0.1,0.5,0.2,1.2,0.2,1.8
			c0,0.8-0.1,1.6-0.3,2.2c0,0.1,0,0.2-0.1,0.3c-0.1,0.3,0.1,0.6,0.4,0.7c0.3,0.1,0.6-0.1,0.7-0.3c0.1-0.2,0.1-0.5,0.2-0.8
			c0.1-0.6,0.2-1.3,0.2-2C307,888.7,306.9,888,306.8,887.3z"/>
		<path class="st13" d="M303.5,888.3c-0.1-0.3-0.4-0.5-0.7-0.4c-0.3,0.1-0.5,0.4-0.4,0.6c0.2,0.6,0.3,1.4,0.3,2.2
			c0,0.6-0.1,1.1-0.2,1.6c0,0.1,0,0.2,0,0.2c0,0.2,0.2,0.4,0.4,0.4c0.3,0.1,0.6-0.1,0.7-0.4c0.1-0.2,0.1-0.5,0.1-0.7
			c0-0.4,0.1-0.7,0.1-1.1C303.7,889.9,303.6,889,303.5,888.3z"/>
		<path class="st13" d="M300.6,889.7c-0.1-0.3-0.4-0.4-0.7-0.4c-0.3,0.1-0.5,0.4-0.4,0.7c0.2,0.7,0.5,1.8,0.5,2.7
			c0,0.4,0,0.8-0.2,1.2c-0.1,0.2,0,0.3,0.1,0.4c0.1,0.1,0.2,0.2,0.3,0.2c0.3,0.1,0.6-0.1,0.7-0.4c0.1-0.2,0.1-0.4,0.1-0.6
			c0-0.3,0.1-0.5,0.1-0.8C301.1,891.6,300.8,890.5,300.6,889.7z"/>
		<path class="st13" d="M297.9,891.9c-0.1-0.3-0.4-0.4-0.7-0.4c-0.3,0.1-0.5,0.4-0.4,0.7c0.2,0.5,0.3,1.2,0.3,2
			c0,0.6-0.1,1.2-0.3,1.6c-0.1,0.2-0.1,0.5,0.2,0.7c0,0,0,0,0.1,0.1c0.3,0.1,0.6,0,0.8-0.2c0.1-0.2,0.2-0.4,0.2-0.6
			c0.2-0.5,0.2-1,0.2-1.5C298.3,893.3,298.1,892.5,297.9,891.9z"/>
		<path class="st15" d="M385.8,865.3c4.5-0.6,7.4-1.3,7.4-1.3l1.5-22.7l1.8,23c2,0.3,4,0.6,6.1,0.8v-39.8c-13,0.4-28.8-0.3-46.2-3.8
			l-0.5,16.1l-0.8,26.4c2.1,0.8,4.4,1.4,6.9,1.7C370.1,867,379.5,866.2,385.8,865.3z"/>
		<path class="st16" d="M402.6,825.3v-11.5c0-0.7,0-1.4,0.1-2c0-0.2,0.1-0.5,0.1-0.7c0.1-0.4,0.1-0.9,0.2-1.3
			c0.1-0.3,0.1-0.5,0.2-0.8c0.1-0.4,0.2-0.7,0.3-1.1c0.1-0.3,0.2-0.6,0.3-0.8c0.1-0.3,0.2-0.7,0.4-1c0.1-0.3,0.3-0.6,0.4-0.9
			c0.1-0.3,0.3-0.6,0.5-0.9c0.2-0.3,0.4-0.6,0.5-0.9c0.2-0.3,0.3-0.5,0.5-0.8c0.2-0.3,0.4-0.6,0.7-0.8c0.2-0.2,0.4-0.5,0.6-0.7
			c0.2-0.3,0.5-0.5,0.8-0.8c0.2-0.2,0.4-0.4,0.6-0.6c0.3-0.3,0.6-0.5,0.9-0.8c0.2-0.2,0.4-0.4,0.6-0.5c0.3-0.2,0.6-0.5,1-0.7
			c0.2-0.1,0.4-0.3,0.6-0.4c0.3-0.2,0.7-0.4,1.1-0.6c0.2-0.1,0.4-0.3,0.7-0.4c0.4-0.2,0.8-0.4,1.2-0.6c0.2-0.1,0.4-0.2,0.7-0.3
			c0.4-0.2,0.8-0.3,1.2-0.5c0.2-0.1,0.5-0.2,0.7-0.2c0.4-0.1,0.9-0.2,1.3-0.3c0.2-0.1,0.5-0.1,0.7-0.2c0.4-0.1,0.9-0.2,1.3-0.2
			c0.2,0,0.5-0.1,0.7-0.1c0.5-0.1,0.9-0.1,1.4-0.1c0.2,0,0.4,0,0.5,0c0,0,0,0,0,0c0.2,0,0.4,0,0.7,0h12.2l-2.5-37.1
			c0.2-5.4-0.1-10.1-0.9-14.3c7.2-1.9,15.1-4.6,21.6-8.2v-2.3c-0.2-0.9-0.4-2-0.6-3.2c-1-4.5-2.7-11.1-5.3-16.4
			c-0.7-1.5-1.5-2.9-2.4-4.1l-38.2,4.7h0c-1.3-0.4-2.5-0.7-3.7-1l0,2.7c0,0-0.3,3.5-9.7,3.4c0,0-7.9,0.3-9.7-3.3l0-0.3l0-0.3l0,0
			l0-2.7c-4.8,1-11.2,3.8-16.9,10.9c0,0,0,0-0.1,0l-24.4,22.2c0.5,1.4,1.3,2.8,2.2,4.2c3.1,5,7.9,10.1,11.3,13.4
			c-0.5,0.2-0.9,0.4-1.4,0.6c-0.3,4.2-0.4,8.8-0.3,13.7l-2.6,30.7l-1.2,13.5c1.7,0.4,3.4,0.7,5.1,1.1
			C373.7,825,389.6,825.7,402.6,825.3z"/>
		<path class="st14" d="M454.4,728.2v-18.8c-1.9,1-3.9,1.9-5.9,2.8c2.6,5.2,4.3,11.8,5.3,16.4C453.9,728.4,454.1,728.3,454.4,728.2z
			"/>
		<path class="st14" d="M496.1,684.7h10.1c-0.1-1-0.5-2-1.5-3.1c-0.5-0.6-1-0.3-1.4-1.1c0,0,0-0.1-0.1-0.1c-0.3-0.6,0.3-1.5,0-2
			c-0.5-1.1-1.3-0.7-1.8-1.3c-0.3-0.4-0.6-1.5-0.9-1.8c-0.7-0.6-1.5-0.9-2.4-1c0-0.1,0.1-0.2,0.1-0.3l-7.6-1.9l-5.7,6.1
			c-0.8,2.6-0.7,4.7-0.1,6.6h6.5H496.1z"/>
		<path class="st14" d="M345.6,748.5c-13,7.2-25.4,10.5-33.9,12.1c-0.1,0.3-0.1,0.6-0.2,0.9c0,0.2-0.1,0.5-0.2,0.7
			c-0.1,0.4-0.2,0.7-0.3,1.1l9.3,7.7c14.6-0.9,26.4-4.7,35.1-8.5c0.5-0.2,0.9-0.4,1.4-0.6C353.4,758.6,348.7,753.5,345.6,748.5z"/>
		<path class="st17" d="M455.6,665.4c0.1,0.1,0.1,0.1,0.2,0.2C455.7,665.5,455.6,665.4,455.6,665.4
			C455.6,665.4,455.6,665.4,455.6,665.4z"/>
		<path class="st17" d="M456.5,662.9c0,0.1-0.1,0.3-0.1,0.4c2.5,2.1,5.9,3,9.5,1.7c5.6-2,7.4-8.1,6.8-13.2c-0.3-2.4-0.9-4.9-2.8-6.8
			c-1.6-1.5-3.6-2.4-5.7-3.1c-0.2,0-0.3,0-0.5,0C462.3,648.2,460,655.1,456.5,662.9C456.5,662.9,456.5,662.9,456.5,662.9z
			 M461.9,654.4c0-0.1,0-0.1,0-0.2c0.1-1.5,0.5-2.9,1.3-4.1c0.9-1.5,2.3-2.7,4.1-3.3c0.5-0.1,1,0.1,1.1,0.5c0.2,0.4-0.1,0.9-0.6,1.1
			c-1.4,0.4-2.4,1.3-3.1,2.5c-0.5,0.8-0.8,1.8-1,2.9c0.9,0.3,2.2,0.5,3.4,0.5c0.8,0,1.6-0.1,2.3-0.2c0.6-0.1,1.1-0.4,1.1-0.5
			c0.3-0.4,0.9-0.4,1.2-0.1c0.4,0.3,0.4,0.8,0.1,1.2c-0.5,0.6-1.3,0.8-2.1,1c-0.8,0.2-1.7,0.3-2.7,0.3c-1.2,0-2.4-0.1-3.5-0.4
			c0.1,2.2,0.8,4.4,2.2,6.2c0.3,0.4,0.2,0.9-0.2,1.2c-0.4,0.3-0.9,0.2-1.2-0.2c-1.8-2.2-2.6-4.9-2.6-7.5
			C461.9,655,461.9,654.7,461.9,654.4z"/>
		<path class="st14" d="M472.7,651.8c0.6,5.1-1.2,11.2-6.8,13.2c-3.6,1.3-7,0.4-9.5-1.7c0-0.1,0.1-0.3,0.1-0.4
			c0-0.4-0.3-16.7-9.9-29.9c0.1,1.6,0.2,3.1,0.3,4.7c0.1,31.9-11.8,57.1-62.5,57.9c-16.5,0.3-31.5-5.7-42.8-15.2c0,0,0,0,0,0
			c0.1,0.1,0.1,0.2,0.2,0.2c0.6,0.8,1.3,1.6,1.9,2.3c0.1,0.1,0.1,0.2,0.2,0.3c0.8,0.9,1.6,1.7,2.4,2.5c0.1,0.1,0.2,0.2,0.3,0.2
			c0.7,0.7,1.4,1.4,2.2,2.1c0.2,0.2,0.5,0.4,0.7,0.6c0.6,0.5,1.3,1.1,1.9,1.6c0.3,0.2,0.5,0.4,0.8,0.6c0.7,0.5,1.3,1,2,1.5
			c0.3,0.2,0.5,0.4,0.8,0.5c0.9,0.6,1.7,1.2,2.6,1.7c0.1,0.1,0.2,0.1,0.2,0.2c1,0.6,2,1.2,3,1.8c0.2,0.1,0.4,0.2,0.6,0.3
			c0.8,0.4,1.6,0.8,2.4,1.2c0.3,0.2,0.7,0.3,1,0.5c0.7,0.3,1.5,0.7,2.2,1c0.4,0.2,0.7,0.3,1.1,0.5c0.8,0.3,1.5,0.6,2.3,0.9
			c0.3,0.1,0.7,0.3,1,0.4c1,0.3,2,0.7,3.1,1c0.1,0,0.2,0.1,0.3,0.1c1.1,0.3,2.3,0.6,3.5,0.9c0.3,0.1,0.7,0.1,1,0.2
			c0.8,0.2,1.7,0.3,2.5,0.5c0.4,0.1,0.9,0.1,1.3,0.2c0.8,0.1,1.6,0.2,2.4,0.3c-0.3,0-0.6-0.1-0.9-0.1l0,1.2
			c3.6,0.4,8.1,0.8,11.5,1.1c2.6,0.2,1.8,1.6,1.9,2.9c0,1.1,0.5,4.1-1.3,5c-1,0.5-3.7,0.5-5,0.8c-2.2,0.5-5.9-0.1-6.9-1.3l0,0l0,0.3
			l0,0.3c1.8,3.6,9.7,3.3,9.7,3.3c9.4,0.2,9.7-3.4,9.7-3.4l0-0.3l0-10c21.5-3,39.6-15.7,48.7-33.1c1-1.9,1.9-3.8,2.7-5.8
			c0,0,0,0,0,0c0.1,0.1,0.1,0.1,0.2,0.2c0.2,0.2,0.3,0.3,0.5,0.5c0.1,0.1,0.3,0.2,0.4,0.3c0.2,0.1,0.4,0.3,0.5,0.4
			c0.1,0.1,0.3,0.2,0.4,0.3c0.2,0.1,0.4,0.3,0.6,0.4c0.1,0.1,0.3,0.2,0.4,0.2c0.2,0.1,0.4,0.2,0.7,0.3c0.1,0.1,0.3,0.1,0.4,0.2
			c0.3,0.1,0.5,0.2,0.8,0.3c0.1,0,0.2,0.1,0.4,0.1c0.4,0.1,0.8,0.2,1.2,0.3c6.9,1.3,13.7-3.7,15.2-11.2c1.5-7.4-2.8-14.4-9.7-15.7
			c-0.5-0.1-1.1-0.1-1.6-0.2c-0.1,0-0.3,0-0.4,0c-0.4,0-0.9,0-1.3,0.1c-0.1,0-0.1,0-0.2,0c0,0,0,0,0,0c2.1,0.7,4.1,1.6,5.7,3.1
			C471.8,646.8,472.4,649.3,472.7,651.8z"/>
		<path class="st13" d="M465.7,663c0.4-0.3,0.5-0.8,0.2-1.2c-1.4-1.8-2.2-4.1-2.2-6.2c1.1,0.3,2.3,0.4,3.5,0.4c1,0,1.9-0.1,2.7-0.3
			c0.8-0.2,1.5-0.5,2.1-1c0.3-0.4,0.3-0.9-0.1-1.2c-0.4-0.3-0.9-0.3-1.2,0.1c-0.1,0.1-0.5,0.4-1.1,0.5c-0.6,0.1-1.4,0.2-2.3,0.2
			c-1.2,0-2.5-0.2-3.4-0.5c0.2-1.1,0.5-2.1,1-2.9c0.7-1.2,1.8-2.1,3.1-2.5c0.5-0.1,0.7-0.6,0.6-1.1c-0.2-0.4-0.7-0.7-1.1-0.5
			c-1.8,0.6-3.2,1.8-4.1,3.3c-0.7,1.2-1.1,2.6-1.3,4.1c0,0.1,0,0.1,0,0.2c0,0.3-0.1,0.6-0.1,0.9c0,2.6,0.9,5.3,2.6,7.5
			C464.8,663.2,465.3,663.2,465.7,663z"/>
		<path class="st14" d="M332.2,663.8c-2.5,2.1-5.9,3-9.5,1.8c-5.6-1.9-7.5-8-7-13.1c0.3-2.4,0.9-5,2.8-6.8c1.6-1.5,3.6-2.5,5.7-3.1
			c0,0,0,0,0,0c-0.1,0-0.1,0-0.2,0c-0.4,0-0.8,0-1.2,0c-0.1,0-0.3,0-0.4,0c-0.5,0-1,0.1-1.6,0.2c-6.9,1.3-11.1,8.4-9.5,15.8
			c1.6,7.4,8.5,12.3,15.3,11c0.4-0.1,0.8-0.2,1.2-0.3c0.1,0,0.2-0.1,0.4-0.1c0.3-0.1,0.5-0.2,0.8-0.3c0.1-0.1,0.3-0.1,0.4-0.2
			c0.2-0.1,0.4-0.2,0.7-0.3c0.1-0.1,0.3-0.2,0.4-0.3c0.2-0.1,0.4-0.2,0.6-0.4c0.1-0.1,0.3-0.2,0.4-0.3c0.2-0.1,0.4-0.3,0.5-0.4
			c0.1-0.1,0.3-0.2,0.4-0.3c0.2-0.1,0.3-0.3,0.5-0.5c0.1-0.1,0.1-0.1,0.2-0.2C332.7,665.2,332.4,664.5,332.2,663.8z"/>
		<path class="st13" d="M326.5,654.8c-0.1-1.5-0.6-2.8-1.3-4c-0.9-1.5-2.3-2.7-4.2-3.3c-0.5-0.1-1,0.1-1.1,0.5
			c-0.2,0.4,0.1,0.9,0.6,1.1c1.4,0.4,2.4,1.3,3.2,2.5c0.5,0.8,0.8,1.8,1,2.8c-0.9,0.3-2.3,0.5-3.5,0.5c-0.8,0-1.6-0.1-2.2-0.2
			c-0.6-0.1-1-0.4-1.1-0.5c-0.3-0.3-0.9-0.4-1.2-0.1c-0.4,0.3-0.4,0.8-0.1,1.2c0.5,0.6,1.2,0.8,2,1c0.8,0.2,1.7,0.3,2.6,0.3
			c1.2,0,2.5-0.2,3.6-0.5c0,2.2-0.8,4.4-2.2,6.3c-0.3,0.4-0.2,0.9,0.2,1.2c0.4,0.3,0.9,0.2,1.2-0.2c1.7-2.2,2.6-4.9,2.6-7.4
			c0-0.3,0-0.7-0.1-1C326.5,654.9,326.5,654.8,326.5,654.8z"/>
		<path class="st17" d="M391.7,715.3c1.3-0.3,4-0.3,5-0.8c1.8-0.9,1.3-3.8,1.3-5c0-1.2,0.7-2.7-1.9-2.9c-3.4-0.3-7.8-0.7-11.5-1.1
			l0-1.2l0,7l0,2.7C385.8,715.2,389.5,715.8,391.7,715.3z"/>
		<polygon class="st17" points="404.1,704.3 404.2,714.2 404.2,714.5 404.2,711.8 		"/>
		<path class="st17" d="M446.8,637.7c0-1.6-0.1-3.2-0.3-4.7c-2.6-3.5-5.8-6.9-9.8-9.6c0,0-2.3-2.3-4.7-5.4
			c-15.9,4.3-33.8,3.3-49.9,1.8c-1.1-0.1-2.1-0.2-3.2-0.4c-1.8-0.6-3.6-0.9-5.4-0.8c-6.4-1.2-12.5-3-18.4-5.2
			c-2.6,2.9-5.6,4.3-5.6,4.3c-17.4,12.1-19.2,34.7-19.4,39c0,0.5,0,0.7,0,0.7c-2.5-5.4-4.4-10.3-5.8-14.9c-0.1,0-0.1,0-0.2,0
			c-2.1,0.7-4.1,1.6-5.7,3.1c-1.9,1.8-2.5,4.3-2.8,6.8c-0.5,5.1,1.3,11.2,7,13.1c3.6,1.2,7,0.3,9.5-1.8c0.2,0.7,0.5,1.4,0.8,2.1
			c-0.1,0.1-0.1,0.1-0.2,0.2c0.1-0.1,0.1-0.1,0.2-0.2c2.1,5.2,5,10.1,8.5,14.5c11.2,9.5,26.3,15.5,42.8,15.2
			C435,694.8,447,669.6,446.8,637.7z M324,663.4c-0.3,0.4-0.8,0.4-1.2,0.2c-0.4-0.3-0.5-0.8-0.2-1.2c1.4-1.8,2.2-4.1,2.2-6.3
			c-1.1,0.3-2.4,0.5-3.6,0.5c-0.9,0-1.8-0.1-2.6-0.3c-0.8-0.2-1.5-0.5-2-1c-0.3-0.3-0.3-0.9,0.1-1.2c0.4-0.3,0.9-0.3,1.2,0.1
			c0.1,0.1,0.5,0.3,1.1,0.5c0.6,0.1,1.4,0.2,2.2,0.2c1.3,0,2.6-0.2,3.5-0.5c-0.2-1-0.5-2-1-2.8c-0.7-1.2-1.8-2.1-3.2-2.5
			c-0.5-0.1-0.7-0.6-0.6-1.1c0.2-0.4,0.7-0.7,1.1-0.5c1.9,0.6,3.3,1.8,4.2,3.3c0.7,1.2,1.1,2.6,1.3,4c0,0,0,0.1,0,0.1
			c0,0.3,0.1,0.7,0.1,1C326.6,658.5,325.7,661.2,324,663.4z M429.5,651.2c-1.1,0-1.1-1.7,0-1.7C430.6,649.6,430.6,651.2,429.5,651.2
			z M415.8,638.4c0.7-1.5,1.8-2.7,3.2-3.5c0.9-0.5,2-0.9,3.1-0.9v0h0c0,0,0,0,0,0h0c1.1,0,2.2,0.3,3.2,0.9c0.9,0.5,1.7,1.3,2.4,2.1
			c1.3,1.7,2,4,2,6.5c0,0.9-0.8,1.7-1.8,1.7c-1,0-1.8-0.7-1.8-1.7c0-1.4-0.3-2.7-0.8-3.7c-0.5-1-1.2-1.7-1.9-2.1
			c-0.5-0.3-0.9-0.4-1.3-0.4h0h0c-0.5,0-0.9,0.1-1.3,0.4c-0.4,0.3-0.9,0.7-1.3,1.2c-0.8,1.1-1.4,2.7-1.4,4.6v0
			c0,0.9-0.8,1.7-1.8,1.7c-1,0-1.8-0.7-1.8-1.7l0-0.1C414.7,641.6,415.1,639.9,415.8,638.4z M415.7,652.9c-0.1-0.5,0.2-1,0.8-1
			c0.3,0,0.6,0.2,0.7,0.4c1.8-0.6,3.8-1,6-1c7.3,0,13.2,3.9,13.2,8.8c0,4.9-5.9,8.9-13.2,8.9c-7.3,0-13.2-3.9-13.2-8.8
			C410.1,657.2,412.3,654.6,415.7,652.9z M402.1,651.4c-7.7,14.3-15.9,0.1-15.9,0.1L402.1,651.4z M359.6,638.6
			c0.7-1.5,1.8-2.7,3.2-3.5c0.9-0.5,2-0.9,3.1-0.9v0h0c0,0,0,0,0,0h0c1.1,0,2.2,0.3,3.2,0.9c0.9,0.5,1.7,1.3,2.4,2.1
			c1.3,1.7,2,4,2,6.5c0,0.9-0.8,1.7-1.8,1.7c-1,0-1.8-0.7-1.8-1.7c0-1.4-0.3-2.7-0.8-3.7c-0.5-1-1.2-1.7-1.9-2.1
			c-0.5-0.3-0.9-0.4-1.3-0.4h0h0c-0.5,0-0.9,0.1-1.3,0.4c-0.4,0.3-0.9,0.7-1.3,1.2c-0.8,1.1-1.4,2.7-1.4,4.6v0
			c0,0.9-0.8,1.7-1.8,1.7c-1,0-1.8-0.7-1.8-1.7l0-0.1C358.5,641.8,358.9,640.1,359.6,638.6z M356.4,648.2c1.1,0,1.2,1.7,0,1.7
			C355.3,649.9,355.2,648.2,356.4,648.2z M361.3,669.3c-7.3,0-13.2-3.9-13.2-8.8c0-4.9,5.9-8.9,13.2-8.9c3.5,0,6.6,0.9,9,2.3
			c-0.1-0.4,0.2-0.9,0.8-0.9c1.1,0,1.1,1.5,0.2,1.6c2,1.6,3.3,3.6,3.3,5.8C374.5,665.3,368.6,669.3,361.3,669.3z M377.4,664.7
			c0.7-0.6,1.8-0.6,2.5,0c2.3,2.2,4.5,3.6,6.7,4.5c2.1,0.9,4.2,1.2,6.1,1.2c3.8,0,7.3-1.4,9.8-2.8c2.5-1.4,4.1-2.9,4.1-2.9l0,0
			c0.7-0.7,1.8-0.7,2.5,0c0.7,0.6,0.7,1.7,0,2.4c-0.1,0.1-1.8,1.7-4.7,3.3c-2.9,1.6-7,3.3-11.7,3.3c-2.4,0-4.9-0.4-7.5-1.5
			c-2.6-1.1-5.2-2.7-7.8-5.2C376.7,666.4,376.7,665.3,377.4,664.7z"/>
		<path class="st17" d="M383.3,704.1c0.5,0.1,1,0.2,1.5,0.2c0.3,0,0.6,0.1,0.9,0.1C384.8,704.3,384.1,704.2,383.3,704.1z"/>
		<path class="st14" d="M379,619.4c1.1,0.1,2.1,0.3,3.2,0.4c16,1.4,34,2.4,49.9-1.8c-1.8-2.4-3.7-5.3-4.7-8c-1.4,0.3-2.8,0.6-4,0.9
			c-20,5-45.1,0.9-63.4-7.9c-0.6-0.3-1.3-0.6-1.9-0.9c0.3,0.4,0.5,0.7,0.8,1.1c0.3,4.5-1.7,7.9-3.9,10.3c6,2.2,12.1,4,18.4,5.2
			C375.4,618.5,377.2,618.8,379,619.4z"/>
		<path class="st18" d="M423.3,669.1c7.3,0,13.2-4,13.2-8.9c0-4.9-6-8.9-13.2-8.8c-2.2,0-4.2,0.4-6,1c0.3,0.5,0.1,1.3-0.7,1.3
			c-0.5,0-0.8-0.3-0.8-0.7c-3.4,1.6-5.6,4.3-5.6,7.3C410.1,665.1,416,669.1,423.3,669.1z M431.1,655.7c1.1,0,1.2,1.7,0,1.7
			C429.9,657.3,429.9,655.7,431.1,655.7z M424.6,659.1c-1.1,0-1.2-1.7,0-1.7C425.7,657.4,425.7,659.1,424.6,659.1z M424.4,652.4
			l0.1,0c1.1,0,1.1,1.7,0,1.7l-0.1,0C423.2,654,423.2,652.4,424.4,652.4z M416.5,657.5c1.1,0,1.1,1.7,0,1.7
			C415.4,659.1,415.4,657.5,416.5,657.5z"/>
		<path class="st18" d="M371.2,654.6c-0.1,0-0.1,0-0.2,0c-0.5,0-0.8-0.4-0.8-0.7c-2.4-1.5-5.5-2.3-9-2.3c-7.3,0-13.2,4-13.2,8.9
			c0,4.9,6,8.9,13.2,8.8c7.3,0,13.2-4,13.2-8.9C374.4,658.2,373.2,656.1,371.2,654.6z M356,655.4c-1.1,0-1.2-1.7,0-1.7
			C357.2,653.7,357.2,655.4,356,655.4z M361.2,660.2c-1.1,0-1.2-1.7,0-1.7C362.3,658.5,362.3,660.2,361.2,660.2z M361.8,654.9
			c0-0.1,0-0.2,0-0.4c0-1.1,1.8-1.1,1.8,0c0,0.1,0,0.2,0,0.4C363.6,656,361.8,656,361.8,654.9z M368.3,660.2c-1.1,0-1.2-1.7,0-1.7
			C369.4,658.5,369.4,660.2,368.3,660.2z"/>
		<path class="st19" d="M402.1,651.4l-15.9,0.1C386.2,651.4,394.4,665.7,402.1,651.4z"/>
		<path class="st20" d="M416.5,645.1c1,0,1.8-0.8,1.8-1.7v0c0-1.8,0.6-3.5,1.4-4.6c0.4-0.5,0.9-0.9,1.3-1.2c0.4-0.3,0.9-0.4,1.3-0.4
			h0h0c0.5,0,0.9,0.1,1.3,0.4c0.7,0.4,1.4,1.1,1.9,2.1c0.5,1,0.8,2.3,0.8,3.7c0,0.9,0.8,1.7,1.8,1.7c1,0,1.8-0.8,1.8-1.7
			c0-2.5-0.7-4.7-2-6.5c-0.6-0.9-1.4-1.6-2.4-2.1c-0.9-0.5-2-0.9-3.2-0.9h0c0,0,0,0,0,0h0v0c-1.1,0-2.2,0.3-3.1,0.9
			c-1.4,0.8-2.5,2.1-3.2,3.5c-0.7,1.5-1.1,3.2-1.2,5.1l0,0.1C414.7,644.4,415.5,645.2,416.5,645.1z"/>
		<path class="st20" d="M360.3,645.4c1,0,1.8-0.8,1.8-1.7v0c0-1.8,0.6-3.5,1.4-4.6c0.4-0.5,0.9-0.9,1.3-1.2c0.4-0.3,0.9-0.4,1.3-0.4
			h0h0c0.5,0,0.9,0.1,1.3,0.4c0.7,0.4,1.4,1.1,1.9,2.1c0.5,1,0.8,2.3,0.8,3.7c0,0.9,0.8,1.7,1.8,1.7c1,0,1.8-0.8,1.8-1.7
			c0-2.5-0.7-4.7-2-6.5c-0.6-0.9-1.4-1.6-2.4-2.1c-0.9-0.5-2-0.9-3.2-0.9h0c0,0,0,0,0,0h0v0c-1.1,0-2.2,0.3-3.1,0.9
			c-1.4,0.8-2.5,2.1-3.2,3.5c-0.7,1.5-1.1,3.2-1.2,5.1l0,0.1C358.5,644.6,359.3,645.4,360.3,645.4z"/>
		<path class="st20" d="M429.5,651.2c1.1,0,1.1-1.7,0-1.7C428.3,649.6,428.3,651.2,429.5,651.2z"/>
		<path class="st20" d="M431.1,657.3c1.1,0,1.1-1.7,0-1.7C429.9,655.7,429.9,657.3,431.1,657.3z"/>
		<path class="st20" d="M424.4,654l0.1,0c1.1,0,1.1-1.7,0-1.7l-0.1,0C423.2,652.4,423.2,654,424.4,654z"/>
		<path class="st20" d="M416.5,653.6c0.8,0,1-0.8,0.7-1.3c-0.1-0.2-0.4-0.4-0.7-0.4c-0.7,0-0.9,0.5-0.8,1
			C415.8,653.3,416,653.6,416.5,653.6z"/>
		<path class="st20" d="M416.5,659.1c1.1,0,1.1-1.7,0-1.7C415.4,657.5,415.4,659.1,416.5,659.1z"/>
		<path class="st20" d="M424.6,657.4c-1.1,0-1.1,1.7,0,1.7C425.7,659.1,425.7,657.4,424.6,657.4z"/>
		<path class="st20" d="M371,654.6c0.1,0,0.1,0,0.2,0c1-0.2,0.9-1.6-0.2-1.6c-0.6,0-0.9,0.5-0.8,0.9
			C370.2,654.3,370.5,654.6,371,654.6z"/>
		<path class="st20" d="M361.8,654.6c0,0.1,0,0.2,0,0.4c0,1.1,1.8,1.1,1.8,0c0-0.1,0-0.2,0-0.4C363.6,653.5,361.8,653.5,361.8,654.6
			z"/>
		<path class="st20" d="M356.4,649.9c1.1,0,1.1-1.7,0-1.7C355.2,648.2,355.3,649.9,356.4,649.9z"/>
		<path class="st20" d="M356,653.7c-1.1,0-1.1,1.7,0,1.7C357.2,655.4,357.2,653.7,356,653.7z"/>
		<path class="st20" d="M368.3,658.5c-1.1,0-1.1,1.7,0,1.7C369.4,660.2,369.4,658.5,368.3,658.5z"/>
		<path class="st20" d="M361.2,658.5c-1.1,0-1.1,1.7,0,1.7C362.3,660.2,362.3,658.5,361.2,658.5z"/>
		<path class="st21" d="M392.7,673.7c4.8,0,8.9-1.7,11.7-3.3c2.9-1.6,4.6-3.3,4.7-3.3c0.7-0.7,0.7-1.7,0-2.4c-0.7-0.6-1.8-0.6-2.5,0
			l0,0c0,0-1.6,1.5-4.1,2.9c-2.5,1.4-6,2.8-9.8,2.8c-1.9,0-4-0.3-6.1-1.2c-2.1-0.9-4.4-2.3-6.7-4.5c-0.7-0.7-1.8-0.7-2.5,0
			c-0.7,0.6-0.7,1.7,0,2.4c2.6,2.4,5.2,4.1,7.8,5.2C387.8,673.3,390.3,673.7,392.7,673.7z"/>
		<path class="st22" d="M332.9,579.3c1.3,3.9,3.5,7.2,6.3,10.1c-0.8,0.3-27.5,11.9-14.8,53.1c1.4,4.6,3.3,9.5,5.8,14.9
			c0,0,0-0.3,0-0.7c0.2-4.3,1.9-26.9,19.4-39c0,0,3-1.4,5.6-4.3c2.2-2.4,4.1-5.8,3.9-10.3c-0.3-0.4-0.5-0.7-0.8-1.1
			c0.6,0.3,1.3,0.6,1.9,0.9c18.3,8.8,43.4,12.9,63.4,7.9c1.2-0.3,2.5-0.6,4-0.9c0.9,2.7,2.8,5.6,4.7,8c2.4,3.1,4.7,5.4,4.7,5.4
			c4.1,2.8,7.3,6.1,9.8,9.6c9.6,13.3,9.9,29.5,9.9,29.9c0,0,0,0,0,0c3.5-7.8,5.8-14.7,7.2-20.9c6.3-28.2-6.9-40.7-13.5-45.1
			c2.2-6.9,0.6-15.8-3.7-20.7c-8.4-9.6-18.8-8.8-30.7-7.8c-15.2,1.3-15.8-11-28.7-14.3c-5.8-1.5-10.4-0.9-14.6,0.9
			c-5.5,2.4-10.2,6.8-15.7,11C348,572.6,327.7,563.4,332.9,579.3z"/>
		<path class="st23" d="M518.6,813.8v68.7c0,0.5,0,0.9-0.1,1.4c0,0,0,0,0,0c0,0.1,0,0.2,0,0.3c0,0.4-0.1,0.8-0.1,1.2
			c0,0.3-0.1,0.5-0.1,0.8c-0.1,0.4-0.2,0.8-0.3,1.1c-0.1,0.3-0.1,0.5-0.2,0.8c-0.1,0.4-0.2,0.7-0.4,1.1c-0.1,0.3-0.2,0.5-0.3,0.7
			c-0.1,0.3-0.3,0.7-0.5,1c-0.1,0.2-0.2,0.5-0.4,0.7c-0.2,0.3-0.4,0.6-0.5,1c-0.1,0.2-0.3,0.5-0.5,0.7c-0.2,0.3-0.4,0.6-0.6,0.9
			c-0.2,0.2-0.4,0.5-0.5,0.7c-0.2,0.3-0.5,0.5-0.7,0.8c-0.2,0.2-0.4,0.4-0.6,0.6c-0.2,0.2-0.5,0.5-0.7,0.7c-0.2,0.2-0.5,0.4-0.7,0.6
			c-0.3,0.2-0.5,0.4-0.8,0.6c-0.3,0.2-0.5,0.4-0.8,0.6c-0.3,0.2-0.5,0.4-0.8,0.6c-0.3,0.2-0.6,0.3-0.9,0.5c-0.3,0.2-0.6,0.3-0.9,0.5
			c-0.3,0.2-0.6,0.3-1,0.4c-0.3,0.1-0.6,0.3-0.9,0.4c-0.3,0.1-0.7,0.2-1.1,0.4c-0.3,0.1-0.6,0.2-0.9,0.3c-0.4,0.1-0.8,0.2-1.2,0.3
			c-0.3,0.1-0.6,0.1-0.8,0.2c-0.5,0.1-0.9,0.1-1.4,0.2c-0.2,0-0.5,0.1-0.7,0.1c-0.7,0.1-1.4,0.1-2.1,0.1h15.6
			c9.3,0,17.2-5.5,20.1-13.3c0.8-2.1,1.3-4.4,1.3-6.9v-44.9v-23.8c0-2.4-0.5-4.7-1.3-6.8c-3-7.8-10.9-13.3-20.2-13.3h-15.6
			C509,793.7,518.6,802.7,518.6,813.8z"/>
		<path class="st24" d="M436.2,793.7H424c-0.2,0-0.4,0-0.7,0c0,0.4-0.1,0.9-0.1,1.3v15c2.7-1.9,6-3,9.7-3h44.7
			c-1.8-1.1-2.9-2.4-1.5-4.1c2-2.4,17-1.7,20.1-1.3c12.9,1.5,15,8,14.9,19c0,6.8,1.3,22.9-4.4,27.6c-1,0.8-1.8,1-2.4,0.9v25.1
			c0,3.7-1.4,7.1-3.8,9.8h17.3c0.2,0,0.4,0,0.7,0c0-0.5,0.1-0.9,0.1-1.4v-68.7c0-11.1-9.6-20.1-21.4-20.1h-5.8h-15.6h-36.2H436.2z"
			/>
		<path class="st25" d="M500,902.5c0.5-0.1,0.9-0.1,1.4-0.2c0.3-0.1,0.6-0.1,0.8-0.2c0.4-0.1,0.8-0.2,1.2-0.3
			c0.3-0.1,0.6-0.2,0.9-0.3c0.4-0.1,0.7-0.2,1.1-0.4c0.3-0.1,0.6-0.3,0.9-0.4c0.3-0.1,0.7-0.3,1-0.4c0.3-0.1,0.6-0.3,0.9-0.5
			c0.3-0.2,0.6-0.3,0.9-0.5c0.3-0.2,0.6-0.4,0.8-0.6c0.3-0.2,0.5-0.4,0.8-0.6c0.3-0.2,0.5-0.4,0.8-0.6c0.2-0.2,0.5-0.4,0.7-0.6
			c0.3-0.2,0.5-0.5,0.7-0.7c0.2-0.2,0.4-0.4,0.6-0.6c0.2-0.3,0.5-0.5,0.7-0.8c0.2-0.2,0.4-0.4,0.5-0.7c0.2-0.3,0.4-0.6,0.6-0.9
			c0.2-0.2,0.3-0.5,0.5-0.7c0.2-0.3,0.4-0.6,0.5-1c0.1-0.2,0.3-0.5,0.4-0.7c0.2-0.3,0.3-0.7,0.5-1c0.1-0.2,0.2-0.5,0.3-0.7
			c0.1-0.4,0.3-0.7,0.4-1.1c0.1-0.3,0.1-0.5,0.2-0.8c0.1-0.4,0.2-0.8,0.3-1.1c0-0.3,0.1-0.5,0.1-0.8c0.1-0.4,0.1-0.8,0.1-1.2
			c0-0.1,0-0.2,0-0.3c0,0,0,0,0,0c-0.2,0-0.4,0-0.7,0h-17.3c-3,3.3-7.4,5.4-12.4,5.4H433c-8.9,0-16.2-6.8-16.2-15.2v-51.9
			c0-5,2.6-9.4,6.5-12.2v-15c0-0.5,0-0.9,0.1-1.3c0,0,0,0,0,0c-0.2,0-0.4,0-0.5,0c-0.5,0-0.9,0.1-1.4,0.1c-0.3,0-0.5,0.1-0.7,0.1
			c-0.5,0.1-0.9,0.1-1.3,0.2c-0.2,0-0.5,0.1-0.7,0.2c-0.4,0.1-0.9,0.2-1.3,0.3c-0.2,0.1-0.5,0.2-0.7,0.2c-0.4,0.1-0.8,0.3-1.2,0.5
			c-0.2,0.1-0.4,0.2-0.7,0.3c-0.4,0.2-0.8,0.4-1.2,0.6c-0.2,0.1-0.4,0.2-0.7,0.4c-0.4,0.2-0.7,0.4-1.1,0.6c-0.2,0.1-0.4,0.3-0.6,0.4
			c-0.3,0.2-0.7,0.5-1,0.7c-0.2,0.2-0.4,0.3-0.6,0.5c-0.3,0.3-0.6,0.5-0.9,0.8c-0.2,0.2-0.4,0.4-0.6,0.6c-0.3,0.3-0.5,0.5-0.8,0.8
			c-0.2,0.2-0.4,0.5-0.6,0.7c-0.2,0.3-0.4,0.6-0.7,0.8c-0.2,0.3-0.3,0.5-0.5,0.8c-0.2,0.3-0.4,0.6-0.5,0.9c-0.2,0.3-0.3,0.6-0.5,0.9
			c-0.1,0.3-0.3,0.6-0.4,0.9c-0.1,0.3-0.3,0.7-0.4,1c-0.1,0.3-0.2,0.6-0.3,0.8c-0.1,0.4-0.2,0.7-0.3,1.1c-0.1,0.3-0.2,0.5-0.2,0.8
			c-0.1,0.4-0.1,0.9-0.2,1.3c0,0.2-0.1,0.4-0.1,0.7c-0.1,0.7-0.1,1.4-0.1,2v11.5v39.8V880v2.5c0,8.3,5.4,15.5,13.1,18.5
			c2.6,1,5.4,1.6,8.4,1.6h15.6h57.6c0.7,0,1.4,0,2.1-0.1C499.6,902.6,499.8,902.5,500,902.5z"/>
		<path class="st26" d="M458.2,829.2c0,4.2-0.1,8.3-0.3,12.5c2-0.7,3.9-1.6,5.5-2.7c2.8-1.9,9-7.4,7-11.4c0,0,0,0,0,0
			c-0.3-0.1-0.6-0.1-0.9-0.2c-3.8,0-7.7,0.4-11.4,1C458.2,828.7,458.2,828.9,458.2,829.2z"/>
		<path class="st26" d="M463.3,870.2c5.6-1.8,12-6.8,11.7-13.1c-0.2-3.3-1.5-3.5-4.5-3.8c-2.5-0.1-5,0.1-7.9,0.3
			c-1.6,0.1-3.3-0.1-4.9-0.6c-0.1,0-0.1,0-0.2,0c-0.3,6.1-0.7,12.3-1,18.4C458.8,871.2,461.1,870.9,463.3,870.2z"/>
		<path class="st26" d="M416.8,822.2v51.9c0,8.4,7.3,15.2,16.2,15.2h55.3c5,0,9.4-2.1,12.4-5.4c2.4-2.6,3.8-6.1,3.8-9.8V849
			c-2.4-0.6-3.1-6.6-3.5-10.1c-0.4-4.3-0.8-8.1-1.2-12.3c-0.9-9.1-6.5-13.1-15.4-16.9c-1.5-0.6-4.6-1.5-6.7-2.8H433
			c-3.6,0-7,1.1-9.7,3C419.3,812.8,416.8,817.2,416.8,822.2z M439.4,820.6c0-1.1,0.9-1.3,2-1.1c0.5-0.2,1.1-0.4,1.9-0.6
			c6.4-1.1,14.8-1.9,22.5-0.9c9.8,0.2,19.7,2.6,24.6,9.9c4,6-1,14.4-6.4,18.1c-0.5,0.3-1,0.6-1.5,0.9c6.2,2.2,12.4,6,13.5,12.2
			c1.5,8.1-5.5,16.2-13.1,19.1c-8.5,3.3-18,3-27,2.1c-0.1,0-0.2,0-0.3,0c-2.1-0.1-4.1-0.3-6.2-0.5c-3.3-0.3-7.5-1.9-9.1-4.8
			c-1.8-1.6-3.2-3.3-3.1-4.8C437.8,853.7,439.3,837.2,439.4,820.6z"/>
		<path class="st1" d="M499.8,826.7c0.4,4.2,0.8,8,1.2,12.3c0.4,3.5,1,9.4,3.5,10.1c0.7,0.2,1.5,0,2.4-0.9
			c5.6-4.7,4.4-20.9,4.4-27.6c0-11-2-17.5-14.9-19c-3.1-0.4-18.1-1.1-20.1,1.3c-1.4,1.7-0.3,3,1.5,4.1c2.1,1.3,5.2,2.1,6.7,2.8
			C493.3,813.6,498.8,817.6,499.8,826.7z"/>
		<path class="st27" d="M483.7,827.3c4.1,6-0.7,14.4-6.1,18.1c-0.4,0.3-0.8,0.5-1.2,0.8c6.3,2.1,11.3,5.7,13,11.7
			c2.2,8.1-5,16.8-12.7,19.7c-6.7,2.6-13.9,3-21,2.7c0.1,0,0.2,0,0.3,0c9,0.9,18.5,1.1,27-2.1c7.6-2.9,14.5-11,13.1-19.1
			c-1.1-6.2-7.3-10-13.5-12.2c0.5-0.3,1-0.6,1.5-0.9c5.4-3.7,10.4-12,6.4-18.1c-4.9-7.3-14.8-9.7-24.6-9.9
			C473.1,819.1,479.9,821.7,483.7,827.3z"/>
		<path class="st27" d="M451.4,843.4c2.2-0.4,4.4-1,6.6-1.8c0.2-4.2,0.3-8.3,0.3-12.5c0-0.3,0-0.5-0.1-0.8c3.8-0.7,7.6-1,11.4-1
			c-0.4-0.1-0.8-0.2-0.7-0.2c-2-0.3-4.2-0.4-6.2-0.3c-3.7,0-7.4,0.4-11,1c0.1,0.3,0.1,0.5,0.1,0.8
			C451.7,833.6,451.6,838.5,451.4,843.4z"/>
		<path class="st27" d="M462.6,853.6c2.9-0.3,5.3-0.4,7.9-0.3c-0.2,0-0.5,0-0.7-0.1c-4-0.4-8-0.5-12.1-0.2
			C459.3,853.5,461,853.7,462.6,853.6z"/>
		<path class="st27" d="M456.4,871.4c0.3-6.1,0.7-12.3,1-18.4c-0.4,0-0.9,0-1.3,0.1c-1.7,0.2-3.5-0.1-5.1-0.7
			c-0.3,6.3-0.7,12.6-1,18.9C452,871.4,454.2,871.5,456.4,871.4z"/>
		<path class="st28" d="M440.3,875.1c1.7,3,5.8,4.5,9.1,4.8c2,0.2,4.1,0.4,6.2,0.5c7.1,0.3,14.3-0.1,21-2.7
			c7.7-2.9,14.9-11.6,12.7-19.7c-1.6-6-6.7-9.6-13-11.7c0.4-0.3,0.8-0.5,1.2-0.8c5.5-3.7,10.2-12.2,6.1-18.1
			c-3.8-5.6-10.6-8.2-18-9.2c-7.8-1-16.2-0.3-22.5,0.9c-0.8,0.1-1.4,0.3-1.9,0.6c-1.1-0.2-2,0-2,1.1c-0.1,16.6-1.5,33.1-2.2,49.7
			C437.1,871.7,438.5,873.5,440.3,875.1z M450.9,852.4c1.7,0.6,3.5,0.8,5.1,0.7c0.5,0,0.9-0.1,1.3-0.1c0.1,0,0.1,0,0.2,0
			c4-0.3,8-0.2,12.1,0.2c0.2,0,0.5,0.1,0.7,0.1c3,0.3,4.4,0.6,4.5,3.8c0.3,6.3-6,11.2-11.7,13.1c-2.2,0.7-4.5,1.1-6.9,1.2
			c-2.2,0.1-4.4,0-6.5-0.1C450.2,865,450.6,858.7,450.9,852.4z M477.8,867c1-1.2,4.1,1.2,3.1,2.5c-6,7.6-18.4,9.1-27.6,7.2
			c-1.5-0.3-3.4-3.5-1.1-3C460.8,875.4,472.2,874,477.8,867z M465.9,820.5c6.5,0.1,14.2,2.8,14.5,10c0.2,5.9-3.5,11.4-9.1,14
			c-2.1,1-4.1-2.4-2-3.3c3.8-1.8,7.1-5.4,7.5-9.5c0.5-5.9-5.5-7.4-10.6-7.5C463.9,824.1,463.4,820.4,465.9,820.5z M462.6,826.8
			c2,0,4.2,0,6.2,0.3c0,0,0.3,0.1,0.7,0.2c0.3,0.1,0.6,0.1,0.9,0.2c0,0,0,0,0,0c2,4-4.2,9.5-7,11.4c-1.7,1.1-3.5,2-5.5,2.7
			c-2.1,0.8-4.4,1.3-6.6,1.8c0.2-4.9,0.4-9.8,0.4-14.7c0-0.3,0-0.5-0.1-0.8C455.2,827.3,458.9,826.9,462.6,826.8z"/>
		<path class="st1" d="M466.2,824.2c5.1,0.1,11.2,1.6,10.6,7.5c-0.4,4.1-3.6,7.7-7.5,9.5c-2.1,1,0,4.3,2,3.3c5.6-2.6,9.4-8.1,9.1-14
			c-0.3-7.2-8-9.9-14.5-10C463.4,820.4,463.9,824.1,466.2,824.2z"/>
		<path class="st1" d="M452.2,873.6c-2.3-0.5-0.3,2.7,1.1,3c9.2,1.9,21.6,0.4,27.6-7.2c1-1.3-2.2-3.7-3.1-2.5
			C472.2,874,460.8,875.4,452.2,873.6z"/>
		<path class="st29" d="M645.9,793.7h-15.6c11.8,0,21.4,9,21.4,20.1v18.7l11.7-30.2C659.5,797.1,653.1,793.7,645.9,793.7z"/>
		<polygon class="st29" points="655,839.8 651.7,838.8 651.7,857.5 		"/>
		<path class="st29" d="M667.2,884.7c0.1-0.7,0.1-1.4,0.1-2.1v-6.8l-9.7,23.7C662.9,896.2,666.5,890.8,667.2,884.7z"/>
		<path class="st29" d="M642.9,898.8c-0.3,0.2-0.5,0.4-0.8,0.5c-0.3,0.2-0.6,0.3-0.9,0.5c-0.1,0.1-0.2,0.1-0.4,0.2l3.1-0.5l0.3-1.8
			c-0.2,0.2-0.4,0.3-0.6,0.5C643.4,898.5,643.2,898.7,642.9,898.8z"/>
		<path class="st30" d="M630.3,793.7h-57.6h-15.6c-0.2,0-0.4,0-0.7,0c0,0.4-0.1,0.9-0.1,1.3v15c2.7-1.9,6-3,9.7-3h44.7
			c-1.8-1.1-2.9-2.4-1.5-4.1c2-2.4,17-1.7,20.1-1.3c12.9,1.5,15,8,14.9,19c0,6.8,1.3,22.9-4.4,27.6c-1,0.8-1.8,1-2.4,0.9v25.1
			c0,3.7-1.4,7.1-3.8,9.8h13.1l4.9-26.4v-18.7l-2.2-0.7l2.2-5.6v-18.7C651.7,802.7,642.1,793.7,630.3,793.7z"/>
		<path class="st30" d="M640.8,900.1L640.8,900.1c0.2-0.1,0.3-0.1,0.4-0.2C641,900,640.9,900,640.8,900.1z"/>
		<path class="st30" d="M644.3,897.8L644.3,897.8c-0.2,0.1-0.4,0.3-0.6,0.5C643.9,898.1,644.1,898,644.3,897.8z"/>
		<path class="st31" d="M640.8,900.1c0.1-0.1,0.3-0.1,0.4-0.2c0.3-0.2,0.6-0.3,0.9-0.5c0.3-0.2,0.5-0.4,0.8-0.5
			c0.3-0.2,0.5-0.4,0.8-0.6c0.2-0.1,0.4-0.3,0.6-0.5l2.6-13.9h-13.1c-3,3.3-7.4,5.4-12.4,5.4h-55.3c-8.9,0-16.2-6.8-16.2-15.2v-51.9
			c0-5,2.6-9.4,6.5-12.2v-15c0-0.5,0-0.9,0.1-1.3c0,0,0,0,0,0c-0.2,0-0.4,0-0.5,0c-0.5,0-0.9,0.1-1.4,0.1c-0.3,0-0.5,0.1-0.8,0.1
			c-0.4,0.1-0.9,0.1-1.3,0.2c-0.2,0.1-0.5,0.1-0.7,0.2c-0.4,0.1-0.9,0.2-1.3,0.3c-0.2,0.1-0.5,0.2-0.7,0.2c-0.4,0.1-0.8,0.3-1.2,0.5
			c-0.2,0.1-0.5,0.2-0.7,0.3c-0.4,0.2-0.8,0.4-1.2,0.5c-0.2,0.1-0.4,0.3-0.7,0.4c-0.4,0.2-0.7,0.4-1.1,0.6c-0.2,0.1-0.4,0.3-0.6,0.5
			c-0.3,0.2-0.7,0.5-1,0.7c-0.2,0.2-0.4,0.4-0.6,0.5c-0.3,0.3-0.6,0.5-0.9,0.8c-0.2,0.2-0.4,0.4-0.6,0.6c-0.3,0.3-0.5,0.5-0.8,0.8
			c-0.2,0.2-0.4,0.5-0.6,0.7c-0.2,0.3-0.4,0.5-0.6,0.8c-0.2,0.3-0.3,0.5-0.5,0.8c-0.2,0.3-0.4,0.6-0.5,0.9c-0.2,0.3-0.3,0.6-0.5,0.9
			c-0.1,0.3-0.3,0.6-0.4,0.9c-0.1,0.3-0.2,0.6-0.4,1c0,0,0,0,0,0c-0.1,0.3-0.2,0.6-0.3,0.8c-0.1,0.4-0.2,0.7-0.3,1.1
			c-0.1,0.3-0.2,0.5-0.2,0.8c-0.1,0.4-0.1,0.9-0.2,1.3c0,0.2-0.1,0.4-0.1,0.7c-0.1,0.7-0.1,1.4-0.1,2v23.8v44.9
			c0,2.8,0.6,5.4,1.7,7.8c2,4.5,5.7,8.1,10.2,10.2c2.9,1.3,6.1,2.1,9.5,2.1h15.6h54.2l0.8-0.4L640.8,900.1z"/>
		<path class="st32" d="M592.7,830c-1.2,0.2-2.7,0.6-2.7,0.6c-0.5,0.3-0.7,0.3-1,0.7c-2.1,2.4-3.5,5.6-4.2,9.1
			C586.5,836.5,589.1,832.9,592.7,830z"/>
		<path class="st32" d="M549.9,822.2v51.9c0,8.4,7.3,15.2,16.2,15.2h55.3c5,0,9.4-2.1,12.4-5.4c2.4-2.6,3.8-6.1,3.8-9.8V849
			c-2.4-0.6-3.1-6.6-3.4-10.1c-0.4-4.3-0.8-8.1-1.2-12.3c-0.9-9.1-6.5-13.1-15.4-16.9c-1.5-0.6-4.6-1.5-6.7-2.8h-44.7
			c-3.6,0-7,1.1-9.7,3C552.5,812.8,549.9,817.2,549.9,822.2z M571.5,850.3c0.6-9.7,4.9-18.3,13.3-24.3c9.5-6.8,20.9-7,31.7-2.9
			c0.7,0.3,1.1,0.7,1.1,1.3c1.7,0.4,3.4,0.9,5.1,1.6c4,1.6-5.6,9.7-9.6,8.2c-1.7-0.7-3.8-1.3-5.8-1.7c-0.6,0-1.1,0-1.6-0.2
			c-0.1,0-0.2-0.1-0.3-0.1c-1.2-0.2-2.4-0.2-3.4-0.1c-0.7,0.1-1.4,0.2-2.2,0.3c0.4,0-2.3,1-0.6,0.2c-0.3,0.1-0.4,0.2-0.5,0.2
			c-0.1,0-0.1,0.1-0.2,0.1c0,0-0.1,0.1-0.2,0.1c-0.1,0.1-0.1,0.1-0.2,0.2c-1.6,1.7-2.4,3.2-3.3,6c-0.9,2.9-1.2,5.9-1,8.9
			c0.4,6.1,2.6,12.3,7.5,16.6c4.9,4.3,11.8,5,17.6,3.2c1.8-0.5,5.3-0.8,4.4,2c-0.8,2.7-4.1,4.9-6.8,5.8c-0.8,0.2-1.6,0.5-2.5,0.7
			c-1.4,1.1-3,1.9-4.4,2.3c-10.2,3-21.8,3.1-29.7-4.6C573.8,867.9,570.9,858.7,571.5,850.3z"/>
		<path class="st1" d="M632.9,826.7c0.4,4.2,0.8,8,1.2,12.3c0.4,3.5,1,9.4,3.4,10.1c0.7,0.2,1.5,0,2.4-0.9
			c5.6-4.7,4.4-20.9,4.4-27.6c0-11-2-17.5-14.9-19c-3.1-0.4-18.1-1.1-20.1,1.3c-1.4,1.7-0.3,3,1.5,4.1c2.1,1.3,5.2,2.1,6.7,2.8
			C626.4,813.6,632,817.6,632.9,826.7z"/>
		<path class="st29" d="M593.2,829.9c-0.2,0-0.4,0.1-0.6,0.1c-3.5,3-6.1,6.5-7.8,10.4c-0.5,2.7-0.7,5.5-0.5,8.1
			c1.3,13.8,12.1,26.3,28,21.5c2-0.6,5.9-0.9,4.9,2.2c-0.5,1.5-1.7,3-3.2,4.1c0.8-0.2,1.7-0.4,2.5-0.7c2.7-0.8,6-3.1,6.8-5.8
			c0.9-2.8-2.6-2.5-4.4-2c-5.9,1.8-12.7,1.1-17.6-3.2c-4.8-4.3-7-10.5-7.5-16.6c-0.2-3,0.1-6,1-8.9c0.8-2.8,1.7-4.3,3.3-6
			c0.1,0,0.1-0.1,0.2-0.2c0.1-0.1,0.1-0.1,0.2-0.1c0.1-0.1,0.1-0.1,0.2-0.1c0.1,0,0.3-0.1,0.5-0.2c-1.7,0.8,1-0.2,0.6-0.2
			c0.7-0.2,1.4-0.3,2.2-0.3c1-0.1,2.2-0.1,3.4,0.1C601.6,830.8,597.3,829.4,593.2,829.9z"/>
		<path class="st29" d="M607.3,832.5c2,0.4,4,1.1,5.8,1.7c4,1.6,13.6-6.6,9.6-8.2c-1.7-0.7-3.4-1.2-5.1-1.6
			C617.6,827.2,611.4,832.3,607.3,832.5z"/>
		<path class="st33" d="M609.7,878.7c1.5-0.4,3.1-1.3,4.4-2.3c1.5-1.1,2.7-2.6,3.2-4.1c1-3.1-2.9-2.8-4.9-2.2
			c-15.9,4.7-26.8-7.7-28-21.5c-0.2-2.6-0.1-5.4,0.5-8.1c0.7-3.4,2-6.7,4.2-9.1c0.3-0.4,0.5-0.4,1-0.7c-0.1,0,1.5-0.4,2.7-0.6
			c0.2,0,0.4-0.1,0.6-0.1c4.1-0.5,8.4,0.9,12.1,2.3c0.1,0,0.2,0.1,0.3,0.1c0.5,0.2,1,0.2,1.6,0.2c4.1-0.3,10.3-5.3,10.2-8
			c0-0.6-0.4-1.1-1.1-1.3c-10.8-4.1-22.1-3.9-31.7,2.9c-8.3,5.9-12.6,14.6-13.3,24.3c-0.6,8.4,2.3,17.5,8.5,23.7
			C587.9,881.8,599.4,881.7,609.7,878.7z M591,824.5c5.7-1.8,12.1-1.6,17.7,0.5c2.9,1.1-0.2,4.4-2.5,3.5c-4.4-1.7-9.4-2-14-0.5
			C589.3,828.9,588.1,825.4,591,824.5z M577.2,848.8c0.4-1.7,5.3-2.1,4.9,0c-3.2,13.3,10.2,29.8,25.6,24.9c2.4-0.8,4.9,1.4,1.8,2.4
			C591.6,881.6,573,866.1,577.2,848.8z"/>
		<path class="st1" d="M609.4,876.1c3.1-1,0.6-3.2-1.8-2.4c-15.4,4.8-28.8-11.6-25.6-24.9c0.5-2-4.4-1.7-4.9,0
			C573,866.1,591.6,881.6,609.4,876.1z"/>
		<path class="st1" d="M592.2,828c4.6-1.5,9.5-1.2,14,0.5c2.3,0.9,5.4-2.4,2.5-3.5c-5.5-2.1-12-2.3-17.7-0.5
			C588.1,825.4,589.3,828.9,592.2,828z"/>
		<path class="st34" d="M559.5,684.7h-5c-0.5,0.1-0.9,0.2-1.4,0.4c5.5,1,10.3,4,13.4,8.2c-0.2-2.5-0.3-5-0.2-7.5
			c-0.3,0.3-0.7,0.5-1,0.7C561.6,688.6,560,687.4,559.5,684.7z"/>
		<path class="st34" d="M586,773.5v-9.6c-2.2-1-4.2-2.5-5.8-4.5c-4.8-6-4.2-14.1,1.4-18.1c0.4-0.3,0.9-0.6,1.3-0.8
			c0.1-0.1,0.2-0.1,0.4-0.2c0.1,0,0.1-0.1,0.2-0.1c-0.2,0-0.3,0.1-0.5,0.2c0,0-7.6-11.8-12.6-27.8v60.9c0,0.5,0,0.9-0.1,1.4
			c0,0,0,0,0,0c0,0.1,0,0.2,0,0.3c0,0.4-0.1,0.8-0.1,1.2c0,0.3-0.1,0.5-0.1,0.8c-0.1,0.4-0.2,0.7-0.3,1.1c-0.1,0.3-0.1,0.5-0.2,0.8
			c-0.1,0.4-0.2,0.7-0.4,1.1c-0.1,0.3-0.2,0.5-0.3,0.8c-0.1,0.3-0.3,0.7-0.5,1c-0.1,0.3-0.3,0.5-0.4,0.8c-0.2,0.3-0.3,0.6-0.5,0.9
			c-0.2,0.2-0.3,0.5-0.5,0.7c-0.2,0.3-0.4,0.6-0.6,0.9c-0.2,0.2-0.4,0.5-0.6,0.7c-0.2,0.3-0.4,0.5-0.7,0.8c-0.2,0.2-0.4,0.4-0.6,0.7
			c-0.2,0.2-0.5,0.5-0.7,0.7c-0.2,0.2-0.5,0.4-0.7,0.6c-0.3,0.2-0.5,0.4-0.8,0.6c-0.3,0.2-0.5,0.4-0.8,0.6c-0.3,0.2-0.5,0.4-0.8,0.5
			c-0.3,0.2-0.6,0.3-0.9,0.5c-0.3,0.2-0.5,0.3-0.8,0.5c-0.3,0.2-0.7,0.3-1,0.4c-0.3,0.1-0.6,0.3-0.9,0.4c-0.4,0.1-0.7,0.3-1.1,0.4
			c-0.3,0.1-0.6,0.2-0.9,0.3c-0.4,0.1-0.8,0.2-1.2,0.3c-0.3,0.1-0.5,0.1-0.8,0.2c-0.5,0.1-0.9,0.1-1.4,0.2c-0.2,0-0.5,0.1-0.7,0.1
			c-0.7,0.1-1.4,0.1-2.1,0.1h15.6C576.4,793.7,586,784.7,586,773.5z"/>
		<path class="st35" d="M475.1,701c2.7-1.9,6-3,9.7-3H522c-1.6-5-2.1-9.4-1.8-13.3h-13.9h-10.1h-4.8h-6.5h-9.1c-0.2,0-0.4,0-0.7,0
			c0,0.4-0.1,0.9-0.1,1.3V701z"/>
		<path class="st35" d="M459.9,691.3C459.9,691.3,459.9,691.3,459.9,691.3c-0.3,0.3-0.5,0.6-0.8,0.8
			C459.4,691.8,459.7,691.6,459.9,691.3z"/>
		<path class="st35" d="M570.4,712.6c-1.9-6-3.3-12.6-3.9-19.4c-3.1-4.2-7.9-7.2-13.4-8.2c-2,0.6-3.9,1.5-6,2.8
			c-2,1.2-4,2.7-5.9,4.3c3.1,0.1,5.8,0.2,6.9,0.4c12.9,1.5,15,8,14.9,19c0,6.8,1.3,22.9-4.4,27.6c-1,0.8-1.8,1-2.4,0.9v25.1
			c0,3.7-1.4,7.1-3.8,9.8h17.3c0.2,0,0.4,0,0.7,0c0-0.5,0.1-0.9,0.1-1.4V712.6z"/>
		<path class="st36" d="M458.6,692.8c-0.2,0.3-0.5,0.6-0.7,0.9c-0.2,0.2-0.3,0.5-0.5,0.8c-0.2,0.3-0.4,0.6-0.6,0.9
			c-0.2,0.3-0.3,0.6-0.4,0.9c-0.2,0.3-0.3,0.6-0.4,0.9c-0.1,0.3-0.3,0.6-0.4,1c-0.1,0.3-0.2,0.6-0.3,0.9c-0.1,0.4-0.2,0.7-0.3,1.1
			c-0.1,0.3-0.2,0.5-0.2,0.8c-0.1,0.4-0.1,0.9-0.2,1.3c0,0.2-0.1,0.4-0.1,0.7c-0.1,0.7-0.1,1.4-0.1,2v4.6v18.8v3.5v2.3v39.5
			c0,11.1,9.6,20.1,21.4,20.1h15.6h5.8h15.6H549c0.7,0,1.4,0,2.1-0.1c0.2,0,0.5-0.1,0.7-0.1c0.5-0.1,0.9-0.1,1.4-0.2
			c0.3-0.1,0.5-0.1,0.8-0.2c0.4-0.1,0.8-0.2,1.2-0.3c0.3-0.1,0.6-0.2,0.9-0.3c0.4-0.1,0.7-0.2,1.1-0.4c0.3-0.1,0.6-0.2,0.9-0.4
			c0.3-0.1,0.7-0.3,1-0.4c0.3-0.1,0.6-0.3,0.8-0.5c0.3-0.2,0.6-0.3,0.9-0.5c0.3-0.2,0.5-0.4,0.8-0.5c0.3-0.2,0.6-0.4,0.8-0.6
			c0.3-0.2,0.5-0.4,0.8-0.6c0.2-0.2,0.5-0.4,0.7-0.6c0.2-0.2,0.5-0.5,0.7-0.7c0.2-0.2,0.4-0.4,0.6-0.7c0.2-0.3,0.5-0.5,0.7-0.8
			c0.2-0.2,0.4-0.5,0.6-0.7c0.2-0.3,0.4-0.6,0.6-0.9c0.2-0.2,0.3-0.5,0.5-0.7c0.2-0.3,0.4-0.6,0.5-0.9c0.1-0.2,0.3-0.5,0.4-0.8
			c0.2-0.3,0.3-0.7,0.5-1c0.1-0.3,0.2-0.5,0.3-0.8c0.1-0.3,0.2-0.7,0.4-1.1c0.1-0.3,0.1-0.5,0.2-0.8c0.1-0.4,0.2-0.7,0.3-1.1
			c0.1-0.3,0.1-0.5,0.1-0.8c0.1-0.4,0.1-0.8,0.1-1.2c0-0.1,0-0.2,0-0.3c0,0,0,0,0,0c-0.2,0-0.4,0-0.7,0h-17.3
			c-3,3.3-7.4,5.4-12.4,5.4h-55.3c-8.9,0-16.2-6.8-16.2-15.2v-51.9c0-5,2.6-9.4,6.5-12.2v-15c0-0.5,0-0.9,0.1-1.3c0,0,0,0,0,0
			c-0.2,0-0.4,0-0.5,0c-0.5,0-0.9,0.1-1.4,0.1c-0.2,0-0.5,0.1-0.7,0.1c-0.5,0.1-0.9,0.1-1.3,0.2c-0.2,0.1-0.5,0.1-0.7,0.2
			c-0.4,0.1-0.9,0.2-1.3,0.3c-0.2,0.1-0.5,0.2-0.7,0.2c-0.4,0.1-0.8,0.3-1.3,0.5c-0.2,0.1-0.4,0.2-0.7,0.3c-0.4,0.2-0.8,0.4-1.2,0.6
			c-0.2,0.1-0.4,0.2-0.6,0.4c-0.4,0.2-0.7,0.4-1.1,0.7c-0.2,0.1-0.4,0.3-0.6,0.4c-0.3,0.2-0.7,0.5-1,0.7c-0.2,0.2-0.4,0.3-0.6,0.5
			c-0.3,0.3-0.6,0.5-0.9,0.8c-0.2,0.2-0.4,0.4-0.6,0.6c-0.3,0.3-0.5,0.5-0.8,0.8C459,692.3,458.8,692.6,458.6,692.8z"/>
		<path class="st34" d="M556.2,740c-2.4-0.6-3.1-6.6-3.5-10.1c-0.4-4.3-0.8-8.1-1.2-12.3c-0.9-9.1-6.5-13.1-15.4-16.9
			c-0.5-0.2-1.3-0.5-2.1-0.8c-1.6,2.3-2.8,4.8-3.5,7.5c3.3,1.7,6.2,4.1,8.1,7.3c3.4,5.7,5.1,12.1,6.2,18.5
			c2.1,12.3,2.9,24.9,2.2,37.3c-0.1,2.4-3.8,2.9-7.6,2.2c-4.3,1.6-14.7-1.5-14.5-6.4c0.2-4.2,0.3-8.5,0.1-12.8
			c-6,0-11.9-0.3-17.9-0.3c-1,5.9-1.7,11.9-1.3,17c0.2,3.3-4,4.1-8.3,3.4c-4.5,1.4-13.6-1.3-13.8-5.3c-0.7-11.6,1.8-24,4.9-35.1
			c2.7-9.9,7.4-25.9,19.9-28.4c2.1-0.4,4.5-0.5,6.9-0.3c1.8-0.3,3.8-0.4,5.9-0.1c1.2,0.2,2.3,0.4,3.5,0.7c-1.2-2.6-2.2-5-2.9-7.3
			h-37.3c-3.6,0-7,1.1-9.7,3c-4,2.8-6.5,7.2-6.5,12.2v51.9c0,8.4,7.3,15.2,16.2,15.2H540c5,0,9.4-2.1,12.4-5.4
			c2.4-2.6,3.8-6.1,3.8-9.8V740z"/>
		<path class="st34" d="M509.6,742.2c0,0.2-0.1,0.4-0.1,0.6c3.2,0.1,6.4,0.2,9.7,0.2c1.8-0.1,3.5-0.2,5.3-0.3
			c-0.4-3.6-0.9-7.3-1.5-10.8c-0.8-4.5-1.7-9.5-3.7-13.9c-1.6,2.2-3.1,4.9-4,7C512.7,730.5,510.9,736.3,509.6,742.2z"/>
		<path class="st37" d="M524.9,705.3c-1.1-0.3-2.3-0.5-3.5-0.7c-2.2-0.3-4.1-0.2-5.9,0.1c3.8,0.4,7.7,1.5,10.8,3.5
			C525.8,707.2,525.4,706.2,524.9,705.3z"/>
		<path class="st37" d="M519.1,742.9c-3.2,0-6.4-0.1-9.7-0.2c0-0.2,0.1-0.4,0.1-0.6c1.4-5.9,3.1-11.7,5.5-17.2c1-2.2,2.4-4.9,4-7
			c-0.5-1-1-2-1.6-3c-0.1-0.2-0.3-0.4-0.4-0.6c-0.1,0-0.1,0.1-0.2,0.1c-8.3,6.6-11.1,18.9-13.2,28.4c0,0,0,0,0,0
			C508.8,743,514,743.1,519.1,742.9z"/>
		<path class="st37" d="M500.2,770.4c0.1,1.7-0.9,2.7-2.5,3.2c4.2,0.8,8.5,0,8.3-3.4c-0.3-5,0.3-11,1.3-17c-1.9,0-3.8,0-5.8,0.1
			C500.5,759.1,499.9,764.9,500.2,770.4z"/>
		<path class="st37" d="M538.3,729.2c3,13.5,3.8,27.8,3.1,41.6c-0.1,1-0.8,1.7-1.8,2.1c3.8,0.7,7.4,0.2,7.6-2.2
			c0.7-12.4-0.1-25.1-2.2-37.3c-1.1-6.4-2.8-12.8-6.2-18.5c-1.9-3.2-4.8-5.6-8.1-7.3c-0.3,1.2-0.5,2.4-0.7,3.7
			C534.6,716.3,536.9,722.6,538.3,729.2z"/>
		<path class="st1" d="M534.1,700c0.8,0.3,1.5,0.5,2.1,0.8c8.9,3.8,14.5,7.8,15.4,16.9c0.4,4.2,0.8,8,1.2,12.3
			c0.4,3.5,1,9.4,3.5,10.1c0.7,0.2,1.5,0,2.4-0.9c5.6-4.7,4.4-20.9,4.4-27.6c0-11-2-17.5-14.9-19c-1.1-0.1-3.8-0.3-6.9-0.4
			C538.5,694.5,536,697.1,534.1,700z"/>
		<path class="st38" d="M541.3,770.8c0.7-13.8-0.1-28.1-3.1-41.6c-1.4-6.5-3.7-12.9-8.3-18c-0.1,1.1-0.1,2.1,0,3.2
			c-1.4-2.1-2.6-4.2-3.6-6.2c-3.1-1.9-7-3.1-10.8-3.5c-2.4-0.2-4.8-0.1-6.9,0.3c-12.5,2.5-17.2,18.5-19.9,28.4
			c-3.1,11.1-5.6,23.5-4.9,35.1c0.2,4,9.3,6.7,13.8,5.3c1.6-0.5,2.6-1.5,2.5-3.2c-0.3-5.6,0.3-11.3,1.3-17c1.9-0.1,3.8-0.1,5.8-0.1
			c6,0,11.9,0.3,17.9,0.3c0.1,4.3,0.1,8.6-0.1,12.8c-0.3,4.9,10.1,8,14.5,6.4C540.6,772.5,541.3,771.8,541.3,770.8z M492.8,763.5
			c-0.2,1.9-3.3-0.4-3.2-1.8c0.4-4.8,0.9-10.2,1.6-15.6c0.2-1.1,0.3-2.2,0.5-3.3c2.2-12.9,6.5-25.9,16.9-33.3c1.3-0.9,3.9,2,2.6,2.9
			c-9.6,6.8-13.8,18.5-16,30.3c-0.4,2.1-0.7,4.3-1,6.4C493.6,754.2,493.2,759.1,492.8,763.5z M503.7,742.8
			c2.1-9.5,4.9-21.8,13.2-28.4c0.1-0.1,0.1-0.1,0.2-0.1c0.1,0.2,0.3,0.4,0.4,0.6c0.6,0.9,1.1,1.9,1.6,3c2,4.3,2.9,9.3,3.7,13.9
			c0.6,3.6,1.1,7.2,1.5,10.8c-1.8,0.2-3.5,0.3-5.3,0.3C514,743.1,508.8,743,503.7,742.8C503.7,742.9,503.7,742.9,503.7,742.8z
			 M508.7,750.5c-2.2,0.1-3.3-3.3-0.7-3.5c7.6-0.5,15.2-0.5,22.8-0.9c0,0,0.1,0,0.1,0c1.3-0.1,2.3,1.2,2.2,2.2
			c0,0.6-0.5,1.2-1.5,1.3C524,750,516.4,750,508.7,750.5z"/>
		<path class="st1" d="M511.3,712.4c1.3-0.9-1.3-3.9-2.6-2.9c-10.4,7.4-14.7,20.4-16.9,33.3c-0.2,1.1-0.4,2.2-0.5,3.3
			c-0.8,5.5-1.2,10.8-1.6,15.6c-0.1,1.4,3,3.7,3.2,1.8c0.4-4.4,0.8-9.3,1.4-14.4c0.3-2.1,0.6-4.3,1-6.4
			C497.4,730.9,501.7,719.2,511.3,712.4z"/>
		<path class="st1" d="M533.2,748.3c0.1-1-0.8-2.3-2.2-2.2c0,0-0.1,0-0.1,0c-7.6,0.4-15.2,0.4-22.8,0.9c-2.6,0.2-1.5,3.6,0.7,3.5
			c7.6-0.5,15.3-0.5,23-0.9C532.7,749.5,533.1,749,533.2,748.3z"/>
		<path class="st39" d="M646.8,883.9l-2.6,13.9l0,0l-0.3,1.8l-3.1,0.5l0,0l-13.1,2.2l-0.8,0.4l-8.6,4.1c-5,2.4,2.5,6.1,6.3,6.3
			c12.9,0.7,17.6,1.1,23.9-0.6c0,0,0.1,0,0.2-0.1c-0.1-0.7,0.3-1.5,1.6-2.1l3.5-1.7l0.1,0l3.8-9.2l9.7-23.7l7.6-18.5l0.2-9.3
			l-3.8-0.1l0.1-3.1l-16.3-4.9l-3.3,17.7L646.8,883.9z"/>
		<path class="st11" d="M780.8,912.6l-5.1,0.5c-0.1,0.5-0.2,1-0.2,1.4c0,0.3,0,0.6,0.1,0.8c0,0.2,0,0.3-0.1,0.4l1.8,1.4
			c-0.1-0.3-0.1-0.7-0.1-1.1c0-1,0.3-2,0.5-2.7c0.1-0.3,0.4-0.4,0.7-0.3c0.3,0.1,0.4,0.4,0.3,0.7c-0.2,0.6-0.5,1.5-0.5,2.3
			c0,0.5,0.1,0.9,0.2,1.2c0.1,0.2,0,0.5-0.2,0.7l3.5,2.8c0,0,2,1.9,4.7,0.3l0-0.1l0,0L780.8,912.6z"/>
		<path class="st11" d="M774.6,913.2l-1.5,0.1c0,0.1,0,0.2,0,0.3c0,0.1,0,0.2,0,0.2l1.4,1.1c0-0.1,0-0.3,0-0.4
			C774.4,914.1,774.5,913.7,774.6,913.2z"/>
		<polygon class="st12" points="786.5,921 786.5,921 789.2,919.4 784.4,912.3 780.8,912.6 		"/>
		<path class="st13" d="M773.1,913.4l-1.1,0.1c0,0.1,0,0.3,0,0.4c0.1,0.3,0.3,0.5,0.7,0.4c0.2,0,0.4-0.2,0.4-0.4c0-0.1,0-0.2,0-0.2
			C773.1,913.6,773.1,913.5,773.1,913.4z"/>
		<path class="st13" d="M775.6,914.6c0-0.5,0.1-1,0.2-1.4l-1.2,0.1c-0.1,0.4-0.2,0.9-0.2,1.3c0,0.1,0,0.3,0,0.4c0,0.2,0,0.4,0.1,0.6
			c0.1,0.3,0.4,0.5,0.7,0.4c0.1,0,0.2-0.1,0.3-0.2c0.1-0.1,0.2-0.3,0.1-0.4C775.6,915.1,775.6,914.9,775.6,914.6z"/>
		<path class="st13" d="M778.5,917.4c-0.2-0.3-0.2-0.7-0.2-1.2c0-0.8,0.2-1.7,0.5-2.3c0.1-0.3,0-0.6-0.3-0.7c-0.3-0.1-0.6,0-0.7,0.3
			c-0.3,0.7-0.5,1.7-0.5,2.7c0,0.4,0.1,0.7,0.1,1.1c0.1,0.2,0.1,0.4,0.2,0.6c0.1,0.3,0.5,0.4,0.7,0.3c0,0,0,0,0.1,0
			C778.5,917.9,778.6,917.6,778.5,917.4z"/>
		<path class="st10" d="M694.5,902.3c-2.3,4.6-4,10.9,2.3,12.9c1.8,0.6,3.7,0.8,5.6,0.8c0,0,0,0,0,0c0,0,7.9,0.3,22.1-0.7
			c-2.9-2.5-1.8-7.1-0.3-10.8c0.1-0.2,0.1-0.4,0.2-0.5l9-11.8c-13.9,0.2-23.4-8.1-23.4-8.1l-0.6,0.7L694.5,902.3z"/>
		<path class="st11" d="M788.6,901l-0.6,0.3c0.9,1.3,5.5,1.5,5.5,1.5c3-0.6,4.7,3.2,4.7,3.2c0.1,0.1,0.2,0.3,0.2,0.4
			c0.2,0.4,0.1,0.7,0,0.9c-0.2,0.3-0.7,0.4-0.7,0.4l-3.1-0.4c-2.9-0.4-1.4,1.5-1.4,1.5l1.7,2.5l0.6,0.8l5.9,1.3
			c-0.1-0.4-0.1-0.9-0.1-1.4c0-0.9,0.1-1.8,0.3-2.6c0.1-0.3,0.4-0.5,0.7-0.4s0.5,0.4,0.4,0.7c-0.2,0.7-0.3,1.5-0.3,2.3
			c0,0.6,0.1,1.2,0.2,1.7l1.9,0.4c0-0.2,0-0.4,0-0.6c0-1,0.2-2.1,0.4-2.9c0.1-0.3,0.4-0.4,0.7-0.4c0.3,0.1,0.5,0.4,0.4,0.7
			c-0.2,0.7-0.4,1.7-0.4,2.6c0,0.4,0,0.8,0.1,1.2c0,0.1,0,0.2,0,0.2l1.3,1c0-0.2,0-0.3,0-0.5c0-1.2,0.4-2.5,0.7-3.3
			c0.1-0.3,0.4-0.4,0.7-0.3c0.3,0.1,0.4,0.4,0.3,0.7c-0.3,0.8-0.6,2-0.6,3c0,0.3,0,0.6,0.1,0.9c0,0.2,0,0.3-0.1,0.4l1.8,1.4
			c-0.1-0.4-0.2-0.8-0.2-1.2c0-1,0.2-1.9,0.5-2.6c0.1-0.3,0.4-0.4,0.7-0.3c0.3,0.1,0.5,0.4,0.4,0.7c-0.2,0.6-0.4,1.4-0.4,2.2
			c0,0.5,0.1,1,0.3,1.3c0.1,0.2,0,0.5-0.2,0.7l3.5,2.7l0,0c0,0,2,1.9,4.7,0.2l-0.9-1.3l-18.3-26.2L788.6,901z"/>
		<polygon class="st12" points="818.4,920.5 819.3,921.7 822,920 821.6,919.5 803.2,893.3 802.7,892.6 802,893 800,894.2 		"/>
		<path class="st13" d="M802.3,914.5c0.3-0.1,0.5-0.4,0.4-0.7c0-0.1,0-0.2-0.1-0.3c-0.1-0.5-0.2-1.1-0.2-1.7c0-0.8,0.1-1.6,0.3-2.3
			c0.1-0.3-0.1-0.6-0.4-0.7s-0.6,0.1-0.7,0.4c-0.2,0.8-0.3,1.7-0.3,2.6c0,0.5,0,1,0.1,1.4c0,0.3,0.1,0.6,0.2,0.8
			C801.7,914.5,802,914.6,802.3,914.5z"/>
		<path class="st13" d="M805.3,915.2c0.2,0,0.4-0.2,0.4-0.4c0-0.1,0-0.2,0-0.2c-0.1-0.3-0.1-0.7-0.1-1.2c0-0.9,0.2-1.9,0.4-2.6
			c0.1-0.3-0.1-0.6-0.4-0.7c-0.3-0.1-0.6,0.1-0.7,0.4c-0.2,0.8-0.4,1.9-0.4,2.9c0,0.2,0,0.4,0,0.6c0,0.3,0.1,0.5,0.1,0.8
			C804.7,915.1,805,915.3,805.3,915.2z"/>
		<path class="st13" d="M807.9,916.9c0.1,0,0.2-0.1,0.3-0.2c0.1-0.1,0.1-0.3,0.1-0.4c-0.1-0.3-0.1-0.6-0.1-0.9c0-1,0.3-2.2,0.6-3
			c0.1-0.3,0-0.6-0.3-0.7c-0.3-0.1-0.6,0-0.7,0.3c-0.3,0.9-0.7,2.1-0.7,3.3c0,0.2,0,0.3,0,0.5c0,0.2,0.1,0.4,0.1,0.7
			C807.3,916.8,807.6,917,807.9,916.9z"/>
		<path class="st13" d="M810.9,918.9C811,918.9,811,918.8,810.9,918.9c0.3-0.2,0.4-0.5,0.3-0.7c-0.2-0.3-0.3-0.8-0.3-1.3
			c0-0.8,0.2-1.7,0.4-2.2c0.1-0.3-0.1-0.6-0.4-0.7c-0.3-0.1-0.6,0.1-0.7,0.3c-0.2,0.7-0.5,1.6-0.5,2.6c0,0.4,0.1,0.8,0.2,1.2
			c0.1,0.2,0.1,0.4,0.2,0.6C810.3,918.9,810.7,919,810.9,918.9z"/>
		<path class="st14" d="M724.3,904.5c-1.6,3.7-2.6,8.3,0.3,10.8c0.7,0.6,1.6,1.1,2.8,1.4c2.6,0.7,5.4,0.7,8.1,0.4l0.4-0.3l36-3.4
			l1.1-0.1l1.5-0.1l1.2-0.1l5.1-0.5l3.6-0.3l10.6-1l-1.7-2.5c0,0-1.5-1.9,1.4-1.5l3.1,0.4c0,0,0.4-0.1,0.7-0.4l0-0.9
			c-0.1-0.1-0.1-0.2-0.2-0.4c0,0-1.7-3.8-4.7-3.2c0,0-4.6-0.2-5.5-1.5l0.6-0.3l-8.6-1c-6.6,0.7-12.6,0.6-18.1,0.1
			c-17.7-1.7-28.5-8-28.5-8l-9,11.8C724.5,904.2,724.4,904.3,724.3,904.5z"/>
		<path class="st12" d="M750.7,869.5c-9.8,3.5-21,5.7-33.7,5.5l-6.9,9.1c0,0,9.5,8.4,23.4,8.1c0,0,10.8,6.3,28.5,8
			c5.4,0.5,11.5,0.6,18.1-0.1l12-8.5c0,0,0.1-0.1,0.3-0.2c2-1.6,12.9-11.3,12-22.3c0,0,3.9-11.8-10.5-28.6
			C788.7,846.3,773.8,861.3,750.7,869.5z"/>
		<path class="st40" d="M722,771.4c-1.7-0.6-3.4-1.1-5-1.6c-16.7-4.7-27.3-1.7-27.3-1.7c-0.6,0.1-1.2,0.2-1.8,0.3l1.5,2.9
			c0,0,0,0,0,0l0.1,0.2l0.1,0.3c-0.1,3.8-7.3,6.8-7.3,6.8c-5.2,2.5-7.8,2.3-9.1,1.8c-0.8-0.3-1.1-0.7-1.1-0.7l-8.7,22.5l-11.7,30.2
			l-2.2,5.6l2.2,0.7l3.3,1l16.3,4.9l-0.1,3.1l3.8,0.1l25.2,0.7l-1.8,7.7c8.9,11.4,16.6,18.6,16.6,18.6c0.6,0,1.2,0,1.8,0
			c12.6,0.2,23.9-2,33.7-5.5c23.1-8.2,38-23.2,43.1-29c1.3-1.5,2-2.4,2-2.4c-0.1-0.1-0.2-0.3-0.3-0.4c-7.9-12.2-15.8-22.3-23.4-30.7
			C753.4,786.5,735.9,776.3,722,771.4z"/>
		<path class="st39" d="M603.2,757.5c0-0.1,0.1-0.1,0.1-0.2c0,0,0,0,0,0C603.2,757.4,603.2,757.5,603.2,757.5z"/>
		<path class="st39" d="M581.5,752.1c1.9,4.8,6.3,9.6,12.3,9.1c3.8-0.3,6.5-2.5,7.8-5.4c-2-1.9-3.8-4-5.5-6.2c0,0,0,0,0,0.1
			c0,0-8-9.1-11.9-9.5c-1.4,1.4-2.7,2.9-3.3,4.7C580.1,747.3,580.7,749.8,581.5,752.1z M583.1,753.3c0.2-0.4,0.7-0.6,1.2-0.4
			c0.1,0,0.2,0.1,0.5,0.1c0.8,0,2.1-0.4,3.3-1c1-0.5,1.9-1.1,2.5-1.7c-0.1-0.1-0.2-0.3-0.3-0.4c-1.4-1.8-3.3-2.8-5.3-2.8
			c-0.2,0-0.4,0-0.7,0c-0.5,0.1-0.9-0.3-1-0.7c-0.1-0.5,0.3-0.9,0.8-0.9c0.3,0,0.6-0.1,0.9-0.1c2.7,0,5.1,1.4,6.7,3.5
			c0.3,0.3,0.5,0.7,0.7,1c0,0,0,0.1,0.1,0.1c1.2,1.9,1.9,4.1,1.9,6.4c0,0.7-0.1,1.5-0.2,2.2c-0.1,0.5-0.6,0.7-1,0.7
			c-0.5-0.1-0.8-0.5-0.7-1c0.1-0.6,0.2-1.3,0.2-1.9c0-1.6-0.4-3.2-1.1-4.6c-0.7,0.6-1.6,1.2-2.5,1.7c-1.4,0.7-2.9,1.2-4.1,1.2
			c-0.4,0-0.8-0.1-1.2-0.2C583.1,754.2,582.9,753.8,583.1,753.3z"/>
		<path class="st39" d="M583.6,740.2C583.5,740.2,583.5,740.2,583.6,740.2c-0.2,0.1-0.2,0.1-0.3,0.1
			C583.4,740.3,583.5,740.2,583.6,740.2z"/>
		<path class="st41" d="M582.9,740.5c-0.5,0.2-0.9,0.5-1.3,0.8c-5.6,4-6.2,12.1-1.4,18.1c1.6,2,3.6,3.5,5.8,4.5
			c4.4,2,9.4,1.9,13.1-0.7c0.3-0.2,0.7-0.5,1-0.8c0.1-0.1,0.2-0.2,0.3-0.3c0.2-0.2,0.4-0.4,0.6-0.6c0.1-0.1,0.2-0.2,0.3-0.3
			c0.2-0.2,0.3-0.4,0.5-0.6c0.1-0.1,0.2-0.3,0.3-0.4c0.1-0.2,0.3-0.4,0.4-0.6c0.1-0.1,0.2-0.3,0.2-0.4c0.1-0.2,0.2-0.4,0.3-0.6
			c0.1-0.2,0.1-0.3,0.2-0.5c0.1-0.2,0.2-0.4,0.2-0.6c0-0.1,0-0.2,0.1-0.2c0,0,0,0,0,0c16.7,15,41.4,20.6,64.4,13.8l4.3,8.4l0.1,0.3
			c0,0,0.3,0.4,1.1,0.7c1.3,0.5,4,0.6,9.1-1.8c0,0,7.2-3,7.3-6.8l-0.1-0.3l-0.1-0.2c0,0,0,0,0,0c-0.4,1.4-3.5,3.4-5.7,4
			c-1.3,0.3-3.7,1.4-4.9,1.4c-2,0-2.9-2.7-3.4-3.7c-0.5-1.1-1.9-2,0.4-3.2c2.9-1.6,6.7-3.8,9.8-5.7l-0.5-1c-0.3,0.2-0.5,0.3-0.8,0.5
			c0.7-0.4,1.3-0.8,2-1.3c0.4-0.2,0.7-0.5,1.1-0.7c0.7-0.5,1.4-1,2.1-1.5c0.3-0.2,0.5-0.4,0.8-0.6c0.9-0.7,1.8-1.5,2.7-2.2
			c0.1-0.1,0.1-0.1,0.2-0.2c0.8-0.7,1.6-1.4,2.4-2.2c0.2-0.2,0.5-0.5,0.7-0.7c0.6-0.6,1.1-1.2,1.7-1.8c0.3-0.3,0.5-0.6,0.8-0.9
			c0.5-0.6,1-1.2,1.5-1.8c0.2-0.3,0.5-0.5,0.7-0.8c0.6-0.7,1.1-1.4,1.6-2.1c0.1-0.2,0.3-0.4,0.4-0.5c0.7-0.9,1.3-1.9,1.9-2.9
			c0-0.1,0.1-0.1,0.1-0.2c0.5-0.9,1.1-1.8,1.6-2.7c0.1-0.3,0.3-0.5,0.4-0.8c0.4-0.7,0.8-1.5,1.1-2.2c0.1-0.3,0.3-0.6,0.4-0.9
			c0.3-0.7,0.7-1.5,1-2.3c0.1-0.3,0.2-0.5,0.3-0.8c0.4-0.9,0.7-1.8,1-2.8c0-0.1,0.1-0.2,0.1-0.3c0.4-1.1,0.7-2.2,1-3.3
			c0-0.1,0-0.2,0.1-0.3c0.3-1,0.5-1.9,0.7-2.9c0-0.1,0-0.2,0.1-0.3c0,0,0,0,0,0c-5.7,13.2-16.4,24.8-31.3,31.3
			c-46,20.2-68.5,2.4-83.2-26.3c-6.8-13.2-7.6-27.7-3.5-40.8c-7.7,8.4-13.5,25.9,1.3,61.6c1.7,2.2,3.6,4.2,5.5,6.2
			c-1.3,2.9-4,5.1-7.8,5.4c-6,0.5-10.4-4.2-12.3-9.1c-0.9-2.3-1.5-4.8-0.6-7.2c0.7-1.8,1.9-3.4,3.3-4.7c-0.2,0-0.4,0-0.6,0
			c-0.1,0-0.2,0.1-0.3,0.1C583.2,740.4,583.1,740.4,582.9,740.5z"/>
		<path class="st13" d="M583.6,754.4c0.4,0.2,0.8,0.2,1.2,0.2c1.3,0,2.7-0.5,4.1-1.2c0.9-0.5,1.8-1,2.5-1.7c0.7,1.4,1.1,3,1.1,4.6
			c0,0.6-0.1,1.3-0.2,1.9c-0.1,0.5,0.2,0.9,0.7,1c0.5,0.1,0.9-0.2,1-0.7c0.2-0.7,0.2-1.5,0.2-2.2c0-2.3-0.7-4.6-1.9-6.4
			c0,0,0-0.1-0.1-0.1c-0.2-0.4-0.5-0.7-0.7-1c-1.6-2-4-3.5-6.7-3.5c-0.3,0-0.6,0-0.9,0.1c-0.5,0.1-0.8,0.5-0.8,0.9
			c0.1,0.5,0.5,0.8,1,0.7c0.2,0,0.5,0,0.7,0c2,0,3.9,1.1,5.3,2.8c0.1,0.1,0.2,0.3,0.3,0.4c-0.6,0.6-1.5,1.2-2.5,1.7
			c-1.2,0.6-2.5,1-3.3,1c-0.2,0-0.4,0-0.5-0.1c-0.4-0.2-1,0-1.2,0.4C582.9,753.8,583.1,754.2,583.6,754.4z"/>
		<path class="st41" d="M717.3,683.1c2.5,0.9,4.3,2.9,5.6,5c2.9,4.4,4,10.6-0.1,14.7c-2.7,2.6-6.1,3.2-9.4,2.3
			c0.1,0.7,0.2,1.4,0.3,2.2c0.1,0,0.2,0.1,0.3,0.1c0.2,0.1,0.4,0.1,0.6,0.2c0.2,0.1,0.4,0.1,0.6,0.2c0.2,0.1,0.4,0.1,0.6,0.1
			c0.2,0,0.4,0.1,0.6,0.1c0.2,0,0.4,0.1,0.6,0.1c0.2,0,0.4,0,0.6,0.1c0.2,0,0.5,0,0.7,0c0.2,0,0.3,0,0.5,0c0.3,0,0.5,0,0.8-0.1
			c0.1,0,0.3,0,0.4,0c0.4-0.1,0.8-0.1,1.2-0.2c6.8-1.7,10.7-8.9,8.6-16.2c-2-7.3-9.2-11.9-15.9-10.2c-0.8,0.3-1.4,0.7-2,1.2
			C713.7,682.4,715.6,682.5,717.3,683.1z"/>
		<path class="st13" d="M714.4,694.8c0.3,0.7,0.6,1.4,1.1,2.1c1.2,1.8,3,3.4,5.1,4.5c0.4,0.2,1,0.1,1.2-0.4c0.2-0.4,0.1-0.9-0.4-1.1
			c-1.8-0.9-3.3-2.3-4.4-3.9c-0.2-0.3-0.3-0.6-0.5-0.8c1.2-0.2,2.6-0.6,3.7-1.2c0.8-0.4,1.5-0.8,2.1-1.3c0.6-0.5,1-1,1.2-1.7
			c0.1-0.4-0.2-0.9-0.6-1c-0.5-0.1-1,0.1-1.1,0.6c0,0.1-0.3,0.5-0.7,0.8c-0.7,0.5-1.7,1.1-2.8,1.5c-0.9,0.3-1.8,0.6-2.6,0.6
			c-0.3-0.9-0.4-1.7-0.4-2.6c0-1.6,0.5-3,1.7-4c0.3-0.3,0.4-0.8,0-1.2c-0.3-0.3-0.9-0.3-1.3,0l0,0c-1.5,1.4-2.2,3.3-2.2,5.2
			c0,1.2,0.3,2.4,0.7,3.6C714.4,694.6,714.4,694.7,714.4,694.8z"/>
		<path class="st39" d="M675.8,769.8c-2.3,1.3-0.9,2.1-0.4,3.2c0.5,1,1.4,3.7,3.4,3.7c1.1,0,3.6-1.1,4.9-1.4c2.2-0.5,5.3-2.5,5.7-4
			l-1.5-2.9l-2.7-5.3l0.5,1C682.5,766,678.8,768.2,675.8,769.8z"/>
		<path class="st39" d="M598.3,728.8c14.7,28.7,37.2,46.5,83.2,26.3c15-6.5,25.7-18.1,31.3-31.3c1.1-5.4,1.4-11,0.9-16.6
			c0.1,0,0.2,0.1,0.3,0.1c-0.1,0-0.2-0.1-0.3-0.1c-0.1-0.7-0.2-1.4-0.3-2.2c3.2,0.8,6.7,0.3,9.4-2.3c4.2-4.1,3-10.3,0.1-14.7
			c-1.4-2.1-3.1-4.1-5.6-5c-1.8-0.6-3.6-0.7-5.4-0.6c-2.6,2.5-2.2,7.3-1.3,11.1c0.6,2.8,1.5,5,1.6,5.2c0,0,0,0,0,0c0,0,0,0,0,0
			c-14.4-23.1-37.3-34.9-37.3-34.9c-21,14.4-38.1,6.1-38.1,6.1c3.8,3.6,10.1,7.5,10.1,7.5c-22.4,8.8-39.6,2.7-39.6,2.7
			s-6.8,1.3-12.6,7.6C590.7,701.2,591.5,715.6,598.3,728.8z M715.8,685.8L715.8,685.8c0.3-0.3,0.9-0.3,1.3,0c0.3,0.3,0.3,0.9,0,1.2
			c-1.2,1.1-1.7,2.5-1.7,4c0,0.8,0.2,1.7,0.4,2.6c0.8-0.1,1.7-0.3,2.6-0.6c1.1-0.4,2.1-1,2.8-1.5c0.4-0.4,0.7-0.7,0.7-0.8
			c0.1-0.4,0.6-0.7,1.1-0.6c0.5,0.1,0.8,0.6,0.6,1c-0.2,0.7-0.7,1.2-1.2,1.7c-0.6,0.5-1.3,0.9-2.1,1.3c-1.2,0.6-2.5,1-3.7,1.2
			c0.2,0.3,0.3,0.6,0.5,0.8c1.1,1.6,2.6,3,4.4,3.9c0.4,0.2,0.6,0.7,0.4,1.1c-0.2,0.4-0.8,0.6-1.2,0.4c-2.1-1-3.9-2.6-5.1-4.5
			c-0.4-0.7-0.8-1.4-1.1-2.1c0-0.1-0.1-0.1-0.1-0.2c-0.5-1.2-0.7-2.4-0.7-3.6C713.6,689.1,714.3,687.2,715.8,685.8z M694.4,710.2
			c1.1,2-1.9,5.4-6.5,7.6c-4.7,2.1-9.3,2.2-10.4,0.2c-1.1-2,1.9-5.4,6.5-7.6C688.7,708.2,693.4,708.1,694.4,710.2z M682.2,698.2
			c0.8,1.5,0.1,3.3-1.5,4c-0.1,0.1-0.3,0.1-0.4,0.1c0.6,2.9-0.4,5.6-2.6,6.6c-2.9,1.3-6.8-0.8-8.9-4.7c-2-3.9-1.3-8.1,1.6-9.4
			c2.2-1,5,0,7.1,2.2c0.1-0.1,0.2-0.1,0.4-0.2C679.5,696.1,681.4,696.7,682.2,698.2z M660.9,682.8c1.5-1.7,3.4-2.9,5.4-3.6
			c2-0.7,4.1-1.1,6.1-1.1c1.8,0,3.5,0.3,4.9,0.9c0.9,0.4,1.3,1.4,0.9,2.2c-0.4,0.8-1.5,1.2-2.4,0.8c-0.7-0.3-2-0.6-3.4-0.6
			c-1.5,0-3.2,0.3-4.8,0.8c-1.5,0.6-2.9,1.4-3.9,2.6c-0.6,0.7-1.7,0.8-2.5,0.3C660.4,684.5,660.3,683.5,660.9,682.8z M650.8,717.2
			c0.8-0.4,1.7-0.5,2.5-0.5c2.1,0,4.2,1.1,5.2,3c0.4,0.8,0.1,1.7-0.8,2.1c-0.8,0.4-1.9,0.1-2.3-0.7c-0.4-0.8-1.2-1.2-2.1-1.2
			c-0.3,0-0.7,0.1-1,0.2c-0.8,0.4-1.3,1.2-1.3,2c0,0.3,0.1,0.7,0.2,1c0.4,0.8,0.1,1.7-0.8,2.1c-0.8,0.4-1.9,0.1-2.3-0.7
			c-0.4-0.8-0.6-1.6-0.6-2.4C647.5,720,648.7,718.1,650.8,717.2z M641.8,733.6c0.1-0.1,0.3-0.1,0.4-0.2l13.7-6.3l13.7-6.3
			c8.4-3.9,10.4,4.9,10.4,4.9c0.5,3.5-0.2,6.5-1.5,9.1c0,0,0,0,0,0c0,0-0.1,0.1-0.1,0.1c-0.2,0.4-0.4,0.8-0.6,1.1
			c0,0.1-0.1,0.1-0.1,0.2c-0.5,0.8-1.1,1.6-1.7,2.3c0,0.1-0.1,0.1-0.2,0.2c-0.6,0.7-1.2,1.4-1.9,2c-0.1,0-0.1,0.1-0.2,0.1
			c-0.7,0.6-1.3,1.1-2,1.6c-0.1,0-0.1,0.1-0.2,0.1c-0.6,0.5-1.3,0.9-1.9,1.3c-0.1,0-0.1,0.1-0.2,0.1c-0.6,0.4-1.1,0.7-1.6,1
			c0,0-0.1,0-0.1,0.1c-0.5,0.3-0.9,0.5-1.2,0.6c0,0-0.1,0-0.1,0c-0.3,0.2-0.6,0.3-0.7,0.3c0,0,0,0,0,0c0,0-0.1,0-0.1,0s0,0-0.1,0
			c0,0,0,0,0,0c-0.1,0.1-0.4,0.2-0.8,0.3c0,0,0,0,0,0c-2.5,1.1-9.8,3.7-17.1,1.8c0,0,0,0,0,0c0,0,0,0,0,0c-2.7-0.7-5.4-2-7.8-4.3
			C640,744.1,634,737.5,641.8,733.6z M634.9,737.4c1.1,2-1.9,5.4-6.5,7.6c-4.7,2.1-9.3,2.2-10.4,0.2c-1.1-2,1.9-5.4,6.5-7.6
			C629.2,735.5,633.9,735.4,634.9,737.4z M619.8,717.8c2.9-1.3,6.8,0.8,8.9,4.7c2,3.9,1.3,8.1-1.6,9.4c-2.2,1-5,0-7.1-2.2
			c-0.1,0.1-0.2,0.1-0.4,0.2c-1.6,0.7-3.5,0.1-4.2-1.4c-0.8-1.5-0.1-3.2,1.5-4c0.1-0.1,0.3-0.1,0.4-0.1
			C616.7,721.4,617.6,718.8,619.8,717.8z M603.1,712.8c1.1-2.8,2.8-5.1,5-6.7c2.2-1.6,5-2.6,8-2.9c1-0.1,1.8,0.6,1.9,1.5
			c0.1,0.9-0.6,1.7-1.6,1.8c-2.5,0.2-4.5,1-6.2,2.2c-1.7,1.2-3,2.9-3.9,5.2c-0.3,0.9-1.3,1.3-2.3,1
			C603.3,714.6,602.8,713.6,603.1,712.8z"/>
		<path class="st39" d="M685.1,763.2c0.4-0.3,0.8-0.5,1.2-0.8c-0.7,0.4-1.3,0.9-2,1.3C684.6,763.5,684.9,763.3,685.1,763.2z"/>
		<path class="st42" d="M571.4,663.9c1.4,1.9,2,5.2,1.2,8.9c-0.1,0.4-0.2,0.8-0.3,1.1c-0.9,3-2.2,7.2-4.5,10.2
			c-0.5,0.6-1,1.1-1.6,1.6c-0.1,2.5,0,5,0.2,7.5c0.6,6.8,2.1,13.4,3.9,19.4c5,16,12.6,27.8,12.6,27.8c0.1-0.1,0.3-0.2,0.5-0.2
			c0,0,0.1,0,0.1,0c0.2,0,0.4,0,0.6,0c3.9,0.4,11.9,9.5,11.9,9.5c0,0,0,0,0-0.1c-14.8-35.7-9-53.2-1.3-61.6
			c5.8-6.3,12.6-7.6,12.6-7.6s17.2,6.1,39.6-2.7c0,0-6.3-4-10.1-7.5c0,0,17.1,8.3,38.1-6.1c0,0,23,11.7,37.3,34.9c0,0,0,0,0,0
			c0,0,0,0,0,0c-0.1-0.3-1-2.5-1.6-5.2c-0.9-3.8-1.3-8.7,1.3-11.1c0.5-0.5,1.2-0.9,2-1.2c0,0-9.7-29.6-30.6-46.2
			c-1.3,0.3-2.8,0.4-4.5,0.2c-1.4-0.2-3-0.5-4.6-1.1c-2.6-1-6.3-2.5-9.1-4.5c-1.4-1-2.6-2.3-3.3-3.6c-0.2-0.5-0.4-0.9-0.5-1.3
			c-2.9-0.5-6-0.8-9.2-0.7c-0.5,0-1.1,0-1.6,0.1c-30.8,1.4-58.8,18.7-58.8,18.7C581.8,648.7,575.3,656,571.4,663.9z"/>
		<path class="st43" d="M675.9,738.8c-0.6,0.7-1.2,1.4-1.9,2C674.6,740.1,675.3,739.5,675.9,738.8z"/>
		<path class="st43" d="M678.4,734.9c-0.2,0.4-0.4,0.8-0.6,1.1C678,735.7,678.3,735.3,678.4,734.9z"/>
		<path class="st43" d="M647.8,748.4c2-3.4,4.4-6.4,8.7-6.8c3.2-0.3,5.9,0.1,8.4-2.2c1.2-1.1,2.1-2.4,3.2-3.6c1.7-1.7,3.8-2,6.1-1.8
			c1.4,0.1,2.8,0.4,4.3,0.7c1.3-2.6,1.9-5.6,1.5-9.1c0,0-1.9-8.7-10.4-4.9l-13.7,6.3l-13.7,6.3c-0.1,0.1-0.3,0.1-0.4,0.2
			c0.1-0.1,27.4-12.6,27.4-12.6c4.6,8.9-9.3,13.9-9.3,13.9c-14.1,6.5-18.1-1.3-18.1-1.3c-7.8,3.9-1.9,10.5-1.9,10.5
			C642.4,746.4,645.1,747.7,647.8,748.4z"/>
		<path class="st43" d="M665.7,746.2c-0.1,0.1-0.4,0.2-0.8,0.3C665.3,746.4,665.6,746.3,665.7,746.2z"/>
		<path class="st43" d="M671.7,742.7c-0.6,0.5-1.3,0.9-1.9,1.3C670.5,743.6,671.1,743.1,671.7,742.7z"/>
		<path class="st43" d="M647.8,748.4c7.3,1.9,14.6-0.8,17.1-1.8C662.4,747.6,655.1,750.3,647.8,748.4z"/>
		<path class="st44" d="M668.1,735.9c-1.1,1.1-2,2.5-3.2,3.6c-2.5,2.3-5.1,1.9-8.4,2.2c-4.2,0.3-6.7,3.4-8.7,6.8c0,0,0,0,0,0
			c0,0,0,0,0,0c7.2,1.9,14.6-0.8,17.1-1.8c0,0,0,0,0,0c0.4-0.2,0.6-0.3,0.8-0.3c0,0,0,0,0,0c0,0,0.1,0,0.1,0s0,0,0.1,0c0,0,0,0,0,0
			c0.1-0.1,0.4-0.2,0.7-0.3c0,0,0.1,0,0.1,0c0.3-0.2,0.8-0.4,1.2-0.6c0,0,0.1,0,0.1-0.1c0.5-0.3,1-0.6,1.6-1c0,0,0.1-0.1,0.2-0.1
			c0.6-0.4,1.2-0.8,1.9-1.3c0.1,0,0.1-0.1,0.2-0.1c0.6-0.5,1.3-1,2-1.6c0.1,0,0.1-0.1,0.2-0.1c0.6-0.6,1.3-1.3,1.9-2
			c0.1-0.1,0.1-0.1,0.2-0.2c0.6-0.7,1.2-1.5,1.7-2.3c0-0.1,0.1-0.1,0.1-0.2c0.2-0.4,0.4-0.7,0.6-1.1c0,0,0.1-0.1,0.1-0.1
			c0,0,0,0,0,0c-1.5-0.4-2.9-0.6-4.3-0.7C671.9,733.9,669.7,734.2,668.1,735.9z"/>
		<path class="st1" d="M660,734.9c0,0,13.9-5,9.3-13.9c0,0-27.3,12.5-27.4,12.6C641.8,733.6,645.9,741.4,660,734.9z"/>
		<path class="st41" d="M650.4,725.1c0.8-0.4,1.2-1.3,0.8-2.1c-0.2-0.3-0.2-0.6-0.2-1c0-0.8,0.5-1.6,1.3-2c0.3-0.2,0.7-0.2,1-0.2
			c0.9,0,1.7,0.5,2.1,1.2c0.4,0.8,1.4,1.1,2.3,0.7c0.8-0.4,1.2-1.3,0.8-2.1c-1-1.9-3-3-5.2-3c-0.8,0-1.7,0.2-2.5,0.5
			c-2,0.9-3.2,2.9-3.2,4.9c0,0.8,0.2,1.6,0.6,2.4C648.5,725.2,649.5,725.5,650.4,725.1z"/>
		<path class="st45" d="M677.5,717.9c1.1,2,5.7,2,10.4-0.2c4.7-2.1,7.6-5.5,6.5-7.6c-1.1-2-5.7-2-10.4,0.2
			C679.4,712.5,676.5,715.9,677.5,717.9z"/>
		<path class="st45" d="M618,745.2c1.1,2,5.7,2,10.4-0.2c4.7-2.1,7.6-5.5,6.5-7.6c-1.1-2-5.7-2-10.4,0.2
			C619.9,739.7,616.9,743.1,618,745.2z"/>
		<path class="st20" d="M604.2,714.9c0.9,0.3,1.9-0.1,2.3-1c0.9-2.3,2.2-4,3.9-5.2c1.7-1.2,3.7-1.9,6.2-2.2c1-0.1,1.7-0.9,1.6-1.8
			c-0.1-0.9-1-1.6-1.9-1.5c-3,0.3-5.8,1.2-8,2.9c-2.2,1.6-4,3.9-5,6.7C602.8,713.6,603.3,714.6,604.2,714.9z"/>
		<path class="st20" d="M663.7,684.9c1-1.2,2.4-2,3.9-2.6c1.5-0.6,3.2-0.8,4.8-0.8c1.4,0,2.6,0.2,3.4,0.6c0.9,0.4,1.9,0,2.4-0.8
			c0.4-0.8,0-1.8-0.9-2.2c-1.4-0.6-3.1-0.9-4.9-0.9c-1.9,0-4,0.3-6.1,1.1c-2,0.7-3.9,1.9-5.4,3.6c-0.6,0.7-0.5,1.8,0.3,2.3
			C662,685.7,663.1,685.6,663.7,684.9z"/>
		<path class="st20" d="M617.3,724.4c1.5-0.5,3.1,0.2,3.8,1.5c0.7,1.4,0.2,3-1.1,3.8c2.1,2.2,4.9,3.2,7.1,2.2
			c2.9-1.3,3.6-5.5,1.6-9.4c-2-3.9-6-6-8.9-4.7C617.6,718.8,616.7,721.4,617.3,724.4z"/>
		<path class="st20" d="M676.5,700.8c-0.7-1.4-0.2-2.9,1.1-3.8c-2.1-2.2-4.9-3.2-7.1-2.2c-2.9,1.3-3.6,5.5-1.6,9.4
			c2,3.9,6,6,8.9,4.7c2.2-1,3.1-3.7,2.6-6.6C678.8,702.8,677.2,702.1,676.5,700.8z"/>
		<path class="st1" d="M621.1,725.9c-0.7-1.4-2.3-2-3.8-1.5c-0.1,0-0.3,0.1-0.4,0.1c-1.6,0.7-2.2,2.5-1.5,4c0.8,1.5,2.6,2.1,4.2,1.4
			c0.1-0.1,0.2-0.1,0.4-0.2C621.3,728.9,621.8,727.3,621.1,725.9z"/>
		<path class="st1" d="M677.6,697c-1.3,0.8-1.8,2.4-1.1,3.8c0.7,1.4,2.3,2,3.8,1.5c0.1,0,0.3-0.1,0.4-0.1c1.6-0.7,2.2-2.5,1.5-4
			c-0.8-1.5-2.6-2.1-4.2-1.4C677.8,696.9,677.7,697,677.6,697z"/>
		<path class="st41" d="M674.4,884.5l-0.4,18.9l-14.3,2.4l-5.8,2.8l-0.1,0l-3.5,1.7c-1.3,0.6-1.7,1.4-1.6,2.1c0.4,2,5.1,4.1,7.9,4.2
			c12.9,0.7,17.6,1.1,23.9-0.6c0.6-0.2,5.3-2.1,5.3-3.8c0,0,0,0,0,0l0.1,0l6.3-27.7l6.4-28.1l1.8-7.7l-25.2-0.7l-0.2,9.3
			L674.4,884.5z"/>
		<path class="st42" d="M686.3,629.2c2.6-1.5,5.3-2.4,8.9-2.9c10.9-1.6,24.4,0.1,31.6,8.9c-5.8-27.5-20.3-35.8-33.3-35.6
			c-8.7,0.2-16.2,1.6-22.3,8.4c-2.4,2.7-4.6,7.6-5.7,12.8c5.4,0.3,13.8,3.5,15.8,4.5C683.8,626.7,685.4,628,686.3,629.2z"/>
		<path class="st42" d="M526.3,708.1c1.1,2,2.2,4.1,3.6,6.2c-0.1-1.1-0.1-2.1,0-3.2c0.1-1.3,0.3-2.5,0.7-3.7
			c0.7-2.6,1.9-5.1,3.5-7.5c1.9-2.9,4.4-5.5,7.1-7.8c1.9-1.6,3.8-3,5.9-4.3c2.1-1.3,4.1-2.2,6-2.8c0.5-0.1,0.9-0.3,1.4-0.4
			c1.5-0.3,3.1-0.5,4.9-0.6c-0.6-5,1.9-13.7,2.8-15.7c0.7-1.6,1.4-2.9,2.2-3.8c-4.3-2.8-9-4.8-12.5-5.3c-9.4-1.3-16,2.4-22.6,7.8
			c-4.9,4-8.5,9.8-9,17.6c-0.3,3.9,0.3,8.4,1.8,13.3c0.7,2.3,1.7,4.8,2.9,7.3C525.4,706.2,525.8,707.2,526.3,708.1z"/>
		<path class="st46" d="M559.4,684.1c0,0.2,0.1,0.4,0.1,0.6c0.5,2.7,2.1,4,5.8,1.8c0.4-0.2,0.7-0.5,1-0.7c0.6-0.5,1.1-1,1.6-1.6
			c2.4-3,3.6-7.2,4.5-10.2c0.1-0.4,0.2-0.8,0.3-1.1c0.8-3.7,0.2-6.9-1.2-8.9c-1.7-2.4-4.5-2.7-7.1,0.6c-0.7,1-1.5,2.2-2.2,3.8
			C561.3,670.4,558.8,679.1,559.4,684.1z"/>
		<path class="st46" d="M665.1,629.6c2.8,2.1,6.4,3.5,9.1,4.5c1.6,0.6,3.1,1,4.6,1.1c1.7,0.2,3.2,0.1,4.5-0.2
			c1.4-0.3,2.5-0.9,3.2-1.7c1-1.1,1.1-2.6-0.1-4.2c-0.9-1.2-2.5-2.5-5-3.8c-2-1-10.4-4.3-15.8-4.5c-3.2-0.2-5.3,0.8-4.3,3.9
			c0.1,0.4,0.3,0.8,0.5,1.3C662.5,627.4,663.7,628.6,665.1,629.6z"/>
		<path class="st40" d="M276.3,782.3L276.3,782.3c-1.3-2.9-2.4-5.7-3.3-8.5h0c0,0,0,0,0-0.1c-0.2-0.6-0.4-1.3-0.6-1.9
			c-0.1-0.2-0.1-0.4-0.2-0.6h0c-0.9-2.7-1.6-5.3-2.2-7.8l-10.4,8.4l3.5,24.3c0,0,4.5-12.1,13.7-12.8c-0.1-0.2-0.2-0.5-0.3-0.7
			C276.4,782.5,276.4,782.4,276.3,782.3z"/>
		<path class="st40" d="M310.6,765.1c-0.1,0.2-0.1,0.4-0.2,0.6c-0.3,1.1-0.6,2.2-1,3.3c-0.1,0.3-0.2,0.5-0.3,0.8
			c-0.2,0.5-0.3,1.1-0.5,1.6h0c-0.1,0.2-0.2,0.4-0.2,0.7c-0.1,0.3-0.2,0.5-0.3,0.8c-0.1,0.2-0.1,0.4-0.2,0.6
			c-0.1,0.2-0.1,0.4-0.2,0.5c0,0,0,0,0,0h0c-0.4,1-0.7,2-1.2,3c-0.1,0.3-0.2,0.6-0.4,0.9c-0.5,1.1-0.9,2.3-1.5,3.5
			c-0.1,0.1-0.1,0.2-0.2,0.4c-0.1,0.2-0.2,0.5-0.3,0.7h0c0,0.1-0.1,0.2-0.1,0.2c-0.1,0.2-0.2,0.5-0.3,0.7c9.5,0.4,13.9,13,13.9,13
			l3.9-24.3l-1.3-1.1l-9.3-7.7C310.9,763.9,310.8,764.5,310.6,765.1z"/>
		<path class="st47" d="M302.3,786.9c0.1-0.1,0.1-0.2,0.1-0.3c0,0,0,0.1-0.1,0.1C302.3,786.8,302.3,786.8,302.3,786.9z"/>
		<path class="st47" d="M279.5,718.7c-1.2,2.7-2.1,5.4-2.9,8.1c-2.3,8.7-2.6,17.9-2.1,26.8c0.1,2.2,0.3,4.4,0.9,6.6
			c0.4,1.6,1.1,3.2,2.5,4.3c2.8,2.3,6.8,2.4,10.4,2.2l0.6-3.7l0.8,0l0.8,0l1.6,0l0.6,3.5c3.5,0,7.1,0,10.5-1c3-0.9,4-2.4,5.6-4.9
			c3.8-5.7,3.4-14.3,3.4-20.8c0-1.9-0.1-3.8-0.2-5.8c-1.4-6.6-3.9-11.9-6.7-16.3C294.9,721.5,284.6,719.9,279.5,718.7z M305.1,739.4
			c0,7.5-6.6,13.6-14.6,13.5c-8,0-14.4-6.2-14.4-13.7c0-7.5,6.6-13.6,14.6-13.5C298.7,725.7,305.1,731.8,305.1,739.4z"/>
		<path class="st47" d="M300.4,790.6c0.6-1.2,1.2-2.4,1.8-3.6h0C301.6,788.2,301,789.4,300.4,790.6z"/>
		<path class="st47" d="M311.7,760.6c0.2-0.7,0.3-1.5,0.4-2.2c-0.2,1-0.4,2.1-0.6,3.1C311.5,761.3,311.6,761,311.7,760.6z"/>
		<path class="st47" d="M306.7,777.1c0.4-1,0.8-2,1.2-3h0C307.4,775.1,307.1,776.1,306.7,777.1z"/>
		<path class="st47" d="M308.2,772.9c0.1-0.3,0.2-0.5,0.3-0.8c-0.1,0.2-0.1,0.4-0.2,0.5C308.3,772.8,308.2,772.9,308.2,772.9z"/>
		<path class="st47" d="M308.7,771.5c0.2-0.6,0.4-1.1,0.5-1.6C309.1,770.4,308.9,770.9,308.7,771.5L308.7,771.5z"/>
		<path class="st47" d="M304.4,782.5c0.1-0.2,0.2-0.5,0.3-0.7C304.6,782,304.5,782.3,304.4,782.5L304.4,782.5z"/>
		<path class="st47" d="M307.8,774c0.1-0.2,0.1-0.4,0.2-0.5c0,0.1-0.1,0.2-0.1,0.2C307.9,773.8,307.8,773.9,307.8,774z"/>
		<path class="st47" d="M303.8,783.7c-0.3,0.7-0.6,1.3-0.9,2c0.4-0.7,0.7-1.5,1-2.2c0.1-0.2,0.2-0.5,0.3-0.7
			C304.1,783,303.9,783.4,303.8,783.7z"/>
		<path class="st47" d="M311.1,763.4c0.1-0.4,0.2-0.7,0.3-1.1c-0.2,0.9-0.4,1.9-0.7,2.8C310.8,764.5,310.9,763.9,311.1,763.4z"/>
		<path class="st48" d="M308.8,760.7c-1.7,2.5-2.6,4-5.6,4.9c-3.4,1-7,1-10.5,1l0.8,4.8l15.3,0.1c0.2-0.5,0.4-1.1,0.6-1.6
			c0.1-0.3,0.2-0.5,0.3-0.8c0.3-1.1,0.7-2.2,1-3.3c0.1-0.2,0.1-0.4,0.2-0.6c0.2-0.9,0.5-1.9,0.7-2.8c0.1-0.2,0.1-0.5,0.2-0.7
			c0.2-1.1,0.4-2.1,0.6-3.1c0-0.2,0.1-0.4,0.1-0.7c0.2-0.9,0.3-1.8,0.4-2.6c0-0.2,0.1-0.4,0.1-0.5c0.1-1,0.2-2,0.3-2.9
			c0-0.2,0-0.4,0.1-0.6c0.1-0.9,0.1-1.7,0.1-2.5c0-0.1,0-0.2,0-0.4c0-0.9,0-1.8,0-2.7c0-0.2,0-0.4,0-0.6c0-0.8,0-1.7-0.1-2.5
			c0-0.1,0-0.1,0-0.2c-0.1-0.9-0.1-1.7-0.2-2.5c0-0.2,0-0.4-0.1-0.5c-0.2-1.7-0.5-3.2-0.8-4.8c0-0.1,0-0.2,0-0.3c0,0,0,0,0,0
			c0.1,1.9,0.2,3.8,0.2,5.8C312.2,746.4,312.6,755,308.8,760.7z"/>
		<path class="st48" d="M293,787l-0.7,3.6l8.1,0c0.6-1.2,1.2-2.4,1.8-3.6L293,787z"/>
		<path class="st48" d="M278.4,786.9c0.6,1.2,1.2,2.4,1.8,3.6l8.1,0l-0.6-3.6L278.4,786.9z"/>
		<path class="st48" d="M302.3,786.7c0,0,0-0.1,0.1-0.1c0.2-0.3,0.3-0.6,0.5-1c0.3-0.7,0.6-1.3,0.9-2
			C303.3,784.7,302.9,785.7,302.3,786.7z"/>
		<path class="st48" d="M276.3,782.3l10.5,0.1l-0.7-3.8l0.8-4.7l-14-0.1C274,776.6,275.1,779.4,276.3,782.3z"/>
		<path class="st48" d="M287.4,771.4l0.8-4.6c-3.6,0.1-7.5,0-10.4-2.2c-1.4-1.1-2-2.7-2.5-4.3c-0.5-2.1-0.8-4.4-0.9-6.6
			c-0.5-8.9-0.2-18.1,2.1-26.8c0.7-2.7,1.7-5.5,2.9-8.1c-2.1-0.5-3.3-1-3.3-1c-6.3,9.5-11.3,24.3-6.3,45.7c0.6,2.5,1.3,5.1,2.2,7.8
			L287.4,771.4z"/>
		<path class="st48" d="M276.8,783.3c0.5,1.1,1,2.3,1.6,3.4c-0.7-1.4-1.3-2.8-1.9-4.1C276.6,782.9,276.7,783.1,276.8,783.3z"/>
		<path class="st48" d="M293.8,774l0.7,4.7l-0.7,3.8l10.5,0.1c0.1-0.2,0.2-0.5,0.3-0.7c0.1-0.1,0.1-0.2,0.2-0.4
			c0.5-1.2,1-2.3,1.5-3.5c0.1-0.3,0.2-0.6,0.4-0.9c0.4-1,0.8-2,1.1-3L293.8,774z"/>
		<path class="st48" d="M307.9,773.7c0-0.1,0.1-0.2,0.1-0.2c0.1-0.2,0.1-0.4,0.2-0.6c0-0.1,0.1-0.2,0.1-0.2
			C308.2,773,308,773.4,307.9,773.7z"/>
		<path class="st49" d="M303.8,783.7c0.1-0.3,0.3-0.6,0.5-1c0-0.1,0.1-0.2,0.1-0.2h0h0l-10.5-0.1L293,787l9.2,0.1h0h0
			c0-0.1,0-0.1,0.1-0.2c0-0.1,0.1-0.1,0.1-0.2C302.9,785.7,303.3,784.7,303.8,783.7z"/>
		<path class="st49" d="M286.9,782.4l-10.5-0.1h0c0,0.1,0.1,0.2,0.1,0.3c0.6,1.4,1.2,2.7,1.9,4.1c0,0,0,0.1,0.1,0.1h0l9.2,0.1
			L286.9,782.4z"/>
		<path class="st49" d="M272.1,771.3c0.1,0.2,0.1,0.4,0.2,0.6c0.2,0.6,0.4,1.3,0.6,1.9c0,0,0,0,0,0.1h0l14,0.1l0.4-2.6L272.1,771.3
			L272.1,771.3z"/>
		<path class="st49" d="M293.4,771.4l0.4,2.6l14,0.1h0h0c0,0,0,0,0,0c0-0.1,0.1-0.2,0.1-0.3c0.1-0.3,0.2-0.7,0.4-1
			c0.1-0.2,0.1-0.4,0.2-0.5c0.1-0.2,0.2-0.4,0.2-0.7h0h0L293.4,771.4z"/>
		<path class="st40" d="M305.3,717.9C305.3,717.9,305.3,717.9,305.3,717.9c0,0-0.1-0.1-0.1-0.1c-0.4-0.6-0.7-1.1-1.1-1.6
			c0,0-0.1-0.1-0.1-0.1c-0.4-0.5-0.8-1-1.2-1.5c0,0,0,0,0-0.1c-0.4-0.5-0.8-1-1.2-1.4c-0.1-0.1-0.1-0.1-0.2-0.2
			c-0.4-0.4-0.8-0.9-1.1-1.3c0-0.1-0.1-0.1-0.1-0.2c-0.4-0.4-0.8-0.8-1.1-1.2c0,0,0,0,0,0c-0.4-0.4-0.8-0.8-1.1-1.1
			c0,0-0.1-0.1-0.1-0.1c-0.4-0.3-0.7-0.6-1-0.9c0,0-0.1-0.1-0.1-0.1c-0.3-0.3-0.7-0.6-1-0.8c0,0-0.1-0.1-0.1-0.1
			c-0.7-0.5-1.3-1-1.8-1.4c0,0-0.1-0.1-0.1-0.1c-0.3-0.2-0.5-0.4-0.7-0.5c0,0-0.1-0.1-0.1-0.1c-0.2-0.2-0.4-0.3-0.6-0.4c0,0,0,0,0,0
			c-0.2-0.1-0.4-0.2-0.5-0.3c0,0,0,0,0,0c-0.2-0.1-0.3-0.2-0.4-0.2c0,0,0,0,0,0c-0.1-0.1-0.2-0.1-0.2-0.1c0,0,0,0,0,0
			c0,0-0.1,0-0.1,0s0,0-0.1,0c0,0,0,0,0,0c-0.1,0-0.1,0.1-0.2,0.1c0,0,0,0-0.1,0c-0.1,0.1-0.2,0.1-0.4,0.2c0,0,0,0,0,0
			c-0.2,0.1-0.3,0.2-0.5,0.3c0,0,0,0,0,0c-0.2,0.1-0.4,0.3-0.6,0.4c0,0-0.1,0-0.1,0.1c-0.2,0.2-0.5,0.3-0.7,0.5c0,0-0.1,0.1-0.1,0.1
			c-0.6,0.4-1.2,0.9-1.8,1.4c0,0-0.1,0-0.1,0.1c-0.3,0.3-0.7,0.5-1,0.8c0,0-0.1,0.1-0.1,0.1c-0.3,0.3-0.7,0.6-1.1,0.9
			c0,0-0.1,0.1-0.1,0.1c-0.4,0.3-0.8,0.7-1.1,1.1c0,0,0,0,0,0c-0.4,0.4-0.8,0.8-1.2,1.2c0,0.1-0.1,0.1-0.2,0.2
			c-0.4,0.4-0.8,0.8-1.1,1.3c-0.1,0.1-0.1,0.1-0.2,0.2c-0.4,0.5-0.8,0.9-1.2,1.4c0,0,0,0,0,0.1c-0.4,0.5-0.8,1-1.2,1.5
			c0,0-0.1,0.1-0.1,0.1c-0.4,0.5-0.7,1-1.1,1.6c0,0-0.1,0.1-0.1,0.1l0,0c0,0,1.2,0.5,3.3,1C284.6,719.9,294.9,721.5,305.3,717.9z"/>
		<path class="st50" d="M276.2,739.2c0,7.5,6.4,13.6,14.4,13.7c8,0,14.5-6,14.6-13.5c0-7.5-6.4-13.6-14.4-13.7
			C282.7,725.6,276.2,731.7,276.2,739.2z M291.2,728.9c1.5,0,2.9,0.4,4.2,1l-0.1,0.1c0.6,0.3,1.2,0.6,1.7,1l0.1-0.1
			c0.5,0.3,0.9,0.7,1.3,1.1c0.5,0.4,0.9,0.9,1.2,1.4l-0.1,0.1c0.6,0.8,1.1,1.8,1.5,2.8l0,0c0.2,0.7,0.3,1.3,0.4,2c0,0,0,0.1,0,0.1
			c0,0.1,0,0.2,0,0.3l0,0c0,0.2,0,0.5,0,0.7c0,5.7-5,10.2-11.1,10.2c-0.2,0-0.4,0-0.6,0l0,0c-0.9,0-1.7-0.2-2.6-0.4l0,0
			c-1.1-0.3-2.1-0.8-3-1.4l0,0c-0.5-0.3-1-0.7-1.5-1.2c0,0,0,0,0,0c-2-1.9-3.3-4.5-3.2-7.3c0-5.7,5-10.2,11.1-10.2
			c0.1,0,0.3,0,0.4,0L291.2,728.9z"/>
		<path class="st51" d="M287.3,749.1l13.8-12.8c-0.3-1-0.8-1.9-1.5-2.8l-15.4,14.3C285.3,748.3,286.3,748.8,287.3,749.1z"/>
		<path class="st51" d="M290.6,749.5c6.1,0,11.1-4.5,11.1-10.2c0-0.2,0-0.5,0-0.7l-11.7,10.9C290.1,749.5,290.3,749.5,290.6,749.5z"
			/>
		<path class="st51" d="M279.6,739.2c0,2.9,1.2,5.4,3.2,7.3c-0.4-0.4-0.8-0.8-1.1-1.2l15.4-14.3c-0.5-0.4-1.1-0.7-1.7-1l-14.7,13.6
			c-0.6-1.3-0.9-2.6-1-4l11.4-10.6c-0.1,0-0.3,0-0.4,0C284.6,729,279.6,733.5,279.6,739.2z"/>
		<path class="st52" d="M282.8,746.5C282.8,746.5,282.8,746.5,282.8,746.5c0.5,0.5,1,0.9,1.5,1.2l0,0l15.4-14.3l0.1-0.1
			c-0.4-0.5-0.8-1-1.2-1.4c-0.4-0.4-0.9-0.8-1.3-1.1l-0.1,0.1l-15.4,14.3C282,745.7,282.4,746.1,282.8,746.5z"/>
		<path class="st52" d="M287.3,749.1c0.8,0.2,1.7,0.4,2.6,0.4l0,0l11.7-10.9l0,0c0-0.1,0-0.2,0-0.3c0,0,0-0.1,0-0.1
			c-0.1-0.7-0.2-1.4-0.4-2l0,0L287.3,749.1L287.3,749.1z"/>
		<path class="st52" d="M280.7,743.6l14.7-13.6l0.1-0.1c-1.3-0.6-2.8-0.9-4.2-1l-0.1,0.1l-11.4,10.6
			C279.7,741,280.1,742.4,280.7,743.6z"/>
		<polygon class="st40" points="293.8,782.4 294.5,778.6 293.8,774 293.4,771.4 292.6,766.6 292.1,763.1 290.5,763.1 289.7,763.1 
			288.9,763.1 288.2,766.7 287.4,771.4 287,773.9 286.2,778.6 286.9,782.4 287.7,787 288.3,790.6 289.4,797.1 290.2,797.1 
			291.1,797.1 292.3,790.6 293,787 		"/>
	</g>
</g>
</svg>
