<svg id="Calque_1" data-name="Calque 1" xmlns="http://www.w3.org/2000/svg" viewBox="0 0 1000 1000"><defs><style>.cls-1{fill:#a11841;}.cls-2{fill:#fff;}.cls-3{fill:none;stroke:#fff;stroke-miterlimit:10;}</style></defs><rect class="cls-1" x="-8.12" y="-8.12" width="1016.24" height="1016.24" rx="2.93"/><path class="cls-2" d="M73.11,253.65q0-26.22,17.23-35.09-17.24-8.88-17.23-35.09V142.08q0-55.53,55.53-55.66T184,142.08v41.39q0,26.22-17.22,35.09Q184,227.43,184,253.65v42.54q0,55.67-55.4,55.66T73.11,296.19Zm42.42-70.44q0,15,13,15t13.11-15V142.08q-.37-14.54-13-14.53t-13.11,14.53Zm0,113q.39,14.54,13.11,14.53t13-14.53V253.65q0-12.21-4.11-14-2.31-1-8.36-1c-1.11,0-2.27,0-3.47.13q-10.16.39-10.15,14.91Z"/><path class="cls-2" d="M345.83,166.54,349.72,196H335.94l-2.26-17.06H323.63L321.33,196H307.59l3.9-29.33,8.33-52.79h17.72Zm-13.91-.74-3.28-24.86-3.28,24.86Z"/><path class="cls-2" d="M391.28,179.54q0,17.73-17.72,17.77t-17.68-17.77V130.32q0-17.73,17.68-17.73t17.72,17.73V142H377.62V130.32c0-3.07-1.34-4.61-4-4.64h-.08c-2.66,0-4,1.55-4,4.64v49.22q0,4.64,4,4.64c2.7,0,4.06-1.55,4.06-4.64V167.89h13.66Z"/><path class="cls-2" d="M435.3,179.54q0,17.73-17.73,17.77t-17.68-17.77V130.32q0-17.73,17.68-17.73t17.73,17.73V142H421.64V130.32c0-3.07-1.35-4.61-4-4.64h-.09q-4,0-4,4.64v49.22q0,4.64,4,4.64t4.07-4.64V167.89H435.3Z"/><path class="cls-2" d="M444.73,113.87h32.16V127h-18.5v21.42h15.92v13.12H458.39v21.42h18.5V196H444.73Zm1.48-13.5h10.58l13,12H458.11l-11.9-7.71Z"/><path class="cls-2" d="M482.64,130.32q0-17.73,17.68-17.73T518,130.32V142H504.38V130.32c0-3.07-1.34-4.61-4-4.64h-.08c-2.66,0-4,1.55-4,4.64v7.3q0,5,10.5,12.55,11.23,8,11.24,19.2v10.17q0,17.78-17.68,17.77t-17.72-17.77V167.89H496.3v11.65q0,4.64,4.06,4.64t4-4.64v-9.19q0-5.44-10.5-13-11.25-8-11.24-19.49Z"/><path class="cls-2" d="M563.25,166.54,567.14,196H553.36l-2.26-17.06H541.05L538.76,196H525l3.9-29.33,8.33-52.79H555ZM531.5,100.37h10.58l13,12H543.39l-11.89-7.71Zm17.84,65.43-3.28-24.86-3.28,24.86Z"/><path class="cls-2" d="M593.48,113.87h18.91q16.5,0,16.49,17.76v46.64q0,17.68-17.18,17.72H593.48ZM607.14,127v56h4.06q4,0,4-4.64V131.63q0-4.68-4-4.68Z"/><path class="cls-2" d="M638.73,113.87h32.16V127h-18.5v21.42h15.92v13.12H652.39v21.42h18.5V196H638.73Z"/><path class="cls-2" d="M678.69,130.32q0-17.73,17.68-17.73t17.72,17.73V142H700.43V130.32c0-3.07-1.34-4.61-4-4.64h-.08c-2.66,0-4,1.55-4,4.64v7.3q0,5,10.5,12.55,11.24,8,11.24,19.2v10.17q0,17.78-17.68,17.77t-17.72-17.77V167.89h13.66v11.65q0,4.64,4.06,4.64t4-4.64v-9.19q0-5.44-10.5-13-11.25-8-11.24-19.49Z"/><path class="cls-2" d="M311.28,214.68h32.17v13.09H325v21.41h15.91v13.13H325v21.42h18.5v13.08H311.28Z"/><path class="cls-2" d="M378.36,269.12,391,214.68h13.5v82.13H391.32V259l-8,37.78h-9.6l-8.33-38v38H352.06V214.68h13.5Z"/><path class="cls-2" d="M415.15,214.68h17.93q16.5,0,16.49,17.77v12.1q0,13-11.77,16.86a28.19,28.19,0,0,1-8.12.9h-.87v34.5H415.15Zm13.66,13.09v21.41h1.65a10.54,10.54,0,0,0,2.87-.24q2.58-1,2.58-4.39v-12.1q0-4.68-4-4.68Z"/><path class="cls-2" d="M458.19,296.81V214.68h13.66v69.05h18.5v13.08Z"/><path class="cls-2" d="M531.91,280.36q0,17.73-17.73,17.76T496.5,280.36V231.13q0-17.72,17.68-17.72t17.73,17.72Zm-13.66-49.23c0-3.06-1.35-4.6-4-4.63h-.08q-4,0-4,4.63v49.23q0,4.63,4,4.64t4.07-4.64Z"/><path class="cls-2" d="M542,214.68h13.66v82.13H542Z"/><path class="cls-2" d="M565.67,231.13q0-17.72,17.68-17.72t17.72,17.72v11.65H587.41V231.13q0-4.59-4-4.63h-.08c-2.66,0-4,1.54-4,4.63v7.31q0,5,10.5,12.55,11.24,8,11.24,19.2v10.17q0,17.76-17.68,17.76t-17.72-17.76V268.71h13.66v11.65q0,4.63,4.06,4.64t4-4.64v-9.19q0-5.44-10.5-13-11.25-8-11.24-19.49Z"/><path class="cls-2" d="M631.75,214.68h18.92q16.49,0,16.49,17.77v46.64q0,17.69-17.19,17.72H631.75Zm13.67,13.09v56h4.06q4,0,4-4.64V232.45q0-4.68-4-4.68Z"/><path class="cls-2" d="M677,214.68h32.17v13.09H690.66v21.41h15.92v13.13H690.66v21.42h18.51v13.08H677Zm30.69-9.19-11.9,7.72H684.06l13-12h10.59Z"/><path class="cls-2" d="M750.31,280.36q0,17.73-17.72,17.76t-17.68-17.76V231.13q0-17.72,17.68-17.72t17.72,17.72v11.65H736.65V231.13q0-4.59-4-4.63h-.08q-4,0-4,4.63v49.23q0,4.63,4,4.64t4.06-4.64V268.71h13.66Z"/><path class="cls-2" d="M759.75,214.68h32.16v13.09h-18.5v21.41h15.91v13.13H773.41v21.42h18.5v13.08H759.75Z"/><path class="cls-2" d="M800.52,214.68H814l9.11,40.45V214.68h12.8v82.13h-13.5l-8.7-39.34v39.34H800.52Z"/><path class="cls-2" d="M878.71,214.68v13.09H867.84v69H854.18v-69H843.31V214.68Z"/><path class="cls-2" d="M885.28,231.13q0-17.72,17.68-17.72t17.72,17.72v11.65H907V231.13q0-4.59-4-4.63h-.08c-2.66,0-4,1.54-4,4.63v7.31q0,5,10.5,12.55,11.23,8,11.24,19.2v10.17q0,17.76-17.68,17.76t-17.72-17.76V268.71h13.66v11.65q0,4.63,4.06,4.64t4-4.64v-9.19q0-5.44-10.5-13-11.25-8-11.24-19.49Z"/><line class="cls-3" x1="712.45" y1="389.34" x2="706.68" y2="395.11"/><path class="cls-3" d="M265.93,672.86a4.56,4.56,0,0,1-.89.62"/><path class="cls-2" d="M740.9,360.94,736,379.14l-9.58,35.74-13.11-13.05-218.94,219-81.55-81.55C350.17,603.63,277.75,677.17,270,681l-4.09-8.18L260,661c-.23.11-.51.28-.9.5,8.85-6.33,94-92.92,145.57-146l7.9-8.18,81.83,81.77L697.55,386l-10.64-10.59,29-7.79Z"/><polygon class="cls-2" points="287.19 719.85 399.1 607.94 399.1 887.21 287.19 887.21 287.19 719.85"/><polygon class="cls-2" points="439.43 633.15 490.85 684.57 558.39 624.08 558.39 887.21 439.43 887.21 439.43 633.15"/><polygon class="cls-2" points="590.65 589.8 705.59 474.86 705.59 887.21 586.62 887.21 590.65 589.8"/></svg>